M48
;Layer_Color=9474304
;FILE_FORMAT=2:5
INCH,TZ
;TYPE=PLATED
T01F00S00C0.00787
T02F00S00C0.01181
T03F00S00C0.03543
T04F00S00C0.04000
T05F00S00C0.04016
T06F00S00C0.06299
;TYPE=NON_PLATED
T07F00S00C0.12795
T08F00S00C0.13386
%
T01
X313386Y11811
X303762Y22484
X511100Y131438
X522195Y171183
Y189787
X313976Y156657
X302415Y165698
X263386Y159019
Y150969
X249728Y154331
X244602
X234104
X233341Y148057
Y141466
Y135221
X231653Y160366
X232668Y163583
X234273Y182113
X231653Y183989
X303267Y118809
X312906Y108809
X302296Y70672
X312629Y59643
X264173Y58268
Y65341
X203271Y141126
X203469Y156874
X29743Y188221
X22444
X-8244Y180865
X-5118Y177559
X-21260Y158268
X-28185Y154331
X-40546Y158268
X-1763Y219134
X1410Y220020
X-590Y234823
X-412Y241446
X23154Y230677
X39649Y230842
X39375Y224825
X57814Y230842
X46963Y203031
X201883Y247317
X201813Y253232
X200017Y261097
X201194Y268788
Y274876
X243140Y257160
X242053Y253243
X249728Y253002
X254724Y259451
X264496Y257573
X264348Y250264
X264606Y296854
Y303937
X284327Y301514
X283465Y310502
X304821Y311514
X314300Y301514
X304216Y263065
X314816Y253002
X305255Y215198
X314961Y203543
X529310Y261116
X513984Y305098
X314567Y349795
X304216Y359451
T02
X64041Y23070
X75937Y21057
X80044Y27660
X118884Y25984
X157343Y21337
X184584Y30042
X205512Y32677
X268700Y24200
X277311Y26784
X290795Y30438
X303267Y32104
X320995Y21925
X320541Y7299
X292322Y10719
X374410Y10701
X378076Y26252
X395951Y27618
X400277Y18105
X404642Y21925
X439370Y11095
X436900Y3000
X451255Y7695
X463903Y20700
X469267
X469267Y16047
X469267Y32998
X518379Y28992
X481605Y45700
X481642Y56453
X488583Y64000
Y70500
X469562Y67050
X464198Y67023
X468625Y80175
X460996Y81711
X439370Y88653
X441653Y108057
X453492Y103712
X466082Y117304
X471226
X470508Y130456
X463154Y131757
X441947Y135398
X440958Y155496
X455033Y152756
X467465Y165600
X472829
X471892Y178304
X464495Y179605
X440958Y183526
X404529Y186657
X388338Y185868
Y180010
X403861Y164742
X400677Y161018
X400307Y154408
X395660Y143600
X403146Y138938
X386962Y138021
Y132162
X406741Y120876
X402238Y116142
X399340Y113044
X398819Y106299
X393519Y94400
X401262Y88976
X385578Y87874
Y81711
X397409Y62763
X400607Y64786
X405146Y69122
X396612Y56200
X400967Y44200
X388044Y46700
X439370Y43124
Y57776
X451765Y54376
X460996Y34795
X506000Y168733
X408537Y168937
X381671Y171137
X382279Y180110
X378231Y155496
X379662Y132730
Y123809
X376395Y107768
X379615Y81981
X379163Y72481
X374847Y57264
X384646Y41192
X383400Y35337
X378278Y34528
X320995Y34572
X322441Y40208
X320995Y55068
X321215Y69589
X320747Y82328
X321319Y87847
X320368Y102650
X320747Y117850
Y130453
X321524Y138938
X321332Y150498
X321524Y165698
X321877Y178636
X321709Y184690
X303006Y175935
X290795Y174178
X277409Y169380
X269677Y176657
X281100Y150378
X277982Y122709
X290535Y126480
X301927Y128353
X268155Y129478
X278099Y97207
X279100Y74064
X269421Y80684
X292730Y78926
X303680Y80566
X274016Y54139
X218786Y44094
X211024Y40551
X213705Y65341
X220239Y105466
X218460Y112046
X196908Y105466
X191625Y139152
X192073Y159126
X203271Y148893
X214630
X214460Y166810
X225984Y178924
X201883Y179141
X163916Y180637
X161730Y183465
X161876Y171700
Y168838
X163916Y163984
Y161122
X164521Y152318
Y149455
X138400Y96400
X171443Y71542
X173187Y41339
X118884Y37242
X99875Y34968
X80206Y67323
X74531Y134342
X71381Y139460
X66412Y118245
X55943Y101868
X60592Y96934
X31071Y99606
X19999Y95074
X24659Y108900
X34135Y118245
X30334Y150284
X4782Y145459
X-11000Y126800
X-20435Y127779
X-40962Y135659
Y144882
Y154331
Y163779
Y173228
Y182677
X-24517Y180605
X-25487Y174410
X-31135Y166929
X23950Y70290
X37100Y49700
X47100Y49900
X56499Y57165
X13400Y46300
X-40962Y204724
X-41075Y214173
X-41003Y223622
X-41292Y232914
X-40962Y242520
Y248738
Y255118
X-38469Y258268
X-40962Y261417
Y264500
X17182Y309893
X55693Y333601
X71623Y334741
X88181Y324371
X105168Y312954
X130420Y330360
X155478Y344094
X194991Y340501
Y291350
X218898Y291597
X212598Y284646
Y243380
X206409Y223903
X189020Y230947
X176569Y232565
X178104Y251254
X191204Y251147
X190117Y261024
X170085Y260827
Y256890
X177876Y270939
X163581Y221147
X272977Y225396
X281100Y218555
X292894Y221858
X303937Y224527
X322782Y226601
X323733Y234784
X322979Y246843
X319132Y258532
X322782Y274691
X323560Y283132
X322760Y295355
X323347Y310744
X322979Y323158
X323347Y328670
X323560Y344676
X305185Y321378
X292921Y318962
X276169Y312270
X269677Y313386
X275638Y294500
X270385Y274463
X279597Y268382
X292682Y270248
X304882Y272553
X281919Y241670
X279755Y193053
X322782Y198496
X319332Y209058
X380503Y206105
X384252Y222047
X384646Y230860
X380146Y253906
X383951Y269610
X384040Y278253
X380503Y305105
X384499Y320918
X384646Y329284
X276169Y344676
X391387Y335581
Y329453
X399700Y341200
X407127Y336614
X411694Y318731
X406526Y314030
X403342Y310604
X402525Y304520
X399127Y290200
X406471Y285433
X390551Y284418
Y278660
X410526Y267707
X405914Y263002
X402686Y259404
X403342Y251961
X399700Y242900
X407194Y237795
X391236Y236586
X391387Y230860
X406471Y214900
X403342Y211617
X401982Y204958
X397081Y191300
X411805Y219731
X443003Y207011
X457482Y203543
X470130Y215891
X475494
X473261Y229801
X466928Y230317
X443003Y235600
X440584Y257309
X456898Y250787
X469474Y263664
X474838
X473235Y277207
X466504Y278253
X440958Y282325
X440584Y308810
X457518Y301969
X470130Y314864
X475494Y314891
X475724Y327817
X467350Y329317
X440958Y333239
X444488Y338976
X511811Y329921
X521260Y330150
X524035Y319891
X525662Y316507
X510630Y318003
X525591Y292150
X540800Y294882
X517400Y254800
X520285Y247600
X541732Y328160
X533997Y358825
X518381Y359778
X520000Y355318
X489945Y358825
X480313Y358900
X477064Y364005
X471890
X469086Y378246
X476317Y376945
X459242Y351575
X443383Y358825
X413618Y367659
X408330Y362958
X404994Y359999
X403540Y354034
X385970Y370136
X392913Y378788
Y384509
X405714Y387435
X408954Y385781
X381400Y385800
X382327Y354034
X323560Y360159
X322418Y372663
X322391Y378397
X303150Y370700
X293678Y368729
X275444Y361036
X267426Y362992
X178432Y360130
X168732Y360335
X178432Y348534
X174320Y377801
X145520Y369342
Y354049
X118720Y350501
X105168Y356967
X80920Y352601
X81120Y370201
X8920Y358365
T03
X529500Y161600
Y169600
Y177600
Y185600
X536500Y189600
Y181600
Y173600
Y165600
Y227600
Y235600
Y243600
Y251600
X529500Y247600
Y239600
Y231600
Y223600
T04
X521256Y55400
X531256
Y65400
Y75400
Y85400
Y95400
Y105400
Y115400
Y125400
X521256
Y115400
Y105400
Y95400
Y85400
Y75400
Y65400
T05
X188654Y70672
X198654
T06
X533000Y143600
Y269600
T07
X546500Y150600
Y262600
T08
X539600Y20700
X540400Y375300
M30
