M48
;Layer_Color=9474304
;FILE_FORMAT=2:4
INCH,TZ
;TYPE=PLATED
T1F00S00C0.0079
T2F00S00C0.0118
T3F00S00C0.0354
T4F00S00C0.0400
T5F00S00C0.0402
T6F00S00C0.0630
;TYPE=NON_PLATED
T7F00S00C0.1280
T8F00S00C0.1339
%
T01
X31339Y1181
X30376Y2248
X31263Y5964
X30327Y7067
X26417Y6534
Y5827
X26339Y15097
Y15902
X24973Y15433
X24460
X23410
X23334Y14806
Y14147
Y13522
X23267Y16037
Y16358
X23427Y18211
X23165Y18399
X30368Y16570
X31380Y15666
X30327Y11881
X31339Y10866
X20327Y14113
X20347Y15687
X16188Y18066
Y18274
X16836Y25684
X16836Y25945
X20192Y26119
X20223Y26882
X20213Y27488
X20181Y25323
X20188Y24732
X24333Y25324
X24314Y25716
X24973Y25300
X25394Y25827
X26450Y25757
X26435Y25026
X26461Y29685
Y30394
X28433Y30151
X28346Y30866
X30519Y31151
X31430Y30151
X30472Y26299
X31546Y25300
X30525Y21520
X31496Y20354
X31438Y34979
X30422Y35945
T02
X6404Y2307
X7594Y2106
X8004Y2766
X11888Y2598
X15734Y2134
X18458Y3004
X20551Y3268
X26871Y2550
X27731Y2678
X29080Y3044
X30327Y3210
X32099Y2192
X32054Y730
X29232Y1072
X37441Y1070
X37808Y2625
X39619Y2839
X40028Y1810
X40430Y2177
X43937Y1109
X43690Y300
X45125Y769
X46390Y2070
X46927
X46927Y1605
X46880Y3270
X51838Y2791
X48160Y4570
X48164Y5645
X48858Y6400
Y7050
X46956Y6705
X46420Y6702
X46862Y8018
X46100Y8171
X43937Y8865
X44165Y10806
X45349Y10399
X46608Y11730
X47123
X47051Y13046
X46315Y13176
X44195Y13540
X44096Y15550
X45503Y15276
X46747Y16560
X47283
X47189Y17830
X46449Y17960
X44096Y18353
X40453Y18666
X38834Y18587
Y18001
X40386Y16474
X40068Y16102
X40031Y15441
X39566Y14360
X40315Y13894
X38696Y13802
Y13216
X40674Y12088
X40224Y11614
X39934Y11304
X39882Y10630
X39352Y9440
X40126Y8898
X38558Y8787
Y8171
X39741Y6276
X40059Y6568
X40459Y6845
X39661Y5620
X40097Y4288
X38804Y4670
X43937Y4312
Y5778
X45177Y5438
X46100Y3479
X50750Y16960
X40854Y16894
X38167Y17114
X38228Y18011
X37823Y15550
X37966Y13273
Y12381
X37639Y10777
X37961Y8198
X37916Y7248
X37485Y5726
X38465Y4119
Y3530
X37828Y3453
X32099Y3457
X32152Y4021
X32099Y5507
X32122Y6959
X32075Y8233
X32132Y8785
X32037Y10265
X32075Y11785
Y13045
X32152Y13894
X32133Y15050
X32152Y16570
X32188Y17864
X32171Y18469
X30301Y17593
X29080Y17418
X27741Y16938
X26968Y17666
X28110Y15038
X27798Y12271
X29053Y12648
X30193Y12835
X26816Y12948
X27810Y9721
X27910Y7406
X26942Y8068
X29080Y7893
X30368Y8057
X27402Y5414
X21879Y4409
X21102Y4055
X21370Y6534
X22024Y10547
X21849Y11258
X19691Y10547
X19162Y13915
X19207Y15913
X20327Y14889
X21378Y14882
X21446Y16681
X22598Y17892
X20188Y17914
X16188Y17170
Y16884
X16392Y16398
Y16112
X16452Y15232
Y14946
X13840Y9640
X17144Y7154
X17319Y4134
X11888Y3724
X9988Y3497
X8021Y6732
X7453Y13434
X7099Y13946
X6641Y11825
X6059Y9693
X5512Y10186
X3107Y9961
X2000Y9507
X2466Y10890
X3413Y11825
X3033Y15028
X478Y14546
X-1100Y12680
X-2044Y12778
X-4096Y13566
Y14488
Y15433
Y16378
Y17323
Y18268
X-2452Y18060
X-2549Y17441
X-3114Y16693
X930Y10534
X2466Y7029
X3710Y4970
X4710Y4990
X5650Y5716
X1340Y4630
X-4096Y20472
X-4108Y21417
X-4100Y22362
X-4129Y23291
X-4096Y24252
Y24874
Y25512
X-3966Y25827
X-4096Y26142
Y26450
X1718Y30989
X5511Y33360
X7162Y33474
X8818Y32437
X10517Y31295
X13042Y33036
X15548Y34409
X19499Y34050
Y29135
X21890Y29160
X21260Y28465
Y24338
X20641Y22465
X18902Y23095
X17657Y23256
X17897Y25125
X19120Y25115
X18902Y26110
X17863Y27094
X16358Y22115
X27298Y22540
X28110Y21855
X29289Y22186
X30472Y22452
X32278Y22660
X32373Y23478
X32298Y24684
X31913Y25853
X32278Y27469
X32356Y28313
X32276Y29535
X32335Y31074
X32298Y32316
X32335Y32867
X32278Y34468
X30519Y32138
X29292Y31896
X27617Y31227
X26968Y31339
X27617Y29449
X27039Y27446
X27960Y26742
X29268Y27025
X30488Y27255
X28192Y24167
X27976Y19305
X32278Y19850
X31933Y20986
X38050Y20611
X38425Y22205
X38465Y23086
X38015Y25391
X38395Y26961
X38404Y27825
X38050Y30511
X38450Y32092
X38465Y32928
X27617Y34468
X39139Y33558
Y32945
X39970Y34120
X40713Y33661
X41169Y31873
X40653Y31403
X40334Y31060
X40252Y30452
X39913Y29020
X40647Y28543
X39055Y28442
Y27866
X41053Y26771
X40591Y26300
X40269Y25940
X40334Y25196
X39970Y24290
X40719Y23780
X39124Y23659
X39139Y23086
X40647Y21490
X40334Y21162
X40198Y20496
X39708Y19130
X41181Y21973
X44300Y20701
X45748Y20354
X47013Y21589
X47549
X47326Y22980
X46693Y23032
X44300Y23560
X44058Y25731
X45690Y25079
X46947Y26366
X47484
X47323Y27721
X46650Y27825
X44096Y28233
X44058Y30881
X45752Y30197
X47013Y31486
X47549Y31489
X47572Y32782
X46735Y32932
X44096Y33324
X44449Y33898
X51181Y32992
X52126Y33015
X52403Y31989
X52566Y31651
X51063Y31800
X52559Y29215
X54080Y29488
X51740Y25480
X52028Y24760
X54173Y32816
X53400Y35882
X52800Y35890
X51838Y35978
X52000Y35532
X48995Y35882
X48031Y35890
X47706Y36400
X47189
X46909Y37825
X47632Y37694
X45924Y35157
X44338Y35882
X41362Y36766
X40833Y36296
X40499Y36000
X40354Y35403
X38597Y37014
X39291Y37879
Y38451
X40485Y38672
X40895Y38578
X38140Y38580
X38233Y35403
X32298Y36016
X32242Y37266
X32239Y37840
X30437Y37061
X29368Y36873
X27544Y36104
X26743Y36299
X17843Y36013
X16873Y36033
X17843Y34853
X17432Y37780
X14552Y36934
Y35405
X11872Y35050
X10517Y35697
X8092Y35260
X8112Y37020
X892Y35837
T03
X52700Y16160
Y16960
Y17760
Y18560
X53400Y18160
Y17360
Y16560
Y18960
Y22760
Y23560
Y24360
Y25160
X52700Y24760
Y23960
Y23160
Y22360
T04
X50750Y5540
Y6540
Y7540
Y8540
Y9540
Y10540
Y11540
Y12540
X51750
Y11540
Y10540
Y9540
Y8540
Y7540
Y6540
Y5540
T05
X18865Y7067
X19865
T06
X53050Y14360
Y26960
T07
X54400Y15060
Y26260
T08
X53960Y2070
X54040Y37530
M30
