G04*
G04 #@! TF.GenerationSoftware,Altium Limited,Altium Designer,22.2.1 (43)*
G04*
G04 Layer_Color=16711935*
%FSLAX25Y25*%
%MOIN*%
G70*
G04*
G04 #@! TF.SameCoordinates,826469F0-98AB-435A-8F14-BB7E7FBFCF61*
G04*
G04*
G04 #@! TF.FilePolarity,Positive*
G04*
G01*
G75*
%ADD13C,0.00394*%
%ADD104C,0.00197*%
D13*
X541500Y326659D02*
Y339659D01*
X548500D01*
Y326659D02*
Y339659D01*
X541500Y326659D02*
X548500D01*
X530300Y346159D02*
Y359159D01*
X537300D01*
Y346159D02*
Y359159D01*
X530300Y346159D02*
X537300D01*
X511300Y326700D02*
Y339700D01*
X518300D01*
Y326700D02*
Y339700D01*
X511300Y326700D02*
X518300D01*
X520800Y326800D02*
Y339800D01*
X527800D01*
Y326800D02*
Y339800D01*
X520800Y326800D02*
X527800D01*
X158720Y55972D02*
Y95342D01*
X106090D02*
X158720D01*
X106090Y55972D02*
Y95342D01*
Y55972D02*
X158720D01*
D104*
X99828Y121001D02*
X99668Y121960D01*
X99206Y122815D01*
X98491Y123473D01*
X97600Y123864D01*
X96632Y123944D01*
X95689Y123705D01*
X94876Y123174D01*
X94279Y122407D01*
X93963Y121487D01*
Y120515D01*
X94279Y119596D01*
X94876Y118829D01*
X95689Y118297D01*
X96632Y118059D01*
X97600Y118139D01*
X98491Y118529D01*
X99206Y119188D01*
X99668Y120043D01*
X99828Y121001D01*
X91172Y302501D02*
X91012Y303460D01*
X90550Y304315D01*
X89835Y304973D01*
X88944Y305364D01*
X87976Y305444D01*
X87033Y305205D01*
X86220Y304674D01*
X85623Y303907D01*
X85307Y302987D01*
Y302015D01*
X85623Y301096D01*
X86220Y300329D01*
X87033Y299797D01*
X87976Y299559D01*
X88944Y299639D01*
X89835Y300029D01*
X90550Y300688D01*
X91012Y301542D01*
X91172Y302501D01*
X164734Y371265D02*
X164574Y372224D01*
X164111Y373079D01*
X163396Y373737D01*
X162506Y374127D01*
X161537Y374208D01*
X160595Y373969D01*
X159781Y373437D01*
X159184Y372670D01*
X158869Y371751D01*
Y370779D01*
X159184Y369860D01*
X159781Y369093D01*
X160595Y368561D01*
X161537Y368322D01*
X162506Y368403D01*
X163396Y368793D01*
X164111Y369451D01*
X164574Y370306D01*
X164734Y371265D01*
X193174Y340501D02*
X193014Y341460D01*
X192551Y342315D01*
X191836Y342973D01*
X190946Y343364D01*
X189977Y343444D01*
X189035Y343205D01*
X188221Y342674D01*
X187624Y341907D01*
X187308Y340987D01*
Y340015D01*
X187624Y339096D01*
X188221Y338329D01*
X189035Y337797D01*
X189977Y337559D01*
X190946Y337639D01*
X191836Y338029D01*
X192551Y338688D01*
X193014Y339543D01*
X193174Y340501D01*
X62734Y357901D02*
X62574Y358860D01*
X62111Y359715D01*
X61396Y360373D01*
X60506Y360764D01*
X59537Y360844D01*
X58595Y360605D01*
X57781Y360074D01*
X57184Y359307D01*
X56868Y358387D01*
Y357415D01*
X57184Y356496D01*
X57781Y355729D01*
X58595Y355197D01*
X59537Y354959D01*
X60506Y355039D01*
X61396Y355429D01*
X62111Y356088D01*
X62574Y356943D01*
X62734Y357901D01*
X233833Y33968D02*
X233673Y34927D01*
X233211Y35782D01*
X232495Y36440D01*
X231605Y36830D01*
X230637Y36911D01*
X229694Y36672D01*
X228881Y36140D01*
X228284Y35373D01*
X227968Y34454D01*
Y33482D01*
X228284Y32563D01*
X228881Y31796D01*
X229694Y31264D01*
X230637Y31025D01*
X231605Y31106D01*
X232495Y31496D01*
X233211Y32154D01*
X233673Y33009D01*
X233833Y33968D01*
X426202Y87874D02*
X426042Y88832D01*
X425579Y89687D01*
X424864Y90346D01*
X423974Y90736D01*
X423005Y90816D01*
X422063Y90578D01*
X421249Y90046D01*
X420652Y89279D01*
X420337Y88360D01*
Y87388D01*
X420652Y86468D01*
X421249Y85701D01*
X422063Y85170D01*
X423005Y84931D01*
X423974Y85011D01*
X424864Y85402D01*
X425579Y86060D01*
X426042Y86915D01*
X426202Y87874D01*
X413602Y57730D02*
X413442Y58689D01*
X412979Y59544D01*
X412264Y60202D01*
X411374Y60592D01*
X410405Y60673D01*
X409463Y60434D01*
X408649Y59902D01*
X408052Y59135D01*
X407736Y58216D01*
Y57244D01*
X408052Y56325D01*
X408649Y55558D01*
X409463Y55026D01*
X410405Y54787D01*
X411374Y54868D01*
X412264Y55258D01*
X412979Y55916D01*
X413442Y56771D01*
X413602Y57730D01*
X448446Y87874D02*
X448286Y88832D01*
X447823Y89687D01*
X447108Y90346D01*
X446218Y90736D01*
X445250Y90816D01*
X444307Y90578D01*
X443494Y90046D01*
X442897Y89279D01*
X442581Y88360D01*
Y87388D01*
X442897Y86468D01*
X443494Y85701D01*
X444307Y85170D01*
X445250Y84931D01*
X446218Y85011D01*
X447108Y85402D01*
X447823Y86060D01*
X448286Y86915D01*
X448446Y87874D01*
X428086Y138155D02*
X427926Y139113D01*
X427463Y139968D01*
X426748Y140627D01*
X425858Y141017D01*
X424889Y141097D01*
X423947Y140859D01*
X423133Y140327D01*
X422536Y139560D01*
X422221Y138641D01*
Y137669D01*
X422536Y136749D01*
X423133Y135982D01*
X423947Y135451D01*
X424889Y135212D01*
X425858Y135292D01*
X426748Y135683D01*
X427463Y136341D01*
X427926Y137196D01*
X428086Y138155D01*
X416534Y108057D02*
X416374Y109016D01*
X415912Y109871D01*
X415196Y110529D01*
X414306Y110919D01*
X413338Y111000D01*
X412395Y110761D01*
X411582Y110229D01*
X410985Y109462D01*
X410669Y108543D01*
Y107571D01*
X410985Y106652D01*
X411582Y105885D01*
X412395Y105353D01*
X413338Y105114D01*
X414306Y105195D01*
X415196Y105585D01*
X415912Y106243D01*
X416374Y107098D01*
X416534Y108057D01*
X450330Y138155D02*
X450170Y139113D01*
X449707Y139968D01*
X448992Y140627D01*
X448102Y141017D01*
X447133Y141097D01*
X446191Y140859D01*
X445377Y140327D01*
X444780Y139560D01*
X444465Y138641D01*
Y137669D01*
X444780Y136749D01*
X445377Y135982D01*
X446191Y135451D01*
X447133Y135212D01*
X448102Y135292D01*
X448992Y135683D01*
X449707Y136341D01*
X450170Y137196D01*
X450330Y138155D01*
X429470Y186002D02*
X429310Y186961D01*
X428847Y187816D01*
X428132Y188474D01*
X427242Y188865D01*
X426273Y188945D01*
X425331Y188706D01*
X424517Y188175D01*
X423920Y187408D01*
X423604Y186488D01*
Y185516D01*
X423920Y184597D01*
X424517Y183830D01*
X425331Y183298D01*
X426273Y183060D01*
X427242Y183140D01*
X428132Y183530D01*
X428847Y184189D01*
X429310Y185044D01*
X429470Y186002D01*
X417918Y155905D02*
X417758Y156863D01*
X417296Y157718D01*
X416580Y158377D01*
X415690Y158767D01*
X414721Y158847D01*
X413779Y158609D01*
X412965Y158077D01*
X412368Y157310D01*
X412053Y156391D01*
Y155419D01*
X412368Y154499D01*
X412965Y153732D01*
X413779Y153201D01*
X414721Y152962D01*
X415690Y153042D01*
X416580Y153433D01*
X417296Y154091D01*
X417758Y154946D01*
X417918Y155905D01*
X451714Y186002D02*
X451554Y186961D01*
X451091Y187816D01*
X450376Y188474D01*
X449486Y188865D01*
X448517Y188945D01*
X447575Y188706D01*
X446761Y188175D01*
X446164Y187408D01*
X445849Y186488D01*
Y185516D01*
X446164Y184597D01*
X446761Y183830D01*
X447575Y183298D01*
X448517Y183060D01*
X449486Y183140D01*
X450376Y183530D01*
X451091Y184189D01*
X451554Y185044D01*
X451714Y186002D01*
X425908Y41192D02*
X425748Y42151D01*
X425285Y43006D01*
X424570Y43664D01*
X423680Y44054D01*
X422711Y44135D01*
X421769Y43896D01*
X420955Y43365D01*
X420358Y42597D01*
X420042Y41678D01*
Y40706D01*
X420358Y39787D01*
X420955Y39020D01*
X421769Y38488D01*
X422711Y38249D01*
X423680Y38330D01*
X424570Y38720D01*
X425285Y39378D01*
X425748Y40233D01*
X425908Y41192D01*
X414356Y11095D02*
X414196Y12053D01*
X413733Y12908D01*
X413018Y13566D01*
X412128Y13957D01*
X411159Y14037D01*
X410217Y13799D01*
X409403Y13267D01*
X408806Y12500D01*
X408491Y11581D01*
Y10609D01*
X408806Y9689D01*
X409403Y8922D01*
X410217Y8390D01*
X411159Y8152D01*
X412128Y8232D01*
X413018Y8623D01*
X413733Y9281D01*
X414196Y10136D01*
X414356Y11095D01*
X448152Y41192D02*
X447992Y42151D01*
X447529Y43006D01*
X446814Y43664D01*
X445924Y44055D01*
X444955Y44135D01*
X444013Y43896D01*
X443199Y43365D01*
X442602Y42597D01*
X442286Y41678D01*
Y40706D01*
X442602Y39787D01*
X443199Y39020D01*
X444013Y38488D01*
X444955Y38249D01*
X445924Y38330D01*
X446814Y38720D01*
X447529Y39378D01*
X447992Y40233D01*
X448152Y41192D01*
X454378Y236715D02*
X454218Y237674D01*
X453756Y238529D01*
X453041Y239187D01*
X452150Y239577D01*
X451182Y239658D01*
X450240Y239419D01*
X449426Y238887D01*
X448829Y238120D01*
X448513Y237201D01*
Y236229D01*
X448829Y235310D01*
X449426Y234543D01*
X450240Y234011D01*
X451182Y233772D01*
X452150Y233853D01*
X453041Y234243D01*
X453756Y234901D01*
X454218Y235756D01*
X454378Y236715D01*
X432134Y236715D02*
X431974Y237674D01*
X431512Y238529D01*
X430797Y239187D01*
X429906Y239577D01*
X428938Y239658D01*
X427995Y239419D01*
X427182Y238887D01*
X426585Y238120D01*
X426269Y237201D01*
Y236229D01*
X426585Y235310D01*
X427182Y234542D01*
X427995Y234011D01*
X428938Y233772D01*
X429906Y233853D01*
X430797Y234243D01*
X431512Y234901D01*
X431974Y235756D01*
X432134Y236715D01*
X420583Y206617D02*
X420423Y207576D01*
X419960Y208431D01*
X419245Y209089D01*
X418355Y209480D01*
X417386Y209560D01*
X416444Y209321D01*
X415630Y208790D01*
X415033Y208023D01*
X414718Y207103D01*
Y206131D01*
X415033Y205212D01*
X415630Y204445D01*
X416444Y203913D01*
X417386Y203675D01*
X418355Y203755D01*
X419245Y204145D01*
X419960Y204804D01*
X420423Y205659D01*
X420583Y206617D01*
X431478Y284515D02*
X431319Y285474D01*
X430856Y286329D01*
X430141Y286987D01*
X429250Y287377D01*
X428282Y287458D01*
X427340Y287219D01*
X426526Y286687D01*
X425929Y285920D01*
X425613Y285001D01*
Y284029D01*
X425929Y283110D01*
X426526Y282343D01*
X427340Y281811D01*
X428282Y281572D01*
X429250Y281653D01*
X430141Y282043D01*
X430856Y282701D01*
X431319Y283556D01*
X431478Y284515D01*
X453722Y284515D02*
X453562Y285474D01*
X453100Y286329D01*
X452385Y286987D01*
X451495Y287377D01*
X450526Y287458D01*
X449584Y287219D01*
X448770Y286687D01*
X448173Y285920D01*
X447857Y285001D01*
Y284029D01*
X448173Y283110D01*
X448770Y282343D01*
X449584Y281811D01*
X450526Y281572D01*
X451495Y281653D01*
X452385Y282043D01*
X453100Y282701D01*
X453562Y283556D01*
X453722Y284515D01*
X419927Y254417D02*
X419767Y255376D01*
X419304Y256231D01*
X418589Y256889D01*
X417699Y257280D01*
X416730Y257360D01*
X415788Y257121D01*
X414974Y256590D01*
X414377Y255823D01*
X414062Y254903D01*
Y253931D01*
X414377Y253012D01*
X414974Y252245D01*
X415788Y251713D01*
X416730Y251475D01*
X417699Y251555D01*
X418589Y251945D01*
X419304Y252604D01*
X419767Y253459D01*
X419927Y254417D01*
X420583Y305617D02*
X420423Y306576D01*
X419960Y307431D01*
X419245Y308089D01*
X418355Y308480D01*
X417386Y308560D01*
X416444Y308321D01*
X415630Y307790D01*
X415033Y307023D01*
X414718Y306103D01*
Y305131D01*
X415033Y304212D01*
X415630Y303445D01*
X416444Y302913D01*
X417386Y302675D01*
X418355Y302755D01*
X419245Y303145D01*
X419960Y303804D01*
X420423Y304659D01*
X420583Y305617D01*
X433894Y384643D02*
X433735Y385602D01*
X433272Y386457D01*
X432557Y387115D01*
X431667Y387506D01*
X430698Y387586D01*
X429756Y387347D01*
X428942Y386816D01*
X428345Y386049D01*
X428029Y385129D01*
Y384157D01*
X428345Y383238D01*
X428942Y382471D01*
X429756Y381939D01*
X430698Y381701D01*
X431667Y381781D01*
X432557Y382171D01*
X433272Y382830D01*
X433735Y383684D01*
X433894Y384643D01*
X456139Y384643D02*
X455979Y385602D01*
X455516Y386457D01*
X454801Y387115D01*
X453911Y387506D01*
X452942Y387586D01*
X452000Y387347D01*
X451186Y386816D01*
X450589Y386049D01*
X450273Y385129D01*
Y384157D01*
X450589Y383238D01*
X451186Y382471D01*
X452000Y381939D01*
X452942Y381701D01*
X453911Y381781D01*
X454801Y382171D01*
X455516Y382830D01*
X455979Y383684D01*
X456139Y384643D01*
X454378Y335715D02*
X454218Y336674D01*
X453756Y337529D01*
X453041Y338187D01*
X452150Y338577D01*
X451182Y338658D01*
X450240Y338419D01*
X449426Y337887D01*
X448829Y337120D01*
X448513Y336201D01*
Y335229D01*
X448829Y334310D01*
X449426Y333543D01*
X450240Y333011D01*
X451182Y332772D01*
X452150Y332853D01*
X453041Y333243D01*
X453756Y333901D01*
X454218Y334756D01*
X454378Y335715D01*
X432134Y335715D02*
X431974Y336674D01*
X431512Y337529D01*
X430797Y338187D01*
X429906Y338577D01*
X428938Y338658D01*
X427995Y338419D01*
X427182Y337887D01*
X426585Y337120D01*
X426269Y336201D01*
Y335229D01*
X426585Y334310D01*
X427182Y333542D01*
X427995Y333011D01*
X428938Y332772D01*
X429906Y332853D01*
X430797Y333243D01*
X431512Y333901D01*
X431974Y334756D01*
X432134Y335715D01*
X422343Y354546D02*
X422183Y355504D01*
X421720Y356359D01*
X421005Y357018D01*
X420115Y357408D01*
X419146Y357488D01*
X418204Y357250D01*
X417390Y356718D01*
X416793Y355951D01*
X416478Y355032D01*
Y354060D01*
X416793Y353140D01*
X417390Y352373D01*
X418204Y351842D01*
X419146Y351603D01*
X420115Y351683D01*
X421005Y352074D01*
X421720Y352732D01*
X422183Y353587D01*
X422343Y354546D01*
X-32886Y173228D02*
X-33046Y174187D01*
X-33508Y175042D01*
X-34223Y175700D01*
X-35114Y176091D01*
X-36082Y176171D01*
X-37025Y175932D01*
X-37838Y175401D01*
X-38435Y174634D01*
X-38751Y173714D01*
Y172742D01*
X-38435Y171823D01*
X-37838Y171056D01*
X-37025Y170524D01*
X-36082Y170286D01*
X-35114Y170366D01*
X-34223Y170756D01*
X-33508Y171415D01*
X-33046Y172270D01*
X-32886Y173228D01*
X-33547Y162800D02*
X-33707Y163759D01*
X-34170Y164614D01*
X-34885Y165272D01*
X-35775Y165662D01*
X-36744Y165743D01*
X-37686Y165504D01*
X-38500Y164972D01*
X-39097Y164205D01*
X-39413Y163286D01*
Y162314D01*
X-39097Y161395D01*
X-38500Y160628D01*
X-37686Y160096D01*
X-36744Y159857D01*
X-35775Y159938D01*
X-34885Y160328D01*
X-34170Y160986D01*
X-33707Y161841D01*
X-33547Y162800D01*
X-25219D02*
X-25379Y163759D01*
X-25842Y164614D01*
X-26557Y165272D01*
X-27447Y165662D01*
X-28415Y165743D01*
X-29358Y165504D01*
X-30171Y164972D01*
X-30768Y164205D01*
X-31084Y163286D01*
Y162314D01*
X-30768Y161395D01*
X-30171Y160628D01*
X-29358Y160096D01*
X-28415Y159857D01*
X-27447Y159938D01*
X-26557Y160328D01*
X-25842Y160986D01*
X-25379Y161841D01*
X-25219Y162800D01*
X-18320Y172237D02*
X-18480Y173196D01*
X-18943Y174050D01*
X-19658Y174709D01*
X-20548Y175099D01*
X-21517Y175180D01*
X-22459Y174941D01*
X-23273Y174409D01*
X-23870Y173642D01*
X-24186Y172723D01*
Y171751D01*
X-23870Y170832D01*
X-23273Y170064D01*
X-22459Y169533D01*
X-21517Y169294D01*
X-20548Y169375D01*
X-19658Y169765D01*
X-18943Y170423D01*
X-18480Y171278D01*
X-18320Y172237D01*
X-31820Y182677D02*
X-31980Y183636D01*
X-32443Y184491D01*
X-33158Y185149D01*
X-34048Y185540D01*
X-35017Y185620D01*
X-35959Y185381D01*
X-36773Y184850D01*
X-37370Y184082D01*
X-37685Y183163D01*
Y182191D01*
X-37370Y181272D01*
X-36773Y180505D01*
X-35959Y179973D01*
X-35017Y179735D01*
X-34048Y179815D01*
X-33158Y180205D01*
X-32443Y180863D01*
X-31980Y181718D01*
X-31820Y182677D01*
X-17350D02*
X-17510Y183636D01*
X-17973Y184491D01*
X-18688Y185149D01*
X-19578Y185540D01*
X-20547Y185620D01*
X-21489Y185381D01*
X-22303Y184850D01*
X-22900Y184082D01*
X-23216Y183163D01*
Y182191D01*
X-22900Y181272D01*
X-22303Y180505D01*
X-21489Y179973D01*
X-20547Y179735D01*
X-19578Y179815D01*
X-18688Y180205D01*
X-17973Y180863D01*
X-17510Y181718D01*
X-17350Y182677D01*
X74355Y54212D02*
X84985D01*
X74355Y60117D02*
X84985D01*
Y54212D02*
Y60117D01*
X74355Y54212D02*
Y60117D01*
X67556Y39585D02*
Y50215D01*
X73462Y39585D02*
Y50215D01*
X67556Y39585D02*
X73462D01*
X67556Y50215D02*
X73462D01*
X16785Y117453D02*
X27415D01*
X16785Y111547D02*
X27415D01*
X16785D02*
Y117453D01*
X27415Y111547D02*
Y117453D01*
X11530Y142526D02*
X22160D01*
X11530Y148431D02*
X22160D01*
Y142526D02*
Y148431D01*
X11530Y142526D02*
Y148431D01*
X229331Y172204D02*
Y178109D01*
X239961Y172204D02*
Y178109D01*
X229331D02*
X239961D01*
X229331Y172204D02*
X239961D01*
X229331Y165885D02*
Y171791D01*
X239961Y165885D02*
Y171791D01*
X229331D02*
X239961D01*
X229331Y165885D02*
X239961D01*
X218657Y164423D02*
Y170329D01*
X229287Y164423D02*
Y170329D01*
X218657D02*
X229287D01*
X218657Y164423D02*
X229287D01*
X218657Y157856D02*
Y163761D01*
X229287Y157856D02*
Y163761D01*
X218657D02*
X229287D01*
X218657Y157856D02*
X229287D01*
X220945Y151378D02*
Y157283D01*
X231575Y151378D02*
Y157283D01*
X220945D02*
X231575D01*
X220945Y151378D02*
X231575D01*
X220945Y144984D02*
Y150890D01*
X231575Y144984D02*
Y150890D01*
X220945D02*
X231575D01*
X220945Y144984D02*
X231575D01*
X220669Y138514D02*
Y144419D01*
X231299Y138514D02*
Y144419D01*
X220669D02*
X231299D01*
X220669Y138514D02*
X231299D01*
X220669Y132268D02*
Y138173D01*
X231299Y132268D02*
Y138173D01*
X220669D02*
X231299D01*
X220669Y132268D02*
X231299D01*
X216760Y241976D02*
Y247882D01*
X227390Y241976D02*
Y247882D01*
X216760D02*
X227390D01*
X216760Y241976D02*
X227390D01*
X216676Y248194D02*
Y254100D01*
X227306Y248194D02*
Y254100D01*
X216676D02*
X227306D01*
X216676Y248194D02*
X227306D01*
X216676Y254534D02*
Y260439D01*
X227306Y254534D02*
Y260439D01*
X216676D02*
X227306D01*
X216676Y254534D02*
X227306D01*
X216732Y260827D02*
Y266732D01*
X227362Y260827D02*
Y266732D01*
X216732D02*
X227362D01*
X216732Y260827D02*
X227362D01*
X216732Y267034D02*
Y272939D01*
X227362Y267034D02*
Y272939D01*
X216732D02*
X227362D01*
X216732Y267034D02*
X227362D01*
X216760Y273403D02*
Y279308D01*
X227390Y273403D02*
Y279308D01*
X216760D02*
X227390D01*
X216760Y273403D02*
X227390D01*
X216760Y280088D02*
Y285994D01*
X227390Y280088D02*
Y285994D01*
X216760D02*
X227390D01*
X216760Y280088D02*
X227390D01*
X221898Y285749D02*
Y291655D01*
X232528Y285749D02*
Y291655D01*
X221898D02*
X232528D01*
X221898Y285749D02*
X232528D01*
X168689Y105797D02*
X174595D01*
X168689Y116427D02*
X174595D01*
X168689Y105797D02*
Y116427D01*
X174595Y105797D02*
Y116427D01*
X168689Y115485D02*
X174595D01*
X168689Y126115D02*
X174595D01*
X168689Y115485D02*
Y126115D01*
X174595Y115485D02*
Y126115D01*
X168689Y125485D02*
X174595D01*
X168689Y136115D02*
X174595D01*
X168689Y125485D02*
Y136115D01*
X174595Y125485D02*
Y136115D01*
X178457Y286750D02*
X189087D01*
X178457Y280844D02*
X189087D01*
X178457D02*
Y286750D01*
X189087Y280844D02*
Y286750D01*
X14447Y342615D02*
X20353D01*
X14447Y331985D02*
X20353D01*
Y342615D01*
X14447Y331985D02*
Y342615D01*
X8347Y44015D02*
X14253D01*
X8347Y33385D02*
X14253D01*
Y44015D01*
X8347Y33385D02*
Y44015D01*
X33601Y141828D02*
X62931D01*
Y120175D02*
Y141828D01*
X33601Y120175D02*
X62931D01*
X33601D02*
Y141828D01*
X56983Y315415D02*
Y329588D01*
X32179D02*
X56983D01*
X32179Y315415D02*
Y329588D01*
Y315415D02*
X56983D01*
X152328Y357686D02*
Y368316D01*
X158234Y357686D02*
Y368316D01*
X152328Y357686D02*
X158234D01*
X152328Y368316D02*
X158234D01*
X97167Y371604D02*
Y382234D01*
X103072Y371604D02*
Y382234D01*
X97167Y371604D02*
X103072D01*
X97167Y382234D02*
X103072D01*
X152328Y345778D02*
Y356407D01*
X158234Y345778D02*
Y356407D01*
X152328Y345778D02*
X158234D01*
X152328Y356407D02*
X158234D01*
X138072Y366586D02*
Y377216D01*
X132167Y366586D02*
Y377216D01*
X138072D01*
X132167Y366586D02*
X138072D01*
X70016Y355609D02*
Y366239D01*
X64110Y355609D02*
Y366239D01*
X70016D01*
X64110Y355609D02*
X70016D01*
X109357Y360742D02*
X151482D01*
X109357Y315860D02*
X151482D01*
Y360742D01*
X109357Y315860D02*
Y360742D01*
X93847Y374236D02*
Y378567D01*
X84792Y374236D02*
Y378567D01*
Y374236D02*
X93847D01*
X84792Y378567D02*
X93847D01*
X174214Y351307D02*
Y369496D01*
X183348Y351307D02*
Y369496D01*
X174214D02*
X183348D01*
X174214Y351307D02*
X183348D01*
X164214Y351007D02*
Y369196D01*
X173348Y351007D02*
Y369196D01*
X164214D02*
X173348D01*
X164214Y351007D02*
X173348D01*
X159616Y367529D02*
X163946D01*
X159616Y358474D02*
X163946D01*
Y367529D01*
X159616Y358474D02*
Y367529D01*
X50716Y364729D02*
X55046D01*
X50716Y355674D02*
X55046D01*
Y364729D01*
X50716Y355674D02*
Y364729D01*
X40214Y354986D02*
Y373175D01*
X49348Y354986D02*
Y373175D01*
X40214D02*
X49348D01*
X40214Y354986D02*
X49348D01*
X30614D02*
Y373175D01*
X39748Y354986D02*
Y373175D01*
X30614D02*
X39748D01*
X30614Y354986D02*
X39748D01*
X153725Y374234D02*
X171914D01*
X153725Y383368D02*
X171914D01*
X153725Y374234D02*
Y383368D01*
X171914Y374234D02*
Y383368D01*
X96939Y363490D02*
X101269D01*
X96939Y354435D02*
X101269D01*
Y363490D01*
X96939Y354435D02*
Y363490D01*
X68867Y333116D02*
X74772D01*
X68867Y322486D02*
X74772D01*
Y333116D01*
X68867Y322486D02*
Y333116D01*
Y320408D02*
X74772D01*
X68867Y309778D02*
X74772D01*
Y320408D01*
X68867Y309778D02*
Y320408D01*
X86016Y310565D02*
Y319620D01*
X90346Y310565D02*
Y319620D01*
X86016Y310565D02*
X90346D01*
X86016Y319620D02*
X90346D01*
X27485Y318574D02*
Y327629D01*
X23154Y318574D02*
Y327629D01*
X27485D01*
X23154Y318574D02*
X27485D01*
X13892Y120085D02*
X19798D01*
X13892Y130715D02*
X19798D01*
X13892Y120085D02*
Y130715D01*
X19798Y120085D02*
Y130715D01*
X13892Y131586D02*
X19798D01*
X13892Y142216D02*
X19798D01*
X13892Y131586D02*
Y142216D01*
X19798Y131586D02*
Y142216D01*
X27381Y136025D02*
X33286D01*
X27381Y146655D02*
X33286D01*
X27381Y136025D02*
Y146655D01*
X33286Y136025D02*
Y146655D01*
X32778Y116474D02*
Y125529D01*
X28448Y116474D02*
Y125529D01*
X32778D01*
X28448Y116474D02*
X32778D01*
X69050Y132174D02*
Y141229D01*
X64719Y132174D02*
Y141229D01*
X69050D01*
X64719Y132174D02*
X69050D01*
X64319Y121074D02*
X68650D01*
X64319Y130129D02*
X68650D01*
X64319Y121074D02*
Y130129D01*
X68650Y121074D02*
Y130129D01*
X20407Y120872D02*
X24737D01*
X20407Y129928D02*
X24737D01*
X20407Y120872D02*
Y129928D01*
X24737Y120872D02*
Y129928D01*
X160515Y39998D02*
X166420D01*
X160515Y29368D02*
X166420D01*
Y39998D01*
X160515Y29368D02*
Y39998D01*
X160515Y15868D02*
X166420D01*
X160515Y26498D02*
X166420D01*
X160515Y15868D02*
Y26498D01*
X166420Y15868D02*
Y26498D01*
X-17547Y128185D02*
Y138815D01*
X-23453Y128185D02*
Y138815D01*
X-17547D01*
X-23453Y128185D02*
X-17547D01*
X394259Y380917D02*
X403314D01*
X394259Y376586D02*
X403314D01*
X394259D02*
Y380917D01*
X403314Y376586D02*
Y380917D01*
X394186Y386675D02*
X403241D01*
X394186Y382344D02*
X403241D01*
X394186D02*
Y386675D01*
X403241Y382344D02*
Y386675D01*
X392499Y331988D02*
X401554D01*
X392499Y327658D02*
X401554D01*
X392499D02*
Y331988D01*
X401554Y327658D02*
Y331988D01*
X392426Y337746D02*
X401481D01*
X392426Y333416D02*
X401481D01*
X392426D02*
Y337746D01*
X401481Y333416D02*
Y337746D01*
X400898Y276458D02*
Y280788D01*
X391843Y276458D02*
Y280788D01*
Y276458D02*
X400898D01*
X391843Y280788D02*
X400898D01*
X391770Y286546D02*
X400825D01*
X391770Y282216D02*
X400825D01*
X391770D02*
Y286546D01*
X400825Y282216D02*
Y286546D01*
X392499Y232988D02*
X401554D01*
X392499Y228658D02*
X401554D01*
X392499D02*
Y232988D01*
X401554Y228658D02*
Y232988D01*
X392426Y238746D02*
X401481D01*
X392426Y234416D02*
X401481D01*
X392426D02*
Y238746D01*
X401481Y234416D02*
Y238746D01*
X389834Y182275D02*
X398890D01*
X389834Y177945D02*
X398890D01*
X389834D02*
Y182275D01*
X398890Y177945D02*
Y182275D01*
X389761Y188034D02*
X398816D01*
X389761Y183703D02*
X398816D01*
X389761D02*
Y188034D01*
X398816Y183703D02*
Y188034D01*
X397506Y130097D02*
Y134428D01*
X388451Y130097D02*
Y134428D01*
Y130097D02*
X397506D01*
X388451Y134428D02*
X397506D01*
X388377Y140186D02*
X397432D01*
X388377Y135855D02*
X397432D01*
X388377D02*
Y140186D01*
X397432Y135855D02*
Y140186D01*
X395622Y79816D02*
Y84147D01*
X386567Y79816D02*
Y84147D01*
Y79816D02*
X395622D01*
X386567Y84147D02*
X395622D01*
X386493Y89905D02*
X395548D01*
X386493Y85574D02*
X395548D01*
X386493D02*
Y89905D01*
X395548Y85574D02*
Y89905D01*
X458527Y365494D02*
Y369824D01*
X467582Y365494D02*
Y369824D01*
X458527D02*
X467582D01*
X458527Y365494D02*
X467582D01*
X423513Y381494D02*
Y385824D01*
X414458Y381494D02*
Y385824D01*
Y381494D02*
X423513D01*
X414458Y385824D02*
X423513D01*
X461013Y352380D02*
Y356711D01*
X451958Y352380D02*
Y356711D01*
Y352380D02*
X461013D01*
X451958Y356711D02*
X461013D01*
X411907Y374580D02*
Y385209D01*
X406002Y374580D02*
Y385209D01*
X411907D01*
X406002Y374580D02*
X411907D01*
X457739Y358406D02*
X468369D01*
X457739Y364312D02*
X468369D01*
Y358406D02*
Y364312D01*
X457739Y358406D02*
Y364312D01*
X412698Y336896D02*
X421753D01*
X412698Y332565D02*
X421753D01*
X412698D02*
Y336896D01*
X421753Y332565D02*
Y336896D01*
X404360Y315235D02*
X408691D01*
X404360Y324291D02*
X408691D01*
X404360Y315235D02*
Y324291D01*
X408691Y315235D02*
Y324291D01*
X450198Y307783D02*
X459253D01*
X450198Y303452D02*
X459253D01*
X450198D02*
Y307783D01*
X459253Y303452D02*
Y307783D01*
X404241Y325651D02*
X410147D01*
X404241Y336281D02*
X410147D01*
X404241Y325651D02*
Y336281D01*
X410147Y325651D02*
Y336281D01*
X412494Y330383D02*
X423124D01*
X412494Y324478D02*
X423124D01*
X412494D02*
Y330383D01*
X423124Y324478D02*
Y330383D01*
X421097Y281365D02*
Y285696D01*
X412042Y281365D02*
Y285696D01*
Y281365D02*
X421097D01*
X412042Y285696D02*
X421097D01*
X458597Y252252D02*
Y256583D01*
X449542Y252252D02*
Y256583D01*
Y252252D02*
X458597D01*
X449542Y256583D02*
X458597D01*
X413232Y258064D02*
Y263969D01*
X423862Y258064D02*
Y263969D01*
X413232D02*
X423862D01*
X413232Y258064D02*
X423862D01*
X423799Y264578D02*
Y270483D01*
X413169Y264578D02*
Y270483D01*
Y264578D02*
X423799D01*
X413169Y270483D02*
X423799D01*
X422468Y273278D02*
Y279184D01*
X411838Y273278D02*
Y279184D01*
Y273278D02*
X422468D01*
X411838Y279184D02*
X422468D01*
X456767Y217565D02*
Y221896D01*
X465822Y217565D02*
Y221896D01*
X456767D02*
X465822D01*
X456767Y217565D02*
X465822D01*
X408691Y216235D02*
Y225291D01*
X404360Y216235D02*
Y225291D01*
X408691D01*
X404360Y216235D02*
X408691D01*
X459253Y204452D02*
Y208783D01*
X450198Y204452D02*
Y208783D01*
Y204452D02*
X459253D01*
X450198Y208783D02*
X459253D01*
X410147Y226651D02*
Y237281D01*
X404241Y226651D02*
Y237281D01*
X410147D01*
X404241Y226651D02*
X410147D01*
X455979Y210478D02*
X466609D01*
X455979Y216384D02*
X466609D01*
Y210478D02*
Y216384D01*
X455979Y210478D02*
Y216384D01*
X413888Y210264D02*
Y216169D01*
X424518Y210264D02*
Y216169D01*
X413888D02*
X424518D01*
X413888Y210264D02*
X424518D01*
X424455Y216778D02*
Y222684D01*
X413825Y216778D02*
Y222684D01*
Y216778D02*
X424455D01*
X413825Y222684D02*
X424455D01*
X423124Y225478D02*
Y231383D01*
X412494Y225478D02*
Y231383D01*
Y225478D02*
X423124D01*
X412494Y231383D02*
X423124D01*
X454102Y166853D02*
Y171183D01*
X463157Y166853D02*
Y171183D01*
X454102D02*
X463157D01*
X454102Y166853D02*
X463157D01*
X406026Y165523D02*
Y174578D01*
X401696Y165523D02*
Y174578D01*
X406026D01*
X401696Y165523D02*
X406026D01*
X456589Y153739D02*
Y158070D01*
X447533Y153739D02*
Y158070D01*
Y153739D02*
X456589D01*
X447533Y158070D02*
X456589D01*
X407482Y175938D02*
Y186568D01*
X401577Y175938D02*
Y186568D01*
X407482D01*
X401577Y175938D02*
X407482D01*
X411223Y159551D02*
Y165457D01*
X421853Y159551D02*
Y165457D01*
X411223D02*
X421853D01*
X411223Y159551D02*
X421853D01*
X411161Y171971D02*
X421791D01*
X411161Y166065D02*
X421791D01*
X411161D02*
Y171971D01*
X421791Y166065D02*
Y171971D01*
X417705Y135005D02*
Y139336D01*
X408649Y135005D02*
Y139336D01*
Y135005D02*
X417705D01*
X408649Y139336D02*
X417705D01*
X404642Y117675D02*
Y126730D01*
X400312Y117675D02*
Y126730D01*
X404642D01*
X400312Y117675D02*
X404642D01*
X406098Y128091D02*
Y138721D01*
X400193Y128091D02*
Y138721D01*
X406098D01*
X400193Y128091D02*
X406098D01*
X409839Y111704D02*
Y117609D01*
X420469Y111704D02*
Y117609D01*
X409839D02*
X420469D01*
X409839Y111704D02*
X420469D01*
X420407Y118218D02*
Y124123D01*
X409777Y118218D02*
Y124123D01*
Y118218D02*
X420407D01*
X409777Y124123D02*
X420407D01*
X419075Y126918D02*
Y132823D01*
X408445Y126918D02*
Y132823D01*
Y126918D02*
X419075D01*
X408445Y132823D02*
X419075D01*
X415821Y84724D02*
Y89055D01*
X406766Y84724D02*
Y89055D01*
Y84724D02*
X415821D01*
X406766Y89055D02*
X415821D01*
X402759Y67394D02*
Y76449D01*
X398428Y67394D02*
Y76449D01*
X402759D01*
X398428Y67394D02*
X402759D01*
X407956Y61423D02*
Y67328D01*
X418586Y61423D02*
Y67328D01*
X407956D02*
X418586D01*
X407956Y61423D02*
X418586D01*
X418523Y67937D02*
Y73842D01*
X407893Y67937D02*
Y73842D01*
Y67937D02*
X418523D01*
X407893Y73842D02*
X418523D01*
X417192Y76637D02*
Y82542D01*
X406562Y76637D02*
Y82542D01*
Y76637D02*
X417192D01*
X406562Y82542D02*
X417192D01*
X367787Y65934D02*
Y80107D01*
Y65934D02*
X392590D01*
Y80107D01*
X367787D02*
X392590D01*
X330279Y66929D02*
X340909D01*
X330279Y72834D02*
X340909D01*
Y66929D02*
Y72834D01*
X330279Y66929D02*
Y72834D01*
X450178Y84429D02*
X460808D01*
X450178Y78523D02*
X460808D01*
X450178D02*
Y84429D01*
X460808Y78523D02*
Y84429D01*
X330480Y75980D02*
X341109D01*
X330480Y81885D02*
X341109D01*
Y75980D02*
Y81885D01*
X330480Y75980D02*
Y81885D01*
X450047Y61637D02*
Y67542D01*
X460677Y61637D02*
Y67542D01*
X450047D02*
X460677D01*
X450047Y61637D02*
X460677D01*
X398309Y77810D02*
X404215D01*
X398309Y88440D02*
X404215D01*
X398309Y77810D02*
Y88440D01*
X404215Y77810D02*
Y88440D01*
X455279Y62034D02*
X465909D01*
X455279Y56129D02*
X465909D01*
X455279D02*
Y62034D01*
X465909Y56129D02*
Y62034D01*
X444266Y59941D02*
X453321D01*
X444266Y55611D02*
X453321D01*
X444266D02*
Y59941D01*
X453321Y55611D02*
Y59941D01*
X369362Y55493D02*
X373693D01*
X369362Y64548D02*
X373693D01*
X369362Y55493D02*
Y64548D01*
X373693Y55493D02*
Y64548D01*
X462033Y68390D02*
X466363D01*
X462033Y77445D02*
X466363D01*
X462033Y68390D02*
Y77445D01*
X466363Y68390D02*
Y77445D01*
X467396Y68390D02*
X471727D01*
X467396Y77445D02*
X471727D01*
X467396Y68390D02*
Y77445D01*
X471727Y68390D02*
Y77445D01*
X450834Y68724D02*
X459889D01*
X450834Y73055D02*
X459889D01*
Y68724D02*
Y73055D01*
X450834Y68724D02*
Y73055D01*
X369671Y116215D02*
Y130388D01*
Y116215D02*
X394474D01*
Y130388D01*
X369671D02*
X394474D01*
X332163Y117210D02*
X342793D01*
X332163Y123115D02*
X342793D01*
Y117210D02*
Y123115D01*
X332163Y117210D02*
Y123115D01*
X452062Y134710D02*
X462692D01*
X452062Y128804D02*
X462692D01*
X452062D02*
Y134710D01*
X462692Y128804D02*
Y134710D01*
X332363Y126261D02*
X342993D01*
X332363Y132166D02*
X342993D01*
Y126261D02*
Y132166D01*
X332363Y126261D02*
Y132166D01*
X451931Y111918D02*
Y117823D01*
X462561Y111918D02*
Y117823D01*
X451931D02*
X462561D01*
X451931Y111918D02*
X462561D01*
X457163Y112315D02*
X467793D01*
X457163Y106410D02*
X467793D01*
X457163D02*
Y112315D01*
X467793Y106410D02*
Y112315D01*
X446149Y110222D02*
X455205D01*
X446149Y105892D02*
X455205D01*
X446149D02*
Y110222D01*
X455205Y105892D02*
Y110222D01*
X371246Y105773D02*
X375577D01*
X371246Y114829D02*
X375577D01*
X371246Y105773D02*
Y114829D01*
X375577Y105773D02*
Y114829D01*
X463916Y118671D02*
X468247D01*
X463916Y127726D02*
X468247D01*
X463916Y118671D02*
Y127726D01*
X468247Y118671D02*
Y127726D01*
X469280Y118671D02*
X473611D01*
X469280Y127726D02*
X473611D01*
X469280Y118671D02*
Y127726D01*
X473611Y118671D02*
Y127726D01*
X452718Y119005D02*
Y123336D01*
X461773Y119005D02*
Y123336D01*
X452718D02*
X461773D01*
X452718Y119005D02*
X461773D01*
X371055Y164062D02*
Y178235D01*
Y164062D02*
X395858D01*
Y178235D01*
X371055D02*
X395858D01*
X409829Y180671D02*
X420459D01*
X409829Y174765D02*
X420459D01*
X409829D02*
Y180671D01*
X420459Y174765D02*
Y180671D01*
X333547Y165057D02*
X344177D01*
X333547Y170963D02*
X344177D01*
Y165057D02*
Y170963D01*
X333547Y165057D02*
Y170963D01*
X453446Y182557D02*
X464076D01*
X453446Y176652D02*
X464076D01*
X453446D02*
Y182557D01*
X464076Y176652D02*
Y182557D01*
X333747Y174108D02*
X344377D01*
X333747Y180014D02*
X344377D01*
Y174108D02*
Y180014D01*
X333747Y174108D02*
Y180014D01*
X453314Y159765D02*
Y165671D01*
X463944Y159765D02*
Y165671D01*
X453314D02*
X463944D01*
X453314Y159765D02*
X463944D01*
X458547Y160163D02*
X469177D01*
X458547Y154257D02*
X469177D01*
X458547D02*
Y160163D01*
X469177Y154257D02*
Y160163D01*
X372630Y153621D02*
X376960D01*
X372630Y162676D02*
X376960D01*
X372630Y153621D02*
Y162676D01*
X376960Y153621D02*
Y162676D01*
X410033Y187183D02*
X419089D01*
X410033Y182853D02*
X419089D01*
X410033D02*
Y187183D01*
X419089Y182853D02*
Y187183D01*
X465300Y166518D02*
X469631D01*
X465300Y175574D02*
X469631D01*
X465300Y166518D02*
Y175574D01*
X469631Y166518D02*
Y175574D01*
X470664Y166518D02*
X474995D01*
X470664Y175574D02*
X474995D01*
X470664Y166518D02*
Y175574D01*
X474995Y166518D02*
Y175574D01*
X276644Y352165D02*
X282550D01*
X276644Y341535D02*
X282550D01*
Y352165D01*
X276644Y341535D02*
Y352165D01*
X321836Y321386D02*
Y330441D01*
X317505Y321386D02*
Y330441D01*
X321836D01*
X317505Y321386D02*
X321836D01*
X316618Y303229D02*
X322523D01*
X316618Y292599D02*
X322523D01*
Y303229D01*
X316618Y292599D02*
Y303229D01*
X316818Y318429D02*
X322723D01*
X316818Y307799D02*
X322723D01*
Y318429D01*
X316818Y307799D02*
Y318429D01*
X321397Y272874D02*
Y281929D01*
X317066Y272874D02*
Y281929D01*
X321397D01*
X317066Y272874D02*
X321397D01*
X316179Y254717D02*
X322085D01*
X316179Y244087D02*
X322085D01*
Y254717D01*
X316179Y244087D02*
Y254717D01*
X316379Y269917D02*
X322285D01*
X316379Y259287D02*
X322285D01*
Y269917D01*
X316379Y259287D02*
Y269917D01*
X321571Y224527D02*
Y233582D01*
X317240Y224527D02*
Y233582D01*
X321571D01*
X317240Y224527D02*
X321571D01*
X275030Y205984D02*
X280935D01*
X275030Y195354D02*
X280935D01*
Y205984D01*
X275030Y195354D02*
Y205984D01*
X316552Y221570D02*
X322458D01*
X316552Y210940D02*
X322458D01*
Y221570D01*
X316552Y210940D02*
Y221570D01*
X320492Y176529D02*
Y185584D01*
X316161Y176529D02*
Y185584D01*
X320492D01*
X316161Y176529D02*
X320492D01*
X315474Y173572D02*
X321379D01*
X315474Y162942D02*
X321379D01*
Y173572D01*
X315474Y162942D02*
Y173572D01*
X280148Y111273D02*
Y120328D01*
X275817Y111273D02*
Y120328D01*
X280148D01*
X275817Y111273D02*
X280148D01*
X319362Y128681D02*
Y137736D01*
X315031Y128681D02*
Y137736D01*
X319362D01*
X315031Y128681D02*
X319362D01*
X273374Y110138D02*
X279279D01*
X273374Y99508D02*
X279279D01*
Y110138D01*
X273374Y99508D02*
Y110138D01*
X314144Y110524D02*
X320049D01*
X314144Y99894D02*
X320049D01*
Y110524D01*
X314144Y99894D02*
Y110524D01*
X314344Y125724D02*
X320249D01*
X314344Y115094D02*
X320249D01*
Y125724D01*
X314344Y115094D02*
Y125724D01*
X319828Y80556D02*
Y89612D01*
X315497Y80556D02*
Y89612D01*
X319828D01*
X315497Y80556D02*
X319828D01*
X274744Y62013D02*
X280649D01*
X274744Y51383D02*
X280649D01*
Y62013D01*
X274744Y51383D02*
Y62013D01*
X314610Y62399D02*
X320515D01*
X314610Y51769D02*
X320515D01*
Y62399D01*
X314610Y51769D02*
Y62399D01*
X314810Y77599D02*
X320715D01*
X314810Y66969D02*
X320715D01*
Y77599D01*
X314810Y66969D02*
Y77599D01*
X386199Y43224D02*
X395254D01*
X386199Y38893D02*
X395254D01*
X386199D02*
Y43224D01*
X395254Y38893D02*
Y43224D01*
X395328Y33135D02*
Y37465D01*
X386272Y33135D02*
Y37465D01*
Y33135D02*
X395328D01*
X386272Y37465D02*
X395328D01*
X367493Y19252D02*
Y33425D01*
Y19252D02*
X392296D01*
Y33425D01*
X367493D02*
X392296D01*
X406267Y35861D02*
X416897D01*
X406267Y29955D02*
X416897D01*
X406267D02*
Y35861D01*
X416897Y29955D02*
Y35861D01*
X407599Y27161D02*
X418228D01*
X407599Y21255D02*
X418228D01*
X407599D02*
Y27161D01*
X418228Y21255D02*
Y27161D01*
X407661Y14741D02*
X418291D01*
X407661Y20647D02*
X418291D01*
Y14741D02*
Y20647D01*
X407661Y14741D02*
Y20647D01*
X329985Y20247D02*
X340615D01*
X329985Y26153D02*
X340615D01*
Y20247D02*
Y26153D01*
X329985Y20247D02*
Y26153D01*
X449884Y37747D02*
X460514D01*
X449884Y31842D02*
X460514D01*
X449884D02*
Y37747D01*
X460514Y31842D02*
Y37747D01*
X330185Y29298D02*
X340815D01*
X330185Y35204D02*
X340815D01*
Y29298D02*
Y35204D01*
X330185Y29298D02*
Y35204D01*
X449752Y14955D02*
Y20861D01*
X460382Y14955D02*
Y20861D01*
X449752D02*
X460382D01*
X449752Y14955D02*
X460382D01*
X398015Y31128D02*
X403920D01*
X398015Y41758D02*
X403920D01*
X398015Y31128D02*
Y41758D01*
X403920Y31128D02*
Y41758D01*
X454985Y15353D02*
X465615D01*
X454985Y9447D02*
X465615D01*
X454985D02*
Y15353D01*
X465615Y9447D02*
Y15353D01*
X443971Y13260D02*
X453026D01*
X443971Y8929D02*
X453026D01*
X443971D02*
Y13260D01*
X453026Y8929D02*
Y13260D01*
X369068Y8811D02*
X373398D01*
X369068Y17866D02*
X373398D01*
X369068Y8811D02*
Y17866D01*
X373398Y8811D02*
Y17866D01*
X398133Y20713D02*
X402464D01*
X398133Y29768D02*
X402464D01*
X398133Y20713D02*
Y29768D01*
X402464Y20713D02*
Y29768D01*
X406471Y42373D02*
X415526D01*
X406471Y38043D02*
X415526D01*
X406471D02*
Y42373D01*
X415526Y38043D02*
Y42373D01*
X461738Y21708D02*
X466069D01*
X461738Y30763D02*
X466069D01*
X461738Y21708D02*
Y30763D01*
X466069Y21708D02*
Y30763D01*
X467102Y21708D02*
X471433D01*
X467102Y30763D02*
X471433D01*
X467102Y21708D02*
Y30763D01*
X471433Y21708D02*
Y30763D01*
X450540Y22042D02*
X459595D01*
X450540Y26373D02*
X459595D01*
Y22042D02*
Y26373D01*
X450540Y22042D02*
Y26373D01*
X373064Y276748D02*
X397867D01*
Y262575D02*
Y276748D01*
X373064Y262575D02*
X397867D01*
X373064D02*
Y276748D01*
X373720Y228948D02*
X398523D01*
Y214775D02*
Y228948D01*
X373720Y214775D02*
X398523D01*
X373720D02*
Y228948D01*
X281265Y63573D02*
Y72628D01*
X276935Y63573D02*
Y72628D01*
X281265D01*
X276935Y63573D02*
X281265D01*
X282720Y93893D02*
X312051D01*
Y57475D02*
Y93893D01*
X282720Y57475D02*
X312051D01*
X282720D02*
Y93893D01*
X274744Y158252D02*
X280649D01*
X274744Y147622D02*
X280649D01*
Y158252D01*
X274744Y147622D02*
Y158252D01*
X283384Y189865D02*
X312715D01*
Y153448D02*
Y189865D01*
X283384Y153448D02*
X312715D01*
X283384D02*
Y189865D01*
X282254Y142018D02*
X311585D01*
Y105600D02*
Y142018D01*
X282254Y105600D02*
X311585D01*
X282254D02*
Y142018D01*
X279862Y159252D02*
Y168307D01*
X275531Y159252D02*
Y168307D01*
X279862D01*
X275531Y159252D02*
X279862D01*
X471842Y204970D02*
Y210876D01*
X461212Y204970D02*
Y210876D01*
Y204970D02*
X471842D01*
X461212Y210876D02*
X471842D01*
X472296Y217231D02*
Y226286D01*
X467965Y217231D02*
Y226286D01*
X472296D01*
X467965Y217231D02*
X472296D01*
X477659D02*
Y226286D01*
X473329Y217231D02*
Y226286D01*
X477659D01*
X473329Y217231D02*
X477659D01*
X466741Y227365D02*
Y233270D01*
X456111Y227365D02*
Y233270D01*
Y227365D02*
X466741D01*
X456111Y233270D02*
X466741D01*
X379625Y204334D02*
Y213389D01*
X375294Y204334D02*
Y213389D01*
X379625D01*
X375294Y204334D02*
X379625D01*
X477003Y265031D02*
Y274086D01*
X472673Y265031D02*
Y274086D01*
X477003D01*
X472673Y265031D02*
X477003D01*
X471186Y252770D02*
Y258676D01*
X460556Y252770D02*
Y258676D01*
Y252770D02*
X471186D01*
X460556Y258676D02*
X471186D01*
X471640Y265031D02*
Y274086D01*
X467309Y265031D02*
Y274086D01*
X471640D01*
X467309Y265031D02*
X471640D01*
X466085Y275165D02*
Y281070D01*
X455455Y275165D02*
Y281070D01*
Y275165D02*
X466085D01*
X455455Y281070D02*
X466085D01*
X408035Y264035D02*
Y273091D01*
X403704Y264035D02*
Y273091D01*
X408035D01*
X403704Y264035D02*
X408035D01*
X378969Y252134D02*
Y261189D01*
X374639Y252134D02*
Y261189D01*
X378969D01*
X374639Y252134D02*
X378969D01*
X336412Y224821D02*
Y230727D01*
X347042Y224821D02*
Y230727D01*
X336412D02*
X347042D01*
X336412Y224821D02*
X347042D01*
X336212Y215770D02*
Y221676D01*
X346842Y215770D02*
Y221676D01*
X336212D02*
X346842D01*
X336212Y215770D02*
X346842D01*
X335756Y272621D02*
X346386D01*
X335756Y278526D02*
X346386D01*
Y272621D02*
Y278526D01*
X335756Y272621D02*
Y278526D01*
X335556Y263570D02*
Y269476D01*
X346186Y263570D02*
Y269476D01*
X335556D02*
X346186D01*
X335556Y263570D02*
X346186D01*
X283265Y207972D02*
Y217028D01*
X278935Y207972D02*
Y217028D01*
X283265D01*
X278935Y207972D02*
X283265D01*
X284463Y201446D02*
Y237863D01*
Y201446D02*
X313793D01*
Y237863D01*
X284463D02*
X313793D01*
X277194Y254601D02*
X283099D01*
X277194Y243971D02*
X283099D01*
Y254601D01*
X277194Y243971D02*
Y254601D01*
X281959Y256760D02*
Y265815D01*
X277628Y256760D02*
Y265815D01*
X281959D01*
X277628Y256760D02*
X281959D01*
X461212Y309876D02*
X471842D01*
X461212Y303970D02*
X471842D01*
X461212D02*
Y309876D01*
X471842Y303970D02*
Y309876D01*
X467965Y316231D02*
X472296D01*
X467965Y325286D02*
X472296D01*
X467965Y316231D02*
Y325286D01*
X472296Y316231D02*
Y325286D01*
X473329Y316231D02*
X477659D01*
X473329Y325286D02*
X477659D01*
X473329Y316231D02*
Y325286D01*
X477659Y316231D02*
Y325286D01*
X456111Y332270D02*
X466741D01*
X456111Y326365D02*
X466741D01*
X456111D02*
Y332270D01*
X466741Y326365D02*
Y332270D01*
X413825Y321684D02*
X424455D01*
X413825Y315778D02*
X424455D01*
X413825D02*
Y321684D01*
X424455Y315778D02*
Y321684D01*
X413888Y309264D02*
X424518D01*
X413888Y315169D02*
X424518D01*
Y309264D02*
Y315169D01*
X413888Y309264D02*
Y315169D01*
X373720Y313775D02*
Y327948D01*
Y313775D02*
X398523D01*
Y327948D01*
X373720D02*
X398523D01*
X375294Y303334D02*
X379625D01*
X375294Y312389D02*
X379625D01*
X375294Y303334D02*
Y312389D01*
X379625Y303334D02*
Y312389D01*
X336412Y323821D02*
X347042D01*
X336412Y329727D02*
X347042D01*
Y323821D02*
Y329727D01*
X336412Y323821D02*
Y329727D01*
X336212Y314770D02*
X346842D01*
X336212Y320676D02*
X346842D01*
Y314770D02*
Y320676D01*
X336212Y314770D02*
Y320676D01*
X277194Y302843D02*
X283099D01*
X277194Y292213D02*
X283099D01*
Y302843D01*
X277194Y292213D02*
Y302843D01*
X281762Y304987D02*
Y314042D01*
X277432Y304987D02*
Y314042D01*
X281762D01*
X277432Y304987D02*
X281762D01*
X284289Y286211D02*
X313620D01*
Y249793D02*
Y286211D01*
X284289Y249793D02*
X313620D01*
X284289D02*
Y286211D01*
X381385Y352262D02*
Y361317D01*
X377055Y352262D02*
Y361317D01*
X381385D01*
X377055Y352262D02*
X381385D01*
X337972Y363698D02*
Y369604D01*
X348602Y363698D02*
Y369604D01*
X337972D02*
X348602D01*
X337972Y363698D02*
X348602D01*
X338172Y372749D02*
Y378655D01*
X348802Y372749D02*
Y378655D01*
X338172D02*
X348802D01*
X338172Y372749D02*
X348802D01*
X424884Y373406D02*
Y379312D01*
X414254Y373406D02*
Y379312D01*
Y373406D02*
X424884D01*
X414254Y379312D02*
X424884D01*
X468501Y375293D02*
Y381198D01*
X457871Y375293D02*
Y381198D01*
Y375293D02*
X468501D01*
X457871Y381198D02*
X468501D01*
X479420Y365160D02*
Y374215D01*
X475089Y365160D02*
Y374215D01*
X479420D01*
X475089Y365160D02*
X479420D01*
X474056D02*
Y374215D01*
X469725Y365160D02*
Y374215D01*
X474056D01*
X469725Y365160D02*
X474056D01*
X473602Y352898D02*
Y358804D01*
X462972Y352898D02*
Y358804D01*
Y352898D02*
X473602D01*
X462972Y358804D02*
X473602D01*
X410451Y364164D02*
Y373219D01*
X406120Y364164D02*
Y373219D01*
X410451D01*
X406120Y364164D02*
X410451D01*
X426215Y364706D02*
Y370612D01*
X415586Y364706D02*
Y370612D01*
Y364706D02*
X426215D01*
X415586Y370612D02*
X426215D01*
X415648Y358192D02*
Y364098D01*
X426278Y358192D02*
Y364098D01*
X415648D02*
X426278D01*
X415648Y358192D02*
X426278D01*
X284728Y334722D02*
X314059D01*
Y298305D02*
Y334722D01*
X284728Y298305D02*
X314059D01*
X284728D02*
Y334722D01*
X375480Y376876D02*
X400283D01*
Y362703D02*
Y376876D01*
X375480Y362703D02*
X400283D01*
X375480D02*
Y376876D01*
X321185Y370708D02*
Y379763D01*
X316854Y370708D02*
Y379763D01*
X321185D01*
X316854Y370708D02*
X321185D01*
X316167Y367751D02*
X322072D01*
X316167Y357121D02*
X322072D01*
Y367751D01*
X316167Y357121D02*
Y367751D01*
X315967Y352551D02*
X321872D01*
X315967Y341921D02*
X321872D01*
Y352551D01*
X315967Y341921D02*
Y352551D01*
X281124Y354139D02*
Y363194D01*
X276793Y354139D02*
Y363194D01*
X281124D01*
X276793Y354139D02*
X281124D01*
X284077Y384044D02*
X313408D01*
Y347627D02*
Y384044D01*
X284077Y347627D02*
X313408D01*
X284077D02*
Y384044D01*
X316353Y206370D02*
X322258D01*
X316353Y195740D02*
X322258D01*
Y206370D01*
X316353Y195740D02*
Y206370D01*
X315274Y158372D02*
X321179D01*
X315274Y147742D02*
X321179D01*
Y158372D01*
X315274Y147742D02*
Y158372D01*
X282723Y46092D02*
X312053D01*
Y9675D02*
Y46092D01*
X282723Y9675D02*
X312053D01*
X282723D02*
Y46092D01*
X200112Y281631D02*
Y285962D01*
X209167Y281631D02*
Y285962D01*
X200112D02*
X209167D01*
X200112Y281631D02*
X209167D01*
X208528Y235735D02*
Y240065D01*
X199472Y235735D02*
Y240065D01*
Y235735D02*
X208528D01*
X199472Y240065D02*
X208528D01*
X180965Y219572D02*
Y228628D01*
X176635Y219572D02*
Y228628D01*
X180965D01*
X176635Y219572D02*
X180965D01*
X179886Y240920D02*
Y281274D01*
Y240920D02*
X210792D01*
Y281274D01*
X179886D02*
X210792D01*
X166351Y238479D02*
Y249109D01*
X172256Y238479D02*
Y249109D01*
X166351Y238479D02*
X172256D01*
X166351Y249109D02*
X172256D01*
X202300Y113635D02*
X211355D01*
X202300Y117965D02*
X211355D01*
Y113635D02*
Y117965D01*
X202300Y113635D02*
Y117965D01*
X216786Y123558D02*
X225841D01*
X216786Y127889D02*
X225841D01*
Y123558D02*
Y127889D01*
X216786Y123558D02*
Y127889D01*
X207172Y169535D02*
X216228D01*
X207172Y173865D02*
X216228D01*
Y169535D02*
Y173865D01*
X207172Y169535D02*
Y173865D01*
X547653Y345985D02*
Y356615D01*
X541747Y345985D02*
Y356615D01*
X547653D01*
X541747Y345985D02*
X547653D01*
X527253Y346844D02*
Y357474D01*
X521347Y346844D02*
Y357474D01*
X527253D01*
X521347Y346844D02*
X527253D01*
X517753Y347444D02*
Y358074D01*
X511847Y347444D02*
Y358074D01*
X517753D01*
X511847Y347444D02*
X517753D01*
X536753Y328085D02*
Y338715D01*
X530847Y328085D02*
Y338715D01*
X536753D01*
X530847Y328085D02*
X536753D01*
X511819Y310719D02*
Y319774D01*
X516150Y310719D02*
Y319774D01*
X511819Y310719D02*
X516150D01*
X511819Y319774D02*
X516150D01*
X537847Y294315D02*
X543753D01*
X537847Y283685D02*
X543753D01*
Y294315D01*
X537847Y283685D02*
Y294315D01*
X489673Y61835D02*
Y66165D01*
X498728Y61835D02*
Y66165D01*
X489673D02*
X498728D01*
X489673Y61835D02*
X498728D01*
X489572Y68335D02*
X498628D01*
X489572Y72665D02*
X498628D01*
Y68335D02*
Y72665D01*
X489572Y68335D02*
Y72665D01*
X314612Y14599D02*
X320518D01*
X314612Y3969D02*
X320518D01*
Y14599D01*
X314612Y3969D02*
Y14599D01*
X314812Y29799D02*
X320718D01*
X314812Y19169D02*
X320718D01*
Y29799D01*
X314812Y19169D02*
Y29799D01*
X319830Y32756D02*
Y41811D01*
X315500Y32756D02*
Y41811D01*
X319830D01*
X315500Y32756D02*
X319830D01*
X284450Y3931D02*
Y9836D01*
X295080Y3931D02*
Y9836D01*
X284450D02*
X295080D01*
X284450Y3931D02*
X295080D01*
X279476Y16276D02*
Y25332D01*
X275145Y16276D02*
Y25332D01*
X279476D01*
X275145Y16276D02*
X279476D01*
X214219Y23849D02*
Y42038D01*
X223353Y23849D02*
Y42038D01*
X214219D02*
X223353D01*
X214219Y23849D02*
X223353D01*
X207521Y34471D02*
X211851D01*
X207521Y25416D02*
X211851D01*
Y34471D01*
X207521Y25416D02*
Y34471D01*
X183621Y25471D02*
X187951D01*
X183621Y16416D02*
X187951D01*
Y25471D01*
X183621Y16416D02*
Y25471D01*
X188516Y29936D02*
X204855D01*
Y16550D02*
Y29936D01*
X188516Y16550D02*
X204855D01*
X188516D02*
Y29936D01*
X173619Y15238D02*
Y33428D01*
X182753Y15238D02*
Y33428D01*
X173619D02*
X182753D01*
X173619Y15238D02*
X182753D01*
X61884Y54212D02*
X72514D01*
X61884Y60117D02*
X72514D01*
Y54212D02*
Y60117D01*
X61884Y54212D02*
Y60117D01*
X49216Y94763D02*
Y99094D01*
X58271Y94763D02*
Y99094D01*
X49216D02*
X58271D01*
X49216Y94763D02*
X58271D01*
X46291Y93452D02*
X77196D01*
Y71405D02*
Y93452D01*
X46291Y71405D02*
X77196D01*
X46291D02*
Y93452D01*
X45347Y15196D02*
X51253D01*
X45347Y25826D02*
X51253D01*
X45347Y15196D02*
Y25826D01*
X51253Y15196D02*
Y25826D01*
Y27505D02*
Y38135D01*
X45347Y27505D02*
Y38135D01*
X51253D01*
X45347Y27505D02*
X51253D01*
X45058Y52440D02*
X55295D01*
X45058Y69763D02*
X55295D01*
Y52440D02*
Y69763D01*
X45058Y52440D02*
Y69763D01*
X26634Y24215D02*
Y38585D01*
Y24215D02*
X43366D01*
Y38585D01*
X26634D02*
X43366D01*
X25756Y67337D02*
Y73242D01*
X36386Y67337D02*
Y73242D01*
X25756D02*
X36386D01*
X25756Y67337D02*
X36386D01*
X31182Y78393D02*
Y89023D01*
X37088Y78393D02*
Y89023D01*
X31182Y78393D02*
X37088D01*
X31182Y89023D02*
X37088D01*
X-13953Y127685D02*
Y138315D01*
X-8047Y127685D02*
Y138315D01*
X-13953Y127685D02*
X-8047D01*
X-13953Y138315D02*
X-8047D01*
X181947Y169177D02*
X212853D01*
Y128823D02*
Y169177D01*
X181947Y128823D02*
X212853D01*
X181947D02*
Y169177D01*
X168689Y135811D02*
X174595D01*
X168689Y146441D02*
X174595D01*
X168689Y135811D02*
Y146441D01*
X174595Y135811D02*
Y146441D01*
X168689Y145583D02*
X174595D01*
X168689Y156213D02*
X174595D01*
X168689Y145583D02*
Y156213D01*
X174595Y145583D02*
Y156213D01*
X168689Y156115D02*
X174595D01*
X168689Y166744D02*
X174595D01*
X168689Y156115D02*
Y166744D01*
X174595Y156115D02*
Y166744D01*
X168650Y166385D02*
X174555D01*
X168650Y177015D02*
X174555D01*
X168650Y166385D02*
Y177015D01*
X174555Y166385D02*
Y177015D01*
X168650Y176385D02*
X174555D01*
X168650Y187015D02*
X174555D01*
X168650Y176385D02*
Y187015D01*
X174555Y176385D02*
Y187015D01*
X455979Y309478D02*
Y315384D01*
X466609Y309478D02*
Y315384D01*
X455979D02*
X466609D01*
X455979Y309478D02*
X466609D01*
X456767Y316565D02*
X465822D01*
X456767Y320896D02*
X465822D01*
Y316565D02*
Y320896D01*
X456767Y316565D02*
Y320896D01*
X53958Y100984D02*
Y106890D01*
X43328Y100984D02*
Y106890D01*
Y100984D02*
X53958D01*
X43328Y106890D02*
X53958D01*
X106376Y63193D02*
Y91342D01*
X92911Y63193D02*
X106376D01*
X92911D02*
Y91342D01*
X106376D01*
X82371Y68747D02*
Y77802D01*
X78040Y68747D02*
Y77802D01*
X82371D01*
X78040Y68747D02*
X82371D01*
X41358Y100884D02*
Y106790D01*
X30729Y100884D02*
Y106790D01*
Y100884D02*
X41358D01*
X30729Y106790D02*
X41358D01*
X-32753Y127985D02*
X-26847D01*
X-32753Y138615D02*
X-26847D01*
X-32753Y127985D02*
Y138615D01*
X-26847Y127985D02*
Y138615D01*
X456111Y265365D02*
Y269696D01*
X465166Y265365D02*
Y269696D01*
X456111D02*
X465166D01*
X456111Y265365D02*
X465166D01*
X409491Y274451D02*
Y285081D01*
X403585Y274451D02*
Y285081D01*
X409491D01*
X403585Y274451D02*
X409491D01*
X455323Y258278D02*
X465953D01*
X455323Y264183D02*
X465953D01*
Y258278D02*
Y264183D01*
X455323Y258278D02*
Y264183D01*
X421753Y233565D02*
Y237896D01*
X412698Y233565D02*
Y237896D01*
Y233565D02*
X421753D01*
X412698Y237896D02*
X421753D01*
X118130Y205699D02*
Y233259D01*
X145689D01*
Y205699D02*
Y233259D01*
X118130Y205699D02*
X145689D01*
M02*
