G04*
G04 #@! TF.GenerationSoftware,Altium Limited,Altium Designer,22.2.1 (43)*
G04*
G04 Layer_Color=8388736*
%FSLAX25Y25*%
%MOIN*%
G70*
G04*
G04 #@! TF.SameCoordinates,826469F0-98AB-435A-8F14-BB7E7FBFCF61*
G04*
G04*
G04 #@! TF.FilePolarity,Positive*
G04*
G01*
G75*
%ADD13C,0.00394*%
%ADD104C,0.00197*%
D13*
X79670Y55196D02*
Y59133D01*
X77702Y57165D02*
X81639D01*
X68541Y44900D02*
X72478D01*
X70509Y42932D02*
Y46869D01*
X22100Y112531D02*
Y116469D01*
X20132Y114500D02*
X24069D01*
X16845Y143510D02*
Y147447D01*
X14876Y145478D02*
X18813D01*
X232677Y175157D02*
X236614D01*
X234646Y173188D02*
Y177125D01*
X232677Y168838D02*
X236614D01*
X234646Y166869D02*
Y170806D01*
X222003Y167376D02*
X225940D01*
X223972Y165408D02*
Y169345D01*
X222003Y160809D02*
X225940D01*
X223972Y158840D02*
Y162777D01*
X224291Y154331D02*
X228228D01*
X226260Y152362D02*
Y156299D01*
X224291Y147937D02*
X228228D01*
X226260Y145968D02*
Y149906D01*
X224016Y141466D02*
X227953D01*
X225984Y139498D02*
Y143435D01*
X224016Y135221D02*
X227953D01*
X225984Y133252D02*
Y137189D01*
X220107Y244929D02*
X224044D01*
X222075Y242960D02*
Y246897D01*
X220023Y251147D02*
X223960D01*
X221991Y249179D02*
Y253116D01*
X220023Y257486D02*
X223960D01*
X221991Y255518D02*
Y259455D01*
X220079Y263779D02*
X224016D01*
X222047Y261811D02*
Y265748D01*
X220079Y269987D02*
X224016D01*
X222047Y268018D02*
Y271955D01*
X220107Y276355D02*
X224044D01*
X222075Y274387D02*
Y278324D01*
X220107Y283041D02*
X224044D01*
X222075Y281072D02*
Y285010D01*
X225244Y288702D02*
X229181D01*
X227213Y286733D02*
Y290670D01*
X171642Y109143D02*
Y113080D01*
X169674Y111112D02*
X173611D01*
X171642Y118832D02*
Y122768D01*
X169674Y120800D02*
X173611D01*
X171642Y128832D02*
Y132768D01*
X169674Y130800D02*
X173611D01*
X183772Y281828D02*
Y285765D01*
X181804Y283797D02*
X185741D01*
X17400Y335332D02*
Y339268D01*
X15431Y337300D02*
X19368D01*
X11300Y36731D02*
Y40668D01*
X9331Y38700D02*
X13269D01*
X153313Y363001D02*
X157249D01*
X155281Y361033D02*
Y364970D01*
X98151Y376919D02*
X102088D01*
X100120Y374951D02*
Y378888D01*
X153313Y351093D02*
X157249D01*
X155281Y349124D02*
Y353061D01*
X133151Y371901D02*
X137088D01*
X135120Y369933D02*
Y373870D01*
X65094Y360924D02*
X69031D01*
X67063Y358956D02*
Y362893D01*
X71820Y325833D02*
Y329770D01*
X69851Y327801D02*
X73788D01*
X71820Y313124D02*
Y317061D01*
X69851Y315093D02*
X73788D01*
X16845Y123432D02*
Y127368D01*
X14876Y125400D02*
X18813D01*
X16845Y134933D02*
Y138870D01*
X14876Y136901D02*
X18813D01*
X30334Y139371D02*
Y143308D01*
X28365Y141340D02*
X32302D01*
X163468Y32715D02*
Y36652D01*
X161499Y34683D02*
X165436D01*
X163468Y19215D02*
Y23152D01*
X161499Y21183D02*
X165436D01*
X-22468Y133500D02*
X-18531D01*
X-20500Y131532D02*
Y135468D01*
X406986Y379894D02*
X410923D01*
X408954Y377926D02*
Y381863D01*
X463054Y359390D02*
Y363328D01*
X461086Y361359D02*
X465023D01*
X407194Y328998D02*
Y332935D01*
X405226Y330966D02*
X409163D01*
X417809Y325462D02*
Y329399D01*
X415840Y327431D02*
X419777D01*
X416578Y261017D02*
X420515D01*
X418547Y259048D02*
Y262985D01*
X416516Y267531D02*
X420453D01*
X418484Y265562D02*
Y269499D01*
X415184Y276231D02*
X419121D01*
X417153Y274262D02*
Y278199D01*
X405226Y231966D02*
X409163D01*
X407194Y229998D02*
Y233935D01*
X461294Y211462D02*
Y215399D01*
X459326Y213431D02*
X463263D01*
X417234Y213217D02*
X421171D01*
X419203Y211248D02*
Y215185D01*
X417172Y219731D02*
X421109D01*
X419140Y217762D02*
Y221699D01*
X415840Y228431D02*
X419777D01*
X417809Y226462D02*
Y230399D01*
X402561Y181254D02*
X406498D01*
X404529Y179285D02*
Y183222D01*
X414570Y162504D02*
X418507D01*
X416538Y160536D02*
Y164472D01*
X416476Y167050D02*
Y170987D01*
X414507Y169018D02*
X418444D01*
X401177Y133406D02*
X405114D01*
X403146Y131437D02*
Y135374D01*
X413186Y114656D02*
X417123D01*
X415154Y112688D02*
Y116625D01*
X413123Y121170D02*
X417060D01*
X415092Y119202D02*
Y123139D01*
X411792Y129870D02*
X415729D01*
X413760Y127902D02*
Y131839D01*
X411302Y64375D02*
X415239D01*
X413271Y62407D02*
Y66344D01*
X411239Y70889D02*
X415176D01*
X413208Y68921D02*
Y72858D01*
X409908Y79589D02*
X413845D01*
X411876Y77621D02*
Y81558D01*
X335595Y67913D02*
Y71850D01*
X333626Y69881D02*
X337563D01*
X455493Y79507D02*
Y83444D01*
X453525Y81476D02*
X457462D01*
X335794Y76964D02*
Y80901D01*
X333826Y78932D02*
X337763D01*
X453393Y64589D02*
X457330D01*
X455362Y62621D02*
Y66558D01*
X401262Y81156D02*
Y85093D01*
X399293Y83125D02*
X403230D01*
X460595Y57113D02*
Y61050D01*
X458626Y59082D02*
X462563D01*
X337478Y118194D02*
Y122131D01*
X335510Y120162D02*
X339447D01*
X457377Y129788D02*
Y133726D01*
X455409Y131757D02*
X459346D01*
X337678Y127245D02*
Y131182D01*
X335710Y129213D02*
X339647D01*
X455277Y114870D02*
X459214D01*
X457246Y112902D02*
Y116839D01*
X462478Y107394D02*
Y111331D01*
X460510Y109362D02*
X464447D01*
X415144Y175750D02*
Y179687D01*
X413176Y177718D02*
X417113D01*
X338862Y166042D02*
Y169979D01*
X336894Y168010D02*
X340831D01*
X458761Y177636D02*
Y181573D01*
X456792Y179605D02*
X460730D01*
X339062Y175093D02*
Y179030D01*
X337094Y177061D02*
X341031D01*
X456661Y162718D02*
X460598D01*
X458630Y160750D02*
Y164687D01*
X463862Y155242D02*
Y159179D01*
X461894Y157210D02*
X465831D01*
X279597Y344881D02*
Y348818D01*
X277628Y346850D02*
X281565D01*
X319570Y295945D02*
Y299882D01*
X317602Y297914D02*
X321539D01*
X319770Y311145D02*
Y315082D01*
X317802Y313114D02*
X321739D01*
X319132Y247433D02*
Y251370D01*
X317163Y249402D02*
X321100D01*
X319332Y262633D02*
Y266570D01*
X317363Y264602D02*
X321300D01*
X277982Y198700D02*
Y202637D01*
X276014Y200669D02*
X279951D01*
X319505Y214286D02*
Y218223D01*
X317537Y216255D02*
X321474D01*
X318426Y166288D02*
Y170225D01*
X316458Y168257D02*
X320395D01*
X276326Y102855D02*
Y106792D01*
X274358Y104823D02*
X278295D01*
X317096Y103241D02*
Y107177D01*
X315128Y105209D02*
X319065D01*
X317297Y118440D02*
Y122378D01*
X315328Y120409D02*
X319265D01*
X277697Y54730D02*
Y58667D01*
X275728Y56698D02*
X279665D01*
X317563Y55115D02*
Y59052D01*
X315594Y57084D02*
X319531D01*
X317763Y70315D02*
Y74252D01*
X315794Y72284D02*
X319731D01*
X411582Y30939D02*
Y34876D01*
X409614Y32908D02*
X413551D01*
X412914Y22239D02*
Y26176D01*
X410945Y24208D02*
X414882D01*
X412976Y15725D02*
Y19662D01*
X411008Y17694D02*
X414945D01*
X335300Y21231D02*
Y25168D01*
X333331Y23200D02*
X337268D01*
X455199Y32826D02*
Y36763D01*
X453230Y34795D02*
X457167D01*
X335500Y30282D02*
Y34219D01*
X333531Y32251D02*
X337469D01*
X453099Y17908D02*
X457036D01*
X455067Y15939D02*
Y19876D01*
X400967Y34475D02*
Y38412D01*
X398999Y36443D02*
X402936D01*
X460300Y10431D02*
Y14368D01*
X458331Y12400D02*
X462268D01*
X277697Y150969D02*
Y154905D01*
X275728Y152937D02*
X279665D01*
X464558Y207923D02*
X468495D01*
X466527Y205954D02*
Y209891D01*
X459457Y230317D02*
X463394D01*
X461426Y228349D02*
Y232286D01*
X463902Y255723D02*
X467839D01*
X465871Y253754D02*
Y257691D01*
X458801Y278117D02*
X462738D01*
X460770Y276149D02*
Y280086D01*
X339758Y227774D02*
X343695D01*
X341727Y225805D02*
Y229742D01*
X339558Y218723D02*
X343495D01*
X341527Y216754D02*
Y220691D01*
X341071Y273605D02*
Y277542D01*
X339102Y275574D02*
X343039D01*
X338902Y266523D02*
X342839D01*
X340871Y264554D02*
Y268491D01*
X280147Y247317D02*
Y251254D01*
X278178Y249286D02*
X282115D01*
X466527Y304954D02*
Y308891D01*
X464558Y306923D02*
X468495D01*
X461426Y327349D02*
Y331286D01*
X459457Y329317D02*
X463394D01*
X419140Y316762D02*
Y320699D01*
X417172Y318731D02*
X421109D01*
X419203Y310248D02*
Y314185D01*
X417234Y312217D02*
X421171D01*
X341727Y324805D02*
Y328742D01*
X339758Y326774D02*
X343695D01*
X341527Y315754D02*
Y319691D01*
X339558Y317723D02*
X343495D01*
X280147Y295560D02*
Y299497D01*
X278178Y297528D02*
X282115D01*
X341318Y366651D02*
X345255D01*
X343287Y364683D02*
Y368620D01*
X341518Y375702D02*
X345456D01*
X343487Y373733D02*
Y377671D01*
X417600Y376359D02*
X421537D01*
X419569Y374391D02*
Y378328D01*
X461217Y378246D02*
X465154D01*
X463186Y376277D02*
Y380214D01*
X466319Y355851D02*
X470256D01*
X468287Y353883D02*
Y357820D01*
X418932Y367659D02*
X422869D01*
X420900Y365691D02*
Y369628D01*
X418995Y361145D02*
X422932D01*
X420963Y359176D02*
Y363113D01*
X319120Y360467D02*
Y364404D01*
X317151Y362436D02*
X321088D01*
X318919Y345267D02*
Y349204D01*
X316951Y347235D02*
X320888D01*
X319305Y199086D02*
Y203023D01*
X317337Y201055D02*
X321274D01*
X318227Y151088D02*
Y155025D01*
X316258Y153057D02*
X320195D01*
X167335Y243794D02*
X171272D01*
X169303Y241825D02*
Y245762D01*
X542732Y351300D02*
X546668D01*
X544700Y349331D02*
Y353269D01*
X522331Y352159D02*
X526268D01*
X524300Y350191D02*
Y354128D01*
X512831Y352759D02*
X516769D01*
X514800Y350791D02*
Y354728D01*
X531832Y333400D02*
X535769D01*
X533800Y331432D02*
Y335368D01*
X540800Y287032D02*
Y290968D01*
X538832Y289000D02*
X542768D01*
X317565Y7315D02*
Y11252D01*
X315597Y9284D02*
X319534D01*
X317765Y22515D02*
Y26452D01*
X315797Y24484D02*
X319734D01*
X287797Y6884D02*
X291734D01*
X289765Y4915D02*
Y8852D01*
X67199Y55196D02*
Y59133D01*
X65230Y57165D02*
X69167D01*
X48300Y18542D02*
Y22479D01*
X46332Y20511D02*
X50269D01*
X46332Y32820D02*
X50269D01*
X48300Y30851D02*
Y34788D01*
X48208Y61102D02*
X52145D01*
X50177Y59133D02*
Y63070D01*
X29102Y70290D02*
X33039D01*
X31071Y68321D02*
Y72258D01*
X32166Y83708D02*
X36103D01*
X34135Y81739D02*
Y85676D01*
X-12968Y133000D02*
X-9031D01*
X-11000Y131032D02*
Y134968D01*
X171642Y139157D02*
Y143095D01*
X169674Y141126D02*
X173611D01*
X171642Y148929D02*
Y152866D01*
X169674Y150898D02*
X173611D01*
X171642Y159461D02*
Y163398D01*
X169674Y161430D02*
X173611D01*
X171603Y169731D02*
Y173669D01*
X169634Y171700D02*
X173571D01*
X171603Y179732D02*
Y183668D01*
X169634Y181700D02*
X173571D01*
X459326Y312431D02*
X463263D01*
X461294Y310462D02*
Y314399D01*
X46675Y103937D02*
X50612D01*
X48643Y101969D02*
Y105905D01*
X34075Y103837D02*
X38012D01*
X36044Y101868D02*
Y105806D01*
X-29800Y131332D02*
Y135268D01*
X-31769Y133300D02*
X-27832D01*
X404570Y279766D02*
X408507D01*
X406538Y277798D02*
Y281735D01*
X460638Y259262D02*
Y263199D01*
X458670Y261231D02*
X462607D01*
D104*
X96876Y119033D02*
Y122970D01*
X94907Y121001D02*
X98844D01*
X88220Y300533D02*
Y304470D01*
X86251Y302501D02*
X90188D01*
X161781Y369297D02*
Y373234D01*
X159812Y371265D02*
X163750D01*
X188252Y340501D02*
X192189D01*
X190221Y338533D02*
Y342470D01*
X59781Y355933D02*
Y359870D01*
X57812Y357901D02*
X61750D01*
X128451Y338301D02*
X132388D01*
X130420Y336333D02*
Y340270D01*
X87450Y376401D02*
X91190D01*
X89320Y374531D02*
Y378271D01*
X177403Y360401D02*
X180159D01*
X178781Y359023D02*
Y361779D01*
X167403Y360101D02*
X170159D01*
X168781Y358723D02*
Y361479D01*
X161781Y361131D02*
Y364871D01*
X159911Y363001D02*
X163651D01*
X52881Y358331D02*
Y362071D01*
X51011Y360201D02*
X54751D01*
X43403Y364081D02*
X46159D01*
X44781Y362703D02*
Y365459D01*
X33803Y364081D02*
X36559D01*
X35181Y362703D02*
Y365459D01*
X162820Y377423D02*
Y380179D01*
X161442Y378801D02*
X164198D01*
X99104Y357093D02*
Y360833D01*
X97234Y358963D02*
X100974D01*
X86311Y315093D02*
X90051D01*
X88181Y313223D02*
Y316963D01*
X23449Y323101D02*
X27190D01*
X25320Y321231D02*
Y324971D01*
X28743Y121001D02*
X32483D01*
X30613Y119131D02*
Y122871D01*
X65014Y136701D02*
X68754D01*
X66884Y134831D02*
Y138571D01*
X66484Y123731D02*
Y127471D01*
X64614Y125601D02*
X68354D01*
X22572Y123530D02*
Y127270D01*
X20702Y125400D02*
X24442D01*
X228912Y33968D02*
X232849D01*
X230880Y31999D02*
Y35936D01*
X398787Y376881D02*
Y380621D01*
X396917Y378751D02*
X400657D01*
X398713Y382639D02*
Y386380D01*
X396843Y384509D02*
X400583D01*
X397027Y327953D02*
Y331693D01*
X395157Y329823D02*
X398897D01*
X396953Y333711D02*
Y337451D01*
X395083Y335581D02*
X398823D01*
X394501Y278623D02*
X398241D01*
X396371Y276753D02*
Y280493D01*
X396297Y282511D02*
Y286251D01*
X394427Y284381D02*
X398167D01*
X397027Y228953D02*
Y232693D01*
X395157Y230823D02*
X398897D01*
X396953Y234711D02*
Y238451D01*
X395083Y236581D02*
X398823D01*
X394362Y178240D02*
Y181980D01*
X392492Y180110D02*
X396232D01*
X394288Y183998D02*
Y187739D01*
X392418Y185868D02*
X396159D01*
X391108Y132263D02*
X394848D01*
X392978Y130392D02*
Y134133D01*
X392904Y136151D02*
Y139891D01*
X391035Y138021D02*
X394775D01*
X389224Y81981D02*
X392965D01*
X391094Y80111D02*
Y83852D01*
X391021Y85870D02*
Y89610D01*
X389151Y87740D02*
X392891D01*
X461184Y367659D02*
X464924D01*
X463054Y365789D02*
Y369529D01*
X417116Y383659D02*
X420856D01*
X418986Y381789D02*
Y385529D01*
X454616Y354546D02*
X458356D01*
X456486Y352676D02*
Y356416D01*
X417226Y332861D02*
Y336601D01*
X415356Y334731D02*
X419096D01*
X406526Y317893D02*
Y321633D01*
X404656Y319763D02*
X408396D01*
X454726Y303747D02*
Y307487D01*
X452856Y305617D02*
X456596D01*
X414700Y283531D02*
X418440D01*
X416570Y281661D02*
Y285401D01*
X452200Y254417D02*
X455940D01*
X454070Y252547D02*
Y256287D01*
X459424Y219731D02*
X463164D01*
X461294Y217861D02*
Y221601D01*
X404656Y220763D02*
X408396D01*
X406526Y218893D02*
Y222633D01*
X452856Y206617D02*
X456596D01*
X454726Y204747D02*
Y208487D01*
X456759Y169018D02*
X460500D01*
X458630Y167148D02*
Y170888D01*
X401991Y170050D02*
X405731D01*
X403861Y168180D02*
Y171920D01*
X450191Y155905D02*
X453931D01*
X452061Y154035D02*
Y157775D01*
X411307Y137170D02*
X415047D01*
X413177Y135300D02*
Y139041D01*
X400607Y122203D02*
X404347D01*
X402477Y120333D02*
Y124073D01*
X409423Y86889D02*
X413163D01*
X411293Y85019D02*
Y88759D01*
X398723Y71922D02*
X402463D01*
X400593Y70052D02*
Y73792D01*
X421281Y87874D02*
X425218D01*
X423249Y85905D02*
Y89842D01*
X410649Y55761D02*
Y59698D01*
X408680Y57730D02*
X412617D01*
X443525Y87874D02*
X447462D01*
X445493Y85905D02*
Y89842D01*
X448793Y55906D02*
Y59646D01*
X446923Y57776D02*
X450663D01*
X371528Y58150D02*
Y61890D01*
X369657Y60020D02*
X373398D01*
X464198Y71047D02*
Y74787D01*
X462328Y72917D02*
X466068D01*
X469562Y71047D02*
Y74787D01*
X467692Y72917D02*
X471432D01*
X455362Y69019D02*
Y72759D01*
X453492Y70889D02*
X457232D01*
X423165Y138155D02*
X427102D01*
X425133Y136186D02*
Y140123D01*
X413581Y106088D02*
Y110026D01*
X411613Y108057D02*
X415550D01*
X445409Y138155D02*
X449346D01*
X447377Y136186D02*
Y140123D01*
X450677Y106187D02*
Y109927D01*
X448807Y108057D02*
X452547D01*
X373411Y108431D02*
Y112171D01*
X371541Y110301D02*
X375281D01*
X466082Y121328D02*
Y125068D01*
X464212Y123198D02*
X467952D01*
X471445Y121328D02*
Y125068D01*
X469575Y123198D02*
X473315D01*
X455375Y121170D02*
X459116D01*
X457246Y119300D02*
Y123040D01*
X424548Y186002D02*
X428485D01*
X426517Y184034D02*
Y187971D01*
X414965Y153936D02*
Y157873D01*
X412997Y155905D02*
X416934D01*
X446793Y186002D02*
X450730D01*
X448761Y184034D02*
Y187971D01*
X374795Y156279D02*
Y160019D01*
X372925Y158149D02*
X376665D01*
X414561Y183148D02*
Y186888D01*
X412691Y185018D02*
X416431D01*
X467465Y169176D02*
Y172916D01*
X465595Y171046D02*
X469336D01*
X472829Y169176D02*
Y172916D01*
X470959Y171046D02*
X474699D01*
X317800Y325914D02*
X321540D01*
X319670Y324044D02*
Y327784D01*
X317362Y277402D02*
X321102D01*
X319232Y275532D02*
Y279272D01*
X317535Y229055D02*
X321275D01*
X319405Y227185D02*
Y230925D01*
X316456Y181057D02*
X320197D01*
X318326Y179187D02*
Y182927D01*
X276112Y115800D02*
X279852D01*
X277982Y113930D02*
Y117670D01*
X315326Y133209D02*
X319067D01*
X317196Y131339D02*
Y135079D01*
X315792Y85084D02*
X319533D01*
X317663Y83214D02*
Y86954D01*
X390726Y39188D02*
Y42928D01*
X388856Y41058D02*
X392596D01*
X388930Y35300D02*
X392670D01*
X390800Y33430D02*
Y37170D01*
X420986Y41192D02*
X424923D01*
X422955Y39224D02*
Y43161D01*
X411403Y9126D02*
Y13063D01*
X409435Y11095D02*
X413372D01*
X443230Y41192D02*
X447167D01*
X445199Y39224D02*
Y43161D01*
X448499Y9224D02*
Y12965D01*
X446629Y11095D02*
X450369D01*
X371233Y11468D02*
Y15209D01*
X369363Y13339D02*
X373103D01*
X400299Y23370D02*
Y27110D01*
X398429Y25240D02*
X402169D01*
X410999Y38338D02*
Y42078D01*
X409129Y40208D02*
X412869D01*
X463903Y24366D02*
Y28106D01*
X462033Y26236D02*
X465773D01*
X469267Y24366D02*
Y28106D01*
X467397Y26236D02*
X471137D01*
X455067Y22338D02*
Y26078D01*
X453197Y24208D02*
X456938D01*
X277230Y68100D02*
X280970D01*
X279100Y66230D02*
Y69970D01*
X275827Y163779D02*
X279567D01*
X277696Y161909D02*
Y165650D01*
X468260Y221759D02*
X472000D01*
X470130Y219889D02*
Y223629D01*
X473624Y221759D02*
X477364D01*
X475494Y219889D02*
Y223629D01*
X451426Y234747D02*
Y238684D01*
X449457Y236715D02*
X453394D01*
X429182Y234747D02*
Y238684D01*
X427213Y236715D02*
X431150D01*
X415661Y206617D02*
X419598D01*
X417630Y204649D02*
Y208586D01*
X375590Y208861D02*
X379330D01*
X377460Y206991D02*
Y210732D01*
X428526Y282546D02*
Y286484D01*
X426557Y284515D02*
X430494D01*
X450770Y282546D02*
Y286484D01*
X448801Y284515D02*
X452738D01*
X472968Y269559D02*
X476708D01*
X474838Y267689D02*
Y271429D01*
X467604Y269559D02*
X471344D01*
X469474Y267689D02*
Y271429D01*
X415006Y254417D02*
X418943D01*
X416974Y252449D02*
Y256386D01*
X404000Y268563D02*
X407740D01*
X405870Y266693D02*
Y270433D01*
X374934Y256661D02*
X378674D01*
X376804Y254791D02*
Y258531D01*
X279230Y212500D02*
X282970D01*
X281100Y210630D02*
Y214370D01*
X277924Y261288D02*
X281664D01*
X279794Y259418D02*
Y263158D01*
X470130Y318889D02*
Y322629D01*
X468260Y320759D02*
X472000D01*
X475494Y318889D02*
Y322629D01*
X473624Y320759D02*
X477364D01*
X417630Y303649D02*
Y307586D01*
X415661Y305617D02*
X419598D01*
X377460Y305991D02*
Y309732D01*
X375590Y307861D02*
X379330D01*
X277727Y309514D02*
X281467D01*
X279597Y307644D02*
Y311385D01*
X377350Y356790D02*
X381090D01*
X379220Y354920D02*
Y358660D01*
X430942Y382675D02*
Y386612D01*
X428973Y384643D02*
X432910D01*
X453186Y382675D02*
Y386612D01*
X451217Y384643D02*
X455154D01*
X475384Y369687D02*
X479124D01*
X477254Y367817D02*
Y371557D01*
X470020Y369687D02*
X473761D01*
X471890Y367817D02*
Y371557D01*
X406416Y368691D02*
X410156D01*
X408286Y366821D02*
Y370561D01*
X449457Y335715D02*
X453394D01*
X451426Y333747D02*
Y337684D01*
X427213Y335715D02*
X431150D01*
X429182Y333747D02*
Y337684D01*
X417422Y354546D02*
X421359D01*
X419390Y352577D02*
Y356514D01*
X317149Y375236D02*
X320890D01*
X319020Y373365D02*
Y377106D01*
X277088Y358667D02*
X280828D01*
X278958Y356797D02*
Y360537D01*
X202769Y283797D02*
X206509D01*
X204639Y281927D02*
Y285667D01*
X202130Y237900D02*
X205870D01*
X204000Y236030D02*
Y239770D01*
X176930Y224100D02*
X180670D01*
X178800Y222230D02*
Y225970D01*
X206828Y113930D02*
Y117670D01*
X204958Y115800D02*
X208698D01*
X221313Y123854D02*
Y127594D01*
X219443Y125724D02*
X223183D01*
X211700Y169830D02*
Y173570D01*
X209830Y171700D02*
X213570D01*
X545000Y332175D02*
Y334143D01*
X544016Y333159D02*
X545984D01*
X533800Y351675D02*
Y353643D01*
X532816Y352659D02*
X534784D01*
X514800Y332216D02*
Y334184D01*
X513816Y333200D02*
X515784D01*
X524300Y332316D02*
Y334284D01*
X523316Y333300D02*
X525284D01*
X512114Y315247D02*
X515854D01*
X513984Y313377D02*
Y317117D01*
X492330Y64000D02*
X496070D01*
X494200Y62130D02*
Y65870D01*
X494100Y68630D02*
Y72370D01*
X492230Y70500D02*
X495970D01*
X315795Y37284D02*
X319535D01*
X317665Y35414D02*
Y39154D01*
X275441Y20804D02*
X279181D01*
X277311Y18934D02*
Y22674D01*
X217408Y32943D02*
X220164D01*
X218786Y31565D02*
Y34321D01*
X209686Y28073D02*
Y31813D01*
X207816Y29943D02*
X211556D01*
X185786Y19073D02*
Y22813D01*
X183916Y20943D02*
X187656D01*
X176808Y24333D02*
X179564D01*
X178186Y22955D02*
Y25711D01*
X51873Y96928D02*
X55613D01*
X53743Y95058D02*
Y98798D01*
X-35838Y171260D02*
Y175197D01*
X-37807Y173228D02*
X-33870D01*
X-36500Y160831D02*
Y164769D01*
X-38469Y162800D02*
X-34532D01*
X-28172Y160831D02*
Y164769D01*
X-30140Y162800D02*
X-26203D01*
X-21273Y170268D02*
Y174205D01*
X-23242Y172237D02*
X-19305D01*
X-34773Y180709D02*
Y184646D01*
X-36742Y182677D02*
X-32805D01*
X-20303Y180709D02*
Y184646D01*
X-22272Y182677D02*
X-18335D01*
X461294Y316861D02*
Y320601D01*
X459424Y318731D02*
X463164D01*
X78336Y73275D02*
X82076D01*
X80206Y71405D02*
Y75145D01*
X458768Y267531D02*
X462508D01*
X460638Y265661D02*
Y269401D01*
X415356Y235731D02*
X419096D01*
X417226Y233861D02*
Y237601D01*
X131909Y209636D02*
Y229322D01*
X122066Y219479D02*
X141752D01*
M02*
