G04*
G04 #@! TF.GenerationSoftware,Altium Limited,Altium Designer,22.2.1 (43)*
G04*
G04 Layer_Color=16711935*
%FSLAX25Y25*%
%MOIN*%
G70*
G04*
G04 #@! TF.SameCoordinates,30FCE4F9-E1B9-4DFF-BD3F-7D8714A2E317*
G04*
G04*
G04 #@! TF.FilePolarity,Positive*
G04*
G01*
G75*
%ADD13C,0.00394*%
%ADD14C,0.00787*%
D13*
X440670Y65790D02*
X440407Y66774D01*
X439686Y67495D01*
X438702Y67759D01*
X437718Y67495D01*
X436997Y66774D01*
X436733Y65790D01*
X436997Y64806D01*
X437718Y64085D01*
X438702Y63822D01*
X439686Y64085D01*
X440407Y64806D01*
X440670Y65790D01*
X442554Y116071D02*
X442290Y117055D01*
X441570Y117776D01*
X440586Y118040D01*
X439602Y117776D01*
X438881Y117055D01*
X438617Y116071D01*
X438881Y115087D01*
X439602Y114366D01*
X440586Y114103D01*
X441570Y114366D01*
X442290Y115087D01*
X442554Y116071D01*
X443938Y163919D02*
X443674Y164903D01*
X442954Y165624D01*
X441970Y165887D01*
X440985Y165624D01*
X440265Y164903D01*
X440001Y163919D01*
X440265Y162935D01*
X440985Y162214D01*
X441970Y161950D01*
X442954Y162214D01*
X443674Y162935D01*
X443938Y163919D01*
X440376Y19109D02*
X440112Y20093D01*
X439392Y20813D01*
X438408Y21077D01*
X437423Y20813D01*
X436703Y20093D01*
X436439Y19109D01*
X436703Y18124D01*
X437423Y17404D01*
X438408Y17140D01*
X439392Y17404D01*
X440112Y18124D01*
X440376Y19109D01*
X446603Y214632D02*
X446339Y215616D01*
X445619Y216336D01*
X444634Y216600D01*
X443650Y216336D01*
X442930Y215616D01*
X442666Y214632D01*
X442930Y213647D01*
X443650Y212927D01*
X444634Y212663D01*
X445619Y212927D01*
X446339Y213647D01*
X446603Y214632D01*
X445947Y262432D02*
X445683Y263416D01*
X444963Y264136D01*
X443978Y264400D01*
X442994Y264136D01*
X442274Y263416D01*
X442010Y262432D01*
X442274Y261447D01*
X442994Y260727D01*
X443978Y260463D01*
X444963Y260727D01*
X445683Y261447D01*
X445947Y262432D01*
X446603Y313632D02*
X446339Y314616D01*
X445619Y315336D01*
X444634Y315600D01*
X443650Y315336D01*
X442930Y314616D01*
X442666Y313632D01*
X442930Y312647D01*
X443650Y311927D01*
X444634Y311663D01*
X445619Y311927D01*
X446339Y312647D01*
X446603Y313632D01*
X448363Y362560D02*
X448099Y363544D01*
X447379Y364265D01*
X446394Y364528D01*
X445410Y364265D01*
X444690Y363544D01*
X444426Y362560D01*
X444690Y361576D01*
X445410Y360855D01*
X446394Y360591D01*
X447379Y360855D01*
X448099Y361576D01*
X448363Y362560D01*
X426497Y81932D02*
X442245D01*
X426497Y62247D02*
X442245D01*
X426497D02*
Y81932D01*
X442245Y62247D02*
Y81932D01*
X428381Y132213D02*
X444129D01*
X428381Y112528D02*
X444129D01*
X428381D02*
Y132213D01*
X444129Y112528D02*
Y132213D01*
X429765Y180061D02*
X445513D01*
X429765Y160376D02*
X445513D01*
X429765D02*
Y180061D01*
X445513Y160376D02*
Y180061D01*
X426203Y35250D02*
X441951D01*
X426203Y15565D02*
X441951D01*
X426203D02*
Y35250D01*
X441951Y15565D02*
Y35250D01*
X448178Y211088D02*
Y230773D01*
X432430Y211088D02*
Y230773D01*
Y211088D02*
X448178D01*
X432430Y230773D02*
X448178D01*
X447522Y258888D02*
Y278573D01*
X431774Y258888D02*
Y278573D01*
Y258888D02*
X447522D01*
X431774Y278573D02*
X447522D01*
X432430Y329773D02*
X448178D01*
X432430Y310088D02*
X448178D01*
X432430D02*
Y329773D01*
X448178Y310088D02*
Y329773D01*
X449938Y359016D02*
Y378702D01*
X434190Y359016D02*
Y378702D01*
Y359016D02*
X449938D01*
X434190Y378702D02*
X449938D01*
X86686Y37905D02*
X113065D01*
X86686Y23338D02*
X113065D01*
Y37905D01*
X86686Y23338D02*
Y37905D01*
D14*
X180662Y82680D02*
X206646D01*
Y58664D02*
Y82680D01*
X180662Y58664D02*
X206646D01*
X180662D02*
Y82680D01*
M02*
