G04*
G04 #@! TF.GenerationSoftware,Altium Limited,Altium Designer,22.2.1 (43)*
G04*
G04 Layer_Color=8388736*
%FSLAX25Y25*%
%MOIN*%
G70*
G04*
G04 #@! TF.SameCoordinates,30FCE4F9-E1B9-4DFF-BD3F-7D8714A2E317*
G04*
G04*
G04 #@! TF.FilePolarity,Positive*
G04*
G01*
G75*
%ADD18C,0.01000*%
%ADD100C,0.00600*%
D18*
X555000Y6000D02*
X557000Y0D01*
X559000Y6000D01*
X557000Y393701D02*
X559000Y387701D01*
X555000D02*
X557000Y393701D01*
Y0D02*
Y177156D01*
Y213345D02*
Y393701D01*
X556000Y0D02*
X557248D01*
X548638Y393701D02*
X558000D01*
D100*
X561599Y178756D02*
Y180755D01*
Y179755D01*
X555601D01*
X556600Y178756D01*
Y183754D02*
X555601Y184754D01*
Y186753D01*
X556600Y187753D01*
X560599D01*
X561599Y186753D01*
Y184754D01*
X560599Y183754D01*
X556600D01*
Y189752D02*
X555601Y190752D01*
Y192751D01*
X556600Y193751D01*
X560599D01*
X561599Y192751D01*
Y190752D01*
X560599Y189752D01*
X556600D01*
X562598Y196750D02*
X561599Y197750D01*
X560599D01*
Y196750D01*
X561599D01*
Y197750D01*
X562598Y196750D01*
X563598Y195750D01*
X556600Y201748D02*
X555601Y202748D01*
Y204747D01*
X556600Y205747D01*
X560599D01*
X561599Y204747D01*
Y202748D01*
X560599Y201748D01*
X556600D01*
Y207746D02*
X555601Y208746D01*
Y210745D01*
X556600Y211745D01*
X560599D01*
X561599Y210745D01*
Y208746D01*
X560599Y207746D01*
X556600D01*
M02*
