G04*
G04 #@! TF.GenerationSoftware,Altium Limited,Altium Designer,22.2.1 (43)*
G04*
G04 Layer_Color=16711935*
%FSLAX25Y25*%
%MOIN*%
G70*
G04*
G04 #@! TF.SameCoordinates,826469F0-98AB-435A-8F14-BB7E7FBFCF61*
G04*
G04*
G04 #@! TF.FilePolarity,Negative*
G04*
G01*
G75*
%ADD47R,0.11417X0.02559*%
%ADD48C,0.06902*%
%ADD49C,0.13005*%
%ADD50R,0.06312X0.06312*%
%ADD51C,0.06312*%
%ADD52C,0.10249*%
%ADD53C,0.13595*%
%ADD54C,0.06600*%
%ADD55C,0.03162*%
%ADD56C,0.02375*%
D47*
X-49000Y264567D02*
D03*
Y261417D02*
D03*
Y258268D02*
D03*
Y255118D02*
D03*
Y251969D02*
D03*
Y248819D02*
D03*
Y245669D02*
D03*
Y242520D02*
D03*
Y233071D02*
D03*
Y229921D02*
D03*
Y226772D02*
D03*
Y223622D02*
D03*
Y220472D02*
D03*
Y217323D02*
D03*
Y214173D02*
D03*
Y211024D02*
D03*
Y207874D02*
D03*
Y204724D02*
D03*
Y201575D02*
D03*
Y198425D02*
D03*
Y182677D02*
D03*
Y179528D02*
D03*
Y176378D02*
D03*
Y173228D02*
D03*
Y170079D02*
D03*
Y166929D02*
D03*
Y163779D02*
D03*
Y160630D02*
D03*
Y157480D02*
D03*
Y154331D02*
D03*
Y151181D02*
D03*
Y148031D02*
D03*
Y144882D02*
D03*
Y141732D02*
D03*
Y138583D02*
D03*
Y135433D02*
D03*
Y132283D02*
D03*
Y129134D02*
D03*
Y239370D02*
D03*
Y236221D02*
D03*
D48*
X188654Y70672D02*
D03*
X198654D02*
D03*
D49*
X540400Y375300D02*
D03*
X539600Y20700D02*
D03*
D50*
X534000Y251600D02*
D03*
Y189600D02*
D03*
D51*
X527000Y247600D02*
D03*
X534000Y243600D02*
D03*
X527000Y239600D02*
D03*
X534000Y235600D02*
D03*
X527000Y231600D02*
D03*
X534000Y227600D02*
D03*
X527000Y223600D02*
D03*
Y161600D02*
D03*
X534000Y165600D02*
D03*
X527000Y169600D02*
D03*
X534000Y173600D02*
D03*
X527000Y177600D02*
D03*
X534000Y181600D02*
D03*
X527000Y185600D02*
D03*
D52*
X530500Y269600D02*
D03*
Y143600D02*
D03*
D53*
X544000Y262600D02*
D03*
Y150600D02*
D03*
D54*
X507500Y55400D02*
D03*
Y65400D02*
D03*
Y75400D02*
D03*
Y85400D02*
D03*
Y95400D02*
D03*
Y105400D02*
D03*
Y115400D02*
D03*
Y125400D02*
D03*
X517500Y55400D02*
D03*
Y65400D02*
D03*
Y125400D02*
D03*
Y115400D02*
D03*
Y105400D02*
D03*
Y95400D02*
D03*
Y85400D02*
D03*
Y75400D02*
D03*
D55*
X31071Y99606D02*
D03*
X55118Y101863D02*
D03*
X56499Y57165D02*
D03*
X24659Y70290D02*
D03*
X173187Y41339D02*
D03*
X320541Y7299D02*
D03*
X374410Y10701D02*
D03*
X213705Y65341D02*
D03*
X211024Y40551D02*
D03*
X205512Y32677D02*
D03*
X218786Y44094D02*
D03*
X541732Y328160D02*
D03*
X518381Y359778D02*
D03*
X520000Y355318D02*
D03*
X510630Y318003D02*
D03*
X525662Y316507D02*
D03*
X524035Y319891D02*
D03*
X480313Y358900D02*
D03*
X444488Y338976D02*
D03*
X489945Y358825D02*
D03*
X440958Y333239D02*
D03*
Y282325D02*
D03*
X443003Y235600D02*
D03*
X440958Y183526D02*
D03*
X441947Y135398D02*
D03*
X439370Y88653D02*
D03*
Y43124D02*
D03*
X443383Y358825D02*
D03*
X440584Y308810D02*
D03*
Y257309D02*
D03*
X443003Y207011D02*
D03*
X440958Y155496D02*
D03*
X441653Y108057D02*
D03*
X439370Y57776D02*
D03*
Y11095D02*
D03*
X396195Y28391D02*
D03*
X396612Y56200D02*
D03*
X397409Y62763D02*
D03*
X398819Y106299D02*
D03*
X399340Y113044D02*
D03*
X400307Y154408D02*
D03*
X400677Y161018D02*
D03*
X401982Y204958D02*
D03*
X403342Y211617D02*
D03*
Y251961D02*
D03*
X402686Y259404D02*
D03*
X402525Y304520D02*
D03*
X403342Y310604D02*
D03*
X403540Y354034D02*
D03*
X404994Y359999D02*
D03*
X385970Y370136D02*
D03*
X384646Y329284D02*
D03*
X384499Y320918D02*
D03*
X384040Y278253D02*
D03*
X383951Y269610D02*
D03*
X384646Y230860D02*
D03*
X384252Y222047D02*
D03*
X382279Y180110D02*
D03*
X381671Y171137D02*
D03*
X379662Y132730D02*
D03*
Y123809D02*
D03*
X379615Y81981D02*
D03*
X379163Y72481D02*
D03*
X378278Y34528D02*
D03*
X378076Y26252D02*
D03*
X218494Y112582D02*
D03*
X518379Y27908D02*
D03*
X481605Y45700D02*
D03*
X481642Y56453D02*
D03*
X488583Y64000D02*
D03*
Y70500D02*
D03*
X540800Y294882D02*
D03*
X525591Y292150D02*
D03*
X521260Y330150D02*
D03*
X511811Y329921D02*
D03*
X533997Y358825D02*
D03*
X469086Y378246D02*
D03*
X459242Y351575D02*
D03*
X477064Y364005D02*
D03*
X471890D02*
D03*
X467350Y329317D02*
D03*
X475494Y314891D02*
D03*
X470130Y314864D02*
D03*
X457518Y301969D02*
D03*
X466504Y278253D02*
D03*
X474838Y263664D02*
D03*
X469474D02*
D03*
X456898Y250787D02*
D03*
X466928Y230317D02*
D03*
X475494Y215891D02*
D03*
X470130D02*
D03*
X457482Y203543D02*
D03*
X464495Y179605D02*
D03*
X472829Y165600D02*
D03*
X467465D02*
D03*
X455033Y152756D02*
D03*
X463154Y131757D02*
D03*
X471226Y117304D02*
D03*
X466082D02*
D03*
X453490Y103993D02*
D03*
X460996Y81711D02*
D03*
X469562Y67050D02*
D03*
X464198Y67023D02*
D03*
X451765Y54376D02*
D03*
X460996Y34795D02*
D03*
X469267Y20700D02*
D03*
X463903D02*
D03*
X400277Y18105D02*
D03*
X384646Y41192D02*
D03*
Y35300D02*
D03*
X400967Y42884D02*
D03*
X401262Y88976D02*
D03*
X400593Y65684D02*
D03*
X385578Y81711D02*
D03*
Y87874D02*
D03*
X402238Y116142D02*
D03*
X386962Y132162D02*
D03*
Y138021D02*
D03*
X403146Y138938D02*
D03*
X388338Y185868D02*
D03*
Y180010D02*
D03*
X403861Y164742D02*
D03*
X404529Y186657D02*
D03*
X406471Y214900D02*
D03*
X391387Y230860D02*
D03*
X391236Y236586D02*
D03*
X407194Y237795D02*
D03*
X405914Y263002D02*
D03*
X390551Y278660D02*
D03*
Y284418D02*
D03*
X406471Y285433D02*
D03*
X406526Y314030D02*
D03*
X391387Y329453D02*
D03*
Y335581D02*
D03*
X407127Y336614D02*
D03*
X408330Y362958D02*
D03*
X408954Y385781D02*
D03*
X392913Y378788D02*
D03*
Y384509D02*
D03*
X382327Y354034D02*
D03*
X380503Y305105D02*
D03*
X380146Y253906D02*
D03*
X380503Y206105D02*
D03*
X378231Y155496D02*
D03*
X376395Y107768D02*
D03*
X374847Y57264D02*
D03*
X322979Y360159D02*
D03*
X322782Y344676D02*
D03*
X305185Y321378D02*
D03*
X322979Y323158D02*
D03*
X323347Y310744D02*
D03*
X322760Y295355D02*
D03*
X270385Y274463D02*
D03*
X279597Y267416D02*
D03*
X292682Y270248D02*
D03*
X304882Y272553D02*
D03*
X322782Y274691D02*
D03*
X319132Y258532D02*
D03*
X322979Y246843D02*
D03*
X272977Y225396D02*
D03*
X281100Y218555D02*
D03*
X292894Y221858D02*
D03*
X304724Y224519D02*
D03*
X322782Y226601D02*
D03*
X319332Y209863D02*
D03*
X322782Y198496D02*
D03*
X290795Y174178D02*
D03*
X303006Y175935D02*
D03*
X277982Y122709D02*
D03*
X268155Y129478D02*
D03*
X290535Y126480D02*
D03*
X301927Y128353D02*
D03*
X320747Y130453D02*
D03*
X320368Y102650D02*
D03*
X279100Y74064D02*
D03*
X269421Y80684D02*
D03*
X290795Y30438D02*
D03*
Y78932D02*
D03*
X303680Y80566D02*
D03*
X320747Y82328D02*
D03*
X320995Y34572D02*
D03*
X303267Y32104D02*
D03*
X268707Y25496D02*
D03*
X277311Y26784D02*
D03*
X320995Y21925D02*
D03*
X-20435Y127779D02*
D03*
X213779Y148819D02*
D03*
X189020Y261097D02*
D03*
X292322Y10719D02*
D03*
X274016Y54139D02*
D03*
X269677Y313386D02*
D03*
Y176657D02*
D03*
X321524Y40208D02*
D03*
X320995Y55068D02*
D03*
X321215Y69589D02*
D03*
X321319Y87847D02*
D03*
X320747Y117850D02*
D03*
X321709Y184690D02*
D03*
X321877Y178636D02*
D03*
X321524Y165698D02*
D03*
X321332Y150498D02*
D03*
X277409Y169380D02*
D03*
X281100Y150378D02*
D03*
X276169Y294488D02*
D03*
X322391Y378397D02*
D03*
X322418Y372663D02*
D03*
X304370Y370611D02*
D03*
X267426Y362992D02*
D03*
X275444Y361036D02*
D03*
X276169Y344676D02*
D03*
X323347Y328670D02*
D03*
X292921Y318962D02*
D03*
X276169Y312270D02*
D03*
X206409Y224655D02*
D03*
X178432Y360130D02*
D03*
X168732Y360335D02*
D03*
X155478Y344094D02*
D03*
X17182Y309893D02*
D03*
X55112Y333601D02*
D03*
X71623Y334741D02*
D03*
X88181Y324371D02*
D03*
X130420Y330360D02*
D03*
X218898Y291597D02*
D03*
X212598Y284646D02*
D03*
Y243380D02*
D03*
X191204Y251147D02*
D03*
X189020Y230947D02*
D03*
X176569Y232565D02*
D03*
X214460Y166810D02*
D03*
X225984Y178924D02*
D03*
X192073Y159126D02*
D03*
X203271Y148893D02*
D03*
X191625Y139152D02*
D03*
X171443Y71542D02*
D03*
X184584Y30042D02*
D03*
X118884Y37242D02*
D03*
Y25984D02*
D03*
X64041Y23070D02*
D03*
X80044Y27660D02*
D03*
X99875Y34968D02*
D03*
X66412Y118245D02*
D03*
X34135D02*
D03*
X19999Y95074D02*
D03*
X60592Y96934D02*
D03*
X80206Y67323D02*
D03*
X74531Y134342D02*
D03*
X164521Y152318D02*
D03*
Y149455D02*
D03*
X163916Y161122D02*
D03*
Y163984D02*
D03*
X161876Y171700D02*
D03*
Y168838D02*
D03*
X520285Y247600D02*
D03*
X517400Y254800D02*
D03*
X178973Y251254D02*
D03*
X163581Y221147D02*
D03*
X178631Y270939D02*
D03*
X507500Y169600D02*
D03*
X145520Y354049D02*
D03*
Y369342D02*
D03*
X220239Y105466D02*
D03*
X196908D02*
D03*
X201883Y179141D02*
D03*
X138400Y96400D02*
D03*
X24659Y108900D02*
D03*
X4782Y145459D02*
D03*
X194991Y291350D02*
D03*
X13400Y46300D02*
D03*
X75937Y21057D02*
D03*
X47100Y49900D02*
D03*
X37100Y49700D02*
D03*
X157343Y21337D02*
D03*
X70987Y139460D02*
D03*
X30334Y150284D02*
D03*
X8920Y358365D02*
D03*
X80920Y352601D02*
D03*
X81120Y370201D02*
D03*
X105168Y312954D02*
D03*
Y356967D02*
D03*
X118720Y350501D02*
D03*
X174320Y377801D02*
D03*
X178432Y348534D02*
D03*
X194991Y340501D02*
D03*
X528000Y358900D02*
D03*
X393519Y94400D02*
D03*
X406741Y120876D02*
D03*
X395660Y143600D02*
D03*
X397081Y191300D02*
D03*
X408537Y168937D02*
D03*
X473261Y229801D02*
D03*
X473235Y277207D02*
D03*
X475724Y327817D02*
D03*
X411805Y219731D02*
D03*
X399700Y242900D02*
D03*
X399127Y290200D02*
D03*
X404845Y386718D02*
D03*
X399700Y341200D02*
D03*
X413618Y367659D02*
D03*
X410526Y267707D02*
D03*
X411694Y318731D02*
D03*
X451255Y7695D02*
D03*
X468799Y32695D02*
D03*
X-41003Y223622D02*
D03*
X381400Y385800D02*
D03*
X476317Y376945D02*
D03*
X471892Y178304D02*
D03*
X470508Y130456D02*
D03*
X468625Y80175D02*
D03*
X404593Y68448D02*
D03*
X293678Y368729D02*
D03*
X323560Y283132D02*
D03*
X281919Y241670D02*
D03*
X323733Y234784D02*
D03*
X279755Y193053D02*
D03*
X321524Y138938D02*
D03*
X278099Y97207D02*
D03*
X388044Y46700D02*
D03*
X404299Y21766D02*
D03*
X469267Y16047D02*
D03*
X436900Y3000D02*
D03*
X-11000Y126800D02*
D03*
X9296Y105344D02*
D03*
X-41292Y232914D02*
D03*
X-40962Y204724D02*
D03*
X-41075Y214173D02*
D03*
X-40962Y242520D02*
D03*
Y248738D02*
D03*
Y255118D02*
D03*
Y261417D02*
D03*
Y264500D02*
D03*
Y135659D02*
D03*
Y144882D02*
D03*
Y154331D02*
D03*
Y163779D02*
D03*
Y173228D02*
D03*
Y182677D02*
D03*
X-39664Y258268D02*
D03*
X-31135Y166929D02*
D03*
X-25487Y174410D02*
D03*
X-24517Y180605D02*
D03*
D56*
X234273Y182113D02*
D03*
X233341Y135221D02*
D03*
Y141466D02*
D03*
Y148057D02*
D03*
X234104Y154331D02*
D03*
X232668Y160366D02*
D03*
Y163583D02*
D03*
X231653Y183989D02*
D03*
X303762Y22484D02*
D03*
X303267Y70672D02*
D03*
Y118809D02*
D03*
X303680Y165698D02*
D03*
X264606Y303937D02*
D03*
Y296854D02*
D03*
X264496Y257573D02*
D03*
X264348Y250264D02*
D03*
X263386Y159019D02*
D03*
Y150969D02*
D03*
X264173Y65341D02*
D03*
Y58268D02*
D03*
X284327Y301514D02*
D03*
X283465Y308661D02*
D03*
X313386Y108661D02*
D03*
X313795Y156657D02*
D03*
X314961Y203543D02*
D03*
X315461Y253002D02*
D03*
X314300Y301514D02*
D03*
X314378Y349795D02*
D03*
X305255Y215198D02*
D03*
X304724Y262992D02*
D03*
X305185Y311514D02*
D03*
X304216Y359451D02*
D03*
X201922Y261189D02*
D03*
X253940Y258267D02*
D03*
X243140Y257160D02*
D03*
X243328Y253243D02*
D03*
X249728Y253002D02*
D03*
X244602Y154331D02*
D03*
X249728D02*
D03*
X312629Y59643D02*
D03*
X313386Y11811D02*
D03*
X203469Y156874D02*
D03*
X203271Y141126D02*
D03*
X202131Y274876D02*
D03*
X202228Y268818D02*
D03*
X201813Y253232D02*
D03*
X201883Y247317D02*
D03*
X168355Y259451D02*
D03*
X168355Y256837D02*
D03*
X161876Y182737D02*
D03*
Y180663D02*
D03*
M02*
