G04*
G04 #@! TF.GenerationSoftware,Altium Limited,Altium Designer,22.2.1 (43)*
G04*
G04 Layer_Physical_Order=2*
G04 Layer_Color=36540*
%FSLAX25Y25*%
%MOIN*%
G70*
G04*
G04 #@! TF.SameCoordinates,826469F0-98AB-435A-8F14-BB7E7FBFCF61*
G04*
G04*
G04 #@! TF.FilePolarity,Positive*
G04*
G01*
G75*
%ADD91C,0.06102*%
%ADD97C,0.06000*%
%ADD98C,0.02362*%
G36*
X210699Y391201D02*
X545499D01*
X551716Y384984D01*
Y269772D01*
X552800Y268688D01*
Y66400D01*
X552500Y66100D01*
Y7100D01*
X548100Y2700D01*
X547681Y3119D01*
X438869D01*
Y3392D01*
X438569Y4115D01*
X438015Y4669D01*
X437292Y4969D01*
X436508D01*
X435785Y4669D01*
X435231Y4115D01*
X434932Y3392D01*
Y3119D01*
X326019D01*
X325200Y2300D01*
X325000Y2500D01*
X233100D01*
X230500Y5100D01*
X110000D01*
X108100Y3200D01*
X107100Y4200D01*
X7200D01*
X2500Y8900D01*
Y45400D01*
X3500Y46400D01*
Y115472D01*
X1036Y117937D01*
Y118800D01*
X-21601D01*
X-23673Y116728D01*
X-30413D01*
Y111533D01*
X-30802Y111144D01*
X-33600D01*
Y125455D01*
X-36331Y128186D01*
X-56014D01*
X-56400Y128507D01*
Y184400D01*
X-36919D01*
X-35412Y185907D01*
X-34750Y186289D01*
X-34671Y186358D01*
X-34584Y186416D01*
X-34481Y186519D01*
X-32633D01*
Y189665D01*
X-32568Y189908D01*
X-32561Y190013D01*
X-32541Y190116D01*
Y191298D01*
X-31194Y192645D01*
X-32581Y194031D01*
Y196453D01*
X-34797D01*
X-36497Y198153D01*
X-37650Y197000D01*
X-56117D01*
X-56200Y197200D01*
Y267100D01*
X-55984Y267400D01*
X-40400D01*
X-40100Y267100D01*
X-39800Y267400D01*
X-34400D01*
X-31700Y270100D01*
X-32000Y270400D01*
Y281000D01*
X-30754D01*
X-25454Y275700D01*
X-633D01*
X3200Y279533D01*
Y384700D01*
X3000Y384900D01*
X8100Y390000D01*
X208500D01*
X210200Y391700D01*
X210699Y391201D01*
D02*
G37*
%LPC*%
G36*
X405237Y388687D02*
X404454D01*
X403730Y388387D01*
X403177Y387833D01*
X402877Y387110D01*
Y386327D01*
X403177Y385603D01*
X403730Y385049D01*
X404454Y384750D01*
X405237D01*
X405960Y385049D01*
X406514Y385603D01*
X406814Y386327D01*
Y387110D01*
X406514Y387833D01*
X405960Y388387D01*
X405237Y388687D01*
D02*
G37*
G36*
X381792Y387769D02*
X381008D01*
X380285Y387469D01*
X379731Y386915D01*
X379432Y386192D01*
Y385408D01*
X379731Y384685D01*
X380285Y384131D01*
X381008Y383832D01*
X381792D01*
X382515Y384131D01*
X383069Y384685D01*
X383368Y385408D01*
Y386192D01*
X383069Y386915D01*
X382515Y387469D01*
X381792Y387769D01*
D02*
G37*
G36*
X322782Y380365D02*
X321999D01*
X321276Y380066D01*
X320722Y379512D01*
X320423Y378789D01*
Y378006D01*
X320722Y377282D01*
X321276Y376728D01*
X321999Y376429D01*
X322782D01*
X323506Y376728D01*
X324060Y377282D01*
X324359Y378006D01*
Y378789D01*
X324060Y379512D01*
X323506Y380066D01*
X322782Y380365D01*
D02*
G37*
G36*
X476709Y378913D02*
X475926D01*
X475202Y378614D01*
X474649Y378060D01*
X474349Y377336D01*
Y376553D01*
X474649Y375830D01*
X475202Y375276D01*
X475926Y374976D01*
X476709D01*
X477432Y375276D01*
X477986Y375830D01*
X478286Y376553D01*
Y377336D01*
X477986Y378060D01*
X477432Y378614D01*
X476709Y378913D01*
D02*
G37*
G36*
X81511Y372170D02*
X80728D01*
X80005Y371870D01*
X79451Y371316D01*
X79151Y370593D01*
Y369810D01*
X79451Y369086D01*
X80005Y368532D01*
X80728Y368233D01*
X81511D01*
X82235Y368532D01*
X82788Y369086D01*
X83088Y369810D01*
Y370593D01*
X82788Y371316D01*
X82235Y371870D01*
X81511Y372170D01*
D02*
G37*
G36*
X386361Y372104D02*
X385578D01*
X384855Y371805D01*
X384301Y371251D01*
X384001Y370527D01*
Y369744D01*
X384301Y369021D01*
X384855Y368467D01*
X385578Y368167D01*
X386361D01*
X387085Y368467D01*
X387639Y369021D01*
X387938Y369744D01*
Y370527D01*
X387639Y371251D01*
X387085Y371805D01*
X386361Y372104D01*
D02*
G37*
G36*
X541137Y382780D02*
X539663D01*
X538218Y382493D01*
X536857Y381929D01*
X535632Y381110D01*
X534590Y380068D01*
X533771Y378843D01*
X533207Y377482D01*
X532920Y376037D01*
Y374563D01*
X533207Y373118D01*
X533771Y371757D01*
X534590Y370532D01*
X535632Y369490D01*
X536857Y368671D01*
X538218Y368107D01*
X539663Y367820D01*
X541137D01*
X542582Y368107D01*
X543943Y368671D01*
X545168Y369490D01*
X546210Y370532D01*
X547029Y371757D01*
X547593Y373118D01*
X547880Y374563D01*
Y376037D01*
X547593Y377482D01*
X547029Y378843D01*
X546210Y380068D01*
X545168Y381110D01*
X543943Y381929D01*
X542582Y382493D01*
X541137Y382780D01*
D02*
G37*
G36*
X145911Y371311D02*
X145128D01*
X144404Y371011D01*
X143851Y370457D01*
X143551Y369734D01*
Y368951D01*
X143851Y368227D01*
X144404Y367673D01*
X145128Y367374D01*
X145911D01*
X146635Y367673D01*
X147188Y368227D01*
X147488Y368951D01*
Y369734D01*
X147188Y370457D01*
X146635Y371011D01*
X145911Y371311D01*
D02*
G37*
G36*
X414009Y369628D02*
X413226D01*
X412502Y369328D01*
X411949Y368774D01*
X411649Y368051D01*
Y367267D01*
X411949Y366544D01*
X412502Y365990D01*
X413226Y365691D01*
X414009D01*
X414733Y365990D01*
X415286Y366544D01*
X415586Y367267D01*
Y368051D01*
X415286Y368774D01*
X414733Y369328D01*
X414009Y369628D01*
D02*
G37*
G36*
X405385Y361968D02*
X404602D01*
X403879Y361668D01*
X403325Y361115D01*
X403025Y360391D01*
Y359608D01*
X403325Y358885D01*
X403879Y358331D01*
X404602Y358031D01*
X405385D01*
X406109Y358331D01*
X406663Y358885D01*
X406962Y359608D01*
Y360391D01*
X406663Y361115D01*
X406109Y361668D01*
X405385Y361968D01*
D02*
G37*
G36*
X304529Y361026D02*
X303903D01*
X303324Y360786D01*
X302881Y360343D01*
X302641Y359764D01*
Y359138D01*
X302881Y358559D01*
X303324Y358116D01*
X303903Y357876D01*
X304529D01*
X305108Y358116D01*
X305551Y358559D01*
X305791Y359138D01*
Y359764D01*
X305551Y360343D01*
X305108Y360786D01*
X304529Y361026D01*
D02*
G37*
G36*
X518772Y361747D02*
X517989D01*
X517266Y361447D01*
X516712Y360894D01*
X516412Y360170D01*
Y359387D01*
X516712Y358663D01*
X517266Y358110D01*
X517989Y357810D01*
X518772D01*
X519496Y358110D01*
X520049Y358663D01*
X520349Y359387D01*
Y360170D01*
X520049Y360894D01*
X519496Y361447D01*
X518772Y361747D01*
D02*
G37*
G36*
X528392Y360869D02*
X527608D01*
X526885Y360569D01*
X526331Y360015D01*
X526031Y359292D01*
Y358508D01*
X526331Y357785D01*
X526885Y357231D01*
X527608Y356931D01*
X528392D01*
X529115Y357231D01*
X529669Y357785D01*
X529969Y358508D01*
Y359292D01*
X529669Y360015D01*
X529115Y360569D01*
X528392Y360869D01*
D02*
G37*
G36*
X480705D02*
X479922D01*
X479198Y360569D01*
X478644Y360015D01*
X478345Y359292D01*
Y358508D01*
X478644Y357785D01*
X479198Y357231D01*
X479922Y356931D01*
X480705D01*
X481428Y357231D01*
X481982Y357785D01*
X482282Y358508D01*
Y359292D01*
X481982Y360015D01*
X481428Y360569D01*
X480705Y360869D01*
D02*
G37*
G36*
X490337Y360793D02*
X489554D01*
X488830Y360493D01*
X488276Y359940D01*
X487977Y359216D01*
Y358433D01*
X488276Y357710D01*
X488830Y357156D01*
X489554Y356856D01*
X490337D01*
X491060Y357156D01*
X491614Y357710D01*
X491914Y358433D01*
Y359216D01*
X491614Y359940D01*
X491060Y360493D01*
X490337Y360793D01*
D02*
G37*
G36*
X443775D02*
X442991D01*
X442268Y360493D01*
X441714Y359940D01*
X441414Y359216D01*
Y358433D01*
X441714Y357710D01*
X442268Y357156D01*
X442991Y356856D01*
X443775D01*
X444498Y357156D01*
X445052Y357710D01*
X445352Y358433D01*
Y359216D01*
X445052Y359940D01*
X444498Y360493D01*
X443775Y360793D01*
D02*
G37*
G36*
X9311Y360333D02*
X8528D01*
X7805Y360034D01*
X7251Y359480D01*
X6951Y358757D01*
Y357974D01*
X7251Y357250D01*
X7805Y356696D01*
X8528Y356397D01*
X9311D01*
X10035Y356696D01*
X10588Y357250D01*
X10888Y357974D01*
Y358757D01*
X10588Y359480D01*
X10035Y360034D01*
X9311Y360333D01*
D02*
G37*
G36*
X105560Y358935D02*
X104777D01*
X104053Y358635D01*
X103499Y358082D01*
X103200Y357358D01*
Y356575D01*
X103499Y355852D01*
X104053Y355298D01*
X104777Y354998D01*
X105560D01*
X106283Y355298D01*
X106837Y355852D01*
X107137Y356575D01*
Y357358D01*
X106837Y358082D01*
X106283Y358635D01*
X105560Y358935D01*
D02*
G37*
G36*
X520392Y357287D02*
X519608D01*
X518885Y356987D01*
X518331Y356433D01*
X518032Y355710D01*
Y354926D01*
X518331Y354203D01*
X518885Y353649D01*
X519608Y353350D01*
X520392D01*
X521115Y353649D01*
X521669Y354203D01*
X521969Y354926D01*
Y355710D01*
X521669Y356433D01*
X521115Y356987D01*
X520392Y357287D01*
D02*
G37*
G36*
X145911Y356018D02*
X145128D01*
X144404Y355718D01*
X143851Y355164D01*
X143551Y354441D01*
Y353658D01*
X143851Y352934D01*
X144404Y352380D01*
X145128Y352081D01*
X145911D01*
X146635Y352380D01*
X147188Y352934D01*
X147488Y353658D01*
Y354441D01*
X147188Y355164D01*
X146635Y355718D01*
X145911Y356018D01*
D02*
G37*
G36*
X403931Y356002D02*
X403148D01*
X402425Y355703D01*
X401871Y355149D01*
X401571Y354425D01*
Y353642D01*
X401871Y352919D01*
X402425Y352365D01*
X403148Y352065D01*
X403931D01*
X404655Y352365D01*
X405208Y352919D01*
X405508Y353642D01*
Y354425D01*
X405208Y355149D01*
X404655Y355703D01*
X403931Y356002D01*
D02*
G37*
G36*
X81311Y354570D02*
X80528D01*
X79804Y354270D01*
X79251Y353716D01*
X78951Y352993D01*
Y352210D01*
X79251Y351486D01*
X79804Y350932D01*
X80528Y350633D01*
X81311D01*
X82035Y350932D01*
X82588Y351486D01*
X82888Y352210D01*
Y352993D01*
X82588Y353716D01*
X82035Y354270D01*
X81311Y354570D01*
D02*
G37*
G36*
X119111Y352470D02*
X118328D01*
X117604Y352170D01*
X117051Y351616D01*
X116751Y350893D01*
Y350110D01*
X117051Y349386D01*
X117604Y348832D01*
X118328Y348533D01*
X119111D01*
X119835Y348832D01*
X120388Y349386D01*
X120688Y350110D01*
Y350893D01*
X120388Y351616D01*
X119835Y352170D01*
X119111Y352470D01*
D02*
G37*
G36*
X314691Y351369D02*
X314065D01*
X313486Y351130D01*
X313043Y350687D01*
X312803Y350108D01*
Y349481D01*
X313043Y348903D01*
X313486Y348460D01*
X314065Y348220D01*
X314691D01*
X315270Y348460D01*
X315713Y348903D01*
X315953Y349481D01*
Y350108D01*
X315713Y350687D01*
X315270Y351130D01*
X314691Y351369D01*
D02*
G37*
G36*
X276560Y346645D02*
X275777D01*
X275054Y346345D01*
X274500Y345792D01*
X274200Y345068D01*
Y344285D01*
X274500Y343561D01*
X275054Y343008D01*
X275777Y342708D01*
X276560D01*
X277284Y343008D01*
X277837Y343561D01*
X278137Y344285D01*
Y345068D01*
X277837Y345792D01*
X277284Y346345D01*
X276560Y346645D01*
D02*
G37*
G36*
X400092Y343168D02*
X399308D01*
X398585Y342869D01*
X398031Y342315D01*
X397731Y341592D01*
Y340808D01*
X398031Y340085D01*
X398585Y339531D01*
X399308Y339231D01*
X400092D01*
X400815Y339531D01*
X401369Y340085D01*
X401669Y340808D01*
Y341592D01*
X401369Y342315D01*
X400815Y342869D01*
X400092Y343168D01*
D02*
G37*
G36*
X444880Y340945D02*
X444097D01*
X443373Y340645D01*
X442819Y340091D01*
X442520Y339368D01*
Y338585D01*
X442819Y337861D01*
X443373Y337308D01*
X444097Y337008D01*
X444880D01*
X445603Y337308D01*
X446157Y337861D01*
X446457Y338585D01*
Y339368D01*
X446157Y340091D01*
X445603Y340645D01*
X444880Y340945D01*
D02*
G37*
G36*
X441350Y335207D02*
X440566D01*
X439843Y334907D01*
X439289Y334354D01*
X438989Y333630D01*
Y332847D01*
X439289Y332123D01*
X439843Y331570D01*
X440566Y331270D01*
X441350D01*
X442073Y331570D01*
X442627Y332123D01*
X442926Y332847D01*
Y333630D01*
X442627Y334354D01*
X442073Y334907D01*
X441350Y335207D01*
D02*
G37*
G36*
X385037Y331252D02*
X384254D01*
X383531Y330953D01*
X382977Y330399D01*
X382677Y329675D01*
Y328892D01*
X382977Y328169D01*
X383531Y327615D01*
X384254Y327315D01*
X385037D01*
X385761Y327615D01*
X386315Y328169D01*
X386614Y328892D01*
Y329675D01*
X386315Y330399D01*
X385761Y330953D01*
X385037Y331252D01*
D02*
G37*
G36*
X323739Y330638D02*
X322956D01*
X322232Y330339D01*
X321679Y329785D01*
X321379Y329061D01*
Y328278D01*
X321679Y327555D01*
X322232Y327001D01*
X322956Y326701D01*
X323739D01*
X324463Y327001D01*
X325016Y327555D01*
X325316Y328278D01*
Y329061D01*
X325016Y329785D01*
X324463Y330339D01*
X323739Y330638D01*
D02*
G37*
G36*
X476115Y329785D02*
X475332D01*
X474609Y329486D01*
X474055Y328932D01*
X473755Y328209D01*
Y327426D01*
X474055Y326702D01*
X474609Y326148D01*
X475332Y325849D01*
X476115D01*
X476839Y326148D01*
X477392Y326702D01*
X477692Y327426D01*
Y328209D01*
X477392Y328932D01*
X476839Y329486D01*
X476115Y329785D01*
D02*
G37*
G36*
X384891Y322886D02*
X384107D01*
X383384Y322587D01*
X382830Y322033D01*
X382530Y321309D01*
Y320526D01*
X382830Y319803D01*
X383384Y319249D01*
X384107Y318950D01*
X384891D01*
X385614Y319249D01*
X386168Y319803D01*
X386468Y320526D01*
Y321309D01*
X386168Y322033D01*
X385614Y322587D01*
X384891Y322886D01*
D02*
G37*
G36*
X412086Y320699D02*
X411303D01*
X410579Y320399D01*
X410025Y319846D01*
X409726Y319122D01*
Y318339D01*
X410025Y317616D01*
X410579Y317062D01*
X411303Y316762D01*
X412086D01*
X412809Y317062D01*
X413363Y317616D01*
X413663Y318339D01*
Y319122D01*
X413363Y319846D01*
X412809Y320399D01*
X412086Y320699D01*
D02*
G37*
G36*
X526054Y318475D02*
X525271D01*
X524547Y318176D01*
X523993Y317622D01*
X523694Y316898D01*
Y316115D01*
X523993Y315392D01*
X524547Y314838D01*
X525271Y314538D01*
X526054D01*
X526777Y314838D01*
X527331Y315392D01*
X527631Y316115D01*
Y316898D01*
X527331Y317622D01*
X526777Y318176D01*
X526054Y318475D01*
D02*
G37*
G36*
X105560Y314922D02*
X104777D01*
X104053Y314623D01*
X103499Y314069D01*
X103200Y313346D01*
Y312562D01*
X103499Y311839D01*
X104053Y311285D01*
X104777Y310985D01*
X105560D01*
X106283Y311285D01*
X106837Y311839D01*
X107137Y312562D01*
Y313346D01*
X106837Y314069D01*
X106283Y314623D01*
X105560Y314922D01*
D02*
G37*
G36*
X305498Y313089D02*
X304872D01*
X304293Y312849D01*
X303850Y312406D01*
X303610Y311827D01*
Y311200D01*
X303850Y310622D01*
X304293Y310179D01*
X304872Y309939D01*
X305498D01*
X306077Y310179D01*
X306520Y310622D01*
X306760Y311200D01*
Y311827D01*
X306520Y312406D01*
X306077Y312849D01*
X305498Y313089D01*
D02*
G37*
G36*
X403733Y312572D02*
X402950D01*
X402227Y312273D01*
X401673Y311719D01*
X401373Y310996D01*
Y310212D01*
X401673Y309489D01*
X402227Y308935D01*
X402950Y308635D01*
X403733D01*
X404457Y308935D01*
X405011Y309489D01*
X405310Y310212D01*
Y310996D01*
X405011Y311719D01*
X404457Y312273D01*
X403733Y312572D01*
D02*
G37*
G36*
X283778Y310236D02*
X283151D01*
X282573Y309997D01*
X282130Y309554D01*
X281890Y308975D01*
Y308348D01*
X282130Y307769D01*
X282573Y307326D01*
X283151Y307087D01*
X283778D01*
X284357Y307326D01*
X284800Y307769D01*
X285039Y308348D01*
Y308975D01*
X284800Y309554D01*
X284357Y309997D01*
X283778Y310236D01*
D02*
G37*
G36*
X440976Y310778D02*
X440193D01*
X439469Y310479D01*
X438915Y309925D01*
X438616Y309202D01*
Y308418D01*
X438915Y307695D01*
X439469Y307141D01*
X440193Y306841D01*
X440976D01*
X441699Y307141D01*
X442253Y307695D01*
X442553Y308418D01*
Y309202D01*
X442253Y309925D01*
X441699Y310479D01*
X440976Y310778D01*
D02*
G37*
G36*
X402916Y306488D02*
X402133D01*
X401410Y306188D01*
X400856Y305635D01*
X400556Y304911D01*
Y304128D01*
X400856Y303404D01*
X401410Y302851D01*
X402133Y302551D01*
X402916D01*
X403640Y302851D01*
X404194Y303404D01*
X404493Y304128D01*
Y304911D01*
X404194Y305635D01*
X403640Y306188D01*
X402916Y306488D01*
D02*
G37*
G36*
X264920Y305512D02*
X264293D01*
X263714Y305272D01*
X263271Y304829D01*
X263032Y304250D01*
Y303624D01*
X263271Y303045D01*
X263714Y302602D01*
X264293Y302362D01*
X264920D01*
X265498Y302602D01*
X265941Y303045D01*
X266181Y303624D01*
Y304250D01*
X265941Y304829D01*
X265498Y305272D01*
X264920Y305512D01*
D02*
G37*
G36*
X314613Y303089D02*
X313987D01*
X313408Y302849D01*
X312965Y302406D01*
X312725Y301827D01*
Y301201D01*
X312965Y300622D01*
X313408Y300179D01*
X313987Y299939D01*
X314613D01*
X315192Y300179D01*
X315635Y300622D01*
X315875Y301201D01*
Y301827D01*
X315635Y302406D01*
X315192Y302849D01*
X314613Y303089D01*
D02*
G37*
G36*
X284641D02*
X284014D01*
X283435Y302849D01*
X282992Y302406D01*
X282752Y301827D01*
Y301201D01*
X282992Y300622D01*
X283435Y300179D01*
X284014Y299939D01*
X284641D01*
X285219Y300179D01*
X285662Y300622D01*
X285902Y301201D01*
Y301827D01*
X285662Y302406D01*
X285219Y302849D01*
X284641Y303089D01*
D02*
G37*
G36*
X264920Y298429D02*
X264293D01*
X263714Y298189D01*
X263271Y297746D01*
X263032Y297167D01*
Y296540D01*
X263271Y295962D01*
X263714Y295519D01*
X264293Y295279D01*
X264920D01*
X265498Y295519D01*
X265941Y295962D01*
X266181Y296540D01*
Y297167D01*
X265941Y297746D01*
X265498Y298189D01*
X264920Y298429D01*
D02*
G37*
G36*
X276560Y296457D02*
X275777D01*
X275054Y296157D01*
X274500Y295603D01*
X274200Y294880D01*
Y294097D01*
X274500Y293373D01*
X275054Y292819D01*
X275777Y292520D01*
X276560D01*
X277284Y292819D01*
X277837Y293373D01*
X278137Y294097D01*
Y294880D01*
X277837Y295603D01*
X277284Y296157D01*
X276560Y296457D01*
D02*
G37*
G36*
X195383Y293318D02*
X194600D01*
X193876Y293018D01*
X193323Y292465D01*
X193023Y291741D01*
Y290958D01*
X193323Y290235D01*
X193876Y289681D01*
X194600Y289381D01*
X195383D01*
X196106Y289681D01*
X196660Y290235D01*
X196960Y290958D01*
Y291741D01*
X196660Y292465D01*
X196106Y293018D01*
X195383Y293318D01*
D02*
G37*
G36*
X399518Y292168D02*
X398735D01*
X398012Y291869D01*
X397458Y291315D01*
X397158Y290592D01*
Y289808D01*
X397458Y289085D01*
X398012Y288531D01*
X398735Y288231D01*
X399518D01*
X400242Y288531D01*
X400796Y289085D01*
X401095Y289808D01*
Y290592D01*
X400796Y291315D01*
X400242Y291869D01*
X399518Y292168D01*
D02*
G37*
G36*
X323951Y285100D02*
X323168D01*
X322445Y284800D01*
X321891Y284246D01*
X321591Y283523D01*
Y282740D01*
X321891Y282016D01*
X322445Y281463D01*
X323168Y281163D01*
X323951D01*
X324675Y281463D01*
X325229Y282016D01*
X325528Y282740D01*
Y283523D01*
X325229Y284246D01*
X324675Y284800D01*
X323951Y285100D01*
D02*
G37*
G36*
X441350Y284294D02*
X440566D01*
X439843Y283994D01*
X439289Y283440D01*
X438989Y282717D01*
Y281934D01*
X439289Y281210D01*
X439843Y280656D01*
X440566Y280357D01*
X441350D01*
X442073Y280656D01*
X442627Y281210D01*
X442926Y281934D01*
Y282717D01*
X442627Y283440D01*
X442073Y283994D01*
X441350Y284294D01*
D02*
G37*
G36*
X384431Y280221D02*
X383648D01*
X382925Y279922D01*
X382371Y279368D01*
X382071Y278644D01*
Y277861D01*
X382371Y277138D01*
X382925Y276584D01*
X383648Y276284D01*
X384431D01*
X385155Y276584D01*
X385708Y277138D01*
X386008Y277861D01*
Y278644D01*
X385708Y279368D01*
X385155Y279922D01*
X384431Y280221D01*
D02*
G37*
G36*
X473626Y279176D02*
X472843D01*
X472120Y278876D01*
X471566Y278322D01*
X471266Y277599D01*
Y276816D01*
X471566Y276092D01*
X472120Y275538D01*
X472843Y275239D01*
X473626D01*
X474350Y275538D01*
X474903Y276092D01*
X475203Y276816D01*
Y277599D01*
X474903Y278322D01*
X474350Y278876D01*
X473626Y279176D01*
D02*
G37*
G36*
X202444Y276451D02*
X201817D01*
X201239Y276212D01*
X200796Y275768D01*
X200556Y275190D01*
Y274563D01*
X200796Y273984D01*
X201239Y273541D01*
X201817Y273302D01*
X202444D01*
X203023Y273541D01*
X203466Y273984D01*
X203705Y274563D01*
Y275190D01*
X203466Y275768D01*
X203023Y276212D01*
X202444Y276451D01*
D02*
G37*
G36*
X384343Y271578D02*
X383560D01*
X382836Y271279D01*
X382282Y270725D01*
X381983Y270002D01*
Y269218D01*
X382282Y268495D01*
X382836Y267941D01*
X383560Y267641D01*
X384343D01*
X385066Y267941D01*
X385620Y268495D01*
X385920Y269218D01*
Y270002D01*
X385620Y270725D01*
X385066Y271279D01*
X384343Y271578D01*
D02*
G37*
G36*
X202541Y270393D02*
X201915D01*
X201336Y270153D01*
X200893Y269710D01*
X200654Y269131D01*
Y268505D01*
X200893Y267926D01*
X201336Y267483D01*
X201915Y267243D01*
X202541D01*
X203120Y267483D01*
X203563Y267926D01*
X203803Y268505D01*
Y269131D01*
X203563Y269710D01*
X203120Y270153D01*
X202541Y270393D01*
D02*
G37*
G36*
X410917Y269676D02*
X410134D01*
X409411Y269376D01*
X408857Y268822D01*
X408557Y268099D01*
Y267316D01*
X408857Y266592D01*
X409411Y266038D01*
X410134Y265739D01*
X410917D01*
X411641Y266038D01*
X412194Y266592D01*
X412494Y267316D01*
Y268099D01*
X412194Y268822D01*
X411641Y269376D01*
X410917Y269676D01*
D02*
G37*
G36*
X531226Y275112D02*
X529774D01*
X528372Y274736D01*
X527116Y274010D01*
X526089Y272984D01*
X525364Y271727D01*
X524988Y270326D01*
Y268874D01*
X525364Y267473D01*
X526089Y266216D01*
X527116Y265190D01*
X528372Y264464D01*
X529774Y264088D01*
X531226D01*
X532627Y264464D01*
X533884Y265190D01*
X534910Y266216D01*
X535636Y267473D01*
X536012Y268874D01*
Y270326D01*
X535636Y271727D01*
X534910Y272984D01*
X533884Y274010D01*
X532627Y274736D01*
X531226Y275112D01*
D02*
G37*
G36*
X305038Y264567D02*
X304411D01*
X303832Y264327D01*
X303389Y263884D01*
X303150Y263305D01*
Y262679D01*
X303389Y262100D01*
X303832Y261657D01*
X304411Y261417D01*
X305038D01*
X305616Y261657D01*
X306060Y262100D01*
X306299Y262679D01*
Y263305D01*
X306060Y263884D01*
X305616Y264327D01*
X305038Y264567D01*
D02*
G37*
G36*
X202236Y262764D02*
X201609D01*
X201030Y262524D01*
X200587Y262081D01*
X200347Y261502D01*
Y260876D01*
X200587Y260297D01*
X201030Y259854D01*
X201609Y259614D01*
X202236D01*
X202814Y259854D01*
X203257Y260297D01*
X203497Y260876D01*
Y261502D01*
X203257Y262081D01*
X202814Y262524D01*
X202236Y262764D01*
D02*
G37*
G36*
X403077Y261372D02*
X402294D01*
X401571Y261073D01*
X401017Y260519D01*
X400717Y259795D01*
Y259012D01*
X401017Y258289D01*
X401571Y257735D01*
X402294Y257435D01*
X403077D01*
X403801Y257735D01*
X404355Y258289D01*
X404654Y259012D01*
Y259795D01*
X404355Y260519D01*
X403801Y261073D01*
X403077Y261372D01*
D02*
G37*
G36*
X254254Y259842D02*
X253627D01*
X253048Y259602D01*
X252605Y259159D01*
X252365Y258580D01*
Y257954D01*
X252605Y257375D01*
X253048Y256932D01*
X253627Y256692D01*
X254254D01*
X254832Y256932D01*
X255275Y257375D01*
X255515Y257954D01*
Y258580D01*
X255275Y259159D01*
X254832Y259602D01*
X254254Y259842D01*
D02*
G37*
G36*
X-39272Y260236D02*
X-40055D01*
X-40779Y259936D01*
X-41333Y259383D01*
X-41632Y258659D01*
Y257876D01*
X-41333Y257153D01*
X-40779Y256599D01*
X-40055Y256299D01*
X-39272D01*
X-38549Y256599D01*
X-37995Y257153D01*
X-37695Y257876D01*
Y258659D01*
X-37995Y259383D01*
X-38549Y259936D01*
X-39272Y260236D01*
D02*
G37*
G36*
X264810Y259148D02*
X264183D01*
X263604Y258908D01*
X263161Y258465D01*
X262922Y257887D01*
Y257260D01*
X263161Y256681D01*
X263604Y256238D01*
X264183Y255998D01*
X264810D01*
X265388Y256238D01*
X265831Y256681D01*
X266071Y257260D01*
Y257887D01*
X265831Y258465D01*
X265388Y258908D01*
X264810Y259148D01*
D02*
G37*
G36*
X243453Y258735D02*
X242827D01*
X242248Y258496D01*
X241805Y258053D01*
X241565Y257474D01*
Y256847D01*
X241805Y256269D01*
X242248Y255825D01*
X242827Y255586D01*
X243453D01*
X244032Y255825D01*
X244475Y256269D01*
X244715Y256847D01*
Y257474D01*
X244475Y258053D01*
X244032Y258496D01*
X243453Y258735D01*
D02*
G37*
G36*
X544708Y269785D02*
X543292D01*
X541904Y269509D01*
X540597Y268967D01*
X539420Y268181D01*
X538419Y267180D01*
X537633Y266003D01*
X537091Y264696D01*
X536815Y263308D01*
Y261892D01*
X537091Y260504D01*
X537633Y259197D01*
X538419Y258020D01*
X539420Y257019D01*
X540597Y256233D01*
X541904Y255691D01*
X543292Y255415D01*
X544708D01*
X546096Y255691D01*
X547403Y256233D01*
X548580Y257019D01*
X549581Y258020D01*
X550367Y259197D01*
X550909Y260504D01*
X551185Y261892D01*
Y263308D01*
X550909Y264696D01*
X550367Y266003D01*
X549581Y267180D01*
X548580Y268181D01*
X547403Y268967D01*
X546096Y269509D01*
X544708Y269785D01*
D02*
G37*
G36*
X440976Y259277D02*
X440193D01*
X439469Y258977D01*
X438915Y258424D01*
X438616Y257700D01*
Y256917D01*
X438915Y256194D01*
X439469Y255640D01*
X440193Y255340D01*
X440976D01*
X441699Y255640D01*
X442253Y256194D01*
X442553Y256917D01*
Y257700D01*
X442253Y258424D01*
X441699Y258977D01*
X440976Y259277D01*
D02*
G37*
G36*
X168668Y261026D02*
X168042D01*
X167463Y260786D01*
X167020Y260343D01*
X166780Y259765D01*
Y259138D01*
X167020Y258559D01*
X167435Y258144D01*
X167020Y257729D01*
X166780Y257150D01*
Y256524D01*
X167020Y255945D01*
X167463Y255502D01*
X168042Y255262D01*
X168668D01*
X169247Y255502D01*
X169690Y255945D01*
X169930Y256524D01*
Y257150D01*
X169690Y257729D01*
X169275Y258144D01*
X169690Y258559D01*
X169930Y259138D01*
Y259765D01*
X169690Y260343D01*
X169247Y260786D01*
X168668Y261026D01*
D02*
G37*
G36*
X517792Y256768D02*
X517008D01*
X516285Y256469D01*
X515731Y255915D01*
X515431Y255192D01*
Y254408D01*
X515731Y253685D01*
X516285Y253131D01*
X517008Y252832D01*
X517792D01*
X518515Y253131D01*
X519069Y253685D01*
X519369Y254408D01*
Y255192D01*
X519069Y255915D01*
X518515Y256469D01*
X517792Y256768D01*
D02*
G37*
G36*
X243641Y254818D02*
X243015D01*
X242436Y254578D01*
X241993Y254135D01*
X241753Y253556D01*
Y252930D01*
X241993Y252351D01*
X242436Y251908D01*
X243015Y251668D01*
X243641D01*
X244220Y251908D01*
X244663Y252351D01*
X244903Y252930D01*
Y253556D01*
X244663Y254135D01*
X244220Y254578D01*
X243641Y254818D01*
D02*
G37*
G36*
X202126Y254807D02*
X201500D01*
X200921Y254567D01*
X200478Y254124D01*
X200238Y253545D01*
Y252919D01*
X200478Y252340D01*
X200921Y251897D01*
X201500Y251658D01*
X202126D01*
X202705Y251897D01*
X203148Y252340D01*
X203388Y252919D01*
Y253545D01*
X203148Y254124D01*
X202705Y254567D01*
X202126Y254807D01*
D02*
G37*
G36*
X315775Y254577D02*
X315148D01*
X314569Y254337D01*
X314126Y253894D01*
X313887Y253315D01*
Y252689D01*
X314126Y252110D01*
X314569Y251667D01*
X315148Y251427D01*
X315775D01*
X316354Y251667D01*
X316796Y252110D01*
X317036Y252689D01*
Y253315D01*
X316796Y253894D01*
X316354Y254337D01*
X315775Y254577D01*
D02*
G37*
G36*
X250041D02*
X249415D01*
X248836Y254337D01*
X248393Y253894D01*
X248153Y253315D01*
Y252689D01*
X248393Y252110D01*
X248836Y251667D01*
X249415Y251427D01*
X250041D01*
X250620Y251667D01*
X251063Y252110D01*
X251303Y252689D01*
Y253315D01*
X251063Y253894D01*
X250620Y254337D01*
X250041Y254577D01*
D02*
G37*
G36*
X403733Y253929D02*
X402950D01*
X402227Y253630D01*
X401673Y253076D01*
X401373Y252353D01*
Y251569D01*
X401673Y250846D01*
X402227Y250292D01*
X402950Y249992D01*
X403733D01*
X404457Y250292D01*
X405011Y250846D01*
X405310Y251569D01*
Y252353D01*
X405011Y253076D01*
X404457Y253630D01*
X403733Y253929D01*
D02*
G37*
G36*
X537543Y255143D02*
X530457D01*
Y249699D01*
X529957Y249565D01*
X529835Y249776D01*
X529176Y250435D01*
X528368Y250902D01*
X527466Y251143D01*
X526534D01*
X525632Y250902D01*
X524824Y250435D01*
X524165Y249776D01*
X523698Y248968D01*
X523457Y248066D01*
Y247133D01*
X523698Y246232D01*
X524165Y245424D01*
X524824Y244765D01*
X525632Y244298D01*
X526534Y244057D01*
X527466D01*
X528368Y244298D01*
X529176Y244765D01*
X529835Y245424D01*
X530302Y246232D01*
X530543Y247133D01*
Y247925D01*
X530543Y248057D01*
X530782Y248057D01*
X537543D01*
Y255143D01*
D02*
G37*
G36*
X264661Y251839D02*
X264035D01*
X263456Y251599D01*
X263013Y251156D01*
X262773Y250577D01*
Y249951D01*
X263013Y249372D01*
X263456Y248929D01*
X264035Y248690D01*
X264661D01*
X265240Y248929D01*
X265683Y249372D01*
X265923Y249951D01*
Y250577D01*
X265683Y251156D01*
X265240Y251599D01*
X264661Y251839D01*
D02*
G37*
G36*
X202197Y248892D02*
X201570D01*
X200991Y248652D01*
X200548Y248209D01*
X200309Y247631D01*
Y247004D01*
X200548Y246425D01*
X200991Y245982D01*
X201570Y245743D01*
X202197D01*
X202775Y245982D01*
X203218Y246425D01*
X203458Y247004D01*
Y247631D01*
X203218Y248209D01*
X202775Y248652D01*
X202197Y248892D01*
D02*
G37*
G36*
X520676Y249569D02*
X519893D01*
X519170Y249269D01*
X518616Y248715D01*
X518316Y247992D01*
Y247208D01*
X518616Y246485D01*
X519170Y245931D01*
X519893Y245632D01*
X520676D01*
X521400Y245931D01*
X521953Y246485D01*
X522253Y247208D01*
Y247992D01*
X521953Y248715D01*
X521400Y249269D01*
X520676Y249569D01*
D02*
G37*
G36*
X400092Y244868D02*
X399308D01*
X398585Y244569D01*
X398031Y244015D01*
X397731Y243292D01*
Y242508D01*
X398031Y241785D01*
X398585Y241231D01*
X399308Y240932D01*
X400092D01*
X400815Y241231D01*
X401369Y241785D01*
X401669Y242508D01*
Y243292D01*
X401369Y244015D01*
X400815Y244569D01*
X400092Y244868D01*
D02*
G37*
G36*
X534467Y247143D02*
X533533D01*
X532632Y246902D01*
X531824Y246435D01*
X531165Y245776D01*
X530698Y244968D01*
X530457Y244067D01*
Y243133D01*
X530698Y242232D01*
X531165Y241424D01*
X531824Y240765D01*
X532632Y240298D01*
X533533Y240057D01*
X534467D01*
X535368Y240298D01*
X536176Y240765D01*
X536835Y241424D01*
X537302Y242232D01*
X537543Y243133D01*
Y244067D01*
X537302Y244968D01*
X536835Y245776D01*
X536176Y246435D01*
X535368Y246902D01*
X534467Y247143D01*
D02*
G37*
G36*
X282311Y243638D02*
X281528D01*
X280804Y243338D01*
X280251Y242785D01*
X279951Y242061D01*
Y241278D01*
X280251Y240555D01*
X280804Y240001D01*
X281528Y239701D01*
X282311D01*
X283034Y240001D01*
X283588Y240555D01*
X283888Y241278D01*
Y242061D01*
X283588Y242785D01*
X283034Y243338D01*
X282311Y243638D01*
D02*
G37*
G36*
X527466Y243143D02*
X526534D01*
X525632Y242902D01*
X524824Y242435D01*
X524165Y241776D01*
X523698Y240968D01*
X523457Y240067D01*
Y239134D01*
X523698Y238232D01*
X524165Y237424D01*
X524824Y236765D01*
X525632Y236298D01*
X526534Y236057D01*
X527466D01*
X528368Y236298D01*
X529176Y236765D01*
X529835Y237424D01*
X530302Y238232D01*
X530543Y239134D01*
Y240067D01*
X530302Y240968D01*
X529835Y241776D01*
X529176Y242435D01*
X528368Y242902D01*
X527466Y243143D01*
D02*
G37*
G36*
X443395Y237568D02*
X442612D01*
X441888Y237269D01*
X441334Y236715D01*
X441035Y235992D01*
Y235208D01*
X441334Y234485D01*
X441888Y233931D01*
X442612Y233631D01*
X443395D01*
X444118Y233931D01*
X444672Y234485D01*
X444972Y235208D01*
Y235992D01*
X444672Y236715D01*
X444118Y237269D01*
X443395Y237568D01*
D02*
G37*
G36*
X324125Y236753D02*
X323342D01*
X322618Y236453D01*
X322064Y235899D01*
X321765Y235176D01*
Y234393D01*
X322064Y233669D01*
X322618Y233115D01*
X323342Y232816D01*
X324125D01*
X324848Y233115D01*
X325402Y233669D01*
X325702Y234393D01*
Y235176D01*
X325402Y235899D01*
X324848Y236453D01*
X324125Y236753D01*
D02*
G37*
G36*
X534467Y239143D02*
X533533D01*
X532632Y238902D01*
X531824Y238435D01*
X531165Y237776D01*
X530698Y236968D01*
X530457Y236067D01*
Y235134D01*
X530698Y234232D01*
X531165Y233424D01*
X531824Y232765D01*
X532632Y232298D01*
X533533Y232057D01*
X534467D01*
X535368Y232298D01*
X536176Y232765D01*
X536835Y233424D01*
X537302Y234232D01*
X537543Y235134D01*
Y236067D01*
X537302Y236968D01*
X536835Y237776D01*
X536176Y238435D01*
X535368Y238902D01*
X534467Y239143D01*
D02*
G37*
G36*
X385037Y232828D02*
X384254D01*
X383531Y232528D01*
X382977Y231975D01*
X382677Y231251D01*
Y230468D01*
X382977Y229745D01*
X383531Y229191D01*
X384254Y228891D01*
X385037D01*
X385761Y229191D01*
X386315Y229745D01*
X386614Y230468D01*
Y231251D01*
X386315Y231975D01*
X385761Y232528D01*
X385037Y232828D01*
D02*
G37*
G36*
X527466Y235143D02*
X526534D01*
X525632Y234902D01*
X524824Y234435D01*
X524165Y233776D01*
X523698Y232968D01*
X523457Y232066D01*
Y231134D01*
X523698Y230232D01*
X524165Y229424D01*
X524824Y228765D01*
X525632Y228298D01*
X526534Y228057D01*
X527466D01*
X528368Y228298D01*
X529176Y228765D01*
X529835Y229424D01*
X530302Y230232D01*
X530543Y231134D01*
Y232066D01*
X530302Y232968D01*
X529835Y233776D01*
X529176Y234435D01*
X528368Y234902D01*
X527466Y235143D01*
D02*
G37*
G36*
X473653Y231769D02*
X472870D01*
X472146Y231470D01*
X471593Y230916D01*
X471293Y230192D01*
Y229409D01*
X471593Y228686D01*
X472146Y228132D01*
X472870Y227832D01*
X473653D01*
X474376Y228132D01*
X474930Y228686D01*
X475230Y229409D01*
Y230192D01*
X474930Y230916D01*
X474376Y231470D01*
X473653Y231769D01*
D02*
G37*
G36*
X534467Y231143D02*
X533533D01*
X532632Y230902D01*
X531824Y230435D01*
X531165Y229776D01*
X530698Y228968D01*
X530457Y228066D01*
Y227133D01*
X530698Y226232D01*
X531165Y225424D01*
X531824Y224765D01*
X532632Y224298D01*
X533533Y224057D01*
X534467D01*
X535368Y224298D01*
X536176Y224765D01*
X536835Y225424D01*
X537302Y226232D01*
X537543Y227133D01*
Y228066D01*
X537302Y228968D01*
X536835Y229776D01*
X536176Y230435D01*
X535368Y230902D01*
X534467Y231143D01*
D02*
G37*
G36*
X206800Y226623D02*
X206017D01*
X205294Y226324D01*
X204740Y225770D01*
X204440Y225046D01*
Y224263D01*
X204740Y223540D01*
X205294Y222986D01*
X206017Y222686D01*
X206800D01*
X207524Y222986D01*
X208078Y223540D01*
X208377Y224263D01*
Y225046D01*
X208078Y225770D01*
X207524Y226324D01*
X206800Y226623D01*
D02*
G37*
G36*
X384644Y224016D02*
X383860D01*
X383137Y223716D01*
X382583Y223162D01*
X382283Y222439D01*
Y221656D01*
X382583Y220932D01*
X383137Y220378D01*
X383860Y220079D01*
X384644D01*
X385367Y220378D01*
X385921Y220932D01*
X386221Y221656D01*
Y222439D01*
X385921Y223162D01*
X385367Y223716D01*
X384644Y224016D01*
D02*
G37*
G36*
X527466Y227143D02*
X526534D01*
X525632Y226902D01*
X524824Y226435D01*
X524165Y225776D01*
X523698Y224968D01*
X523457Y224066D01*
Y223133D01*
X523698Y222232D01*
X524165Y221424D01*
X524824Y220765D01*
X525632Y220298D01*
X526534Y220057D01*
X527466D01*
X528368Y220298D01*
X529176Y220765D01*
X529835Y221424D01*
X530302Y222232D01*
X530543Y223133D01*
Y224066D01*
X530302Y224968D01*
X529835Y225776D01*
X529176Y226435D01*
X528368Y226902D01*
X527466Y227143D01*
D02*
G37*
G36*
X163972Y223116D02*
X163189D01*
X162466Y222816D01*
X161912Y222262D01*
X161612Y221539D01*
Y220756D01*
X161912Y220032D01*
X162466Y219478D01*
X163189Y219179D01*
X163972D01*
X164696Y219478D01*
X165250Y220032D01*
X165549Y220756D01*
Y221539D01*
X165250Y222262D01*
X164696Y222816D01*
X163972Y223116D01*
D02*
G37*
G36*
X412197Y221699D02*
X411413D01*
X410690Y221399D01*
X410136Y220846D01*
X409837Y220122D01*
Y219339D01*
X410136Y218616D01*
X410690Y218062D01*
X411413Y217762D01*
X412197D01*
X412920Y218062D01*
X413474Y218616D01*
X413774Y219339D01*
Y220122D01*
X413474Y220846D01*
X412920Y221399D01*
X412197Y221699D01*
D02*
G37*
G36*
X305568Y216773D02*
X304941D01*
X304363Y216533D01*
X303920Y216090D01*
X303680Y215512D01*
Y214885D01*
X303920Y214306D01*
X304363Y213863D01*
X304941Y213624D01*
X305568D01*
X306147Y213863D01*
X306590Y214306D01*
X306829Y214885D01*
Y215512D01*
X306590Y216090D01*
X306147Y216533D01*
X305568Y216773D01*
D02*
G37*
G36*
X403733Y213586D02*
X402950D01*
X402227Y213286D01*
X401673Y212732D01*
X401373Y212009D01*
Y211226D01*
X401673Y210502D01*
X402227Y209948D01*
X402950Y209649D01*
X403733D01*
X404457Y209948D01*
X405011Y210502D01*
X405310Y211226D01*
Y212009D01*
X405011Y212732D01*
X404457Y213286D01*
X403733Y213586D01*
D02*
G37*
G36*
X443395Y208980D02*
X442612D01*
X441888Y208680D01*
X441334Y208126D01*
X441035Y207403D01*
Y206620D01*
X441334Y205896D01*
X441888Y205342D01*
X442612Y205043D01*
X443395D01*
X444118Y205342D01*
X444672Y205896D01*
X444972Y206620D01*
Y207403D01*
X444672Y208126D01*
X444118Y208680D01*
X443395Y208980D01*
D02*
G37*
G36*
X402374Y206927D02*
X401591D01*
X400867Y206627D01*
X400313Y206073D01*
X400014Y205350D01*
Y204567D01*
X400313Y203843D01*
X400867Y203290D01*
X401591Y202990D01*
X402374D01*
X403097Y203290D01*
X403651Y203843D01*
X403951Y204567D01*
Y205350D01*
X403651Y206073D01*
X403097Y206627D01*
X402374Y206927D01*
D02*
G37*
G36*
X315274Y205118D02*
X314647D01*
X314069Y204878D01*
X313626Y204435D01*
X313386Y203857D01*
Y203230D01*
X313626Y202651D01*
X314069Y202208D01*
X314647Y201969D01*
X315274D01*
X315853Y202208D01*
X316296Y202651D01*
X316535Y203230D01*
Y203857D01*
X316296Y204435D01*
X315853Y204878D01*
X315274Y205118D01*
D02*
G37*
G36*
X280147Y195021D02*
X279364D01*
X278640Y194722D01*
X278086Y194168D01*
X277787Y193444D01*
Y192661D01*
X278086Y191938D01*
X278640Y191384D01*
X279364Y191084D01*
X280147D01*
X280870Y191384D01*
X281424Y191938D01*
X281724Y192661D01*
Y193444D01*
X281424Y194168D01*
X280870Y194722D01*
X280147Y195021D01*
D02*
G37*
G36*
X397473Y193269D02*
X396690D01*
X395966Y192969D01*
X395412Y192415D01*
X395113Y191692D01*
Y190908D01*
X395412Y190185D01*
X395966Y189631D01*
X396690Y189331D01*
X397473D01*
X398196Y189631D01*
X398750Y190185D01*
X399050Y190908D01*
Y191692D01*
X398750Y192415D01*
X398196Y192969D01*
X397473Y193269D01*
D02*
G37*
G36*
X537543Y193143D02*
X530457D01*
Y187699D01*
X529957Y187565D01*
X529835Y187776D01*
X529176Y188435D01*
X528368Y188902D01*
X527466Y189143D01*
X526534D01*
X525632Y188902D01*
X524824Y188435D01*
X524165Y187776D01*
X523698Y186968D01*
X523457Y186066D01*
Y185134D01*
X523698Y184232D01*
X524165Y183424D01*
X524824Y182765D01*
X525632Y182298D01*
X526534Y182057D01*
X527466D01*
X528368Y182298D01*
X529176Y182765D01*
X529835Y183424D01*
X530302Y184232D01*
X530543Y185134D01*
Y185925D01*
X530543Y186057D01*
X530782Y186057D01*
X537543D01*
Y193143D01*
D02*
G37*
G36*
X322101Y186659D02*
X321318D01*
X320594Y186359D01*
X320040Y185806D01*
X319741Y185082D01*
Y184299D01*
X320040Y183575D01*
X320594Y183022D01*
X321318Y182722D01*
X322101D01*
X322824Y183022D01*
X323378Y183575D01*
X323677Y184299D01*
Y185082D01*
X323378Y185806D01*
X322824Y186359D01*
X322101Y186659D01*
D02*
G37*
G36*
X441350Y185494D02*
X440566D01*
X439843Y185195D01*
X439289Y184641D01*
X438989Y183917D01*
Y183134D01*
X439289Y182411D01*
X439843Y181857D01*
X440566Y181557D01*
X441350D01*
X442073Y181857D01*
X442627Y182411D01*
X442926Y183134D01*
Y183917D01*
X442627Y184641D01*
X442073Y185195D01*
X441350Y185494D01*
D02*
G37*
G36*
X231966Y185564D02*
X231340D01*
X230761Y185324D01*
X230318Y184881D01*
X230078Y184302D01*
Y183676D01*
X230318Y183097D01*
X230761Y182654D01*
X231340Y182414D01*
X231966D01*
X232237Y182526D01*
X232245Y182524D01*
X232699Y182176D01*
Y181800D01*
X232938Y181221D01*
X233381Y180778D01*
X233960Y180539D01*
X234587D01*
X235166Y180778D01*
X235608Y181221D01*
X235848Y181800D01*
Y182427D01*
X235608Y183005D01*
X235166Y183448D01*
X234587Y183688D01*
X233960D01*
X233690Y183576D01*
X233682Y183578D01*
X233228Y183926D01*
Y184302D01*
X232988Y184881D01*
X232545Y185324D01*
X231966Y185564D01*
D02*
G37*
G36*
X162189Y184312D02*
X161563D01*
X160984Y184072D01*
X160541Y183629D01*
X160301Y183051D01*
Y182424D01*
X160541Y181845D01*
X160686Y181700D01*
X160541Y181555D01*
X160301Y180976D01*
Y180349D01*
X160541Y179771D01*
X160984Y179327D01*
X161563Y179088D01*
X162189D01*
X162768Y179327D01*
X163211Y179771D01*
X163451Y180349D01*
Y180976D01*
X163211Y181555D01*
X163066Y181700D01*
X163211Y181845D01*
X163451Y182424D01*
Y183051D01*
X163211Y183629D01*
X162768Y184072D01*
X162189Y184312D01*
D02*
G37*
G36*
X-24126Y182573D02*
X-24909D01*
X-25632Y182273D01*
X-26186Y181720D01*
X-26486Y180996D01*
Y180213D01*
X-26186Y179490D01*
X-25632Y178936D01*
X-24909Y178636D01*
X-24126D01*
X-23402Y178936D01*
X-22848Y179490D01*
X-22549Y180213D01*
Y180996D01*
X-22848Y181720D01*
X-23402Y182273D01*
X-24126Y182573D01*
D02*
G37*
G36*
X382671Y182079D02*
X381888D01*
X381165Y181779D01*
X380611Y181225D01*
X380311Y180502D01*
Y179719D01*
X380611Y178995D01*
X381165Y178441D01*
X381888Y178142D01*
X382671D01*
X383395Y178441D01*
X383948Y178995D01*
X384248Y179719D01*
Y180502D01*
X383948Y181225D01*
X383395Y181779D01*
X382671Y182079D01*
D02*
G37*
G36*
X534467Y185143D02*
X533533D01*
X532632Y184902D01*
X531824Y184435D01*
X531165Y183776D01*
X530698Y182968D01*
X530457Y182067D01*
Y181133D01*
X530698Y180232D01*
X531165Y179424D01*
X531824Y178765D01*
X532632Y178298D01*
X533533Y178057D01*
X534467D01*
X535368Y178298D01*
X536176Y178765D01*
X536835Y179424D01*
X537302Y180232D01*
X537543Y181133D01*
Y182067D01*
X537302Y182968D01*
X536835Y183776D01*
X536176Y184435D01*
X535368Y184902D01*
X534467Y185143D01*
D02*
G37*
G36*
X202275Y181109D02*
X201492D01*
X200768Y180810D01*
X200215Y180256D01*
X199915Y179533D01*
Y178749D01*
X200215Y178026D01*
X200768Y177472D01*
X201492Y177172D01*
X202275D01*
X202998Y177472D01*
X203552Y178026D01*
X203852Y178749D01*
Y179533D01*
X203552Y180256D01*
X202998Y180810D01*
X202275Y181109D01*
D02*
G37*
G36*
X472284Y180272D02*
X471501D01*
X470777Y179973D01*
X470224Y179419D01*
X469924Y178695D01*
Y177912D01*
X470224Y177189D01*
X470777Y176635D01*
X471501Y176335D01*
X472284D01*
X473007Y176635D01*
X473561Y177189D01*
X473861Y177912D01*
Y178695D01*
X473561Y179419D01*
X473007Y179973D01*
X472284Y180272D01*
D02*
G37*
G36*
X527466Y181143D02*
X526534D01*
X525632Y180902D01*
X524824Y180435D01*
X524165Y179776D01*
X523698Y178968D01*
X523457Y178067D01*
Y177134D01*
X523698Y176232D01*
X524165Y175424D01*
X524824Y174765D01*
X525632Y174298D01*
X526534Y174057D01*
X527466D01*
X528368Y174298D01*
X529176Y174765D01*
X529835Y175424D01*
X530302Y176232D01*
X530543Y177134D01*
Y178067D01*
X530302Y178968D01*
X529835Y179776D01*
X529176Y180435D01*
X528368Y180902D01*
X527466Y181143D01*
D02*
G37*
G36*
X-25096Y176379D02*
X-25879D01*
X-26602Y176079D01*
X-27156Y175525D01*
X-27456Y174802D01*
Y174019D01*
X-27156Y173295D01*
X-26602Y172741D01*
X-25879Y172442D01*
X-25096D01*
X-24372Y172741D01*
X-23818Y173295D01*
X-23519Y174019D01*
Y174802D01*
X-23818Y175525D01*
X-24372Y176079D01*
X-25096Y176379D01*
D02*
G37*
G36*
X534467Y177143D02*
X533533D01*
X532632Y176902D01*
X531824Y176435D01*
X531165Y175776D01*
X530698Y174968D01*
X530457Y174066D01*
Y173134D01*
X530698Y172232D01*
X531165Y171424D01*
X531824Y170765D01*
X532632Y170298D01*
X533533Y170057D01*
X534467D01*
X535368Y170298D01*
X536176Y170765D01*
X536835Y171424D01*
X537302Y172232D01*
X537543Y173134D01*
Y174066D01*
X537302Y174968D01*
X536835Y175776D01*
X536176Y176435D01*
X535368Y176902D01*
X534467Y177143D01*
D02*
G37*
G36*
X382062Y173105D02*
X381279D01*
X380556Y172805D01*
X380002Y172252D01*
X379702Y171528D01*
Y170745D01*
X380002Y170022D01*
X380556Y169468D01*
X381279Y169168D01*
X382062D01*
X382786Y169468D01*
X383340Y170022D01*
X383639Y170745D01*
Y171528D01*
X383340Y172252D01*
X382786Y172805D01*
X382062Y173105D01*
D02*
G37*
G36*
X507892Y171569D02*
X507108D01*
X506385Y171269D01*
X505831Y170715D01*
X505532Y169992D01*
Y169208D01*
X505831Y168485D01*
X506385Y167931D01*
X507108Y167631D01*
X507892D01*
X508615Y167931D01*
X509169Y168485D01*
X509469Y169208D01*
Y169992D01*
X509169Y170715D01*
X508615Y171269D01*
X507892Y171569D01*
D02*
G37*
G36*
X408929Y170905D02*
X408146D01*
X407422Y170606D01*
X406869Y170052D01*
X406569Y169328D01*
Y168545D01*
X406869Y167822D01*
X407422Y167268D01*
X408146Y166968D01*
X408929D01*
X409653Y167268D01*
X410206Y167822D01*
X410506Y168545D01*
Y169328D01*
X410206Y170052D01*
X409653Y170606D01*
X408929Y170905D01*
D02*
G37*
G36*
X162268Y173669D02*
X161485D01*
X160761Y173369D01*
X160207Y172815D01*
X159908Y172092D01*
Y171309D01*
X160207Y170585D01*
X160523Y170269D01*
X160207Y169953D01*
X159908Y169229D01*
Y168446D01*
X160207Y167723D01*
X160761Y167169D01*
X161485Y166869D01*
X162268D01*
X162991Y167169D01*
X163545Y167723D01*
X163845Y168446D01*
Y169229D01*
X163545Y169953D01*
X163229Y170269D01*
X163545Y170585D01*
X163845Y171309D01*
Y172092D01*
X163545Y172815D01*
X162991Y173369D01*
X162268Y173669D01*
D02*
G37*
G36*
X527466Y173143D02*
X526534D01*
X525632Y172902D01*
X524824Y172435D01*
X524165Y171776D01*
X523698Y170968D01*
X523457Y170066D01*
Y169133D01*
X523698Y168232D01*
X524165Y167424D01*
X524824Y166765D01*
X525632Y166298D01*
X526534Y166057D01*
X527466D01*
X528368Y166298D01*
X529176Y166765D01*
X529835Y167424D01*
X530302Y168232D01*
X530543Y169133D01*
Y170066D01*
X530302Y170968D01*
X529835Y171776D01*
X529176Y172435D01*
X528368Y172902D01*
X527466Y173143D01*
D02*
G37*
G36*
X-30744Y168898D02*
X-31527D01*
X-32250Y168598D01*
X-32804Y168044D01*
X-33104Y167321D01*
Y166538D01*
X-32804Y165814D01*
X-32250Y165260D01*
X-31527Y164961D01*
X-30744D01*
X-30020Y165260D01*
X-29467Y165814D01*
X-29167Y166538D01*
Y167321D01*
X-29467Y168044D01*
X-30020Y168598D01*
X-30744Y168898D01*
D02*
G37*
G36*
X303994Y167272D02*
X303367D01*
X302788Y167033D01*
X302345Y166590D01*
X302105Y166011D01*
Y165384D01*
X302345Y164805D01*
X302788Y164363D01*
X303367Y164123D01*
X303994D01*
X304572Y164363D01*
X305015Y164805D01*
X305255Y165384D01*
Y166011D01*
X305015Y166590D01*
X304572Y167033D01*
X303994Y167272D01*
D02*
G37*
G36*
X534467Y169143D02*
X533533D01*
X532632Y168902D01*
X531824Y168435D01*
X531165Y167776D01*
X530698Y166968D01*
X530457Y166067D01*
Y165134D01*
X530698Y164232D01*
X531165Y163424D01*
X531824Y162765D01*
X532632Y162298D01*
X533533Y162057D01*
X534467D01*
X535368Y162298D01*
X536176Y162765D01*
X536835Y163424D01*
X537302Y164232D01*
X537543Y165134D01*
Y166067D01*
X537302Y166968D01*
X536835Y167776D01*
X536176Y168435D01*
X535368Y168902D01*
X534467Y169143D01*
D02*
G37*
G36*
X164307Y165953D02*
X163524D01*
X162801Y165653D01*
X162247Y165099D01*
X161947Y164376D01*
Y163593D01*
X162247Y162869D01*
X162563Y162553D01*
X162247Y162237D01*
X161947Y161514D01*
Y160731D01*
X162247Y160007D01*
X162801Y159453D01*
X163524Y159154D01*
X164307D01*
X165031Y159453D01*
X165584Y160007D01*
X165884Y160731D01*
Y161514D01*
X165584Y162237D01*
X165268Y162553D01*
X165584Y162869D01*
X165884Y163593D01*
Y164376D01*
X165584Y165099D01*
X165031Y165653D01*
X164307Y165953D01*
D02*
G37*
G36*
X401069Y162986D02*
X400285D01*
X399562Y162687D01*
X399008Y162133D01*
X398709Y161409D01*
Y160626D01*
X399008Y159903D01*
X399562Y159349D01*
X400285Y159049D01*
X401069D01*
X401792Y159349D01*
X402346Y159903D01*
X402646Y160626D01*
Y161409D01*
X402346Y162133D01*
X401792Y162687D01*
X401069Y162986D01*
D02*
G37*
G36*
X232982Y165157D02*
X232355D01*
X231776Y164918D01*
X231333Y164475D01*
X231094Y163896D01*
Y163269D01*
X231333Y162691D01*
X231776Y162248D01*
X231782Y162245D01*
Y161704D01*
X231776Y161702D01*
X231333Y161259D01*
X231094Y160680D01*
Y160053D01*
X231333Y159475D01*
X231776Y159031D01*
X232355Y158792D01*
X232982D01*
X233560Y159031D01*
X234003Y159475D01*
X234243Y160053D01*
Y160680D01*
X234003Y161259D01*
X233560Y161702D01*
X233555Y161704D01*
Y162245D01*
X233560Y162248D01*
X234003Y162691D01*
X234243Y163269D01*
Y163896D01*
X234003Y164475D01*
X233560Y164918D01*
X232982Y165157D01*
D02*
G37*
G36*
X527466Y165143D02*
X526534D01*
X525632Y164902D01*
X524824Y164435D01*
X524165Y163776D01*
X523698Y162968D01*
X523457Y162066D01*
Y161134D01*
X523698Y160232D01*
X524165Y159424D01*
X524824Y158765D01*
X525632Y158298D01*
X526534Y158057D01*
X527466D01*
X528368Y158298D01*
X529176Y158765D01*
X529835Y159424D01*
X530302Y160232D01*
X530543Y161134D01*
Y162066D01*
X530302Y162968D01*
X529835Y163776D01*
X529176Y164435D01*
X528368Y164902D01*
X527466Y165143D01*
D02*
G37*
G36*
X263699Y160594D02*
X263073D01*
X262494Y160354D01*
X262051Y159911D01*
X261811Y159332D01*
Y158706D01*
X262051Y158127D01*
X262494Y157684D01*
X263073Y157444D01*
X263699D01*
X264278Y157684D01*
X264721Y158127D01*
X264961Y158706D01*
Y159332D01*
X264721Y159911D01*
X264278Y160354D01*
X263699Y160594D01*
D02*
G37*
G36*
X203783Y158449D02*
X203156D01*
X202577Y158209D01*
X202134Y157766D01*
X201895Y157187D01*
Y156561D01*
X202134Y155982D01*
X202577Y155539D01*
X203156Y155299D01*
X203783D01*
X204362Y155539D01*
X204804Y155982D01*
X205044Y156561D01*
Y157187D01*
X204804Y157766D01*
X204362Y158209D01*
X203783Y158449D01*
D02*
G37*
G36*
X314109Y158231D02*
X313482D01*
X312903Y157992D01*
X312460Y157549D01*
X312221Y156970D01*
Y156343D01*
X312460Y155765D01*
X312903Y155322D01*
X313482Y155082D01*
X314109D01*
X314687Y155322D01*
X315130Y155765D01*
X315370Y156343D01*
Y156970D01*
X315130Y157549D01*
X314687Y157992D01*
X314109Y158231D01*
D02*
G37*
G36*
X441350Y157465D02*
X440566D01*
X439843Y157165D01*
X439289Y156611D01*
X438989Y155888D01*
Y155104D01*
X439289Y154381D01*
X439843Y153827D01*
X440566Y153528D01*
X441350D01*
X442073Y153827D01*
X442627Y154381D01*
X442926Y155104D01*
Y155888D01*
X442627Y156611D01*
X442073Y157165D01*
X441350Y157465D01*
D02*
G37*
G36*
X250041Y155905D02*
X249415D01*
X248836Y155666D01*
X248393Y155223D01*
X248153Y154644D01*
Y154017D01*
X248393Y153439D01*
X248836Y152996D01*
X249415Y152756D01*
X250041D01*
X250620Y152996D01*
X251063Y153439D01*
X251303Y154017D01*
Y154644D01*
X251063Y155223D01*
X250620Y155666D01*
X250041Y155905D01*
D02*
G37*
G36*
X244916D02*
X244289D01*
X243710Y155666D01*
X243267Y155223D01*
X243028Y154644D01*
Y154017D01*
X243267Y153439D01*
X243710Y152996D01*
X244289Y152756D01*
X244916D01*
X245494Y152996D01*
X245937Y153439D01*
X246177Y154017D01*
Y154644D01*
X245937Y155223D01*
X245494Y155666D01*
X244916Y155905D01*
D02*
G37*
G36*
X234417D02*
X233791D01*
X233212Y155666D01*
X232769Y155223D01*
X232529Y154644D01*
Y154017D01*
X232769Y153439D01*
X233212Y152996D01*
X233791Y152756D01*
X234417D01*
X234996Y152996D01*
X235439Y153439D01*
X235679Y154017D01*
Y154644D01*
X235439Y155223D01*
X234996Y155666D01*
X234417Y155905D01*
D02*
G37*
G36*
X400699Y156376D02*
X399916D01*
X399192Y156076D01*
X398639Y155523D01*
X398339Y154799D01*
Y154016D01*
X398639Y153293D01*
X399192Y152739D01*
X399916Y152439D01*
X400699D01*
X401422Y152739D01*
X401976Y153293D01*
X402276Y154016D01*
Y154799D01*
X401976Y155523D01*
X401422Y156076D01*
X400699Y156376D01*
D02*
G37*
G36*
X263699Y152543D02*
X263073D01*
X262494Y152304D01*
X262051Y151860D01*
X261811Y151282D01*
Y150655D01*
X262051Y150076D01*
X262494Y149633D01*
X263073Y149394D01*
X263699D01*
X264278Y149633D01*
X264721Y150076D01*
X264961Y150655D01*
Y151282D01*
X264721Y151860D01*
X264278Y152304D01*
X263699Y152543D01*
D02*
G37*
G36*
X281492Y152347D02*
X280708D01*
X279985Y152047D01*
X279431Y151493D01*
X279132Y150769D01*
Y149986D01*
X279431Y149263D01*
X279985Y148709D01*
X280708Y148409D01*
X281492D01*
X282215Y148709D01*
X282769Y149263D01*
X283068Y149986D01*
Y150769D01*
X282769Y151493D01*
X282215Y152047D01*
X281492Y152347D01*
D02*
G37*
G36*
X30725Y152252D02*
X29942D01*
X29219Y151953D01*
X28665Y151399D01*
X28365Y150675D01*
Y149892D01*
X28665Y149169D01*
X29219Y148615D01*
X29942Y148315D01*
X30725D01*
X31449Y148615D01*
X32002Y149169D01*
X32302Y149892D01*
Y150675D01*
X32002Y151399D01*
X31449Y151953D01*
X30725Y152252D01*
D02*
G37*
G36*
X164912Y154286D02*
X164129D01*
X163406Y153987D01*
X162852Y153433D01*
X162552Y152709D01*
Y151926D01*
X162852Y151203D01*
X163168Y150887D01*
X162852Y150571D01*
X162552Y149847D01*
Y149064D01*
X162852Y148340D01*
X163406Y147787D01*
X164129Y147487D01*
X164912D01*
X165636Y147787D01*
X166190Y148340D01*
X166489Y149064D01*
Y149847D01*
X166190Y150571D01*
X165873Y150887D01*
X166190Y151203D01*
X166489Y151926D01*
Y152709D01*
X166190Y153433D01*
X165636Y153987D01*
X164912Y154286D01*
D02*
G37*
G36*
X214171Y150787D02*
X213388D01*
X212665Y150488D01*
X212111Y149934D01*
X211811Y149211D01*
Y148427D01*
X212111Y147704D01*
X212665Y147150D01*
X213388Y146850D01*
X214171D01*
X214895Y147150D01*
X215448Y147704D01*
X215748Y148427D01*
Y149211D01*
X215448Y149934D01*
X214895Y150488D01*
X214171Y150787D01*
D02*
G37*
G36*
X233654Y149631D02*
X233028D01*
X232449Y149392D01*
X232006Y148949D01*
X231766Y148370D01*
Y147743D01*
X232006Y147165D01*
X232449Y146722D01*
X233028Y146482D01*
X233654D01*
X234233Y146722D01*
X234676Y147165D01*
X234916Y147743D01*
Y148370D01*
X234676Y148949D01*
X234233Y149392D01*
X233654Y149631D01*
D02*
G37*
G36*
X5174Y147427D02*
X4391D01*
X3667Y147127D01*
X3114Y146574D01*
X2814Y145850D01*
Y145067D01*
X3114Y144344D01*
X3667Y143790D01*
X4391Y143490D01*
X5174D01*
X5897Y143790D01*
X6451Y144344D01*
X6751Y145067D01*
Y145850D01*
X6451Y146574D01*
X5897Y147127D01*
X5174Y147427D01*
D02*
G37*
G36*
X544708Y157785D02*
X543292D01*
X541904Y157509D01*
X540597Y156967D01*
X539420Y156181D01*
X538419Y155180D01*
X537633Y154003D01*
X537091Y152696D01*
X536815Y151308D01*
Y149892D01*
X537091Y148504D01*
X537633Y147197D01*
X538419Y146020D01*
X539420Y145019D01*
X540597Y144233D01*
X541904Y143691D01*
X543292Y143415D01*
X544708D01*
X546096Y143691D01*
X547403Y144233D01*
X548580Y145019D01*
X549581Y146020D01*
X550367Y147197D01*
X550909Y148504D01*
X551185Y149892D01*
Y151308D01*
X550909Y152696D01*
X550367Y154003D01*
X549581Y155180D01*
X548580Y156181D01*
X547403Y156967D01*
X546096Y157509D01*
X544708Y157785D01*
D02*
G37*
G36*
X396052Y145569D02*
X395269D01*
X394545Y145269D01*
X393992Y144715D01*
X393692Y143992D01*
Y143208D01*
X393992Y142485D01*
X394545Y141931D01*
X395269Y141631D01*
X396052D01*
X396776Y141931D01*
X397329Y142485D01*
X397629Y143208D01*
Y143992D01*
X397329Y144715D01*
X396776Y145269D01*
X396052Y145569D01*
D02*
G37*
G36*
X233654Y143041D02*
X233028D01*
X232449Y142801D01*
X232006Y142359D01*
X231766Y141780D01*
Y141153D01*
X232006Y140574D01*
X232449Y140131D01*
X233028Y139892D01*
X233654D01*
X234233Y140131D01*
X234676Y140574D01*
X234916Y141153D01*
Y141780D01*
X234676Y142359D01*
X234233Y142801D01*
X233654Y143041D01*
D02*
G37*
G36*
X203584Y142701D02*
X202957D01*
X202378Y142461D01*
X201935Y142018D01*
X201696Y141439D01*
Y140813D01*
X201935Y140234D01*
X202378Y139791D01*
X202957Y139551D01*
X203584D01*
X204163Y139791D01*
X204606Y140234D01*
X204845Y140813D01*
Y141439D01*
X204606Y142018D01*
X204163Y142461D01*
X203584Y142701D01*
D02*
G37*
G36*
X531226Y149112D02*
X529774D01*
X528372Y148736D01*
X527116Y148011D01*
X526089Y146984D01*
X525364Y145728D01*
X524988Y144326D01*
Y142874D01*
X525364Y141472D01*
X526089Y140216D01*
X527116Y139190D01*
X528372Y138464D01*
X529774Y138088D01*
X531226D01*
X532627Y138464D01*
X533884Y139190D01*
X534910Y140216D01*
X535636Y141472D01*
X536012Y142874D01*
Y144326D01*
X535636Y145728D01*
X534910Y146984D01*
X533884Y148011D01*
X532627Y148736D01*
X531226Y149112D01*
D02*
G37*
G36*
X321916Y140907D02*
X321133D01*
X320409Y140607D01*
X319856Y140054D01*
X319556Y139330D01*
Y138547D01*
X319856Y137823D01*
X320409Y137270D01*
X321133Y136970D01*
X321916D01*
X322639Y137270D01*
X323193Y137823D01*
X323493Y138547D01*
Y139330D01*
X323193Y140054D01*
X322639Y140607D01*
X321916Y140907D01*
D02*
G37*
G36*
X233654Y136795D02*
X233028D01*
X232449Y136556D01*
X232006Y136112D01*
X231766Y135534D01*
Y134907D01*
X232006Y134328D01*
X232449Y133885D01*
X233028Y133646D01*
X233654D01*
X234233Y133885D01*
X234676Y134328D01*
X234916Y134907D01*
Y135534D01*
X234676Y136112D01*
X234233Y136556D01*
X233654Y136795D01*
D02*
G37*
G36*
X442339Y137366D02*
X441556D01*
X440832Y137067D01*
X440278Y136513D01*
X439979Y135789D01*
Y135006D01*
X440278Y134283D01*
X440832Y133729D01*
X441556Y133429D01*
X442339D01*
X443062Y133729D01*
X443616Y134283D01*
X443916Y135006D01*
Y135789D01*
X443616Y136513D01*
X443062Y137067D01*
X442339Y137366D01*
D02*
G37*
G36*
X74922Y136311D02*
X74139D01*
X73415Y136011D01*
X72862Y135457D01*
X72562Y134734D01*
Y133951D01*
X72862Y133227D01*
X73415Y132673D01*
X74139Y132374D01*
X74922D01*
X75646Y132673D01*
X76199Y133227D01*
X76499Y133951D01*
Y134734D01*
X76199Y135457D01*
X75646Y136011D01*
X74922Y136311D01*
D02*
G37*
G36*
X380054Y134699D02*
X379271D01*
X378547Y134399D01*
X377993Y133845D01*
X377694Y133122D01*
Y132339D01*
X377993Y131615D01*
X378547Y131061D01*
X379271Y130762D01*
X380054D01*
X380777Y131061D01*
X381331Y131615D01*
X381631Y132339D01*
Y133122D01*
X381331Y133845D01*
X380777Y134399D01*
X380054Y134699D01*
D02*
G37*
G36*
X470900Y132425D02*
X470117D01*
X469393Y132125D01*
X468840Y131571D01*
X468540Y130848D01*
Y130065D01*
X468840Y129341D01*
X469393Y128787D01*
X470117Y128488D01*
X470900D01*
X471624Y128787D01*
X472177Y129341D01*
X472477Y130065D01*
Y130848D01*
X472177Y131571D01*
X471624Y132125D01*
X470900Y132425D01*
D02*
G37*
G36*
X-10608Y128769D02*
X-11392D01*
X-12115Y128469D01*
X-12669Y127915D01*
X-12968Y127192D01*
Y126408D01*
X-12669Y125685D01*
X-12115Y125131D01*
X-11392Y124831D01*
X-10608D01*
X-9885Y125131D01*
X-9331Y125685D01*
X-9031Y126408D01*
Y127192D01*
X-9331Y127915D01*
X-9885Y128469D01*
X-10608Y128769D01*
D02*
G37*
G36*
X380054Y125777D02*
X379271D01*
X378547Y125478D01*
X377993Y124924D01*
X377694Y124200D01*
Y123417D01*
X377993Y122694D01*
X378547Y122140D01*
X379271Y121841D01*
X380054D01*
X380777Y122140D01*
X381331Y122694D01*
X381631Y123417D01*
Y124200D01*
X381331Y124924D01*
X380777Y125478D01*
X380054Y125777D01*
D02*
G37*
G36*
X517999Y129187D02*
X517001D01*
X516038Y128929D01*
X515174Y128431D01*
X514469Y127726D01*
X513971Y126862D01*
X513713Y125899D01*
Y124901D01*
X513971Y123938D01*
X514469Y123074D01*
X515174Y122369D01*
X516038Y121871D01*
X517001Y121613D01*
X517999D01*
X518962Y121871D01*
X519826Y122369D01*
X520531Y123074D01*
X521029Y123938D01*
X521287Y124901D01*
Y125899D01*
X521029Y126862D01*
X520531Y127726D01*
X519826Y128431D01*
X518962Y128929D01*
X517999Y129187D01*
D02*
G37*
G36*
X507999D02*
X507001D01*
X506038Y128929D01*
X505174Y128431D01*
X504469Y127726D01*
X503971Y126862D01*
X503713Y125899D01*
Y124901D01*
X503971Y123938D01*
X504469Y123074D01*
X505174Y122369D01*
X506038Y121871D01*
X507001Y121613D01*
X507999D01*
X508962Y121871D01*
X509826Y122369D01*
X510531Y123074D01*
X511029Y123938D01*
X511287Y124901D01*
Y125899D01*
X511029Y126862D01*
X510531Y127726D01*
X509826Y128431D01*
X508962Y128929D01*
X507999Y129187D01*
D02*
G37*
G36*
X407132Y122844D02*
X406349D01*
X405625Y122545D01*
X405072Y121991D01*
X404772Y121267D01*
Y120484D01*
X405072Y119761D01*
X405625Y119207D01*
X406349Y118907D01*
X407132D01*
X407856Y119207D01*
X408409Y119761D01*
X408709Y120484D01*
Y121267D01*
X408409Y121991D01*
X407856Y122545D01*
X407132Y122844D01*
D02*
G37*
G36*
X303580Y120384D02*
X302953D01*
X302375Y120144D01*
X301932Y119701D01*
X301692Y119122D01*
Y118496D01*
X301932Y117917D01*
X302375Y117474D01*
X302953Y117234D01*
X303580D01*
X304159Y117474D01*
X304602Y117917D01*
X304841Y118496D01*
Y119122D01*
X304602Y119701D01*
X304159Y120144D01*
X303580Y120384D01*
D02*
G37*
G36*
X518500Y119273D02*
Y116400D01*
X521373D01*
X521227Y116944D01*
X520701Y117856D01*
X519956Y118601D01*
X519044Y119127D01*
X518500Y119273D01*
D02*
G37*
G36*
X508500D02*
Y116400D01*
X511373D01*
X511227Y116944D01*
X510701Y117856D01*
X509956Y118601D01*
X509044Y119127D01*
X508500Y119273D01*
D02*
G37*
G36*
X506500Y119273D02*
X505956Y119127D01*
X505044Y118601D01*
X504299Y117856D01*
X503773Y116944D01*
X503627Y116400D01*
X506500D01*
Y119273D01*
D02*
G37*
G36*
X516500D02*
X515956Y119127D01*
X515044Y118601D01*
X514299Y117856D01*
X513773Y116944D01*
X513627Y116400D01*
X516500D01*
Y119273D01*
D02*
G37*
G36*
X506500Y114400D02*
X503627D01*
X503773Y113856D01*
X504299Y112944D01*
X505044Y112199D01*
X505956Y111673D01*
X506500Y111527D01*
Y114400D01*
D02*
G37*
G36*
X516500D02*
X513627D01*
X513773Y113856D01*
X514299Y112944D01*
X515044Y112199D01*
X515956Y111673D01*
X516500Y111527D01*
Y114400D01*
D02*
G37*
G36*
X521373D02*
X518500D01*
Y111527D01*
X519044Y111673D01*
X519956Y112199D01*
X520701Y112944D01*
X521227Y113856D01*
X521373Y114400D01*
D02*
G37*
G36*
X511373D02*
X508500D01*
Y111527D01*
X509044Y111673D01*
X509956Y112199D01*
X510701Y112944D01*
X511227Y113856D01*
X511373Y114400D01*
D02*
G37*
G36*
X399731Y115012D02*
X398948D01*
X398224Y114712D01*
X397671Y114159D01*
X397371Y113435D01*
Y112652D01*
X397671Y111928D01*
X398224Y111375D01*
X398948Y111075D01*
X399731D01*
X400455Y111375D01*
X401008Y111928D01*
X401308Y112652D01*
Y113435D01*
X401008Y114159D01*
X400455Y114712D01*
X399731Y115012D01*
D02*
G37*
G36*
X218885Y114551D02*
X218102D01*
X217379Y114251D01*
X216825Y113697D01*
X216525Y112974D01*
Y112191D01*
X216825Y111467D01*
X217379Y110914D01*
X218102Y110614D01*
X218885D01*
X219609Y110914D01*
X220163Y111467D01*
X220462Y112191D01*
Y112974D01*
X220163Y113697D01*
X219609Y114251D01*
X218885Y114551D01*
D02*
G37*
G36*
X313699Y110236D02*
X313073D01*
X312494Y109996D01*
X312051Y109554D01*
X311811Y108975D01*
Y108348D01*
X312051Y107769D01*
X312494Y107326D01*
X313073Y107087D01*
X313699D01*
X314278Y107326D01*
X314721Y107769D01*
X314961Y108348D01*
Y108975D01*
X314721Y109554D01*
X314278Y109996D01*
X313699Y110236D01*
D02*
G37*
G36*
X25051Y110869D02*
X24268D01*
X23544Y110569D01*
X22990Y110015D01*
X22691Y109292D01*
Y108508D01*
X22990Y107785D01*
X23544Y107231D01*
X24268Y106931D01*
X25051D01*
X25774Y107231D01*
X26328Y107785D01*
X26628Y108508D01*
Y109292D01*
X26328Y110015D01*
X25774Y110569D01*
X25051Y110869D01*
D02*
G37*
G36*
X442044Y110026D02*
X441261D01*
X440538Y109726D01*
X439984Y109172D01*
X439684Y108449D01*
Y107665D01*
X439984Y106942D01*
X440538Y106388D01*
X441261Y106088D01*
X442044D01*
X442768Y106388D01*
X443322Y106942D01*
X443621Y107665D01*
Y108449D01*
X443322Y109172D01*
X442768Y109726D01*
X442044Y110026D01*
D02*
G37*
G36*
X399211Y108268D02*
X398427D01*
X397704Y107968D01*
X397150Y107414D01*
X396850Y106691D01*
Y105908D01*
X397150Y105184D01*
X397704Y104630D01*
X398427Y104331D01*
X399211D01*
X399934Y104630D01*
X400488Y105184D01*
X400787Y105908D01*
Y106691D01*
X400488Y107414D01*
X399934Y107968D01*
X399211Y108268D01*
D02*
G37*
G36*
X197300Y107435D02*
X196516D01*
X195793Y107135D01*
X195239Y106581D01*
X194939Y105858D01*
Y105075D01*
X195239Y104351D01*
X195793Y103797D01*
X196516Y103498D01*
X197300D01*
X198023Y103797D01*
X198577Y104351D01*
X198876Y105075D01*
Y105858D01*
X198577Y106581D01*
X198023Y107135D01*
X197300Y107435D01*
D02*
G37*
G36*
X9688Y107313D02*
X8905D01*
X8181Y107013D01*
X7627Y106459D01*
X7328Y105736D01*
Y104953D01*
X7627Y104229D01*
X8181Y103675D01*
X8905Y103376D01*
X9688D01*
X10411Y103675D01*
X10965Y104229D01*
X11265Y104953D01*
Y105736D01*
X10965Y106459D01*
X10411Y107013D01*
X9688Y107313D01*
D02*
G37*
G36*
X517999Y109187D02*
X517001D01*
X516038Y108929D01*
X515174Y108431D01*
X514469Y107726D01*
X513971Y106862D01*
X513713Y105899D01*
Y104901D01*
X513971Y103938D01*
X514469Y103075D01*
X515174Y102369D01*
X516038Y101871D01*
X517001Y101613D01*
X517999D01*
X518962Y101871D01*
X519826Y102369D01*
X520531Y103075D01*
X521029Y103938D01*
X521287Y104901D01*
Y105899D01*
X521029Y106862D01*
X520531Y107726D01*
X519826Y108431D01*
X518962Y108929D01*
X517999Y109187D01*
D02*
G37*
G36*
X507999D02*
X507001D01*
X506038Y108929D01*
X505174Y108431D01*
X504469Y107726D01*
X503971Y106862D01*
X503713Y105899D01*
Y104901D01*
X503971Y103938D01*
X504469Y103075D01*
X505174Y102369D01*
X506038Y101871D01*
X507001Y101613D01*
X507999D01*
X508962Y101871D01*
X509826Y102369D01*
X510531Y103075D01*
X511029Y103938D01*
X511287Y104901D01*
Y105899D01*
X511029Y106862D01*
X510531Y107726D01*
X509826Y108431D01*
X508962Y108929D01*
X507999Y109187D01*
D02*
G37*
G36*
X55510Y103832D02*
X54726D01*
X54003Y103532D01*
X53449Y102978D01*
X53150Y102255D01*
Y101471D01*
X53449Y100748D01*
X54003Y100194D01*
X54726Y99894D01*
X55510D01*
X56233Y100194D01*
X56787Y100748D01*
X57087Y101471D01*
Y102255D01*
X56787Y102978D01*
X56233Y103532D01*
X55510Y103832D01*
D02*
G37*
G36*
X31462Y101575D02*
X30679D01*
X29956Y101275D01*
X29402Y100721D01*
X29102Y99998D01*
Y99215D01*
X29402Y98491D01*
X29956Y97938D01*
X30679Y97638D01*
X31462D01*
X32186Y97938D01*
X32740Y98491D01*
X33039Y99215D01*
Y99998D01*
X32740Y100721D01*
X32186Y101275D01*
X31462Y101575D01*
D02*
G37*
G36*
X278491Y99176D02*
X277708D01*
X276984Y98876D01*
X276431Y98322D01*
X276131Y97599D01*
Y96815D01*
X276431Y96092D01*
X276984Y95538D01*
X277708Y95239D01*
X278491D01*
X279214Y95538D01*
X279768Y96092D01*
X280068Y96815D01*
Y97599D01*
X279768Y98322D01*
X279214Y98876D01*
X278491Y99176D01*
D02*
G37*
G36*
X138792Y98369D02*
X138008D01*
X137285Y98069D01*
X136731Y97515D01*
X136432Y96792D01*
Y96008D01*
X136731Y95285D01*
X137285Y94731D01*
X138008Y94432D01*
X138792D01*
X139515Y94731D01*
X140069Y95285D01*
X140368Y96008D01*
Y96792D01*
X140069Y97515D01*
X139515Y98069D01*
X138792Y98369D01*
D02*
G37*
G36*
X393911Y96368D02*
X393127D01*
X392404Y96069D01*
X391850Y95515D01*
X391551Y94792D01*
Y94008D01*
X391850Y93285D01*
X392404Y92731D01*
X393127Y92431D01*
X393911D01*
X394634Y92731D01*
X395188Y93285D01*
X395488Y94008D01*
Y94792D01*
X395188Y95515D01*
X394634Y96069D01*
X393911Y96368D01*
D02*
G37*
G36*
X517999Y99187D02*
X517001D01*
X516038Y98929D01*
X515174Y98431D01*
X514469Y97725D01*
X513971Y96862D01*
X513713Y95899D01*
Y94901D01*
X513971Y93938D01*
X514469Y93075D01*
X515174Y92369D01*
X516038Y91871D01*
X517001Y91613D01*
X517999D01*
X518962Y91871D01*
X519826Y92369D01*
X520531Y93075D01*
X521029Y93938D01*
X521287Y94901D01*
Y95899D01*
X521029Y96862D01*
X520531Y97725D01*
X519826Y98431D01*
X518962Y98929D01*
X517999Y99187D01*
D02*
G37*
G36*
X507999D02*
X507001D01*
X506038Y98929D01*
X505174Y98431D01*
X504469Y97725D01*
X503971Y96862D01*
X503713Y95899D01*
Y94901D01*
X503971Y93938D01*
X504469Y93075D01*
X505174Y92369D01*
X506038Y91871D01*
X507001Y91613D01*
X507999D01*
X508962Y91871D01*
X509826Y92369D01*
X510531Y93075D01*
X511029Y93938D01*
X511287Y94901D01*
Y95899D01*
X511029Y96862D01*
X510531Y97725D01*
X509826Y98431D01*
X508962Y98929D01*
X507999Y99187D01*
D02*
G37*
G36*
X439762Y90622D02*
X438978D01*
X438255Y90322D01*
X437701Y89768D01*
X437402Y89045D01*
Y88262D01*
X437701Y87538D01*
X438255Y86984D01*
X438978Y86685D01*
X439762D01*
X440485Y86984D01*
X441039Y87538D01*
X441339Y88262D01*
Y89045D01*
X441039Y89768D01*
X440485Y90322D01*
X439762Y90622D01*
D02*
G37*
G36*
X518500Y89273D02*
Y86400D01*
X521373D01*
X521227Y86944D01*
X520701Y87856D01*
X519956Y88601D01*
X519044Y89127D01*
X518500Y89273D01*
D02*
G37*
G36*
X508500D02*
Y86400D01*
X511373D01*
X511227Y86944D01*
X510701Y87856D01*
X509956Y88601D01*
X509044Y89127D01*
X508500Y89273D01*
D02*
G37*
G36*
X506500Y89273D02*
X505956Y89127D01*
X505044Y88601D01*
X504299Y87856D01*
X503773Y86944D01*
X503627Y86400D01*
X506500D01*
Y89273D01*
D02*
G37*
G36*
X516500D02*
X515956Y89127D01*
X515044Y88601D01*
X514299Y87856D01*
X513773Y86944D01*
X513627Y86400D01*
X516500D01*
Y89273D01*
D02*
G37*
G36*
X321710Y89815D02*
X320927D01*
X320204Y89516D01*
X319650Y88962D01*
X319350Y88239D01*
Y87455D01*
X319650Y86732D01*
X320204Y86178D01*
X320927Y85878D01*
X321710D01*
X322434Y86178D01*
X322988Y86732D01*
X323287Y87455D01*
Y88239D01*
X322988Y88962D01*
X322434Y89516D01*
X321710Y89815D01*
D02*
G37*
G36*
X506500Y84400D02*
X503627D01*
X503773Y83856D01*
X504299Y82944D01*
X505044Y82199D01*
X505956Y81673D01*
X506500Y81527D01*
Y84400D01*
D02*
G37*
G36*
X516500D02*
X513627D01*
X513773Y83856D01*
X514299Y82944D01*
X515044Y82199D01*
X515956Y81673D01*
X516500Y81527D01*
Y84400D01*
D02*
G37*
G36*
X521373D02*
X518500D01*
Y81527D01*
X519044Y81673D01*
X519956Y82199D01*
X520701Y82944D01*
X521227Y83856D01*
X521373Y84400D01*
D02*
G37*
G36*
X511373D02*
X508500D01*
Y81527D01*
X509044Y81673D01*
X509956Y82199D01*
X510701Y82944D01*
X511227Y83856D01*
X511373Y84400D01*
D02*
G37*
G36*
X380006Y83950D02*
X379223D01*
X378500Y83650D01*
X377946Y83097D01*
X377646Y82373D01*
Y81590D01*
X377946Y80866D01*
X378500Y80313D01*
X379223Y80013D01*
X380006D01*
X380730Y80313D01*
X381284Y80866D01*
X381583Y81590D01*
Y82373D01*
X381284Y83097D01*
X380730Y83650D01*
X380006Y83950D01*
D02*
G37*
G36*
X469016Y82144D02*
X468233D01*
X467510Y81844D01*
X466956Y81290D01*
X466656Y80567D01*
Y79784D01*
X466956Y79060D01*
X467510Y78506D01*
X468233Y78207D01*
X469016D01*
X469740Y78506D01*
X470294Y79060D01*
X470593Y79784D01*
Y80567D01*
X470294Y81290D01*
X469740Y81844D01*
X469016Y82144D01*
D02*
G37*
G36*
X199654Y74598D02*
Y71672D01*
X202580D01*
X202429Y72236D01*
X201896Y73160D01*
X201142Y73914D01*
X200218Y74447D01*
X199654Y74598D01*
D02*
G37*
G36*
X197654D02*
X197091Y74447D01*
X196167Y73914D01*
X195413Y73160D01*
X194879Y72236D01*
X194728Y71672D01*
X197654D01*
Y74598D01*
D02*
G37*
G36*
X517999Y79187D02*
X517001D01*
X516038Y78929D01*
X515174Y78431D01*
X514469Y77725D01*
X513971Y76862D01*
X513713Y75899D01*
Y74901D01*
X513971Y73938D01*
X514469Y73075D01*
X515174Y72369D01*
X516038Y71871D01*
X517001Y71613D01*
X517999D01*
X518962Y71871D01*
X519826Y72369D01*
X520531Y73075D01*
X521029Y73938D01*
X521287Y74901D01*
Y75899D01*
X521029Y76862D01*
X520531Y77725D01*
X519826Y78431D01*
X518962Y78929D01*
X517999Y79187D01*
D02*
G37*
G36*
X507999D02*
X507001D01*
X506038Y78929D01*
X505174Y78431D01*
X504469Y77725D01*
X503971Y76862D01*
X503713Y75899D01*
Y74901D01*
X503971Y73938D01*
X504469Y73075D01*
X505174Y72369D01*
X506038Y71871D01*
X507001Y71613D01*
X507999D01*
X508962Y71871D01*
X509826Y72369D01*
X510531Y73075D01*
X511029Y73938D01*
X511287Y74901D01*
Y75899D01*
X511029Y76862D01*
X510531Y77725D01*
X509826Y78431D01*
X508962Y78929D01*
X507999Y79187D01*
D02*
G37*
G36*
X379554Y74449D02*
X378771D01*
X378047Y74150D01*
X377494Y73596D01*
X377194Y72872D01*
Y72089D01*
X377494Y71366D01*
X378047Y70812D01*
X378771Y70512D01*
X379554D01*
X380278Y70812D01*
X380831Y71366D01*
X381131Y72089D01*
Y72872D01*
X380831Y73596D01*
X380278Y74150D01*
X379554Y74449D01*
D02*
G37*
G36*
X303580Y72247D02*
X302953D01*
X302375Y72007D01*
X301932Y71564D01*
X301692Y70986D01*
Y70359D01*
X301932Y69780D01*
X302375Y69337D01*
X302953Y69098D01*
X303580D01*
X304159Y69337D01*
X304602Y69780D01*
X304841Y70359D01*
Y70986D01*
X304602Y71564D01*
X304159Y72007D01*
X303580Y72247D01*
D02*
G37*
G36*
X189160Y74511D02*
X188149D01*
X187173Y74249D01*
X186297Y73744D01*
X185583Y73029D01*
X185077Y72154D01*
X184816Y71178D01*
Y70167D01*
X185077Y69191D01*
X185583Y68315D01*
X186297Y67601D01*
X187173Y67095D01*
X188149Y66834D01*
X189160D01*
X190136Y67095D01*
X191011Y67601D01*
X191726Y68315D01*
X192231Y69191D01*
X192493Y70167D01*
Y71178D01*
X192231Y72154D01*
X191726Y73029D01*
X191011Y73744D01*
X190136Y74249D01*
X189160Y74511D01*
D02*
G37*
G36*
X202580Y69672D02*
X199654D01*
Y66746D01*
X200218Y66897D01*
X201142Y67431D01*
X201896Y68185D01*
X202429Y69109D01*
X202580Y69672D01*
D02*
G37*
G36*
X197654D02*
X194728D01*
X194879Y69109D01*
X195413Y68185D01*
X196167Y67431D01*
X197091Y66897D01*
X197654Y66746D01*
Y69672D01*
D02*
G37*
G36*
X404985Y70416D02*
X404202D01*
X403478Y70117D01*
X402924Y69563D01*
X402625Y68839D01*
Y68056D01*
X402924Y67333D01*
X403478Y66779D01*
X404202Y66479D01*
X404985D01*
X405708Y66779D01*
X406262Y67333D01*
X406562Y68056D01*
Y68839D01*
X406262Y69563D01*
X405708Y70117D01*
X404985Y70416D01*
D02*
G37*
G36*
X264487Y66916D02*
X263860D01*
X263281Y66676D01*
X262838Y66233D01*
X262598Y65654D01*
Y65028D01*
X262838Y64449D01*
X263281Y64006D01*
X263860Y63766D01*
X264487D01*
X265065Y64006D01*
X265508Y64449D01*
X265748Y65028D01*
Y65654D01*
X265508Y66233D01*
X265065Y66676D01*
X264487Y66916D01*
D02*
G37*
G36*
X517999Y69187D02*
X517001D01*
X516038Y68929D01*
X515174Y68431D01*
X514469Y67725D01*
X513971Y66862D01*
X513713Y65899D01*
Y64901D01*
X513971Y63938D01*
X514469Y63074D01*
X515174Y62369D01*
X516038Y61871D01*
X517001Y61613D01*
X517999D01*
X518962Y61871D01*
X519826Y62369D01*
X520531Y63074D01*
X521029Y63938D01*
X521287Y64901D01*
Y65899D01*
X521029Y66862D01*
X520531Y67725D01*
X519826Y68431D01*
X518962Y68929D01*
X517999Y69187D01*
D02*
G37*
G36*
X507999D02*
X507001D01*
X506038Y68929D01*
X505174Y68431D01*
X504469Y67725D01*
X503971Y66862D01*
X503713Y65899D01*
Y64901D01*
X503971Y63938D01*
X504469Y63074D01*
X505174Y62369D01*
X506038Y61871D01*
X507001Y61613D01*
X507999D01*
X508962Y61871D01*
X509826Y62369D01*
X510531Y63074D01*
X511029Y63938D01*
X511287Y64901D01*
Y65899D01*
X511029Y66862D01*
X510531Y67725D01*
X509826Y68431D01*
X508962Y68929D01*
X507999Y69187D01*
D02*
G37*
G36*
X397801Y64731D02*
X397018D01*
X396294Y64432D01*
X395741Y63878D01*
X395441Y63154D01*
Y62371D01*
X395741Y61648D01*
X396294Y61094D01*
X397018Y60794D01*
X397801D01*
X398524Y61094D01*
X399078Y61648D01*
X399378Y62371D01*
Y63154D01*
X399078Y63878D01*
X398524Y64432D01*
X397801Y64731D01*
D02*
G37*
G36*
X312942Y61218D02*
X312316D01*
X311737Y60978D01*
X311294Y60535D01*
X311054Y59956D01*
Y59330D01*
X311294Y58751D01*
X311737Y58308D01*
X312316Y58068D01*
X312942D01*
X313521Y58308D01*
X313964Y58751D01*
X314204Y59330D01*
Y59956D01*
X313964Y60535D01*
X313521Y60978D01*
X312942Y61218D01*
D02*
G37*
G36*
X264487Y59842D02*
X263860D01*
X263281Y59603D01*
X262838Y59160D01*
X262598Y58581D01*
Y57955D01*
X262838Y57376D01*
X263281Y56933D01*
X263860Y56693D01*
X264487D01*
X265065Y56933D01*
X265508Y57376D01*
X265748Y57955D01*
Y58581D01*
X265508Y59160D01*
X265065Y59603D01*
X264487Y59842D01*
D02*
G37*
G36*
X518500Y59273D02*
Y56400D01*
X521373D01*
X521227Y56944D01*
X520701Y57856D01*
X519956Y58601D01*
X519044Y59127D01*
X518500Y59273D01*
D02*
G37*
G36*
X508500D02*
Y56400D01*
X511373D01*
X511227Y56944D01*
X510701Y57856D01*
X509956Y58601D01*
X509044Y59127D01*
X508500Y59273D01*
D02*
G37*
G36*
X506500Y59273D02*
X505956Y59127D01*
X505044Y58601D01*
X504299Y57856D01*
X503773Y56944D01*
X503627Y56400D01*
X506500D01*
Y59273D01*
D02*
G37*
G36*
X516500D02*
X515956Y59127D01*
X515044Y58601D01*
X514299Y57856D01*
X513773Y56944D01*
X513627Y56400D01*
X516500D01*
Y59273D01*
D02*
G37*
G36*
X439762Y59745D02*
X438978D01*
X438255Y59445D01*
X437701Y58891D01*
X437402Y58168D01*
Y57385D01*
X437701Y56661D01*
X438255Y56107D01*
X438978Y55808D01*
X439762D01*
X440485Y56107D01*
X441039Y56661D01*
X441339Y57385D01*
Y58168D01*
X441039Y58891D01*
X440485Y59445D01*
X439762Y59745D01*
D02*
G37*
G36*
X397004Y58169D02*
X396220D01*
X395497Y57869D01*
X394943Y57315D01*
X394643Y56592D01*
Y55808D01*
X394943Y55085D01*
X395497Y54531D01*
X396220Y54232D01*
X397004D01*
X397727Y54531D01*
X398281Y55085D01*
X398581Y55808D01*
Y56592D01*
X398281Y57315D01*
X397727Y57869D01*
X397004Y58169D01*
D02*
G37*
G36*
X274407Y56108D02*
X273624D01*
X272901Y55808D01*
X272347Y55254D01*
X272047Y54531D01*
Y53747D01*
X272347Y53024D01*
X272901Y52470D01*
X273624Y52171D01*
X274407D01*
X275131Y52470D01*
X275685Y53024D01*
X275984Y53747D01*
Y54531D01*
X275685Y55254D01*
X275131Y55808D01*
X274407Y56108D01*
D02*
G37*
G36*
X516500Y54400D02*
X513627D01*
X513773Y53856D01*
X514299Y52944D01*
X515044Y52199D01*
X515956Y51673D01*
X516500Y51527D01*
Y54400D01*
D02*
G37*
G36*
X506500D02*
X503627D01*
X503773Y53856D01*
X504299Y52944D01*
X505044Y52199D01*
X505956Y51673D01*
X506500Y51527D01*
Y54400D01*
D02*
G37*
G36*
X521373D02*
X518500D01*
Y51527D01*
X519044Y51673D01*
X519956Y52199D01*
X520701Y52944D01*
X521227Y53856D01*
X521373Y54400D01*
D02*
G37*
G36*
X511373D02*
X508500D01*
Y51527D01*
X509044Y51673D01*
X509956Y52199D01*
X510701Y52944D01*
X511227Y53856D01*
X511373Y54400D01*
D02*
G37*
G36*
X47492Y51868D02*
X46708D01*
X45985Y51569D01*
X45431Y51015D01*
X45131Y50292D01*
Y49508D01*
X45431Y48785D01*
X45985Y48231D01*
X46708Y47932D01*
X47492D01*
X48215Y48231D01*
X48769Y48785D01*
X49068Y49508D01*
Y50292D01*
X48769Y51015D01*
X48215Y51569D01*
X47492Y51868D01*
D02*
G37*
G36*
X37492Y51669D02*
X36708D01*
X35985Y51369D01*
X35431Y50815D01*
X35131Y50092D01*
Y49308D01*
X35431Y48585D01*
X35985Y48031D01*
X36708Y47732D01*
X37492D01*
X38215Y48031D01*
X38769Y48585D01*
X39068Y49308D01*
Y50092D01*
X38769Y50815D01*
X38215Y51369D01*
X37492Y51669D01*
D02*
G37*
G36*
X388436Y48669D02*
X387652D01*
X386929Y48369D01*
X386375Y47815D01*
X386076Y47092D01*
Y46308D01*
X386375Y45585D01*
X386929Y45031D01*
X387652Y44732D01*
X388436D01*
X389159Y45031D01*
X389713Y45585D01*
X390013Y46308D01*
Y47092D01*
X389713Y47815D01*
X389159Y48369D01*
X388436Y48669D01*
D02*
G37*
G36*
X13792Y48268D02*
X13008D01*
X12285Y47969D01*
X11731Y47415D01*
X11432Y46692D01*
Y45908D01*
X11731Y45185D01*
X12285Y44631D01*
X13008Y44331D01*
X13792D01*
X14515Y44631D01*
X15069Y45185D01*
X15369Y45908D01*
Y46692D01*
X15069Y47415D01*
X14515Y47969D01*
X13792Y48268D01*
D02*
G37*
G36*
X439762Y45092D02*
X438978D01*
X438255Y44792D01*
X437701Y44239D01*
X437402Y43515D01*
Y42732D01*
X437701Y42009D01*
X438255Y41455D01*
X438978Y41155D01*
X439762D01*
X440485Y41455D01*
X441039Y42009D01*
X441339Y42732D01*
Y43515D01*
X441039Y44239D01*
X440485Y44792D01*
X439762Y45092D01*
D02*
G37*
G36*
X173578Y43307D02*
X172795D01*
X172072Y43007D01*
X171518Y42454D01*
X171218Y41730D01*
Y40947D01*
X171518Y40224D01*
X172072Y39670D01*
X172795Y39370D01*
X173578D01*
X174302Y39670D01*
X174855Y40224D01*
X175155Y40947D01*
Y41730D01*
X174855Y42454D01*
X174302Y43007D01*
X173578Y43307D01*
D02*
G37*
G36*
X211415Y42520D02*
X210632D01*
X209909Y42220D01*
X209355Y41666D01*
X209055Y40943D01*
Y40160D01*
X209355Y39436D01*
X209909Y38882D01*
X210632Y38583D01*
X211415D01*
X212139Y38882D01*
X212692Y39436D01*
X212992Y40160D01*
Y40943D01*
X212692Y41666D01*
X212139Y42220D01*
X211415Y42520D01*
D02*
G37*
G36*
X321916Y42176D02*
X321133D01*
X320409Y41877D01*
X319856Y41323D01*
X319556Y40599D01*
Y39816D01*
X319856Y39093D01*
X320409Y38539D01*
X321133Y38239D01*
X321916D01*
X322639Y38539D01*
X323193Y39093D01*
X323493Y39816D01*
Y40599D01*
X323193Y41323D01*
X322639Y41877D01*
X321916Y42176D01*
D02*
G37*
G36*
X378670Y36496D02*
X377887D01*
X377163Y36197D01*
X376609Y35643D01*
X376310Y34919D01*
Y34136D01*
X376609Y33413D01*
X377163Y32859D01*
X377887Y32559D01*
X378670D01*
X379393Y32859D01*
X379947Y33413D01*
X380247Y34136D01*
Y34919D01*
X379947Y35643D01*
X379393Y36197D01*
X378670Y36496D01*
D02*
G37*
G36*
X469190Y34664D02*
X468407D01*
X467684Y34364D01*
X467130Y33810D01*
X466830Y33087D01*
Y32304D01*
X467130Y31580D01*
X467684Y31026D01*
X468407Y30727D01*
X469190D01*
X469914Y31026D01*
X470468Y31580D01*
X470767Y32304D01*
Y33087D01*
X470468Y33810D01*
X469914Y34364D01*
X469190Y34664D01*
D02*
G37*
G36*
X396586Y30360D02*
X395803D01*
X395080Y30060D01*
X394526Y29506D01*
X394226Y28783D01*
Y28000D01*
X394526Y27276D01*
X395080Y26722D01*
X395803Y26423D01*
X396586D01*
X397310Y26722D01*
X397864Y27276D01*
X398163Y28000D01*
Y28783D01*
X397864Y29506D01*
X397310Y30060D01*
X396586Y30360D01*
D02*
G37*
G36*
X378468Y28220D02*
X377684D01*
X376961Y27920D01*
X376407Y27367D01*
X376108Y26643D01*
Y25860D01*
X376407Y25137D01*
X376961Y24583D01*
X377684Y24283D01*
X378468D01*
X379191Y24583D01*
X379745Y25137D01*
X380045Y25860D01*
Y26643D01*
X379745Y27367D01*
X379191Y27920D01*
X378468Y28220D01*
D02*
G37*
G36*
X304075Y24059D02*
X303449D01*
X302870Y23819D01*
X302427Y23376D01*
X302187Y22797D01*
Y22171D01*
X302427Y21592D01*
X302870Y21149D01*
X303449Y20910D01*
X304075D01*
X304654Y21149D01*
X305097Y21592D01*
X305337Y22171D01*
Y22797D01*
X305097Y23376D01*
X304654Y23819D01*
X304075Y24059D01*
D02*
G37*
G36*
X404690Y23735D02*
X403907D01*
X403184Y23435D01*
X402630Y22881D01*
X402330Y22158D01*
Y21375D01*
X402630Y20651D01*
X403184Y20098D01*
X403907Y19798D01*
X404690D01*
X405414Y20098D01*
X405968Y20651D01*
X406267Y21375D01*
Y22158D01*
X405968Y22881D01*
X405414Y23435D01*
X404690Y23735D01*
D02*
G37*
G36*
X157735Y23305D02*
X156952D01*
X156228Y23006D01*
X155675Y22452D01*
X155375Y21729D01*
Y20945D01*
X155675Y20222D01*
X156228Y19668D01*
X156952Y19368D01*
X157735D01*
X158458Y19668D01*
X159012Y20222D01*
X159312Y20945D01*
Y21729D01*
X159012Y22452D01*
X158458Y23006D01*
X157735Y23305D01*
D02*
G37*
G36*
X76329Y23025D02*
X75546D01*
X74822Y22726D01*
X74269Y22172D01*
X73969Y21448D01*
Y20665D01*
X74269Y19942D01*
X74822Y19388D01*
X75546Y19088D01*
X76329D01*
X77052Y19388D01*
X77606Y19942D01*
X77906Y20665D01*
Y21448D01*
X77606Y22172D01*
X77052Y22726D01*
X76329Y23025D01*
D02*
G37*
G36*
X469659Y18016D02*
X468876D01*
X468152Y17716D01*
X467598Y17162D01*
X467299Y16439D01*
Y15656D01*
X467598Y14932D01*
X468152Y14378D01*
X468876Y14079D01*
X469659D01*
X470382Y14378D01*
X470936Y14932D01*
X471236Y15656D01*
Y16439D01*
X470936Y17162D01*
X470382Y17716D01*
X469659Y18016D01*
D02*
G37*
G36*
X540337Y28180D02*
X538863D01*
X537418Y27893D01*
X536057Y27329D01*
X534832Y26510D01*
X533790Y25468D01*
X532971Y24243D01*
X532407Y22882D01*
X532120Y21437D01*
Y19963D01*
X532407Y18518D01*
X532971Y17157D01*
X533790Y15932D01*
X534832Y14890D01*
X536057Y14071D01*
X537418Y13507D01*
X538863Y13220D01*
X540337D01*
X541782Y13507D01*
X543143Y14071D01*
X544368Y14890D01*
X545410Y15932D01*
X546229Y17157D01*
X546793Y18518D01*
X547080Y19963D01*
Y21437D01*
X546793Y22882D01*
X546229Y24243D01*
X545410Y25468D01*
X544368Y26510D01*
X543143Y27329D01*
X541782Y27893D01*
X540337Y28180D01*
D02*
G37*
G36*
X313699Y13386D02*
X313073D01*
X312494Y13146D01*
X312051Y12703D01*
X311811Y12124D01*
Y11498D01*
X312051Y10919D01*
X312494Y10476D01*
X313073Y10236D01*
X313699D01*
X314278Y10476D01*
X314721Y10919D01*
X314961Y11498D01*
Y12124D01*
X314721Y12703D01*
X314278Y13146D01*
X313699Y13386D01*
D02*
G37*
G36*
X439762Y13063D02*
X438978D01*
X438255Y12763D01*
X437701Y12210D01*
X437402Y11486D01*
Y10703D01*
X437701Y9979D01*
X438255Y9426D01*
X438978Y9126D01*
X439762D01*
X440485Y9426D01*
X441039Y9979D01*
X441339Y10703D01*
Y11486D01*
X441039Y12210D01*
X440485Y12763D01*
X439762Y13063D01*
D02*
G37*
G36*
X292713Y12687D02*
X291930D01*
X291207Y12388D01*
X290653Y11834D01*
X290353Y11110D01*
Y10327D01*
X290653Y9604D01*
X291207Y9050D01*
X291930Y8750D01*
X292713D01*
X293437Y9050D01*
X293990Y9604D01*
X294290Y10327D01*
Y11110D01*
X293990Y11834D01*
X293437Y12388D01*
X292713Y12687D01*
D02*
G37*
%LPD*%
D91*
X198654Y70672D02*
D03*
D97*
X507500Y55400D02*
D03*
Y85400D02*
D03*
Y115400D02*
D03*
X517500Y55400D02*
D03*
Y115400D02*
D03*
Y85400D02*
D03*
D98*
X56499Y57165D02*
D03*
X24659Y70290D02*
D03*
X320541Y7299D02*
D03*
X374410Y10701D02*
D03*
X213705Y65341D02*
D03*
X205512Y32677D02*
D03*
X218786Y44094D02*
D03*
X541732Y328160D02*
D03*
X510630Y318003D02*
D03*
X524035Y319891D02*
D03*
X518379Y27908D02*
D03*
X481605Y45700D02*
D03*
X481642Y56453D02*
D03*
X488583Y64000D02*
D03*
Y70500D02*
D03*
X540800Y294882D02*
D03*
X525591Y292150D02*
D03*
X521260Y330150D02*
D03*
X511811Y329921D02*
D03*
X533997Y358825D02*
D03*
X469086Y378246D02*
D03*
X459242Y351575D02*
D03*
X477064Y364005D02*
D03*
X471890D02*
D03*
X467350Y329317D02*
D03*
X475494Y314891D02*
D03*
X470130Y314864D02*
D03*
X457518Y301969D02*
D03*
X466504Y278253D02*
D03*
X474838Y263664D02*
D03*
X469474D02*
D03*
X456898Y250787D02*
D03*
X466928Y230317D02*
D03*
X475494Y215891D02*
D03*
X470130D02*
D03*
X457482Y203543D02*
D03*
X464495Y179605D02*
D03*
X472829Y165600D02*
D03*
X467465D02*
D03*
X455033Y152756D02*
D03*
X463154Y131757D02*
D03*
X471226Y117304D02*
D03*
X466082D02*
D03*
X453490Y103993D02*
D03*
X460996Y81711D02*
D03*
X469562Y67050D02*
D03*
X464198Y67023D02*
D03*
X451765Y54376D02*
D03*
X460996Y34795D02*
D03*
X469267Y20700D02*
D03*
X463903D02*
D03*
X400277Y18105D02*
D03*
X384646Y41192D02*
D03*
Y35300D02*
D03*
X400967Y42884D02*
D03*
X401262Y88976D02*
D03*
X400593Y65684D02*
D03*
X385578Y81711D02*
D03*
Y87874D02*
D03*
X402238Y116142D02*
D03*
X386962Y132162D02*
D03*
Y138021D02*
D03*
X403146Y138938D02*
D03*
X388338Y185868D02*
D03*
Y180010D02*
D03*
X403861Y164742D02*
D03*
X404529Y186657D02*
D03*
X406471Y214900D02*
D03*
X391387Y230860D02*
D03*
X391236Y236586D02*
D03*
X407194Y237795D02*
D03*
X405914Y263002D02*
D03*
X390551Y278660D02*
D03*
Y284418D02*
D03*
X406471Y285433D02*
D03*
X406526Y314030D02*
D03*
X391387Y329453D02*
D03*
Y335581D02*
D03*
X407127Y336614D02*
D03*
X408330Y362958D02*
D03*
X408954Y385781D02*
D03*
X392913Y378788D02*
D03*
Y384509D02*
D03*
X382327Y354034D02*
D03*
X380503Y305105D02*
D03*
X380146Y253906D02*
D03*
X380503Y206105D02*
D03*
X378231Y155496D02*
D03*
X376395Y107768D02*
D03*
X374847Y57264D02*
D03*
X322979Y360159D02*
D03*
X322782Y344676D02*
D03*
X305185Y321378D02*
D03*
X322979Y323158D02*
D03*
X323347Y310744D02*
D03*
X322760Y295355D02*
D03*
X270385Y274463D02*
D03*
X279597Y267416D02*
D03*
X292682Y270248D02*
D03*
X304882Y272553D02*
D03*
X322782Y274691D02*
D03*
X319132Y258532D02*
D03*
X322979Y246843D02*
D03*
X272977Y225396D02*
D03*
X281100Y218555D02*
D03*
X292894Y221858D02*
D03*
X304724Y224519D02*
D03*
X322782Y226601D02*
D03*
X319332Y209863D02*
D03*
X322782Y198496D02*
D03*
X290795Y174178D02*
D03*
X303006Y175935D02*
D03*
X277982Y122709D02*
D03*
X268155Y129478D02*
D03*
X290535Y126480D02*
D03*
X301927Y128353D02*
D03*
X320747Y130453D02*
D03*
X320368Y102650D02*
D03*
X279100Y74064D02*
D03*
X269421Y80684D02*
D03*
X290795Y30438D02*
D03*
Y78932D02*
D03*
X303680Y80566D02*
D03*
X320747Y82328D02*
D03*
X320995Y34572D02*
D03*
X303267Y32104D02*
D03*
X268707Y25496D02*
D03*
X277311Y26784D02*
D03*
X320995Y21925D02*
D03*
X-20435Y127779D02*
D03*
X189020Y261097D02*
D03*
X269677Y313386D02*
D03*
Y176657D02*
D03*
X320995Y55068D02*
D03*
X321215Y69589D02*
D03*
X320747Y117850D02*
D03*
X321877Y178636D02*
D03*
X321524Y165698D02*
D03*
X321332Y150498D02*
D03*
X277409Y169380D02*
D03*
X322418Y372663D02*
D03*
X304370Y370611D02*
D03*
X267426Y362992D02*
D03*
X275444Y361036D02*
D03*
X292921Y318962D02*
D03*
X276169Y312270D02*
D03*
X178432Y360130D02*
D03*
X168732Y360335D02*
D03*
X155478Y344094D02*
D03*
X17182Y309893D02*
D03*
X55112Y333601D02*
D03*
X71623Y334741D02*
D03*
X88181Y324371D02*
D03*
X130420Y330360D02*
D03*
X218898Y291597D02*
D03*
X212598Y284646D02*
D03*
Y243380D02*
D03*
X191204Y251147D02*
D03*
X189020Y230947D02*
D03*
X176569Y232565D02*
D03*
X214460Y166810D02*
D03*
X225984Y178924D02*
D03*
X192073Y159126D02*
D03*
X203271Y148893D02*
D03*
X191625Y139152D02*
D03*
X171443Y71542D02*
D03*
X184584Y30042D02*
D03*
X118884Y37242D02*
D03*
Y25984D02*
D03*
X64041Y23070D02*
D03*
X80044Y27660D02*
D03*
X99875Y34968D02*
D03*
X66412Y118245D02*
D03*
X34135D02*
D03*
X19999Y95074D02*
D03*
X60592Y96934D02*
D03*
X80206Y67323D02*
D03*
X178973Y251254D02*
D03*
X178631Y270939D02*
D03*
X220239Y105466D02*
D03*
X70987Y139460D02*
D03*
X174320Y377801D02*
D03*
X178432Y348534D02*
D03*
X194991Y340501D02*
D03*
X451255Y7695D02*
D03*
X-41003Y223622D02*
D03*
X293678Y368729D02*
D03*
X-41292Y232914D02*
D03*
X-40962Y204724D02*
D03*
X-41075Y214173D02*
D03*
X-40962Y242520D02*
D03*
Y248738D02*
D03*
Y255118D02*
D03*
Y261417D02*
D03*
Y264500D02*
D03*
Y135659D02*
D03*
Y144882D02*
D03*
Y154331D02*
D03*
Y163779D02*
D03*
Y173228D02*
D03*
Y182677D02*
D03*
M02*
