G04*
G04 #@! TF.GenerationSoftware,Altium Limited,Altium Designer,23.11.1 (41)*
G04*
G04 Layer_Physical_Order=2*
G04 Layer_Color=36540*
%FSLAX25Y25*%
%MOIN*%
G70*
G04*
G04 #@! TF.SameCoordinates,68F7CDEA-6AF0-48FB-BE28-BEE80F8876F0*
G04*
G04*
G04 #@! TF.FilePolarity,Positive*
G04*
G01*
G75*
%ADD97C,0.06000*%
%ADD98C,0.06102*%
%ADD100C,0.02362*%
%ADD102C,0.01575*%
G36*
X210699Y391201D02*
X545499D01*
X551716Y384984D01*
Y269772D01*
X552800Y268688D01*
Y266965D01*
X552321Y266820D01*
X552081Y267180D01*
X551080Y268181D01*
X549903Y268967D01*
X548596Y269509D01*
X547208Y269785D01*
X545792D01*
X544404Y269509D01*
X543097Y268967D01*
X541920Y268181D01*
X540919Y267180D01*
X540133Y266003D01*
X539591Y264696D01*
X539315Y263308D01*
Y261892D01*
X539591Y260504D01*
X540133Y259197D01*
X540919Y258020D01*
X541920Y257019D01*
X543097Y256233D01*
X544404Y255691D01*
X545792Y255415D01*
X547208D01*
X548596Y255691D01*
X549903Y256233D01*
X551080Y257019D01*
X552081Y258020D01*
X552321Y258380D01*
X552800Y258235D01*
Y154965D01*
X552321Y154820D01*
X552081Y155180D01*
X551080Y156181D01*
X549903Y156967D01*
X548596Y157509D01*
X547208Y157785D01*
X545792D01*
X544404Y157509D01*
X543097Y156967D01*
X541920Y156181D01*
X540919Y155180D01*
X540133Y154003D01*
X539591Y152696D01*
X539315Y151308D01*
Y149892D01*
X539591Y148504D01*
X540133Y147197D01*
X540919Y146020D01*
X541920Y145019D01*
X543097Y144233D01*
X544404Y143691D01*
X545792Y143415D01*
X547208D01*
X548596Y143691D01*
X549903Y144233D01*
X551080Y145019D01*
X552081Y146020D01*
X552321Y146380D01*
X552800Y146235D01*
Y66400D01*
X552500Y66100D01*
Y7100D01*
X548100Y2700D01*
X547681Y3119D01*
X438869D01*
Y3392D01*
X438569Y4115D01*
X438015Y4669D01*
X437292Y4969D01*
X436508D01*
X435785Y4669D01*
X435231Y4115D01*
X434932Y3392D01*
Y3119D01*
X326019D01*
X325200Y2300D01*
X325000Y2500D01*
X233100D01*
X230500Y5100D01*
X110000D01*
X108100Y3200D01*
X107100Y4200D01*
X7200D01*
X2500Y8900D01*
Y45400D01*
X3500Y46400D01*
Y115472D01*
X1036Y117937D01*
Y118800D01*
X-21601D01*
X-23673Y116728D01*
X-30413D01*
Y111533D01*
X-30802Y111144D01*
X-33600D01*
Y125455D01*
X-36331Y128186D01*
X-56014D01*
X-56400Y128507D01*
Y184400D01*
X-36919D01*
X-35412Y185907D01*
X-34750Y186289D01*
X-34671Y186358D01*
X-34584Y186416D01*
X-34481Y186519D01*
X-32633D01*
Y189665D01*
X-32568Y189908D01*
X-32561Y190013D01*
X-32541Y190116D01*
Y191298D01*
X-31194Y192645D01*
X-32581Y194031D01*
Y196453D01*
X-34797D01*
X-36497Y198153D01*
X-37650Y197000D01*
X-56117D01*
X-56200Y197200D01*
Y267100D01*
X-55984Y267400D01*
X-40400D01*
X-40100Y267100D01*
X-39800Y267400D01*
X-34400D01*
X-31700Y270100D01*
X-32000Y270400D01*
Y281000D01*
X-30754D01*
X-25454Y275700D01*
X-633D01*
X3200Y279533D01*
Y384700D01*
X3000Y384900D01*
X8100Y390000D01*
X208500D01*
X210200Y391700D01*
X210699Y391201D01*
D02*
G37*
%LPC*%
G36*
X406105Y389403D02*
X405322D01*
X404599Y389104D01*
X404045Y388550D01*
X403745Y387826D01*
Y387043D01*
X404045Y386320D01*
X404599Y385766D01*
X405322Y385466D01*
X406105D01*
X406829Y385766D01*
X407382Y386320D01*
X407682Y387043D01*
Y387826D01*
X407382Y388550D01*
X406829Y389104D01*
X406105Y389403D01*
D02*
G37*
G36*
X381792Y387769D02*
X381008D01*
X380285Y387469D01*
X379731Y386915D01*
X379432Y386192D01*
Y385408D01*
X379731Y384685D01*
X380285Y384131D01*
X381008Y383832D01*
X381792D01*
X382515Y384131D01*
X383069Y384685D01*
X383368Y385408D01*
Y386192D01*
X383069Y386915D01*
X382515Y387469D01*
X381792Y387769D01*
D02*
G37*
G36*
X322782Y380365D02*
X321999D01*
X321276Y380066D01*
X320722Y379512D01*
X320423Y378789D01*
Y378006D01*
X320722Y377282D01*
X321276Y376728D01*
X321999Y376429D01*
X322782D01*
X323506Y376728D01*
X324060Y377282D01*
X324359Y378006D01*
Y378789D01*
X324060Y379512D01*
X323506Y380066D01*
X322782Y380365D01*
D02*
G37*
G36*
X476709Y378913D02*
X475926D01*
X475202Y378614D01*
X474649Y378060D01*
X474349Y377336D01*
Y376553D01*
X474649Y375830D01*
X475202Y375276D01*
X475926Y374976D01*
X476709D01*
X477432Y375276D01*
X477986Y375830D01*
X478286Y376553D01*
Y377336D01*
X477986Y378060D01*
X477432Y378614D01*
X476709Y378913D01*
D02*
G37*
G36*
X81511Y372170D02*
X80728D01*
X80005Y371870D01*
X79451Y371316D01*
X79151Y370593D01*
Y369810D01*
X79451Y369086D01*
X80005Y368532D01*
X80728Y368233D01*
X81511D01*
X82235Y368532D01*
X82788Y369086D01*
X83088Y369810D01*
Y370593D01*
X82788Y371316D01*
X82235Y371870D01*
X81511Y372170D01*
D02*
G37*
G36*
X386361Y372104D02*
X385578D01*
X384855Y371805D01*
X384301Y371251D01*
X384001Y370527D01*
Y369744D01*
X384301Y369021D01*
X384855Y368467D01*
X385578Y368167D01*
X386361D01*
X387085Y368467D01*
X387639Y369021D01*
X387938Y369744D01*
Y370527D01*
X387639Y371251D01*
X387085Y371805D01*
X386361Y372104D01*
D02*
G37*
G36*
X541137Y382780D02*
X539663D01*
X538218Y382493D01*
X536857Y381929D01*
X535632Y381110D01*
X534590Y380068D01*
X533771Y378843D01*
X533207Y377482D01*
X532920Y376037D01*
Y374563D01*
X533207Y373118D01*
X533771Y371757D01*
X534590Y370532D01*
X535632Y369490D01*
X536857Y368671D01*
X538218Y368107D01*
X539663Y367820D01*
X541137D01*
X542582Y368107D01*
X543943Y368671D01*
X545168Y369490D01*
X546210Y370532D01*
X547029Y371757D01*
X547593Y373118D01*
X547880Y374563D01*
Y376037D01*
X547593Y377482D01*
X547029Y378843D01*
X546210Y380068D01*
X545168Y381110D01*
X543943Y381929D01*
X542582Y382493D01*
X541137Y382780D01*
D02*
G37*
G36*
X145911Y371311D02*
X145128D01*
X144404Y371011D01*
X143851Y370457D01*
X143551Y369734D01*
Y368951D01*
X143851Y368227D01*
X144404Y367673D01*
X145128Y367374D01*
X145911D01*
X146635Y367673D01*
X147188Y368227D01*
X147488Y368951D01*
Y369734D01*
X147188Y370457D01*
X146635Y371011D01*
X145911Y371311D01*
D02*
G37*
G36*
X414009Y369628D02*
X413226D01*
X412502Y369328D01*
X411949Y368774D01*
X411649Y368051D01*
Y367267D01*
X411949Y366544D01*
X412502Y365990D01*
X413226Y365691D01*
X414009D01*
X414733Y365990D01*
X415286Y366544D01*
X415586Y367267D01*
Y368051D01*
X415286Y368774D01*
X414733Y369328D01*
X414009Y369628D01*
D02*
G37*
G36*
X405385Y361968D02*
X404602D01*
X403879Y361668D01*
X403325Y361115D01*
X403025Y360391D01*
Y359608D01*
X403325Y358885D01*
X403879Y358331D01*
X404602Y358031D01*
X405385D01*
X406109Y358331D01*
X406663Y358885D01*
X406962Y359608D01*
Y360391D01*
X406663Y361115D01*
X406109Y361668D01*
X405385Y361968D01*
D02*
G37*
G36*
X518772Y361747D02*
X517989D01*
X517266Y361447D01*
X516712Y360894D01*
X516412Y360170D01*
Y359387D01*
X516712Y358663D01*
X517266Y358110D01*
X517989Y357810D01*
X518772D01*
X519496Y358110D01*
X520049Y358663D01*
X520349Y359387D01*
Y360170D01*
X520049Y360894D01*
X519496Y361447D01*
X518772Y361747D01*
D02*
G37*
G36*
X304549Y361124D02*
X303883D01*
X303268Y360870D01*
X302797Y360399D01*
X302543Y359784D01*
Y359118D01*
X302797Y358503D01*
X303268Y358033D01*
X303883Y357778D01*
X304549D01*
X305164Y358033D01*
X305634Y358503D01*
X305889Y359118D01*
Y359784D01*
X305634Y360399D01*
X305164Y360870D01*
X304549Y361124D01*
D02*
G37*
G36*
X480705Y360869D02*
X479922D01*
X479198Y360569D01*
X478644Y360015D01*
X478345Y359292D01*
Y358508D01*
X478644Y357785D01*
X479198Y357231D01*
X479922Y356931D01*
X480705D01*
X481428Y357231D01*
X481982Y357785D01*
X482282Y358508D01*
Y359292D01*
X481982Y360015D01*
X481428Y360569D01*
X480705Y360869D01*
D02*
G37*
G36*
X490337Y360793D02*
X489554D01*
X488830Y360493D01*
X488276Y359940D01*
X487977Y359216D01*
Y358433D01*
X488276Y357710D01*
X488830Y357156D01*
X489554Y356856D01*
X490337D01*
X491060Y357156D01*
X491614Y357710D01*
X491914Y358433D01*
Y359216D01*
X491614Y359940D01*
X491060Y360493D01*
X490337Y360793D01*
D02*
G37*
G36*
X443775D02*
X442991D01*
X442268Y360493D01*
X441714Y359940D01*
X441414Y359216D01*
Y358433D01*
X441714Y357710D01*
X442268Y357156D01*
X442991Y356856D01*
X443775D01*
X444498Y357156D01*
X445052Y357710D01*
X445352Y358433D01*
Y359216D01*
X445052Y359940D01*
X444498Y360493D01*
X443775Y360793D01*
D02*
G37*
G36*
X9311Y360333D02*
X8528D01*
X7805Y360034D01*
X7251Y359480D01*
X6951Y358757D01*
Y357974D01*
X7251Y357250D01*
X7805Y356696D01*
X8528Y356397D01*
X9311D01*
X10035Y356696D01*
X10588Y357250D01*
X10888Y357974D01*
Y358757D01*
X10588Y359480D01*
X10035Y360034D01*
X9311Y360333D01*
D02*
G37*
G36*
X105560Y358935D02*
X104777D01*
X104053Y358635D01*
X103499Y358082D01*
X103200Y357358D01*
Y356575D01*
X103499Y355852D01*
X104053Y355298D01*
X104777Y354998D01*
X105560D01*
X106283Y355298D01*
X106837Y355852D01*
X107137Y356575D01*
Y357358D01*
X106837Y358082D01*
X106283Y358635D01*
X105560Y358935D01*
D02*
G37*
G36*
X520392Y357287D02*
X519608D01*
X518885Y356987D01*
X518331Y356433D01*
X518032Y355710D01*
Y354926D01*
X518331Y354203D01*
X518885Y353649D01*
X519608Y353350D01*
X520392D01*
X521115Y353649D01*
X521669Y354203D01*
X521969Y354926D01*
Y355710D01*
X521669Y356433D01*
X521115Y356987D01*
X520392Y357287D01*
D02*
G37*
G36*
X145911Y356018D02*
X145128D01*
X144404Y355718D01*
X143851Y355164D01*
X143551Y354441D01*
Y353658D01*
X143851Y352934D01*
X144404Y352380D01*
X145128Y352081D01*
X145911D01*
X146635Y352380D01*
X147188Y352934D01*
X147488Y353658D01*
Y354441D01*
X147188Y355164D01*
X146635Y355718D01*
X145911Y356018D01*
D02*
G37*
G36*
X403931Y356002D02*
X403148D01*
X402425Y355703D01*
X401871Y355149D01*
X401571Y354425D01*
Y353642D01*
X401871Y352919D01*
X402425Y352365D01*
X403148Y352065D01*
X403931D01*
X404655Y352365D01*
X405208Y352919D01*
X405508Y353642D01*
Y354425D01*
X405208Y355149D01*
X404655Y355703D01*
X403931Y356002D01*
D02*
G37*
G36*
X81311Y354570D02*
X80528D01*
X79804Y354270D01*
X79251Y353716D01*
X78951Y352993D01*
Y352210D01*
X79251Y351486D01*
X79804Y350932D01*
X80528Y350633D01*
X81311D01*
X82035Y350932D01*
X82588Y351486D01*
X82888Y352210D01*
Y352993D01*
X82588Y353716D01*
X82035Y354270D01*
X81311Y354570D01*
D02*
G37*
G36*
X119111Y352470D02*
X118328D01*
X117604Y352170D01*
X117051Y351616D01*
X116751Y350893D01*
Y350110D01*
X117051Y349386D01*
X117604Y348832D01*
X118328Y348533D01*
X119111D01*
X119835Y348832D01*
X120388Y349386D01*
X120688Y350110D01*
Y350893D01*
X120388Y351616D01*
X119835Y352170D01*
X119111Y352470D01*
D02*
G37*
G36*
X314900Y351468D02*
X314234D01*
X313619Y351213D01*
X313148Y350742D01*
X312894Y350127D01*
Y349462D01*
X313148Y348847D01*
X313619Y348376D01*
X314234Y348121D01*
X314900D01*
X315515Y348376D01*
X315985Y348847D01*
X316240Y349462D01*
Y350127D01*
X315985Y350742D01*
X315515Y351213D01*
X314900Y351468D01*
D02*
G37*
G36*
X276560Y346645D02*
X275777D01*
X275054Y346345D01*
X274500Y345792D01*
X274200Y345068D01*
Y344285D01*
X274500Y343561D01*
X275054Y343008D01*
X275777Y342708D01*
X276560D01*
X277284Y343008D01*
X277837Y343561D01*
X278137Y344285D01*
Y345068D01*
X277837Y345792D01*
X277284Y346345D01*
X276560Y346645D01*
D02*
G37*
G36*
X400092Y343168D02*
X399308D01*
X398585Y342869D01*
X398031Y342315D01*
X397731Y341592D01*
Y340808D01*
X398031Y340085D01*
X398585Y339531D01*
X399308Y339231D01*
X400092D01*
X400815Y339531D01*
X401369Y340085D01*
X401669Y340808D01*
Y341592D01*
X401369Y342315D01*
X400815Y342869D01*
X400092Y343168D01*
D02*
G37*
G36*
X444880Y340945D02*
X444097D01*
X443373Y340645D01*
X442819Y340091D01*
X442520Y339368D01*
Y338585D01*
X442819Y337861D01*
X443373Y337308D01*
X444097Y337008D01*
X444880D01*
X445603Y337308D01*
X446157Y337861D01*
X446457Y338585D01*
Y339368D01*
X446157Y340091D01*
X445603Y340645D01*
X444880Y340945D01*
D02*
G37*
G36*
X441350Y335207D02*
X440566D01*
X439843Y334907D01*
X439289Y334354D01*
X438989Y333630D01*
Y332847D01*
X439289Y332123D01*
X439843Y331570D01*
X440566Y331270D01*
X441350D01*
X442073Y331570D01*
X442627Y332123D01*
X442926Y332847D01*
Y333630D01*
X442627Y334354D01*
X442073Y334907D01*
X441350Y335207D01*
D02*
G37*
G36*
X385037Y331252D02*
X384254D01*
X383531Y330953D01*
X382977Y330399D01*
X382677Y329675D01*
Y328892D01*
X382977Y328169D01*
X383531Y327615D01*
X384254Y327315D01*
X385037D01*
X385761Y327615D01*
X386315Y328169D01*
X386614Y328892D01*
Y329675D01*
X386315Y330399D01*
X385761Y330953D01*
X385037Y331252D01*
D02*
G37*
G36*
X323739Y330638D02*
X322956D01*
X322232Y330339D01*
X321679Y329785D01*
X321379Y329061D01*
Y328278D01*
X321679Y327555D01*
X322232Y327001D01*
X322956Y326701D01*
X323739D01*
X324463Y327001D01*
X325016Y327555D01*
X325316Y328278D01*
Y329061D01*
X325016Y329785D01*
X324463Y330339D01*
X323739Y330638D01*
D02*
G37*
G36*
X476115Y329785D02*
X475332D01*
X474609Y329486D01*
X474055Y328932D01*
X473755Y328209D01*
Y327426D01*
X474055Y326702D01*
X474609Y326148D01*
X475332Y325849D01*
X476115D01*
X476839Y326148D01*
X477392Y326702D01*
X477692Y327426D01*
Y328209D01*
X477392Y328932D01*
X476839Y329486D01*
X476115Y329785D01*
D02*
G37*
G36*
X384891Y322886D02*
X384107D01*
X383384Y322587D01*
X382830Y322033D01*
X382530Y321309D01*
Y320526D01*
X382830Y319803D01*
X383384Y319249D01*
X384107Y318950D01*
X384891D01*
X385614Y319249D01*
X386168Y319803D01*
X386468Y320526D01*
Y321309D01*
X386168Y322033D01*
X385614Y322587D01*
X384891Y322886D01*
D02*
G37*
G36*
X412086Y320699D02*
X411303D01*
X410579Y320399D01*
X410025Y319846D01*
X409726Y319122D01*
Y318339D01*
X410025Y317616D01*
X410579Y317062D01*
X411303Y316762D01*
X412086D01*
X412809Y317062D01*
X413363Y317616D01*
X413663Y318339D01*
Y319122D01*
X413363Y319846D01*
X412809Y320399D01*
X412086Y320699D01*
D02*
G37*
G36*
X526054Y318475D02*
X525271D01*
X524547Y318176D01*
X523993Y317622D01*
X523694Y316898D01*
Y316115D01*
X523993Y315392D01*
X524547Y314838D01*
X525271Y314538D01*
X526054D01*
X526777Y314838D01*
X527331Y315392D01*
X527631Y316115D01*
Y316898D01*
X527331Y317622D01*
X526777Y318176D01*
X526054Y318475D01*
D02*
G37*
G36*
X105560Y314922D02*
X104777D01*
X104053Y314623D01*
X103499Y314069D01*
X103200Y313346D01*
Y312562D01*
X103499Y311839D01*
X104053Y311285D01*
X104777Y310985D01*
X105560D01*
X106283Y311285D01*
X106837Y311839D01*
X107137Y312562D01*
Y313346D01*
X106837Y314069D01*
X106283Y314623D01*
X105560Y314922D01*
D02*
G37*
G36*
X305154Y313187D02*
X304489D01*
X303874Y312932D01*
X303403Y312462D01*
X303148Y311847D01*
Y311181D01*
X303403Y310566D01*
X303874Y310095D01*
X304489Y309840D01*
X305154D01*
X305769Y310095D01*
X306240Y310566D01*
X306495Y311181D01*
Y311847D01*
X306240Y312462D01*
X305769Y312932D01*
X305154Y313187D01*
D02*
G37*
G36*
X283797Y312175D02*
X283132D01*
X282517Y311920D01*
X282046Y311449D01*
X281791Y310834D01*
Y310169D01*
X282046Y309554D01*
X282517Y309083D01*
X283132Y308828D01*
X283797D01*
X284412Y309083D01*
X284883Y309554D01*
X285138Y310169D01*
Y310834D01*
X284883Y311449D01*
X284412Y311920D01*
X283797Y312175D01*
D02*
G37*
G36*
X403733Y312572D02*
X402950D01*
X402227Y312273D01*
X401673Y311719D01*
X401373Y310996D01*
Y310212D01*
X401673Y309489D01*
X402227Y308935D01*
X402950Y308635D01*
X403733D01*
X404457Y308935D01*
X405011Y309489D01*
X405310Y310212D01*
Y310996D01*
X405011Y311719D01*
X404457Y312273D01*
X403733Y312572D01*
D02*
G37*
G36*
X440976Y310778D02*
X440193D01*
X439469Y310479D01*
X438915Y309925D01*
X438616Y309202D01*
Y308418D01*
X438915Y307695D01*
X439469Y307141D01*
X440193Y306841D01*
X440976D01*
X441699Y307141D01*
X442253Y307695D01*
X442553Y308418D01*
Y309202D01*
X442253Y309925D01*
X441699Y310479D01*
X440976Y310778D01*
D02*
G37*
G36*
X514317Y306771D02*
X513651D01*
X513036Y306516D01*
X512566Y306045D01*
X512311Y305430D01*
Y304765D01*
X512566Y304150D01*
X513036Y303679D01*
X513651Y303424D01*
X514317D01*
X514932Y303679D01*
X515403Y304150D01*
X515658Y304765D01*
Y305430D01*
X515403Y306045D01*
X514932Y306516D01*
X514317Y306771D01*
D02*
G37*
G36*
X402916Y306488D02*
X402133D01*
X401410Y306188D01*
X400856Y305635D01*
X400556Y304911D01*
Y304128D01*
X400856Y303404D01*
X401410Y302851D01*
X402133Y302551D01*
X402916D01*
X403640Y302851D01*
X404194Y303404D01*
X404493Y304128D01*
Y304911D01*
X404194Y305635D01*
X403640Y306188D01*
X402916Y306488D01*
D02*
G37*
G36*
X264939Y305610D02*
X264274D01*
X263658Y305356D01*
X263188Y304885D01*
X262933Y304270D01*
Y303604D01*
X263188Y302989D01*
X263658Y302519D01*
X264274Y302264D01*
X264939D01*
X265554Y302519D01*
X266025Y302989D01*
X266280Y303604D01*
Y304270D01*
X266025Y304885D01*
X265554Y305356D01*
X264939Y305610D01*
D02*
G37*
G36*
X314633Y303187D02*
X313967D01*
X313352Y302932D01*
X312881Y302462D01*
X312627Y301847D01*
Y301181D01*
X312881Y300566D01*
X313352Y300095D01*
X313967Y299840D01*
X314633D01*
X315248Y300095D01*
X315718Y300566D01*
X315973Y301181D01*
Y301847D01*
X315718Y302462D01*
X315248Y302932D01*
X314633Y303187D01*
D02*
G37*
G36*
X284660D02*
X283994D01*
X283379Y302932D01*
X282909Y302462D01*
X282654Y301847D01*
Y301181D01*
X282909Y300566D01*
X283379Y300095D01*
X283994Y299840D01*
X284660D01*
X285275Y300095D01*
X285746Y300566D01*
X286000Y301181D01*
Y301847D01*
X285746Y302462D01*
X285275Y302932D01*
X284660Y303187D01*
D02*
G37*
G36*
X264939Y298527D02*
X264274D01*
X263658Y298272D01*
X263188Y297801D01*
X262933Y297186D01*
Y296521D01*
X263188Y295906D01*
X263658Y295435D01*
X264274Y295181D01*
X264939D01*
X265554Y295435D01*
X266025Y295906D01*
X266280Y296521D01*
Y297186D01*
X266025Y297801D01*
X265554Y298272D01*
X264939Y298527D01*
D02*
G37*
G36*
X276029Y296468D02*
X275246D01*
X274523Y296169D01*
X273969Y295615D01*
X273669Y294892D01*
Y294108D01*
X273969Y293385D01*
X274523Y292831D01*
X275246Y292531D01*
X276029D01*
X276753Y292831D01*
X277307Y293385D01*
X277606Y294108D01*
Y294892D01*
X277307Y295615D01*
X276753Y296169D01*
X276029Y296468D01*
D02*
G37*
G36*
X195383Y293318D02*
X194600D01*
X193876Y293018D01*
X193323Y292465D01*
X193023Y291741D01*
Y290958D01*
X193323Y290235D01*
X193876Y289681D01*
X194600Y289381D01*
X195383D01*
X196106Y289681D01*
X196660Y290235D01*
X196960Y290958D01*
Y291741D01*
X196660Y292465D01*
X196106Y293018D01*
X195383Y293318D01*
D02*
G37*
G36*
X399518Y292168D02*
X398735D01*
X398012Y291869D01*
X397458Y291315D01*
X397158Y290592D01*
Y289808D01*
X397458Y289085D01*
X398012Y288531D01*
X398735Y288231D01*
X399518D01*
X400242Y288531D01*
X400796Y289085D01*
X401095Y289808D01*
Y290592D01*
X400796Y291315D01*
X400242Y291869D01*
X399518Y292168D01*
D02*
G37*
G36*
X323951Y285100D02*
X323168D01*
X322445Y284800D01*
X321891Y284246D01*
X321591Y283523D01*
Y282740D01*
X321891Y282016D01*
X322445Y281463D01*
X323168Y281163D01*
X323951D01*
X324675Y281463D01*
X325229Y282016D01*
X325528Y282740D01*
Y283523D01*
X325229Y284246D01*
X324675Y284800D01*
X323951Y285100D01*
D02*
G37*
G36*
X441350Y284294D02*
X440566D01*
X439843Y283994D01*
X439289Y283440D01*
X438989Y282717D01*
Y281934D01*
X439289Y281210D01*
X439843Y280656D01*
X440566Y280357D01*
X441350D01*
X442073Y280656D01*
X442627Y281210D01*
X442926Y281934D01*
Y282717D01*
X442627Y283440D01*
X442073Y283994D01*
X441350Y284294D01*
D02*
G37*
G36*
X384431Y280221D02*
X383648D01*
X382925Y279922D01*
X382371Y279368D01*
X382071Y278644D01*
Y277861D01*
X382371Y277138D01*
X382925Y276584D01*
X383648Y276284D01*
X384431D01*
X385155Y276584D01*
X385708Y277138D01*
X386008Y277861D01*
Y278644D01*
X385708Y279368D01*
X385155Y279922D01*
X384431Y280221D01*
D02*
G37*
G36*
X473626Y279176D02*
X472843D01*
X472120Y278876D01*
X471566Y278322D01*
X471266Y277599D01*
Y276816D01*
X471566Y276092D01*
X472120Y275538D01*
X472843Y275239D01*
X473626D01*
X474350Y275538D01*
X474903Y276092D01*
X475203Y276816D01*
Y277599D01*
X474903Y278322D01*
X474350Y278876D01*
X473626Y279176D01*
D02*
G37*
G36*
X201527Y276550D02*
X200862D01*
X200247Y276295D01*
X199776Y275824D01*
X199521Y275209D01*
Y274544D01*
X199776Y273929D01*
X200247Y273458D01*
X200862Y273203D01*
X201527D01*
X202142Y273458D01*
X202613Y273929D01*
X202868Y274544D01*
Y275209D01*
X202613Y275824D01*
X202142Y276295D01*
X201527Y276550D01*
D02*
G37*
G36*
X384343Y271578D02*
X383560D01*
X382836Y271279D01*
X382282Y270725D01*
X381983Y270002D01*
Y269218D01*
X382282Y268495D01*
X382836Y267941D01*
X383560Y267641D01*
X384343D01*
X385066Y267941D01*
X385620Y268495D01*
X385920Y269218D01*
Y270002D01*
X385620Y270725D01*
X385066Y271279D01*
X384343Y271578D01*
D02*
G37*
G36*
X201527Y270461D02*
X200862D01*
X200247Y270207D01*
X199776Y269736D01*
X199521Y269121D01*
Y268455D01*
X199776Y267840D01*
X200247Y267370D01*
X200862Y267115D01*
X201527D01*
X202142Y267370D01*
X202613Y267840D01*
X202868Y268455D01*
Y269121D01*
X202613Y269736D01*
X202142Y270207D01*
X201527Y270461D01*
D02*
G37*
G36*
X410917Y269676D02*
X410134D01*
X409411Y269376D01*
X408857Y268822D01*
X408557Y268099D01*
Y267316D01*
X408857Y266592D01*
X409411Y266038D01*
X410134Y265739D01*
X410917D01*
X411641Y266038D01*
X412194Y266592D01*
X412494Y267316D01*
Y268099D01*
X412194Y268822D01*
X411641Y269376D01*
X410917Y269676D01*
D02*
G37*
G36*
X533726Y275112D02*
X532274D01*
X530872Y274736D01*
X529616Y274010D01*
X528589Y272984D01*
X527864Y271727D01*
X527488Y270326D01*
Y268874D01*
X527864Y267473D01*
X528589Y266216D01*
X529616Y265190D01*
X530872Y264464D01*
X532274Y264088D01*
X533726D01*
X535127Y264464D01*
X536384Y265190D01*
X537410Y266216D01*
X538136Y267473D01*
X538512Y268874D01*
Y270326D01*
X538136Y271727D01*
X537410Y272984D01*
X536384Y274010D01*
X535127Y274736D01*
X533726Y275112D01*
D02*
G37*
G36*
X304549Y264739D02*
X303883D01*
X303268Y264484D01*
X302797Y264013D01*
X302543Y263398D01*
Y262733D01*
X302797Y262118D01*
X303268Y261647D01*
X303883Y261392D01*
X304549D01*
X305164Y261647D01*
X305634Y262118D01*
X305889Y262733D01*
Y263398D01*
X305634Y264013D01*
X305164Y264484D01*
X304549Y264739D01*
D02*
G37*
G36*
X529643Y262789D02*
X528977D01*
X528363Y262535D01*
X527892Y262064D01*
X527637Y261449D01*
Y260783D01*
X527892Y260168D01*
X528363Y259698D01*
X528977Y259443D01*
X529643D01*
X530258Y259698D01*
X530729Y260168D01*
X530984Y260783D01*
Y261449D01*
X530729Y262064D01*
X530258Y262535D01*
X529643Y262789D01*
D02*
G37*
G36*
X200349Y262770D02*
X199684D01*
X199069Y262515D01*
X198598Y262045D01*
X198343Y261430D01*
Y260764D01*
X198598Y260149D01*
X199069Y259678D01*
X199684Y259424D01*
X200349D01*
X200964Y259678D01*
X201435Y260149D01*
X201690Y260764D01*
Y261430D01*
X201435Y262045D01*
X200964Y262515D01*
X200349Y262770D01*
D02*
G37*
G36*
X255057Y261125D02*
X254392D01*
X253777Y260870D01*
X253306Y260399D01*
X253051Y259784D01*
Y259119D01*
X253306Y258504D01*
X253777Y258033D01*
X254392Y257778D01*
X255057D01*
X255672Y258033D01*
X256143Y258504D01*
X256398Y259119D01*
Y259784D01*
X256143Y260399D01*
X255672Y260870D01*
X255057Y261125D01*
D02*
G37*
G36*
X403077Y261372D02*
X402294D01*
X401571Y261073D01*
X401017Y260519D01*
X400717Y259795D01*
Y259012D01*
X401017Y258289D01*
X401571Y257735D01*
X402294Y257435D01*
X403077D01*
X403801Y257735D01*
X404355Y258289D01*
X404654Y259012D01*
Y259795D01*
X404355Y260519D01*
X403801Y261073D01*
X403077Y261372D01*
D02*
G37*
G36*
X-38077Y260236D02*
X-38860D01*
X-39584Y259936D01*
X-40137Y259383D01*
X-40437Y258659D01*
Y257876D01*
X-40137Y257153D01*
X-39584Y256599D01*
X-38860Y256299D01*
X-38077D01*
X-37353Y256599D01*
X-36800Y257153D01*
X-36500Y257876D01*
Y258659D01*
X-36800Y259383D01*
X-37353Y259936D01*
X-38077Y260236D01*
D02*
G37*
G36*
X264829Y259246D02*
X264163D01*
X263548Y258992D01*
X263078Y258521D01*
X262823Y257906D01*
Y257240D01*
X263078Y256625D01*
X263548Y256155D01*
X264163Y255900D01*
X264829D01*
X265444Y256155D01*
X265915Y256625D01*
X266170Y257240D01*
Y257906D01*
X265915Y258521D01*
X265444Y258992D01*
X264829Y259246D01*
D02*
G37*
G36*
X243473Y258834D02*
X242807D01*
X242192Y258579D01*
X241721Y258108D01*
X241467Y257493D01*
Y256828D01*
X241721Y256213D01*
X242192Y255742D01*
X242807Y255487D01*
X243473D01*
X244088Y255742D01*
X244558Y256213D01*
X244813Y256828D01*
Y257493D01*
X244558Y258108D01*
X244088Y258579D01*
X243473Y258834D01*
D02*
G37*
G36*
X440976Y259277D02*
X440193D01*
X439469Y258977D01*
X438915Y258424D01*
X438616Y257700D01*
Y256917D01*
X438915Y256194D01*
X439469Y255640D01*
X440193Y255340D01*
X440976D01*
X441699Y255640D01*
X442253Y256194D01*
X442553Y256917D01*
Y257700D01*
X442253Y258424D01*
X441699Y258977D01*
X440976Y259277D01*
D02*
G37*
G36*
X170476Y262795D02*
X169693D01*
X168970Y262496D01*
X168416Y261942D01*
X168116Y261218D01*
Y260435D01*
X168416Y259712D01*
X168970Y259158D01*
X169040Y259129D01*
Y258588D01*
X168970Y258559D01*
X168416Y258005D01*
X168116Y257281D01*
Y256498D01*
X168416Y255775D01*
X168970Y255221D01*
X169693Y254921D01*
X170476D01*
X171200Y255221D01*
X171753Y255775D01*
X172053Y256498D01*
Y257281D01*
X171753Y258005D01*
X171200Y258559D01*
X171129Y258588D01*
Y259129D01*
X171200Y259158D01*
X171753Y259712D01*
X172053Y260435D01*
Y261218D01*
X171753Y261942D01*
X171200Y262496D01*
X170476Y262795D01*
D02*
G37*
G36*
X517792Y256768D02*
X517008D01*
X516285Y256469D01*
X515731Y255915D01*
X515431Y255192D01*
Y254408D01*
X515731Y253685D01*
X516285Y253131D01*
X517008Y252832D01*
X517792D01*
X518515Y253131D01*
X519069Y253685D01*
X519369Y254408D01*
Y255192D01*
X519069Y255915D01*
X518515Y256469D01*
X517792Y256768D01*
D02*
G37*
G36*
X242386Y254916D02*
X241720D01*
X241105Y254662D01*
X240634Y254191D01*
X240380Y253576D01*
Y252910D01*
X240634Y252295D01*
X241105Y251825D01*
X241720Y251570D01*
X242386D01*
X243001Y251825D01*
X243471Y252295D01*
X243726Y252910D01*
Y253576D01*
X243471Y254191D01*
X243001Y254662D01*
X242386Y254916D01*
D02*
G37*
G36*
X202146Y254906D02*
X201480D01*
X200865Y254651D01*
X200394Y254180D01*
X200140Y253565D01*
Y252900D01*
X200394Y252285D01*
X200865Y251814D01*
X201480Y251559D01*
X202146D01*
X202761Y251814D01*
X203231Y252285D01*
X203486Y252900D01*
Y253565D01*
X203231Y254180D01*
X202761Y254651D01*
X202146Y254906D01*
D02*
G37*
G36*
X315149Y254675D02*
X314484D01*
X313869Y254420D01*
X313398Y253950D01*
X313143Y253335D01*
Y252669D01*
X313398Y252054D01*
X313869Y251583D01*
X314484Y251329D01*
X315149D01*
X315764Y251583D01*
X316235Y252054D01*
X316490Y252669D01*
Y253335D01*
X316235Y253950D01*
X315764Y254420D01*
X315149Y254675D01*
D02*
G37*
G36*
X250061D02*
X249395D01*
X248780Y254420D01*
X248310Y253950D01*
X248055Y253335D01*
Y252669D01*
X248310Y252054D01*
X248780Y251583D01*
X249395Y251329D01*
X250061D01*
X250676Y251583D01*
X251147Y252054D01*
X251401Y252669D01*
Y253335D01*
X251147Y253950D01*
X250676Y254420D01*
X250061Y254675D01*
D02*
G37*
G36*
X403733Y253929D02*
X402950D01*
X402227Y253630D01*
X401673Y253076D01*
X401373Y252353D01*
Y251569D01*
X401673Y250846D01*
X402227Y250292D01*
X402950Y249992D01*
X403733D01*
X404457Y250292D01*
X405011Y250846D01*
X405310Y251569D01*
Y252353D01*
X405011Y253076D01*
X404457Y253630D01*
X403733Y253929D01*
D02*
G37*
G36*
X540043Y255143D02*
X532957D01*
Y249699D01*
X532457Y249565D01*
X532335Y249776D01*
X531676Y250435D01*
X530868Y250902D01*
X529966Y251143D01*
X529034D01*
X528132Y250902D01*
X527324Y250435D01*
X526665Y249776D01*
X526198Y248968D01*
X525957Y248066D01*
Y247133D01*
X526198Y246232D01*
X526665Y245424D01*
X527324Y244765D01*
X528132Y244298D01*
X529034Y244057D01*
X529966D01*
X530868Y244298D01*
X531676Y244765D01*
X532335Y245424D01*
X532802Y246232D01*
X533043Y247133D01*
Y247925D01*
X533043Y248057D01*
X533282Y248057D01*
X540043D01*
Y255143D01*
D02*
G37*
G36*
X264681Y251938D02*
X264015D01*
X263400Y251683D01*
X262930Y251212D01*
X262675Y250597D01*
Y249931D01*
X262930Y249317D01*
X263400Y248846D01*
X264015Y248591D01*
X264681D01*
X265296Y248846D01*
X265767Y249317D01*
X266021Y249931D01*
Y250597D01*
X265767Y251212D01*
X265296Y251683D01*
X264681Y251938D01*
D02*
G37*
G36*
X202216Y248991D02*
X201551D01*
X200936Y248736D01*
X200465Y248265D01*
X200210Y247650D01*
Y246985D01*
X200465Y246370D01*
X200936Y245899D01*
X201551Y245644D01*
X202216D01*
X202831Y245899D01*
X203302Y246370D01*
X203557Y246985D01*
Y247650D01*
X203302Y248265D01*
X202831Y248736D01*
X202216Y248991D01*
D02*
G37*
G36*
X520676Y249569D02*
X519893D01*
X519170Y249269D01*
X518616Y248715D01*
X518316Y247992D01*
Y247208D01*
X518616Y246485D01*
X519170Y245931D01*
X519893Y245632D01*
X520676D01*
X521400Y245931D01*
X521953Y246485D01*
X522253Y247208D01*
Y247992D01*
X521953Y248715D01*
X521400Y249269D01*
X520676Y249569D01*
D02*
G37*
G36*
X400092Y244868D02*
X399308D01*
X398585Y244569D01*
X398031Y244015D01*
X397731Y243292D01*
Y242508D01*
X398031Y241785D01*
X398585Y241231D01*
X399308Y240932D01*
X400092D01*
X400815Y241231D01*
X401369Y241785D01*
X401669Y242508D01*
Y243292D01*
X401369Y244015D01*
X400815Y244569D01*
X400092Y244868D01*
D02*
G37*
G36*
X536967Y247143D02*
X536033D01*
X535132Y246902D01*
X534324Y246435D01*
X533665Y245776D01*
X533198Y244968D01*
X532957Y244067D01*
Y243133D01*
X533198Y242232D01*
X533665Y241424D01*
X534324Y240765D01*
X535132Y240298D01*
X536033Y240057D01*
X536967D01*
X537868Y240298D01*
X538676Y240765D01*
X539335Y241424D01*
X539802Y242232D01*
X540043Y243133D01*
Y244067D01*
X539802Y244968D01*
X539335Y245776D01*
X538676Y246435D01*
X537868Y246902D01*
X536967Y247143D01*
D02*
G37*
G36*
X-99Y243021D02*
X-726D01*
X-1305Y242781D01*
X-1748Y242338D01*
X-1987Y241760D01*
Y241133D01*
X-1748Y240554D01*
X-1305Y240111D01*
X-726Y239872D01*
X-99D01*
X479Y240111D01*
X922Y240554D01*
X1162Y241133D01*
Y241760D01*
X922Y242338D01*
X479Y242781D01*
X-99Y243021D01*
D02*
G37*
G36*
X282311Y243638D02*
X281528D01*
X280804Y243338D01*
X280251Y242785D01*
X279951Y242061D01*
Y241278D01*
X280251Y240555D01*
X280804Y240001D01*
X281528Y239701D01*
X282311D01*
X283034Y240001D01*
X283588Y240555D01*
X283888Y241278D01*
Y242061D01*
X283588Y242785D01*
X283034Y243338D01*
X282311Y243638D01*
D02*
G37*
G36*
X529966Y243143D02*
X529034D01*
X528132Y242902D01*
X527324Y242435D01*
X526665Y241776D01*
X526198Y240968D01*
X525957Y240067D01*
Y239134D01*
X526198Y238232D01*
X526665Y237424D01*
X527324Y236765D01*
X528132Y236298D01*
X529034Y236057D01*
X529966D01*
X530868Y236298D01*
X531676Y236765D01*
X532335Y237424D01*
X532802Y238232D01*
X533043Y239134D01*
Y240067D01*
X532802Y240968D01*
X532335Y241776D01*
X531676Y242435D01*
X530868Y242902D01*
X529966Y243143D01*
D02*
G37*
G36*
X443395Y237568D02*
X442612D01*
X441888Y237269D01*
X441334Y236715D01*
X441035Y235992D01*
Y235208D01*
X441334Y234485D01*
X441888Y233931D01*
X442612Y233631D01*
X443395D01*
X444118Y233931D01*
X444672Y234485D01*
X444972Y235208D01*
Y235992D01*
X444672Y236715D01*
X444118Y237269D01*
X443395Y237568D01*
D02*
G37*
G36*
X-277Y236398D02*
X-903D01*
X-1482Y236158D01*
X-1925Y235715D01*
X-2165Y235136D01*
Y234510D01*
X-1925Y233931D01*
X-1482Y233488D01*
X-903Y233248D01*
X-277D01*
X302Y233488D01*
X745Y233931D01*
X985Y234510D01*
Y235136D01*
X745Y235715D01*
X302Y236158D01*
X-277Y236398D01*
D02*
G37*
G36*
X324125Y236753D02*
X323342D01*
X322618Y236453D01*
X322064Y235899D01*
X321765Y235176D01*
Y234393D01*
X322064Y233669D01*
X322618Y233115D01*
X323342Y232816D01*
X324125D01*
X324848Y233115D01*
X325402Y233669D01*
X325702Y234393D01*
Y235176D01*
X325402Y235899D01*
X324848Y236453D01*
X324125Y236753D01*
D02*
G37*
G36*
X536967Y239143D02*
X536033D01*
X535132Y238902D01*
X534324Y238435D01*
X533665Y237776D01*
X533198Y236968D01*
X532957Y236067D01*
Y235134D01*
X533198Y234232D01*
X533665Y233424D01*
X534324Y232765D01*
X535132Y232298D01*
X536033Y232057D01*
X536967D01*
X537868Y232298D01*
X538676Y232765D01*
X539335Y233424D01*
X539802Y234232D01*
X540043Y235134D01*
Y236067D01*
X539802Y236968D01*
X539335Y237776D01*
X538676Y238435D01*
X537868Y238902D01*
X536967Y239143D01*
D02*
G37*
G36*
X385037Y232828D02*
X384254D01*
X383531Y232528D01*
X382977Y231975D01*
X382677Y231251D01*
Y230468D01*
X382977Y229745D01*
X383531Y229191D01*
X384254Y228891D01*
X385037D01*
X385761Y229191D01*
X386315Y229745D01*
X386614Y230468D01*
Y231251D01*
X386315Y231975D01*
X385761Y232528D01*
X385037Y232828D01*
D02*
G37*
G36*
X529966Y235143D02*
X529034D01*
X528132Y234902D01*
X527324Y234435D01*
X526665Y233776D01*
X526198Y232968D01*
X525957Y232066D01*
Y231134D01*
X526198Y230232D01*
X526665Y229424D01*
X527324Y228765D01*
X528132Y228298D01*
X529034Y228057D01*
X529966D01*
X530868Y228298D01*
X531676Y228765D01*
X532335Y229424D01*
X532802Y230232D01*
X533043Y231134D01*
Y232066D01*
X532802Y232968D01*
X532335Y233776D01*
X531676Y234435D01*
X530868Y234902D01*
X529966Y235143D01*
D02*
G37*
G36*
X473653Y231769D02*
X472870D01*
X472146Y231470D01*
X471593Y230916D01*
X471293Y230192D01*
Y229409D01*
X471593Y228686D01*
X472146Y228132D01*
X472870Y227832D01*
X473653D01*
X474376Y228132D01*
X474930Y228686D01*
X475230Y229409D01*
Y230192D01*
X474930Y230916D01*
X474376Y231470D01*
X473653Y231769D01*
D02*
G37*
G36*
X536967Y231143D02*
X536033D01*
X535132Y230902D01*
X534324Y230435D01*
X533665Y229776D01*
X533198Y228968D01*
X532957Y228066D01*
Y227133D01*
X533198Y226232D01*
X533665Y225424D01*
X534324Y224765D01*
X535132Y224298D01*
X536033Y224057D01*
X536967D01*
X537868Y224298D01*
X538676Y224765D01*
X539335Y225424D01*
X539802Y226232D01*
X540043Y227133D01*
Y228066D01*
X539802Y228968D01*
X539335Y229776D01*
X538676Y230435D01*
X537868Y230902D01*
X536967Y231143D01*
D02*
G37*
G36*
X39689Y226400D02*
X39062D01*
X38483Y226160D01*
X38040Y225717D01*
X37801Y225138D01*
Y224512D01*
X38040Y223933D01*
X38483Y223490D01*
X39062Y223250D01*
X39689D01*
X40268Y223490D01*
X40710Y223933D01*
X40950Y224512D01*
Y225138D01*
X40710Y225717D01*
X40268Y226160D01*
X39689Y226400D01*
D02*
G37*
G36*
X206800Y225872D02*
X206017D01*
X205294Y225572D01*
X204740Y225018D01*
X204440Y224295D01*
Y223512D01*
X204740Y222788D01*
X205294Y222234D01*
X206017Y221935D01*
X206800D01*
X207524Y222234D01*
X208078Y222788D01*
X208377Y223512D01*
Y224295D01*
X208078Y225018D01*
X207524Y225572D01*
X206800Y225872D01*
D02*
G37*
G36*
X1723Y221142D02*
X1097D01*
X518Y220902D01*
X75Y220459D01*
X-8Y220259D01*
X-51Y220235D01*
X-582Y220180D01*
X-871Y220469D01*
X-1450Y220709D01*
X-2076D01*
X-2655Y220469D01*
X-3098Y220026D01*
X-3338Y219447D01*
Y218821D01*
X-3098Y218242D01*
X-2655Y217799D01*
X-2076Y217559D01*
X-1450D01*
X-871Y217799D01*
X-428Y218242D01*
X-345Y218442D01*
X-302Y218466D01*
X229Y218521D01*
X518Y218232D01*
X1097Y217992D01*
X1723D01*
X2302Y218232D01*
X2745Y218675D01*
X2985Y219254D01*
Y219880D01*
X2745Y220459D01*
X2302Y220902D01*
X1723Y221142D01*
D02*
G37*
G36*
X384644Y224016D02*
X383860D01*
X383137Y223716D01*
X382583Y223162D01*
X382283Y222439D01*
Y221656D01*
X382583Y220932D01*
X383137Y220378D01*
X383860Y220079D01*
X384644D01*
X385367Y220378D01*
X385921Y220932D01*
X386221Y221656D01*
Y222439D01*
X385921Y223162D01*
X385367Y223716D01*
X384644Y224016D01*
D02*
G37*
G36*
X529966Y227143D02*
X529034D01*
X528132Y226902D01*
X527324Y226435D01*
X526665Y225776D01*
X526198Y224968D01*
X525957Y224066D01*
Y223133D01*
X526198Y222232D01*
X526665Y221424D01*
X527324Y220765D01*
X528132Y220298D01*
X529034Y220057D01*
X529966D01*
X530868Y220298D01*
X531676Y220765D01*
X532335Y221424D01*
X532802Y222232D01*
X533043Y223133D01*
Y224066D01*
X532802Y224968D01*
X532335Y225776D01*
X531676Y226435D01*
X530868Y226902D01*
X529966Y227143D01*
D02*
G37*
G36*
X163972Y223116D02*
X163189D01*
X162466Y222816D01*
X161912Y222262D01*
X161612Y221539D01*
Y220756D01*
X161912Y220032D01*
X162466Y219478D01*
X163189Y219179D01*
X163972D01*
X164696Y219478D01*
X165250Y220032D01*
X165549Y220756D01*
Y221539D01*
X165250Y222262D01*
X164696Y222816D01*
X163972Y223116D01*
D02*
G37*
G36*
X412197Y221699D02*
X411413D01*
X410690Y221399D01*
X410136Y220846D01*
X409837Y220122D01*
Y219339D01*
X410136Y218616D01*
X410690Y218062D01*
X411413Y217762D01*
X412197D01*
X412920Y218062D01*
X413474Y218616D01*
X413774Y219339D01*
Y220122D01*
X413474Y220846D01*
X412920Y221399D01*
X412197Y221699D01*
D02*
G37*
G36*
X305587Y216872D02*
X304922D01*
X304307Y216617D01*
X303836Y216146D01*
X303581Y215531D01*
Y214865D01*
X303836Y214251D01*
X304307Y213780D01*
X304922Y213525D01*
X305587D01*
X306202Y213780D01*
X306673Y214251D01*
X306928Y214865D01*
Y215531D01*
X306673Y216146D01*
X306202Y216617D01*
X305587Y216872D01*
D02*
G37*
G36*
X403733Y213586D02*
X402950D01*
X402227Y213286D01*
X401673Y212732D01*
X401373Y212009D01*
Y211226D01*
X401673Y210502D01*
X402227Y209948D01*
X402950Y209649D01*
X403733D01*
X404457Y209948D01*
X405011Y210502D01*
X405310Y211226D01*
Y212009D01*
X405011Y212732D01*
X404457Y213286D01*
X403733Y213586D01*
D02*
G37*
G36*
X443395Y208980D02*
X442612D01*
X441888Y208680D01*
X441334Y208126D01*
X441035Y207403D01*
Y206620D01*
X441334Y205896D01*
X441888Y205342D01*
X442612Y205043D01*
X443395D01*
X444118Y205342D01*
X444672Y205896D01*
X444972Y206620D01*
Y207403D01*
X444672Y208126D01*
X444118Y208680D01*
X443395Y208980D01*
D02*
G37*
G36*
X402374Y206927D02*
X401591D01*
X400867Y206627D01*
X400313Y206073D01*
X400014Y205350D01*
Y204567D01*
X400313Y203843D01*
X400867Y203290D01*
X401591Y202990D01*
X402374D01*
X403097Y203290D01*
X403651Y203843D01*
X403951Y204567D01*
Y205350D01*
X403651Y206073D01*
X403097Y206627D01*
X402374Y206927D01*
D02*
G37*
G36*
X315293Y205217D02*
X314628D01*
X314013Y204962D01*
X313542Y204491D01*
X313287Y203876D01*
Y203210D01*
X313542Y202595D01*
X314013Y202125D01*
X314628Y201870D01*
X315293D01*
X315908Y202125D01*
X316379Y202595D01*
X316634Y203210D01*
Y203876D01*
X316379Y204491D01*
X315908Y204962D01*
X315293Y205217D01*
D02*
G37*
G36*
X47277Y204606D02*
X46650D01*
X46071Y204366D01*
X45628Y203924D01*
X45389Y203345D01*
Y202718D01*
X45628Y202139D01*
X46071Y201696D01*
X46650Y201457D01*
X47277D01*
X47855Y201696D01*
X48298Y202139D01*
X48538Y202718D01*
Y203345D01*
X48298Y203924D01*
X47855Y204366D01*
X47277Y204606D01*
D02*
G37*
G36*
X280147Y195021D02*
X279364D01*
X278640Y194722D01*
X278086Y194168D01*
X277787Y193444D01*
Y192661D01*
X278086Y191938D01*
X278640Y191384D01*
X279364Y191084D01*
X280147D01*
X280870Y191384D01*
X281424Y191938D01*
X281724Y192661D01*
Y193444D01*
X281424Y194168D01*
X280870Y194722D01*
X280147Y195021D01*
D02*
G37*
G36*
X397473Y193269D02*
X396690D01*
X395966Y192969D01*
X395412Y192415D01*
X395113Y191692D01*
Y190908D01*
X395412Y190185D01*
X395966Y189631D01*
X396690Y189331D01*
X397473D01*
X398196Y189631D01*
X398750Y190185D01*
X399050Y190908D01*
Y191692D01*
X398750Y192415D01*
X398196Y192969D01*
X397473Y193269D01*
D02*
G37*
G36*
X522528Y191461D02*
X521863D01*
X521247Y191206D01*
X520777Y190735D01*
X520522Y190120D01*
Y189454D01*
X520777Y188840D01*
X521247Y188369D01*
X521863Y188114D01*
X522528D01*
X523143Y188369D01*
X523614Y188840D01*
X523869Y189454D01*
Y190120D01*
X523614Y190735D01*
X523143Y191206D01*
X522528Y191461D01*
D02*
G37*
G36*
X540043Y193143D02*
X532957D01*
Y187699D01*
X532457Y187565D01*
X532335Y187776D01*
X531676Y188435D01*
X530868Y188902D01*
X529966Y189143D01*
X529034D01*
X528132Y188902D01*
X527324Y188435D01*
X526665Y187776D01*
X526198Y186968D01*
X525957Y186066D01*
Y185134D01*
X526198Y184232D01*
X526665Y183424D01*
X527324Y182765D01*
X528132Y182298D01*
X529034Y182057D01*
X529966D01*
X530868Y182298D01*
X531676Y182765D01*
X532335Y183424D01*
X532802Y184232D01*
X533043Y185134D01*
Y185925D01*
X533043Y186057D01*
X533282Y186057D01*
X540043D01*
Y193143D01*
D02*
G37*
G36*
X30057Y189795D02*
X29430D01*
X28851Y189556D01*
X28408Y189113D01*
X28169Y188534D01*
Y187907D01*
X28408Y187329D01*
X28851Y186885D01*
X29430Y186646D01*
X30057D01*
X30635Y186885D01*
X31078Y187329D01*
X31318Y187907D01*
Y188534D01*
X31078Y189113D01*
X30635Y189556D01*
X30057Y189795D01*
D02*
G37*
G36*
X22757D02*
X22131D01*
X21552Y189556D01*
X21109Y189113D01*
X20869Y188534D01*
Y187907D01*
X21109Y187329D01*
X21552Y186885D01*
X22131Y186646D01*
X22757D01*
X23336Y186885D01*
X23779Y187329D01*
X24019Y187907D01*
Y188534D01*
X23779Y189113D01*
X23336Y189556D01*
X22757Y189795D01*
D02*
G37*
G36*
X322101Y186659D02*
X321318D01*
X320594Y186359D01*
X320040Y185806D01*
X319741Y185082D01*
Y184299D01*
X320040Y183575D01*
X320594Y183022D01*
X321318Y182722D01*
X322101D01*
X322824Y183022D01*
X323378Y183575D01*
X323677Y184299D01*
Y185082D01*
X323378Y185806D01*
X322824Y186359D01*
X322101Y186659D01*
D02*
G37*
G36*
X441350Y185494D02*
X440566D01*
X439843Y185195D01*
X439289Y184641D01*
X438989Y183917D01*
Y183134D01*
X439289Y182411D01*
X439843Y181857D01*
X440566Y181557D01*
X441350D01*
X442073Y181857D01*
X442627Y182411D01*
X442926Y183134D01*
Y183917D01*
X442627Y184641D01*
X442073Y185195D01*
X441350Y185494D01*
D02*
G37*
G36*
X231986Y185662D02*
X231320D01*
X230705Y185407D01*
X230234Y184937D01*
X229980Y184322D01*
Y183656D01*
X230234Y183041D01*
X230705Y182570D01*
X231320Y182316D01*
X231986D01*
X232100Y182363D01*
X232600Y182029D01*
Y181781D01*
X232855Y181166D01*
X233326Y180695D01*
X233941Y180440D01*
X234606D01*
X235221Y180695D01*
X235692Y181166D01*
X235947Y181781D01*
Y182446D01*
X235692Y183061D01*
X235221Y183532D01*
X234606Y183787D01*
X233941D01*
X233826Y183739D01*
X233326Y184073D01*
Y184322D01*
X233071Y184937D01*
X232601Y185407D01*
X231986Y185662D01*
D02*
G37*
G36*
X-7931Y182440D02*
X-8557D01*
X-9136Y182200D01*
X-9579Y181757D01*
X-9819Y181179D01*
Y180552D01*
X-9579Y179973D01*
X-9136Y179530D01*
X-8557Y179291D01*
X-7931D01*
X-7352Y179530D01*
X-6909Y179973D01*
X-6669Y180552D01*
Y181179D01*
X-6909Y181757D01*
X-7352Y182200D01*
X-7931Y182440D01*
D02*
G37*
G36*
X162122Y185433D02*
X161339D01*
X160615Y185133D01*
X160061Y184580D01*
X159762Y183856D01*
Y183073D01*
X160061Y182350D01*
X160615Y181796D01*
X161339Y181496D01*
X161600D01*
X161947Y181028D01*
Y180245D01*
X162247Y179522D01*
X162801Y178968D01*
X163524Y178668D01*
X164307D01*
X165031Y178968D01*
X165584Y179522D01*
X165884Y180245D01*
Y181029D01*
X165584Y181752D01*
X165031Y182306D01*
X164307Y182606D01*
X164046D01*
X163699Y183073D01*
Y183856D01*
X163399Y184580D01*
X162845Y185133D01*
X162122Y185433D01*
D02*
G37*
G36*
X-24126Y182573D02*
X-24909D01*
X-25632Y182273D01*
X-26186Y181720D01*
X-26486Y180996D01*
Y180213D01*
X-26186Y179490D01*
X-25632Y178936D01*
X-24909Y178636D01*
X-24126D01*
X-23402Y178936D01*
X-22848Y179490D01*
X-22549Y180213D01*
Y180996D01*
X-22848Y181720D01*
X-23402Y182273D01*
X-24126Y182573D01*
D02*
G37*
G36*
X382671Y182079D02*
X381888D01*
X381165Y181779D01*
X380611Y181225D01*
X380311Y180502D01*
Y179719D01*
X380611Y178995D01*
X381165Y178441D01*
X381888Y178142D01*
X382671D01*
X383395Y178441D01*
X383948Y178995D01*
X384248Y179719D01*
Y180502D01*
X383948Y181225D01*
X383395Y181779D01*
X382671Y182079D01*
D02*
G37*
G36*
X536967Y185143D02*
X536033D01*
X535132Y184902D01*
X534324Y184435D01*
X533665Y183776D01*
X533198Y182968D01*
X532957Y182067D01*
Y181133D01*
X533198Y180232D01*
X533665Y179424D01*
X534324Y178765D01*
X535132Y178298D01*
X536033Y178057D01*
X536967D01*
X537868Y178298D01*
X538676Y178765D01*
X539335Y179424D01*
X539802Y180232D01*
X540043Y181133D01*
Y182067D01*
X539802Y182968D01*
X539335Y183776D01*
X538676Y184435D01*
X537868Y184902D01*
X536967Y185143D01*
D02*
G37*
G36*
X202275Y181109D02*
X201492D01*
X200768Y180810D01*
X200215Y180256D01*
X199915Y179533D01*
Y178749D01*
X200215Y178026D01*
X200768Y177472D01*
X201492Y177172D01*
X202275D01*
X202998Y177472D01*
X203552Y178026D01*
X203852Y178749D01*
Y179533D01*
X203552Y180256D01*
X202998Y180810D01*
X202275Y181109D01*
D02*
G37*
G36*
X472284Y180272D02*
X471501D01*
X470777Y179973D01*
X470224Y179419D01*
X469924Y178695D01*
Y177912D01*
X470224Y177189D01*
X470777Y176635D01*
X471501Y176335D01*
X472284D01*
X473007Y176635D01*
X473561Y177189D01*
X473861Y177912D01*
Y178695D01*
X473561Y179419D01*
X473007Y179973D01*
X472284Y180272D01*
D02*
G37*
G36*
X-4805Y179134D02*
X-5431D01*
X-6010Y178894D01*
X-6453Y178451D01*
X-6693Y177872D01*
Y177246D01*
X-6453Y176667D01*
X-6010Y176224D01*
X-5431Y175984D01*
X-4805D01*
X-4226Y176224D01*
X-3783Y176667D01*
X-3543Y177246D01*
Y177872D01*
X-3783Y178451D01*
X-4226Y178894D01*
X-4805Y179134D01*
D02*
G37*
G36*
X529966Y181143D02*
X529034D01*
X528132Y180902D01*
X527324Y180435D01*
X526665Y179776D01*
X526198Y178968D01*
X525957Y178067D01*
Y177134D01*
X526198Y176232D01*
X526665Y175424D01*
X527324Y174765D01*
X528132Y174298D01*
X529034Y174057D01*
X529966D01*
X530868Y174298D01*
X531676Y174765D01*
X532335Y175424D01*
X532802Y176232D01*
X533043Y177134D01*
Y178067D01*
X532802Y178968D01*
X532335Y179776D01*
X531676Y180435D01*
X530868Y180902D01*
X529966Y181143D01*
D02*
G37*
G36*
X-25096Y176379D02*
X-25879D01*
X-26602Y176079D01*
X-27156Y175525D01*
X-27456Y174802D01*
Y174019D01*
X-27156Y173295D01*
X-26602Y172741D01*
X-25879Y172442D01*
X-25096D01*
X-24372Y172741D01*
X-23818Y173295D01*
X-23519Y174019D01*
Y174802D01*
X-23818Y175525D01*
X-24372Y176079D01*
X-25096Y176379D01*
D02*
G37*
G36*
X536967Y177143D02*
X536033D01*
X535132Y176902D01*
X534324Y176435D01*
X533665Y175776D01*
X533198Y174968D01*
X532957Y174066D01*
Y173134D01*
X533198Y172232D01*
X533665Y171424D01*
X534324Y170765D01*
X535132Y170298D01*
X536033Y170057D01*
X536967D01*
X537868Y170298D01*
X538676Y170765D01*
X539335Y171424D01*
X539802Y172232D01*
X540043Y173134D01*
Y174066D01*
X539802Y174968D01*
X539335Y175776D01*
X538676Y176435D01*
X537868Y176902D01*
X536967Y177143D01*
D02*
G37*
G36*
X522528Y172857D02*
X521863D01*
X521247Y172602D01*
X520777Y172131D01*
X520522Y171516D01*
Y170851D01*
X520777Y170236D01*
X521247Y169765D01*
X521863Y169510D01*
X522528D01*
X523143Y169765D01*
X523614Y170236D01*
X523869Y170851D01*
Y171516D01*
X523614Y172131D01*
X523143Y172602D01*
X522528Y172857D01*
D02*
G37*
G36*
X382062Y173105D02*
X381279D01*
X380556Y172805D01*
X380002Y172252D01*
X379702Y171528D01*
Y170745D01*
X380002Y170022D01*
X380556Y169468D01*
X381279Y169168D01*
X382062D01*
X382786Y169468D01*
X383340Y170022D01*
X383639Y170745D01*
Y171528D01*
X383340Y172252D01*
X382786Y172805D01*
X382062Y173105D01*
D02*
G37*
G36*
X408929Y170905D02*
X408146D01*
X407422Y170606D01*
X406869Y170052D01*
X406569Y169328D01*
Y168545D01*
X406869Y167822D01*
X407422Y167268D01*
X408146Y166968D01*
X408929D01*
X409653Y167268D01*
X410206Y167822D01*
X410506Y168545D01*
Y169328D01*
X410206Y170052D01*
X409653Y170606D01*
X408929Y170905D01*
D02*
G37*
G36*
X162268Y173669D02*
X161485D01*
X160761Y173369D01*
X160207Y172815D01*
X159908Y172092D01*
Y171309D01*
X160207Y170585D01*
X160523Y170269D01*
X160207Y169953D01*
X159908Y169229D01*
Y168446D01*
X160207Y167723D01*
X160761Y167169D01*
X161485Y166869D01*
X162268D01*
X162991Y167169D01*
X163545Y167723D01*
X163845Y168446D01*
Y169229D01*
X163545Y169953D01*
X163229Y170269D01*
X163545Y170585D01*
X163845Y171309D01*
Y172092D01*
X163545Y172815D01*
X162991Y173369D01*
X162268Y173669D01*
D02*
G37*
G36*
X506392Y170701D02*
X505608D01*
X504885Y170402D01*
X504331Y169848D01*
X504032Y169124D01*
Y168341D01*
X504331Y167618D01*
X504885Y167064D01*
X505608Y166764D01*
X506392D01*
X507115Y167064D01*
X507669Y167618D01*
X507969Y168341D01*
Y169124D01*
X507669Y169848D01*
X507115Y170402D01*
X506392Y170701D01*
D02*
G37*
G36*
X529966Y173143D02*
X529034D01*
X528132Y172902D01*
X527324Y172435D01*
X526665Y171776D01*
X526198Y170968D01*
X525957Y170066D01*
Y169133D01*
X526198Y168232D01*
X526665Y167424D01*
X527324Y166765D01*
X528132Y166298D01*
X529034Y166057D01*
X529966D01*
X530868Y166298D01*
X531676Y166765D01*
X532335Y167424D01*
X532802Y168232D01*
X533043Y169133D01*
Y170066D01*
X532802Y170968D01*
X532335Y171776D01*
X531676Y172435D01*
X530868Y172902D01*
X529966Y173143D01*
D02*
G37*
G36*
X-30744Y168898D02*
X-31527D01*
X-32250Y168598D01*
X-32804Y168044D01*
X-33104Y167321D01*
Y166538D01*
X-32804Y165814D01*
X-32250Y165260D01*
X-31527Y164961D01*
X-30744D01*
X-30020Y165260D01*
X-29467Y165814D01*
X-29167Y166538D01*
Y167321D01*
X-29467Y168044D01*
X-30020Y168598D01*
X-30744Y168898D01*
D02*
G37*
G36*
X302748Y167371D02*
X302083D01*
X301468Y167116D01*
X300997Y166645D01*
X300742Y166030D01*
Y165365D01*
X300997Y164750D01*
X301468Y164279D01*
X302083Y164024D01*
X302748D01*
X303363Y164279D01*
X303834Y164750D01*
X304089Y165365D01*
Y166030D01*
X303834Y166645D01*
X303363Y167116D01*
X302748Y167371D01*
D02*
G37*
G36*
X536967Y169143D02*
X536033D01*
X535132Y168902D01*
X534324Y168435D01*
X533665Y167776D01*
X533198Y166968D01*
X532957Y166067D01*
Y165134D01*
X533198Y164232D01*
X533665Y163424D01*
X534324Y162765D01*
X535132Y162298D01*
X536033Y162057D01*
X536967D01*
X537868Y162298D01*
X538676Y162765D01*
X539335Y163424D01*
X539802Y164232D01*
X540043Y165134D01*
Y166067D01*
X539802Y166968D01*
X539335Y167776D01*
X538676Y168435D01*
X537868Y168902D01*
X536967Y169143D01*
D02*
G37*
G36*
X164307Y165953D02*
X163524D01*
X162801Y165653D01*
X162247Y165099D01*
X161947Y164376D01*
Y163593D01*
X162247Y162869D01*
X162563Y162553D01*
X162247Y162237D01*
X161947Y161514D01*
Y160731D01*
X162247Y160007D01*
X162801Y159453D01*
X163524Y159154D01*
X164307D01*
X165031Y159453D01*
X165584Y160007D01*
X165884Y160731D01*
Y161514D01*
X165584Y162237D01*
X165268Y162553D01*
X165584Y162869D01*
X165884Y163593D01*
Y164376D01*
X165584Y165099D01*
X165031Y165653D01*
X164307Y165953D01*
D02*
G37*
G36*
X401069Y162986D02*
X400285D01*
X399562Y162687D01*
X399008Y162133D01*
X398709Y161409D01*
Y160626D01*
X399008Y159903D01*
X399562Y159349D01*
X400285Y159049D01*
X401069D01*
X401792Y159349D01*
X402346Y159903D01*
X402646Y160626D01*
Y161409D01*
X402346Y162133D01*
X401792Y162687D01*
X401069Y162986D01*
D02*
G37*
G36*
X233001Y165256D02*
X232335D01*
X231721Y165001D01*
X231250Y164531D01*
X230995Y163916D01*
Y163250D01*
X231250Y162635D01*
X231345Y162540D01*
X231337Y162378D01*
X231191Y161986D01*
X230705Y161785D01*
X230234Y161314D01*
X229980Y160699D01*
Y160034D01*
X230234Y159419D01*
X230705Y158948D01*
X231320Y158693D01*
X231986D01*
X232601Y158948D01*
X233071Y159419D01*
X233326Y160034D01*
Y160699D01*
X233071Y161314D01*
X232976Y161409D01*
X232984Y161572D01*
X233130Y161963D01*
X233616Y162164D01*
X234087Y162635D01*
X234342Y163250D01*
Y163916D01*
X234087Y164531D01*
X233616Y165001D01*
X233001Y165256D01*
D02*
G37*
G36*
X529966Y165143D02*
X529034D01*
X528132Y164902D01*
X527324Y164435D01*
X526665Y163776D01*
X526198Y162968D01*
X525957Y162066D01*
Y161134D01*
X526198Y160232D01*
X526665Y159424D01*
X527324Y158765D01*
X528132Y158298D01*
X529034Y158057D01*
X529966D01*
X530868Y158298D01*
X531676Y158765D01*
X532335Y159424D01*
X532802Y160232D01*
X533043Y161134D01*
Y162066D01*
X532802Y162968D01*
X532335Y163776D01*
X531676Y164435D01*
X530868Y164902D01*
X529966Y165143D01*
D02*
G37*
G36*
X263719Y160692D02*
X263053D01*
X262438Y160437D01*
X261967Y159967D01*
X261713Y159352D01*
Y158686D01*
X261967Y158071D01*
X262438Y157600D01*
X263053Y157346D01*
X263719D01*
X264334Y157600D01*
X264804Y158071D01*
X265059Y158686D01*
Y159352D01*
X264804Y159967D01*
X264334Y160437D01*
X263719Y160692D01*
D02*
G37*
G36*
X-20947Y159843D02*
X-21573D01*
X-22152Y159603D01*
X-22595Y159160D01*
X-22835Y158581D01*
Y157955D01*
X-22595Y157376D01*
X-22152Y156933D01*
X-21573Y156693D01*
X-20947D01*
X-20368Y156933D01*
X-19925Y157376D01*
X-19685Y157955D01*
Y158581D01*
X-19925Y159160D01*
X-20368Y159603D01*
X-20947Y159843D01*
D02*
G37*
G36*
X-40233Y159055D02*
X-40860D01*
X-41438Y158815D01*
X-41881Y158372D01*
X-42121Y157794D01*
Y157167D01*
X-41881Y156588D01*
X-41438Y156145D01*
X-40860Y155905D01*
X-40233D01*
X-39654Y156145D01*
X-39211Y156588D01*
X-38971Y157167D01*
Y157794D01*
X-39211Y158372D01*
X-39654Y158815D01*
X-40233Y159055D01*
D02*
G37*
G36*
X203802Y158547D02*
X203137D01*
X202522Y158292D01*
X202051Y157822D01*
X201796Y157207D01*
Y156541D01*
X202051Y155926D01*
X202522Y155456D01*
X203137Y155201D01*
X203802D01*
X204417Y155456D01*
X204888Y155926D01*
X205143Y156541D01*
Y157207D01*
X204888Y157822D01*
X204417Y158292D01*
X203802Y158547D01*
D02*
G37*
G36*
X314309Y158330D02*
X313644D01*
X313029Y158075D01*
X312558Y157604D01*
X312303Y156990D01*
Y156324D01*
X312558Y155709D01*
X313029Y155238D01*
X313644Y154983D01*
X314309D01*
X314924Y155238D01*
X315395Y155709D01*
X315650Y156324D01*
Y156990D01*
X315395Y157604D01*
X314924Y158075D01*
X314309Y158330D01*
D02*
G37*
G36*
X-28966Y157555D02*
X-29593D01*
X-30171Y157315D01*
X-30615Y156872D01*
X-30854Y156294D01*
Y155667D01*
X-30615Y155088D01*
X-30171Y154645D01*
X-29593Y154405D01*
X-28966D01*
X-28387Y154645D01*
X-27944Y155088D01*
X-27705Y155667D01*
Y156294D01*
X-27944Y156872D01*
X-28387Y157315D01*
X-28966Y157555D01*
D02*
G37*
G36*
X441350Y157465D02*
X440566D01*
X439843Y157165D01*
X439289Y156611D01*
X438989Y155888D01*
Y155104D01*
X439289Y154381D01*
X439843Y153827D01*
X440566Y153528D01*
X441350D01*
X442073Y153827D01*
X442627Y154381D01*
X442926Y155104D01*
Y155888D01*
X442627Y156611D01*
X442073Y157165D01*
X441350Y157465D01*
D02*
G37*
G36*
X250061Y156004D02*
X249395D01*
X248780Y155749D01*
X248310Y155279D01*
X248055Y154664D01*
Y153998D01*
X248310Y153383D01*
X248780Y152912D01*
X249395Y152657D01*
X250061D01*
X250676Y152912D01*
X251147Y153383D01*
X251401Y153998D01*
Y154664D01*
X251147Y155279D01*
X250676Y155749D01*
X250061Y156004D01*
D02*
G37*
G36*
X244935D02*
X244269D01*
X243655Y155749D01*
X243184Y155279D01*
X242929Y154664D01*
Y153998D01*
X243184Y153383D01*
X243655Y152912D01*
X244269Y152657D01*
X244935D01*
X245550Y152912D01*
X246021Y153383D01*
X246276Y153998D01*
Y154664D01*
X246021Y155279D01*
X245550Y155749D01*
X244935Y156004D01*
D02*
G37*
G36*
X234437D02*
X233771D01*
X233156Y155749D01*
X232685Y155279D01*
X232431Y154664D01*
Y153998D01*
X232685Y153383D01*
X233156Y152912D01*
X233771Y152657D01*
X234437D01*
X235052Y152912D01*
X235522Y153383D01*
X235777Y153998D01*
Y154664D01*
X235522Y155279D01*
X235052Y155749D01*
X234437Y156004D01*
D02*
G37*
G36*
X400699Y156376D02*
X399916D01*
X399192Y156076D01*
X398639Y155523D01*
X398339Y154799D01*
Y154016D01*
X398639Y153293D01*
X399192Y152739D01*
X399916Y152439D01*
X400699D01*
X401422Y152739D01*
X401976Y153293D01*
X402276Y154016D01*
Y154799D01*
X401976Y155523D01*
X401422Y156076D01*
X400699Y156376D01*
D02*
G37*
G36*
X263719Y152642D02*
X263053D01*
X262438Y152387D01*
X261967Y151916D01*
X261713Y151301D01*
Y150636D01*
X261967Y150021D01*
X262438Y149550D01*
X263053Y149295D01*
X263719D01*
X264334Y149550D01*
X264804Y150021D01*
X265059Y150636D01*
Y151301D01*
X264804Y151916D01*
X264334Y152387D01*
X263719Y152642D01*
D02*
G37*
G36*
X281492Y152347D02*
X280708D01*
X279985Y152047D01*
X279431Y151493D01*
X279132Y150769D01*
Y149986D01*
X279431Y149263D01*
X279985Y148709D01*
X280708Y148409D01*
X281492D01*
X282215Y148709D01*
X282769Y149263D01*
X283068Y149986D01*
Y150769D01*
X282769Y151493D01*
X282215Y152047D01*
X281492Y152347D01*
D02*
G37*
G36*
X30725Y152252D02*
X29942D01*
X29219Y151953D01*
X28665Y151399D01*
X28365Y150675D01*
Y149892D01*
X28665Y149169D01*
X29219Y148615D01*
X29942Y148315D01*
X30725D01*
X31449Y148615D01*
X32002Y149169D01*
X32302Y149892D01*
Y150675D01*
X32002Y151399D01*
X31449Y151953D01*
X30725Y152252D01*
D02*
G37*
G36*
X164912Y154286D02*
X164129D01*
X163406Y153987D01*
X162852Y153433D01*
X162552Y152709D01*
Y151926D01*
X162852Y151203D01*
X163168Y150887D01*
X162852Y150571D01*
X162552Y149847D01*
Y149064D01*
X162852Y148340D01*
X163406Y147787D01*
X164129Y147487D01*
X164912D01*
X165636Y147787D01*
X166190Y148340D01*
X166489Y149064D01*
Y149847D01*
X166190Y150571D01*
X165873Y150887D01*
X166190Y151203D01*
X166489Y151926D01*
Y152709D01*
X166190Y153433D01*
X165636Y153987D01*
X164912Y154286D01*
D02*
G37*
G36*
X215021Y150861D02*
X214238D01*
X213515Y150562D01*
X212961Y150008D01*
X212661Y149284D01*
Y148501D01*
X212961Y147778D01*
X213515Y147224D01*
X214238Y146924D01*
X215021D01*
X215745Y147224D01*
X216299Y147778D01*
X216598Y148501D01*
Y149284D01*
X216299Y150008D01*
X215745Y150562D01*
X215021Y150861D01*
D02*
G37*
G36*
X233674Y149730D02*
X233008D01*
X232393Y149475D01*
X231923Y149004D01*
X231668Y148389D01*
Y147724D01*
X231923Y147109D01*
X232393Y146638D01*
X233008Y146383D01*
X233674D01*
X234289Y146638D01*
X234760Y147109D01*
X235014Y147724D01*
Y148389D01*
X234760Y149004D01*
X234289Y149475D01*
X233674Y149730D01*
D02*
G37*
G36*
X5174Y147427D02*
X4391D01*
X3667Y147127D01*
X3114Y146574D01*
X2814Y145850D01*
Y145067D01*
X3114Y144344D01*
X3667Y143790D01*
X4391Y143490D01*
X5174D01*
X5897Y143790D01*
X6451Y144344D01*
X6751Y145067D01*
Y145850D01*
X6451Y146574D01*
X5897Y147127D01*
X5174Y147427D01*
D02*
G37*
G36*
X396052Y145569D02*
X395269D01*
X394545Y145269D01*
X393992Y144715D01*
X393692Y143992D01*
Y143208D01*
X393992Y142485D01*
X394545Y141931D01*
X395269Y141631D01*
X396052D01*
X396776Y141931D01*
X397329Y142485D01*
X397629Y143208D01*
Y143992D01*
X397329Y144715D01*
X396776Y145269D01*
X396052Y145569D01*
D02*
G37*
G36*
X233674Y143140D02*
X233008D01*
X232393Y142885D01*
X231923Y142414D01*
X231668Y141799D01*
Y141134D01*
X231923Y140519D01*
X232393Y140048D01*
X233008Y139793D01*
X233674D01*
X234289Y140048D01*
X234760Y140519D01*
X235014Y141134D01*
Y141799D01*
X234760Y142414D01*
X234289Y142885D01*
X233674Y143140D01*
D02*
G37*
G36*
X203603Y142799D02*
X202938D01*
X202323Y142544D01*
X201852Y142074D01*
X201597Y141459D01*
Y140793D01*
X201852Y140178D01*
X202323Y139708D01*
X202938Y139453D01*
X203603D01*
X204218Y139708D01*
X204689Y140178D01*
X204944Y140793D01*
Y141459D01*
X204689Y142074D01*
X204218Y142544D01*
X203603Y142799D01*
D02*
G37*
G36*
X533726Y149112D02*
X532274D01*
X530872Y148736D01*
X529616Y148011D01*
X528589Y146984D01*
X527864Y145728D01*
X527488Y144326D01*
Y142874D01*
X527864Y141472D01*
X528589Y140216D01*
X529616Y139190D01*
X530872Y138464D01*
X532274Y138088D01*
X533726D01*
X535127Y138464D01*
X536384Y139190D01*
X537410Y140216D01*
X538136Y141472D01*
X538512Y142874D01*
Y144326D01*
X538136Y145728D01*
X537410Y146984D01*
X536384Y148011D01*
X535127Y148736D01*
X533726Y149112D01*
D02*
G37*
G36*
X321916Y140907D02*
X321133D01*
X320409Y140607D01*
X319856Y140054D01*
X319556Y139330D01*
Y138547D01*
X319856Y137823D01*
X320409Y137270D01*
X321133Y136970D01*
X321916D01*
X322639Y137270D01*
X323193Y137823D01*
X323493Y138547D01*
Y139330D01*
X323193Y140054D01*
X322639Y140607D01*
X321916Y140907D01*
D02*
G37*
G36*
X233674Y136894D02*
X233008D01*
X232393Y136639D01*
X231923Y136168D01*
X231668Y135553D01*
Y134888D01*
X231923Y134273D01*
X232393Y133802D01*
X233008Y133547D01*
X233674D01*
X234289Y133802D01*
X234760Y134273D01*
X235014Y134888D01*
Y135553D01*
X234760Y136168D01*
X234289Y136639D01*
X233674Y136894D01*
D02*
G37*
G36*
X442339Y137366D02*
X441556D01*
X440832Y137067D01*
X440278Y136513D01*
X439979Y135789D01*
Y135006D01*
X440278Y134283D01*
X440832Y133729D01*
X441556Y133429D01*
X442339D01*
X443062Y133729D01*
X443616Y134283D01*
X443916Y135006D01*
Y135789D01*
X443616Y136513D01*
X443062Y137067D01*
X442339Y137366D01*
D02*
G37*
G36*
X74922Y136311D02*
X74139D01*
X73415Y136011D01*
X72862Y135457D01*
X72562Y134734D01*
Y133951D01*
X72862Y133227D01*
X73415Y132673D01*
X74139Y132374D01*
X74922D01*
X75646Y132673D01*
X76199Y133227D01*
X76499Y133951D01*
Y134734D01*
X76199Y135457D01*
X75646Y136011D01*
X74922Y136311D01*
D02*
G37*
G36*
X380054Y134699D02*
X379271D01*
X378547Y134399D01*
X377993Y133845D01*
X377694Y133122D01*
Y132339D01*
X377993Y131615D01*
X378547Y131061D01*
X379271Y130762D01*
X380054D01*
X380777Y131061D01*
X381331Y131615D01*
X381631Y132339D01*
Y133122D01*
X381331Y133845D01*
X380777Y134399D01*
X380054Y134699D01*
D02*
G37*
G36*
X511433Y133111D02*
X510767D01*
X510152Y132856D01*
X509682Y132386D01*
X509427Y131771D01*
Y131105D01*
X509682Y130490D01*
X510152Y130019D01*
X510767Y129765D01*
X511433D01*
X512048Y130019D01*
X512519Y130490D01*
X512773Y131105D01*
Y131771D01*
X512519Y132386D01*
X512048Y132856D01*
X511433Y133111D01*
D02*
G37*
G36*
X470900Y132425D02*
X470117D01*
X469393Y132125D01*
X468840Y131571D01*
X468540Y130848D01*
Y130065D01*
X468840Y129341D01*
X469393Y128787D01*
X470117Y128488D01*
X470900D01*
X471624Y128787D01*
X472177Y129341D01*
X472477Y130065D01*
Y130848D01*
X472177Y131571D01*
X471624Y132125D01*
X470900Y132425D01*
D02*
G37*
G36*
X-10608Y128769D02*
X-11392D01*
X-12115Y128469D01*
X-12669Y127915D01*
X-12968Y127192D01*
Y126408D01*
X-12669Y125685D01*
X-12115Y125131D01*
X-11392Y124831D01*
X-10608D01*
X-9885Y125131D01*
X-9331Y125685D01*
X-9031Y126408D01*
Y127192D01*
X-9331Y127915D01*
X-9885Y128469D01*
X-10608Y128769D01*
D02*
G37*
G36*
X380054Y125777D02*
X379271D01*
X378547Y125478D01*
X377993Y124924D01*
X377694Y124200D01*
Y123417D01*
X377993Y122694D01*
X378547Y122140D01*
X379271Y121841D01*
X380054D01*
X380777Y122140D01*
X381331Y122694D01*
X381631Y123417D01*
Y124200D01*
X381331Y124924D01*
X380777Y125478D01*
X380054Y125777D01*
D02*
G37*
G36*
X531754Y129187D02*
X530757D01*
X529794Y128929D01*
X528930Y128431D01*
X528225Y127726D01*
X527727Y126862D01*
X527468Y125899D01*
Y124901D01*
X527727Y123938D01*
X528225Y123074D01*
X528930Y122369D01*
X529794Y121871D01*
X530757Y121613D01*
X531754D01*
X532718Y121871D01*
X533581Y122369D01*
X534287Y123074D01*
X534785Y123938D01*
X535043Y124901D01*
Y125899D01*
X534785Y126862D01*
X534287Y127726D01*
X533581Y128431D01*
X532718Y128929D01*
X531754Y129187D01*
D02*
G37*
G36*
X521755D02*
X520757D01*
X519794Y128929D01*
X518930Y128431D01*
X518225Y127726D01*
X517727Y126862D01*
X517469Y125899D01*
Y124901D01*
X517727Y123938D01*
X518225Y123074D01*
X518930Y122369D01*
X519794Y121871D01*
X520757Y121613D01*
X521755D01*
X522718Y121871D01*
X523581Y122369D01*
X524287Y123074D01*
X524785Y123938D01*
X525043Y124901D01*
Y125899D01*
X524785Y126862D01*
X524287Y127726D01*
X523581Y128431D01*
X522718Y128929D01*
X521755Y129187D01*
D02*
G37*
G36*
X407132Y122844D02*
X406349D01*
X405625Y122545D01*
X405072Y121991D01*
X404772Y121267D01*
Y120484D01*
X405072Y119761D01*
X405625Y119207D01*
X406349Y118907D01*
X407132D01*
X407856Y119207D01*
X408409Y119761D01*
X408709Y120484D01*
Y121267D01*
X408409Y121991D01*
X407856Y122545D01*
X407132Y122844D01*
D02*
G37*
G36*
X303599Y120482D02*
X302934D01*
X302319Y120227D01*
X301848Y119757D01*
X301593Y119142D01*
Y118476D01*
X301848Y117861D01*
X302319Y117391D01*
X302934Y117136D01*
X303599D01*
X304214Y117391D01*
X304685Y117861D01*
X304940Y118476D01*
Y119142D01*
X304685Y119757D01*
X304214Y120227D01*
X303599Y120482D01*
D02*
G37*
G36*
X532256Y119273D02*
Y116400D01*
X535129D01*
X534983Y116944D01*
X534457Y117856D01*
X533712Y118601D01*
X532800Y119127D01*
X532256Y119273D01*
D02*
G37*
G36*
X522256D02*
Y116400D01*
X525129D01*
X524983Y116944D01*
X524457Y117856D01*
X523712Y118601D01*
X522800Y119127D01*
X522256Y119273D01*
D02*
G37*
G36*
X530256D02*
X529712Y119127D01*
X528800Y118601D01*
X528055Y117856D01*
X527528Y116944D01*
X527383Y116400D01*
X530256D01*
Y119273D01*
D02*
G37*
G36*
X520256D02*
X519712Y119127D01*
X518800Y118601D01*
X518055Y117856D01*
X517528Y116944D01*
X517383Y116400D01*
X520256D01*
Y119273D01*
D02*
G37*
G36*
X525129Y114400D02*
X522256D01*
Y111527D01*
X522800Y111673D01*
X523712Y112199D01*
X524457Y112944D01*
X524983Y113856D01*
X525129Y114400D01*
D02*
G37*
G36*
X535129D02*
X532256D01*
Y111527D01*
X532800Y111673D01*
X533712Y112199D01*
X534457Y112944D01*
X534983Y113856D01*
X535129Y114400D01*
D02*
G37*
G36*
X530256D02*
X527383D01*
X527528Y113856D01*
X528055Y112944D01*
X528800Y112199D01*
X529712Y111673D01*
X530256Y111527D01*
Y114400D01*
D02*
G37*
G36*
X520256D02*
X517383D01*
X517528Y113856D01*
X518055Y112944D01*
X518800Y112199D01*
X519712Y111673D01*
X520256Y111527D01*
Y114400D01*
D02*
G37*
G36*
X399731Y115012D02*
X398948D01*
X398224Y114712D01*
X397671Y114159D01*
X397371Y113435D01*
Y112652D01*
X397671Y111928D01*
X398224Y111375D01*
X398948Y111075D01*
X399731D01*
X400455Y111375D01*
X401008Y111928D01*
X401308Y112652D01*
Y113435D01*
X401008Y114159D01*
X400455Y114712D01*
X399731Y115012D01*
D02*
G37*
G36*
X218852Y114014D02*
X218068D01*
X217345Y113715D01*
X216791Y113161D01*
X216492Y112437D01*
Y111654D01*
X216791Y110931D01*
X217345Y110377D01*
X218068Y110078D01*
X218852D01*
X219575Y110377D01*
X220129Y110931D01*
X220428Y111654D01*
Y112437D01*
X220129Y113161D01*
X219575Y113715D01*
X218852Y114014D01*
D02*
G37*
G36*
X313239Y110482D02*
X312573D01*
X311958Y110227D01*
X311488Y109757D01*
X311233Y109142D01*
Y108476D01*
X311488Y107861D01*
X311958Y107390D01*
X312573Y107136D01*
X313239D01*
X313854Y107390D01*
X314325Y107861D01*
X314580Y108476D01*
Y109142D01*
X314325Y109757D01*
X313854Y110227D01*
X313239Y110482D01*
D02*
G37*
G36*
X25051Y110869D02*
X24268D01*
X23544Y110569D01*
X22990Y110015D01*
X22691Y109292D01*
Y108508D01*
X22990Y107785D01*
X23544Y107231D01*
X24268Y106931D01*
X25051D01*
X25774Y107231D01*
X26328Y107785D01*
X26628Y108508D01*
Y109292D01*
X26328Y110015D01*
X25774Y110569D01*
X25051Y110869D01*
D02*
G37*
G36*
X442044Y110026D02*
X441261D01*
X440538Y109726D01*
X439984Y109172D01*
X439684Y108449D01*
Y107665D01*
X439984Y106942D01*
X440538Y106388D01*
X441261Y106088D01*
X442044D01*
X442768Y106388D01*
X443322Y106942D01*
X443621Y107665D01*
Y108449D01*
X443322Y109172D01*
X442768Y109726D01*
X442044Y110026D01*
D02*
G37*
G36*
X399211Y108268D02*
X398427D01*
X397704Y107968D01*
X397150Y107414D01*
X396850Y106691D01*
Y105908D01*
X397150Y105184D01*
X397704Y104630D01*
X398427Y104331D01*
X399211D01*
X399934Y104630D01*
X400488Y105184D01*
X400787Y105908D01*
Y106691D01*
X400488Y107414D01*
X399934Y107968D01*
X399211Y108268D01*
D02*
G37*
G36*
X197300Y107435D02*
X196516D01*
X195793Y107135D01*
X195239Y106581D01*
X194939Y105858D01*
Y105075D01*
X195239Y104351D01*
X195793Y103797D01*
X196516Y103498D01*
X197300D01*
X198023Y103797D01*
X198577Y104351D01*
X198876Y105075D01*
Y105858D01*
X198577Y106581D01*
X198023Y107135D01*
X197300Y107435D01*
D02*
G37*
G36*
X531754Y109187D02*
X530757D01*
X529794Y108929D01*
X528930Y108431D01*
X528225Y107726D01*
X527727Y106862D01*
X527468Y105899D01*
Y104901D01*
X527727Y103938D01*
X528225Y103075D01*
X528930Y102369D01*
X529794Y101871D01*
X530757Y101613D01*
X531754D01*
X532718Y101871D01*
X533581Y102369D01*
X534287Y103075D01*
X534785Y103938D01*
X535043Y104901D01*
Y105899D01*
X534785Y106862D01*
X534287Y107726D01*
X533581Y108431D01*
X532718Y108929D01*
X531754Y109187D01*
D02*
G37*
G36*
X521755D02*
X520757D01*
X519794Y108929D01*
X518930Y108431D01*
X518225Y107726D01*
X517727Y106862D01*
X517469Y105899D01*
Y104901D01*
X517727Y103938D01*
X518225Y103075D01*
X518930Y102369D01*
X519794Y101871D01*
X520757Y101613D01*
X521755D01*
X522718Y101871D01*
X523581Y102369D01*
X524287Y103075D01*
X524785Y103938D01*
X525043Y104901D01*
Y105899D01*
X524785Y106862D01*
X524287Y107726D01*
X523581Y108431D01*
X522718Y108929D01*
X521755Y109187D01*
D02*
G37*
G36*
X56335Y103837D02*
X55552D01*
X54828Y103537D01*
X54274Y102984D01*
X53975Y102260D01*
Y101477D01*
X54274Y100753D01*
X54828Y100200D01*
X55552Y99900D01*
X56335D01*
X57058Y100200D01*
X57612Y100753D01*
X57912Y101477D01*
Y102260D01*
X57612Y102984D01*
X57058Y103537D01*
X56335Y103837D01*
D02*
G37*
G36*
X31462Y101575D02*
X30679D01*
X29956Y101275D01*
X29402Y100721D01*
X29102Y99998D01*
Y99215D01*
X29402Y98491D01*
X29956Y97938D01*
X30679Y97638D01*
X31462D01*
X32186Y97938D01*
X32740Y98491D01*
X33039Y99215D01*
Y99998D01*
X32740Y100721D01*
X32186Y101275D01*
X31462Y101575D01*
D02*
G37*
G36*
X278491Y99176D02*
X277708D01*
X276984Y98876D01*
X276431Y98322D01*
X276131Y97599D01*
Y96815D01*
X276431Y96092D01*
X276984Y95538D01*
X277708Y95239D01*
X278491D01*
X279214Y95538D01*
X279768Y96092D01*
X280068Y96815D01*
Y97599D01*
X279768Y98322D01*
X279214Y98876D01*
X278491Y99176D01*
D02*
G37*
G36*
X138792Y98369D02*
X138008D01*
X137285Y98069D01*
X136731Y97515D01*
X136432Y96792D01*
Y96008D01*
X136731Y95285D01*
X137285Y94731D01*
X138008Y94432D01*
X138792D01*
X139515Y94731D01*
X140069Y95285D01*
X140368Y96008D01*
Y96792D01*
X140069Y97515D01*
X139515Y98069D01*
X138792Y98369D01*
D02*
G37*
G36*
X393911Y96368D02*
X393127D01*
X392404Y96069D01*
X391850Y95515D01*
X391551Y94792D01*
Y94008D01*
X391850Y93285D01*
X392404Y92731D01*
X393127Y92431D01*
X393911D01*
X394634Y92731D01*
X395188Y93285D01*
X395488Y94008D01*
Y94792D01*
X395188Y95515D01*
X394634Y96069D01*
X393911Y96368D01*
D02*
G37*
G36*
X531754Y99187D02*
X530757D01*
X529794Y98929D01*
X528930Y98431D01*
X528225Y97725D01*
X527727Y96862D01*
X527468Y95899D01*
Y94901D01*
X527727Y93938D01*
X528225Y93075D01*
X528930Y92369D01*
X529794Y91871D01*
X530757Y91613D01*
X531754D01*
X532718Y91871D01*
X533581Y92369D01*
X534287Y93075D01*
X534785Y93938D01*
X535043Y94901D01*
Y95899D01*
X534785Y96862D01*
X534287Y97725D01*
X533581Y98431D01*
X532718Y98929D01*
X531754Y99187D01*
D02*
G37*
G36*
X521755D02*
X520757D01*
X519794Y98929D01*
X518930Y98431D01*
X518225Y97725D01*
X517727Y96862D01*
X517469Y95899D01*
Y94901D01*
X517727Y93938D01*
X518225Y93075D01*
X518930Y92369D01*
X519794Y91871D01*
X520757Y91613D01*
X521755D01*
X522718Y91871D01*
X523581Y92369D01*
X524287Y93075D01*
X524785Y93938D01*
X525043Y94901D01*
Y95899D01*
X524785Y96862D01*
X524287Y97725D01*
X523581Y98431D01*
X522718Y98929D01*
X521755Y99187D01*
D02*
G37*
G36*
X439762Y90622D02*
X438978D01*
X438255Y90322D01*
X437701Y89768D01*
X437402Y89045D01*
Y88262D01*
X437701Y87538D01*
X438255Y86984D01*
X438978Y86685D01*
X439762D01*
X440485Y86984D01*
X441039Y87538D01*
X441339Y88262D01*
Y89045D01*
X441039Y89768D01*
X440485Y90322D01*
X439762Y90622D01*
D02*
G37*
G36*
X532256Y89273D02*
Y86400D01*
X535129D01*
X534983Y86944D01*
X534457Y87856D01*
X533712Y88601D01*
X532800Y89127D01*
X532256Y89273D01*
D02*
G37*
G36*
X522256D02*
Y86400D01*
X525129D01*
X524983Y86944D01*
X524457Y87856D01*
X523712Y88601D01*
X522800Y89127D01*
X522256Y89273D01*
D02*
G37*
G36*
X530256D02*
X529712Y89127D01*
X528800Y88601D01*
X528055Y87856D01*
X527528Y86944D01*
X527383Y86400D01*
X530256D01*
Y89273D01*
D02*
G37*
G36*
X520256D02*
X519712Y89127D01*
X518800Y88601D01*
X518055Y87856D01*
X517528Y86944D01*
X517383Y86400D01*
X520256D01*
Y89273D01*
D02*
G37*
G36*
X321710Y89815D02*
X320927D01*
X320204Y89516D01*
X319650Y88962D01*
X319350Y88239D01*
Y87455D01*
X319650Y86732D01*
X320204Y86178D01*
X320927Y85878D01*
X321710D01*
X322434Y86178D01*
X322988Y86732D01*
X323287Y87455D01*
Y88239D01*
X322988Y88962D01*
X322434Y89516D01*
X321710Y89815D01*
D02*
G37*
G36*
X525129Y84400D02*
X522256D01*
Y81527D01*
X522800Y81673D01*
X523712Y82199D01*
X524457Y82944D01*
X524983Y83856D01*
X525129Y84400D01*
D02*
G37*
G36*
X535129D02*
X532256D01*
Y81527D01*
X532800Y81673D01*
X533712Y82199D01*
X534457Y82944D01*
X534983Y83856D01*
X535129Y84400D01*
D02*
G37*
G36*
X530256D02*
X527383D01*
X527528Y83856D01*
X528055Y82944D01*
X528800Y82199D01*
X529712Y81673D01*
X530256Y81527D01*
Y84400D01*
D02*
G37*
G36*
X520256D02*
X517383D01*
X517528Y83856D01*
X518055Y82944D01*
X518800Y82199D01*
X519712Y81673D01*
X520256Y81527D01*
Y84400D01*
D02*
G37*
G36*
X380006Y83950D02*
X379223D01*
X378500Y83650D01*
X377946Y83097D01*
X377646Y82373D01*
Y81590D01*
X377946Y80866D01*
X378500Y80313D01*
X379223Y80013D01*
X380006D01*
X380730Y80313D01*
X381284Y80866D01*
X381583Y81590D01*
Y82373D01*
X381284Y83097D01*
X380730Y83650D01*
X380006Y83950D01*
D02*
G37*
G36*
X469016Y82144D02*
X468233D01*
X467510Y81844D01*
X466956Y81290D01*
X466656Y80567D01*
Y79784D01*
X466956Y79060D01*
X467510Y78506D01*
X468233Y78207D01*
X469016D01*
X469740Y78506D01*
X470294Y79060D01*
X470593Y79784D01*
Y80567D01*
X470294Y81290D01*
X469740Y81844D01*
X469016Y82144D01*
D02*
G37*
G36*
X199654Y74598D02*
Y71672D01*
X202580D01*
X202429Y72236D01*
X201896Y73160D01*
X201142Y73914D01*
X200218Y74447D01*
X199654Y74598D01*
D02*
G37*
G36*
X197654D02*
X197091Y74447D01*
X196167Y73914D01*
X195413Y73160D01*
X194879Y72236D01*
X194728Y71672D01*
X197654D01*
Y74598D01*
D02*
G37*
G36*
X531754Y79187D02*
X530757D01*
X529794Y78929D01*
X528930Y78431D01*
X528225Y77725D01*
X527727Y76862D01*
X527468Y75899D01*
Y74901D01*
X527727Y73938D01*
X528225Y73075D01*
X528930Y72369D01*
X529794Y71871D01*
X530757Y71613D01*
X531754D01*
X532718Y71871D01*
X533581Y72369D01*
X534287Y73075D01*
X534785Y73938D01*
X535043Y74901D01*
Y75899D01*
X534785Y76862D01*
X534287Y77725D01*
X533581Y78431D01*
X532718Y78929D01*
X531754Y79187D01*
D02*
G37*
G36*
X521755D02*
X520757D01*
X519794Y78929D01*
X518930Y78431D01*
X518225Y77725D01*
X517727Y76862D01*
X517469Y75899D01*
Y74901D01*
X517727Y73938D01*
X518225Y73075D01*
X518930Y72369D01*
X519794Y71871D01*
X520757Y71613D01*
X521755D01*
X522718Y71871D01*
X523581Y72369D01*
X524287Y73075D01*
X524785Y73938D01*
X525043Y74901D01*
Y75899D01*
X524785Y76862D01*
X524287Y77725D01*
X523581Y78431D01*
X522718Y78929D01*
X521755Y79187D01*
D02*
G37*
G36*
X379554Y74449D02*
X378771D01*
X378047Y74150D01*
X377494Y73596D01*
X377194Y72872D01*
Y72089D01*
X377494Y71366D01*
X378047Y70812D01*
X378771Y70512D01*
X379554D01*
X380278Y70812D01*
X380831Y71366D01*
X381131Y72089D01*
Y72872D01*
X380831Y73596D01*
X380278Y74150D01*
X379554Y74449D01*
D02*
G37*
G36*
X302629Y72346D02*
X301963D01*
X301348Y72091D01*
X300877Y71620D01*
X300623Y71005D01*
Y70340D01*
X300877Y69725D01*
X301348Y69254D01*
X301963Y68999D01*
X302629D01*
X303244Y69254D01*
X303714Y69725D01*
X303969Y70340D01*
Y71005D01*
X303714Y71620D01*
X303244Y72091D01*
X302629Y72346D01*
D02*
G37*
G36*
X405537Y71091D02*
X404754D01*
X404031Y70791D01*
X403477Y70237D01*
X403177Y69514D01*
Y68730D01*
X403477Y68007D01*
X404031Y67453D01*
X404754Y67154D01*
X405537D01*
X406261Y67453D01*
X406814Y68007D01*
X407114Y68730D01*
Y69514D01*
X406814Y70237D01*
X406261Y70791D01*
X405537Y71091D01*
D02*
G37*
G36*
X189160Y74511D02*
X188149D01*
X187173Y74249D01*
X186297Y73744D01*
X185583Y73029D01*
X185077Y72154D01*
X184816Y71178D01*
Y70167D01*
X185077Y69191D01*
X185583Y68315D01*
X186297Y67601D01*
X187173Y67095D01*
X188149Y66834D01*
X189160D01*
X190136Y67095D01*
X191011Y67601D01*
X191726Y68315D01*
X192231Y69191D01*
X192493Y70167D01*
Y71178D01*
X192231Y72154D01*
X191726Y73029D01*
X191011Y73744D01*
X190136Y74249D01*
X189160Y74511D01*
D02*
G37*
G36*
X202580Y69672D02*
X199654D01*
Y66746D01*
X200218Y66897D01*
X201142Y67431D01*
X201896Y68185D01*
X202429Y69109D01*
X202580Y69672D01*
D02*
G37*
G36*
X197654D02*
X194728D01*
X194879Y69109D01*
X195413Y68185D01*
X196167Y67431D01*
X197091Y66897D01*
X197654Y66746D01*
Y69672D01*
D02*
G37*
G36*
X264506Y67014D02*
X263840D01*
X263225Y66760D01*
X262755Y66289D01*
X262500Y65674D01*
Y65008D01*
X262755Y64393D01*
X263225Y63923D01*
X263840Y63668D01*
X264506D01*
X265121Y63923D01*
X265592Y64393D01*
X265846Y65008D01*
Y65674D01*
X265592Y66289D01*
X265121Y66760D01*
X264506Y67014D01*
D02*
G37*
G36*
X531754Y69187D02*
X530757D01*
X529794Y68929D01*
X528930Y68431D01*
X528225Y67725D01*
X527727Y66862D01*
X527468Y65899D01*
Y64901D01*
X527727Y63938D01*
X528225Y63074D01*
X528930Y62369D01*
X529794Y61871D01*
X530757Y61613D01*
X531754D01*
X532718Y61871D01*
X533581Y62369D01*
X534287Y63074D01*
X534785Y63938D01*
X535043Y64901D01*
Y65899D01*
X534785Y66862D01*
X534287Y67725D01*
X533581Y68431D01*
X532718Y68929D01*
X531754Y69187D01*
D02*
G37*
G36*
X521755D02*
X520757D01*
X519794Y68929D01*
X518930Y68431D01*
X518225Y67725D01*
X517727Y66862D01*
X517469Y65899D01*
Y64901D01*
X517727Y63938D01*
X518225Y63074D01*
X518930Y62369D01*
X519794Y61871D01*
X520757Y61613D01*
X521755D01*
X522718Y61871D01*
X523581Y62369D01*
X524287Y63074D01*
X524785Y63938D01*
X525043Y64901D01*
Y65899D01*
X524785Y66862D01*
X524287Y67725D01*
X523581Y68431D01*
X522718Y68929D01*
X521755Y69187D01*
D02*
G37*
G36*
X397801Y64731D02*
X397018D01*
X396294Y64432D01*
X395741Y63878D01*
X395441Y63154D01*
Y62371D01*
X395741Y61648D01*
X396294Y61094D01*
X397018Y60794D01*
X397801D01*
X398524Y61094D01*
X399078Y61648D01*
X399378Y62371D01*
Y63154D01*
X399078Y63878D01*
X398524Y64432D01*
X397801Y64731D01*
D02*
G37*
G36*
X312962Y61316D02*
X312296D01*
X311681Y61062D01*
X311211Y60591D01*
X310956Y59976D01*
Y59310D01*
X311211Y58695D01*
X311681Y58224D01*
X312296Y57970D01*
X312962D01*
X313577Y58224D01*
X314048Y58695D01*
X314302Y59310D01*
Y59976D01*
X314048Y60591D01*
X313577Y61062D01*
X312962Y61316D01*
D02*
G37*
G36*
X264506Y59941D02*
X263840D01*
X263225Y59686D01*
X262755Y59215D01*
X262500Y58600D01*
Y57935D01*
X262755Y57320D01*
X263225Y56849D01*
X263840Y56595D01*
X264506D01*
X265121Y56849D01*
X265592Y57320D01*
X265846Y57935D01*
Y58600D01*
X265592Y59215D01*
X265121Y59686D01*
X264506Y59941D01*
D02*
G37*
G36*
X532256Y59273D02*
Y56400D01*
X535129D01*
X534983Y56944D01*
X534457Y57856D01*
X533712Y58601D01*
X532800Y59127D01*
X532256Y59273D01*
D02*
G37*
G36*
X522256D02*
Y56400D01*
X525129D01*
X524983Y56944D01*
X524457Y57856D01*
X523712Y58601D01*
X522800Y59127D01*
X522256Y59273D01*
D02*
G37*
G36*
X530256D02*
X529712Y59127D01*
X528800Y58601D01*
X528055Y57856D01*
X527528Y56944D01*
X527383Y56400D01*
X530256D01*
Y59273D01*
D02*
G37*
G36*
X520256D02*
X519712Y59127D01*
X518800Y58601D01*
X518055Y57856D01*
X517528Y56944D01*
X517383Y56400D01*
X520256D01*
Y59273D01*
D02*
G37*
G36*
X439762Y59745D02*
X438978D01*
X438255Y59445D01*
X437701Y58891D01*
X437402Y58168D01*
Y57385D01*
X437701Y56661D01*
X438255Y56107D01*
X438978Y55808D01*
X439762D01*
X440485Y56107D01*
X441039Y56661D01*
X441339Y57385D01*
Y58168D01*
X441039Y58891D01*
X440485Y59445D01*
X439762Y59745D01*
D02*
G37*
G36*
X397004Y58169D02*
X396220D01*
X395497Y57869D01*
X394943Y57315D01*
X394643Y56592D01*
Y55808D01*
X394943Y55085D01*
X395497Y54531D01*
X396220Y54232D01*
X397004D01*
X397727Y54531D01*
X398281Y55085D01*
X398581Y55808D01*
Y56592D01*
X398281Y57315D01*
X397727Y57869D01*
X397004Y58169D01*
D02*
G37*
G36*
X274407Y56108D02*
X273624D01*
X272901Y55808D01*
X272347Y55254D01*
X272047Y54531D01*
Y53747D01*
X272347Y53024D01*
X272901Y52470D01*
X273624Y52171D01*
X274407D01*
X275131Y52470D01*
X275685Y53024D01*
X275984Y53747D01*
Y54531D01*
X275685Y55254D01*
X275131Y55808D01*
X274407Y56108D01*
D02*
G37*
G36*
X525129Y54400D02*
X522256D01*
Y51527D01*
X522800Y51673D01*
X523712Y52199D01*
X524457Y52944D01*
X524983Y53856D01*
X525129Y54400D01*
D02*
G37*
G36*
X535129D02*
X532256D01*
Y51527D01*
X532800Y51673D01*
X533712Y52199D01*
X534457Y52944D01*
X534983Y53856D01*
X535129Y54400D01*
D02*
G37*
G36*
X530256D02*
X527383D01*
X527528Y53856D01*
X528055Y52944D01*
X528800Y52199D01*
X529712Y51673D01*
X530256Y51527D01*
Y54400D01*
D02*
G37*
G36*
X520256D02*
X517383D01*
X517528Y53856D01*
X518055Y52944D01*
X518800Y52199D01*
X519712Y51673D01*
X520256Y51527D01*
Y54400D01*
D02*
G37*
G36*
X47492Y51868D02*
X46708D01*
X45985Y51569D01*
X45431Y51015D01*
X45131Y50292D01*
Y49508D01*
X45431Y48785D01*
X45985Y48231D01*
X46708Y47932D01*
X47492D01*
X48215Y48231D01*
X48769Y48785D01*
X49068Y49508D01*
Y50292D01*
X48769Y51015D01*
X48215Y51569D01*
X47492Y51868D01*
D02*
G37*
G36*
X37492Y51669D02*
X36708D01*
X35985Y51369D01*
X35431Y50815D01*
X35131Y50092D01*
Y49308D01*
X35431Y48585D01*
X35985Y48031D01*
X36708Y47732D01*
X37492D01*
X38215Y48031D01*
X38769Y48585D01*
X39068Y49308D01*
Y50092D01*
X38769Y50815D01*
X38215Y51369D01*
X37492Y51669D01*
D02*
G37*
G36*
X388436Y48669D02*
X387652D01*
X386929Y48369D01*
X386375Y47815D01*
X386076Y47092D01*
Y46308D01*
X386375Y45585D01*
X386929Y45031D01*
X387652Y44732D01*
X388436D01*
X389159Y45031D01*
X389713Y45585D01*
X390013Y46308D01*
Y47092D01*
X389713Y47815D01*
X389159Y48369D01*
X388436Y48669D01*
D02*
G37*
G36*
X13792Y48268D02*
X13008D01*
X12285Y47969D01*
X11731Y47415D01*
X11432Y46692D01*
Y45908D01*
X11731Y45185D01*
X12285Y44631D01*
X13008Y44331D01*
X13792D01*
X14515Y44631D01*
X15069Y45185D01*
X15369Y45908D01*
Y46692D01*
X15069Y47415D01*
X14515Y47969D01*
X13792Y48268D01*
D02*
G37*
G36*
X439762Y45092D02*
X438978D01*
X438255Y44792D01*
X437701Y44239D01*
X437402Y43515D01*
Y42732D01*
X437701Y42009D01*
X438255Y41455D01*
X438978Y41155D01*
X439762D01*
X440485Y41455D01*
X441039Y42009D01*
X441339Y42732D01*
Y43515D01*
X441039Y44239D01*
X440485Y44792D01*
X439762Y45092D01*
D02*
G37*
G36*
X173578Y43307D02*
X172795D01*
X172072Y43007D01*
X171518Y42454D01*
X171218Y41730D01*
Y40947D01*
X171518Y40224D01*
X172072Y39670D01*
X172795Y39370D01*
X173578D01*
X174302Y39670D01*
X174855Y40224D01*
X175155Y40947D01*
Y41730D01*
X174855Y42454D01*
X174302Y43007D01*
X173578Y43307D01*
D02*
G37*
G36*
X211415Y42520D02*
X210632D01*
X209909Y42220D01*
X209355Y41666D01*
X209055Y40943D01*
Y40160D01*
X209355Y39436D01*
X209909Y38882D01*
X210632Y38583D01*
X211415D01*
X212139Y38882D01*
X212692Y39436D01*
X212992Y40160D01*
Y40943D01*
X212692Y41666D01*
X212139Y42220D01*
X211415Y42520D01*
D02*
G37*
G36*
X322832Y42176D02*
X322049D01*
X321326Y41877D01*
X320772Y41323D01*
X320472Y40599D01*
Y39816D01*
X320772Y39093D01*
X321326Y38539D01*
X322049Y38239D01*
X322832D01*
X323556Y38539D01*
X324110Y39093D01*
X324409Y39816D01*
Y40599D01*
X324110Y41323D01*
X323556Y41877D01*
X322832Y42176D01*
D02*
G37*
G36*
X378670Y36496D02*
X377887D01*
X377163Y36197D01*
X376609Y35643D01*
X376310Y34919D01*
Y34136D01*
X376609Y33413D01*
X377163Y32859D01*
X377887Y32559D01*
X378670D01*
X379393Y32859D01*
X379947Y33413D01*
X380247Y34136D01*
Y34919D01*
X379947Y35643D01*
X379393Y36197D01*
X378670Y36496D01*
D02*
G37*
G36*
X469659Y34967D02*
X468876D01*
X468152Y34667D01*
X467598Y34113D01*
X467299Y33390D01*
Y32607D01*
X467598Y31883D01*
X468152Y31330D01*
X468876Y31030D01*
X469659D01*
X470382Y31330D01*
X470936Y31883D01*
X471236Y32607D01*
Y33390D01*
X470936Y34113D01*
X470382Y34667D01*
X469659Y34967D01*
D02*
G37*
G36*
X396343Y29587D02*
X395560D01*
X394836Y29287D01*
X394282Y28733D01*
X393983Y28010D01*
Y27226D01*
X394282Y26503D01*
X394836Y25949D01*
X395560Y25650D01*
X396343D01*
X397066Y25949D01*
X397620Y26503D01*
X397920Y27226D01*
Y28010D01*
X397620Y28733D01*
X397066Y29287D01*
X396343Y29587D01*
D02*
G37*
G36*
X378468Y28220D02*
X377684D01*
X376961Y27920D01*
X376407Y27367D01*
X376108Y26643D01*
Y25860D01*
X376407Y25137D01*
X376961Y24583D01*
X377684Y24283D01*
X378468D01*
X379191Y24583D01*
X379745Y25137D01*
X380045Y25860D01*
Y26643D01*
X379745Y27367D01*
X379191Y27920D01*
X378468Y28220D01*
D02*
G37*
G36*
X304095Y24158D02*
X303429D01*
X302814Y23903D01*
X302343Y23432D01*
X302089Y22817D01*
Y22151D01*
X302343Y21536D01*
X302814Y21066D01*
X303429Y20811D01*
X304095D01*
X304710Y21066D01*
X305180Y21536D01*
X305435Y22151D01*
Y22817D01*
X305180Y23432D01*
X304710Y23903D01*
X304095Y24158D01*
D02*
G37*
G36*
X405034Y23893D02*
X404251D01*
X403527Y23593D01*
X402974Y23040D01*
X402674Y22316D01*
Y21533D01*
X402974Y20809D01*
X403527Y20256D01*
X404251Y19956D01*
X405034D01*
X405758Y20256D01*
X406311Y20809D01*
X406611Y21533D01*
Y22316D01*
X406311Y23040D01*
X405758Y23593D01*
X405034Y23893D01*
D02*
G37*
G36*
X157735Y23305D02*
X156952D01*
X156228Y23006D01*
X155675Y22452D01*
X155375Y21729D01*
Y20945D01*
X155675Y20222D01*
X156228Y19668D01*
X156952Y19368D01*
X157735D01*
X158458Y19668D01*
X159012Y20222D01*
X159312Y20945D01*
Y21729D01*
X159012Y22452D01*
X158458Y23006D01*
X157735Y23305D01*
D02*
G37*
G36*
X76329Y23025D02*
X75546D01*
X74822Y22726D01*
X74269Y22172D01*
X73969Y21448D01*
Y20665D01*
X74269Y19942D01*
X74822Y19388D01*
X75546Y19088D01*
X76329D01*
X77052Y19388D01*
X77606Y19942D01*
X77906Y20665D01*
Y21448D01*
X77606Y22172D01*
X77052Y22726D01*
X76329Y23025D01*
D02*
G37*
G36*
X469659Y18016D02*
X468876D01*
X468152Y17716D01*
X467598Y17162D01*
X467299Y16439D01*
Y15656D01*
X467598Y14932D01*
X468152Y14378D01*
X468876Y14079D01*
X469659D01*
X470382Y14378D01*
X470936Y14932D01*
X471236Y15656D01*
Y16439D01*
X470936Y17162D01*
X470382Y17716D01*
X469659Y18016D01*
D02*
G37*
G36*
X540337Y28180D02*
X538863D01*
X537418Y27893D01*
X536057Y27329D01*
X534832Y26510D01*
X533790Y25468D01*
X532971Y24243D01*
X532407Y22882D01*
X532120Y21437D01*
Y19963D01*
X532407Y18518D01*
X532971Y17157D01*
X533790Y15932D01*
X534832Y14890D01*
X536057Y14071D01*
X537418Y13507D01*
X538863Y13220D01*
X540337D01*
X541782Y13507D01*
X543143Y14071D01*
X544368Y14890D01*
X545410Y15932D01*
X546229Y17157D01*
X546793Y18518D01*
X547080Y19963D01*
Y21437D01*
X546793Y22882D01*
X546229Y24243D01*
X545410Y25468D01*
X544368Y26510D01*
X543143Y27329D01*
X541782Y27893D01*
X540337Y28180D01*
D02*
G37*
G36*
X313719Y13484D02*
X313053D01*
X312438Y13229D01*
X311967Y12759D01*
X311713Y12144D01*
Y11478D01*
X311967Y10863D01*
X312438Y10392D01*
X313053Y10138D01*
X313719D01*
X314334Y10392D01*
X314804Y10863D01*
X315059Y11478D01*
Y12144D01*
X314804Y12759D01*
X314334Y13229D01*
X313719Y13484D01*
D02*
G37*
G36*
X439762Y13063D02*
X438978D01*
X438255Y12763D01*
X437701Y12210D01*
X437402Y11486D01*
Y10703D01*
X437701Y9979D01*
X438255Y9426D01*
X438978Y9126D01*
X439762D01*
X440485Y9426D01*
X441039Y9979D01*
X441339Y10703D01*
Y11486D01*
X441039Y12210D01*
X440485Y12763D01*
X439762Y13063D01*
D02*
G37*
G36*
X292713Y12687D02*
X291930D01*
X291207Y12388D01*
X290653Y11834D01*
X290353Y11110D01*
Y10327D01*
X290653Y9604D01*
X291207Y9050D01*
X291930Y8750D01*
X292713D01*
X293437Y9050D01*
X293990Y9604D01*
X294290Y10327D01*
Y11110D01*
X293990Y11834D01*
X293437Y12388D01*
X292713Y12687D01*
D02*
G37*
%LPD*%
D97*
X531256Y85400D02*
D03*
Y115400D02*
D03*
Y55400D02*
D03*
X521256Y115400D02*
D03*
Y85400D02*
D03*
Y55400D02*
D03*
D98*
X198654Y70672D02*
D03*
D100*
X303150Y370700D02*
D03*
X292730Y78926D02*
D03*
X383400Y35337D02*
D03*
X177876Y270939D02*
D03*
X178104Y251254D02*
D03*
X190117Y261024D02*
D03*
X303937Y224527D02*
D03*
X323560Y360159D02*
D03*
X319332Y209058D02*
D03*
X323560Y344676D02*
D03*
X400967Y44200D02*
D03*
X268700Y24200D02*
D03*
X279597Y268382D02*
D03*
X518379Y28992D02*
D03*
X453492Y103712D02*
D03*
X400607Y64786D02*
D03*
X56499Y57165D02*
D03*
X23950Y70290D02*
D03*
X320541Y7299D02*
D03*
X374410Y10701D02*
D03*
X213705Y65341D02*
D03*
X205512Y32677D02*
D03*
X218786Y44094D02*
D03*
X541732Y328160D02*
D03*
X510630Y318003D02*
D03*
X524035Y319891D02*
D03*
X481605Y45700D02*
D03*
X481642Y56453D02*
D03*
X488583Y64000D02*
D03*
Y70500D02*
D03*
X540800Y294882D02*
D03*
X525591Y292150D02*
D03*
X521260Y330150D02*
D03*
X511811Y329921D02*
D03*
X533997Y358825D02*
D03*
X469086Y378246D02*
D03*
X459242Y351575D02*
D03*
X477064Y364005D02*
D03*
X471890D02*
D03*
X467350Y329317D02*
D03*
X475494Y314891D02*
D03*
X470130Y314864D02*
D03*
X457518Y301969D02*
D03*
X466504Y278253D02*
D03*
X474838Y263664D02*
D03*
X469474D02*
D03*
X456898Y250787D02*
D03*
X466928Y230317D02*
D03*
X475494Y215891D02*
D03*
X470130D02*
D03*
X457482Y203543D02*
D03*
X464495Y179605D02*
D03*
X472829Y165600D02*
D03*
X467465D02*
D03*
X455033Y152756D02*
D03*
X463154Y131757D02*
D03*
X471226Y117304D02*
D03*
X466082D02*
D03*
X460996Y81711D02*
D03*
X469562Y67050D02*
D03*
X464198Y67023D02*
D03*
X451765Y54376D02*
D03*
X460996Y34795D02*
D03*
X469267Y20700D02*
D03*
X463903D02*
D03*
X400277Y18105D02*
D03*
X384646Y41192D02*
D03*
X401262Y88976D02*
D03*
X385578Y81711D02*
D03*
Y87874D02*
D03*
X402238Y116142D02*
D03*
X386962Y132162D02*
D03*
Y138021D02*
D03*
X403146Y138938D02*
D03*
X388338Y185868D02*
D03*
Y180010D02*
D03*
X403861Y164742D02*
D03*
X404529Y186657D02*
D03*
X406471Y214900D02*
D03*
X391387Y230860D02*
D03*
X391236Y236586D02*
D03*
X407194Y237795D02*
D03*
X405914Y263002D02*
D03*
X390551Y278660D02*
D03*
Y284418D02*
D03*
X406471Y285433D02*
D03*
X406526Y314030D02*
D03*
X391387Y329453D02*
D03*
Y335581D02*
D03*
X407127Y336614D02*
D03*
X408330Y362958D02*
D03*
X408954Y385781D02*
D03*
X392913Y378788D02*
D03*
Y384509D02*
D03*
X382327Y354034D02*
D03*
X380503Y305105D02*
D03*
X380146Y253906D02*
D03*
X380503Y206105D02*
D03*
X378231Y155496D02*
D03*
X376395Y107768D02*
D03*
X374847Y57264D02*
D03*
X305185Y321378D02*
D03*
X322979Y323158D02*
D03*
X323347Y310744D02*
D03*
X322760Y295355D02*
D03*
X270385Y274463D02*
D03*
X292682Y270248D02*
D03*
X304882Y272553D02*
D03*
X322782Y274691D02*
D03*
X319132Y258532D02*
D03*
X322979Y246843D02*
D03*
X272977Y225396D02*
D03*
X281100Y218555D02*
D03*
X292894Y221858D02*
D03*
X322782Y226601D02*
D03*
Y198496D02*
D03*
X290795Y174178D02*
D03*
X303006Y175935D02*
D03*
X277982Y122709D02*
D03*
X268155Y129478D02*
D03*
X290535Y126480D02*
D03*
X301927Y128353D02*
D03*
X320747Y130453D02*
D03*
X320368Y102650D02*
D03*
X279100Y74064D02*
D03*
X269421Y80684D02*
D03*
X290795Y30438D02*
D03*
X303680Y80566D02*
D03*
X320747Y82328D02*
D03*
X320995Y34572D02*
D03*
X303267Y32104D02*
D03*
X277311Y26784D02*
D03*
X320995Y21925D02*
D03*
X-20435Y127779D02*
D03*
X269677Y313386D02*
D03*
Y176657D02*
D03*
X320995Y55068D02*
D03*
X321215Y69589D02*
D03*
X320747Y117850D02*
D03*
X321877Y178636D02*
D03*
X321524Y165698D02*
D03*
X321332Y150498D02*
D03*
X277409Y169380D02*
D03*
X322418Y372663D02*
D03*
X267426Y362992D02*
D03*
X275444Y361036D02*
D03*
X292921Y318962D02*
D03*
X276169Y312270D02*
D03*
X178432Y360130D02*
D03*
X168732Y360335D02*
D03*
X155478Y344094D02*
D03*
X17182Y309893D02*
D03*
X55693Y333601D02*
D03*
X71623Y334741D02*
D03*
X88181Y324371D02*
D03*
X130420Y330360D02*
D03*
X218898Y291597D02*
D03*
X212598Y284646D02*
D03*
Y243380D02*
D03*
X191204Y251147D02*
D03*
X189020Y230947D02*
D03*
X176569Y232565D02*
D03*
X214460Y166810D02*
D03*
X225984Y178924D02*
D03*
X192073Y159126D02*
D03*
X203271Y148893D02*
D03*
X191625Y139152D02*
D03*
X171443Y71542D02*
D03*
X184584Y30042D02*
D03*
X118884Y37242D02*
D03*
Y25984D02*
D03*
X64041Y23070D02*
D03*
X80044Y27660D02*
D03*
X99875Y34968D02*
D03*
X66412Y118245D02*
D03*
X34135D02*
D03*
X19999Y95074D02*
D03*
X60592Y96934D02*
D03*
X80206Y67323D02*
D03*
X220239Y105466D02*
D03*
X71381Y139460D02*
D03*
X174320Y377801D02*
D03*
X178432Y348534D02*
D03*
X194991Y340501D02*
D03*
X451255Y7695D02*
D03*
X-41003Y223622D02*
D03*
X293678Y368729D02*
D03*
X-41292Y232914D02*
D03*
X-40962Y204724D02*
D03*
X-41075Y214173D02*
D03*
X-40962Y242520D02*
D03*
Y248738D02*
D03*
Y255118D02*
D03*
Y261417D02*
D03*
Y264500D02*
D03*
Y135659D02*
D03*
Y144882D02*
D03*
Y154331D02*
D03*
Y163779D02*
D03*
Y173228D02*
D03*
Y182677D02*
D03*
D102*
X57814Y230842D02*
D03*
X39649D02*
D03*
X23154Y230677D02*
D03*
M02*
