G04*
G04 #@! TF.GenerationSoftware,Altium Limited,Altium Designer,22.2.1 (43)*
G04*
G04 Layer_Color=16711935*
%FSLAX25Y25*%
%MOIN*%
G70*
G04*
G04 #@! TF.SameCoordinates,A456A3B1-F1F6-43AC-97E8-2F09191D0533*
G04*
G04*
G04 #@! TF.FilePolarity,Negative*
G04*
G01*
G75*
%ADD79R,0.11417X0.02559*%
%ADD85R,0.06312X0.06312*%
%ADD86C,0.06312*%
%ADD87C,0.13595*%
%ADD88C,0.10249*%
%ADD89C,0.06600*%
%ADD90C,0.13005*%
%ADD91C,0.03162*%
D79*
X-49000Y264567D02*
D03*
Y261417D02*
D03*
Y258268D02*
D03*
Y255118D02*
D03*
Y251969D02*
D03*
Y248819D02*
D03*
Y245669D02*
D03*
Y242520D02*
D03*
Y233071D02*
D03*
Y229921D02*
D03*
Y226772D02*
D03*
Y223622D02*
D03*
Y220472D02*
D03*
Y217323D02*
D03*
Y214173D02*
D03*
Y211024D02*
D03*
Y207874D02*
D03*
Y204724D02*
D03*
Y201575D02*
D03*
Y198425D02*
D03*
Y182677D02*
D03*
Y179528D02*
D03*
Y176378D02*
D03*
Y173228D02*
D03*
Y170079D02*
D03*
Y166929D02*
D03*
Y163779D02*
D03*
Y160630D02*
D03*
Y157480D02*
D03*
Y154331D02*
D03*
Y151181D02*
D03*
Y148031D02*
D03*
Y144882D02*
D03*
Y141732D02*
D03*
Y138583D02*
D03*
Y135433D02*
D03*
Y132283D02*
D03*
Y129134D02*
D03*
Y239370D02*
D03*
Y236221D02*
D03*
D85*
X534000Y189600D02*
D03*
Y251600D02*
D03*
D86*
X527000Y185600D02*
D03*
X534000Y181600D02*
D03*
X527000Y177600D02*
D03*
X534000Y173600D02*
D03*
X527000Y169600D02*
D03*
X534000Y165600D02*
D03*
X527000Y161600D02*
D03*
Y223600D02*
D03*
X534000Y227600D02*
D03*
X527000Y231600D02*
D03*
X534000Y235600D02*
D03*
X527000Y239600D02*
D03*
X534000Y243600D02*
D03*
X527000Y247600D02*
D03*
D87*
X544000Y150600D02*
D03*
Y262600D02*
D03*
D88*
X530500Y143600D02*
D03*
Y269600D02*
D03*
D89*
X517500Y75400D02*
D03*
Y85400D02*
D03*
Y95400D02*
D03*
Y105400D02*
D03*
Y115400D02*
D03*
Y125400D02*
D03*
Y65400D02*
D03*
Y55400D02*
D03*
X507500Y125400D02*
D03*
Y115400D02*
D03*
Y105400D02*
D03*
Y95400D02*
D03*
Y85400D02*
D03*
Y75400D02*
D03*
Y65400D02*
D03*
Y55400D02*
D03*
D90*
X539600Y20700D02*
D03*
X540400Y375300D02*
D03*
D91*
X448687Y14100D02*
D03*
X468330Y19507D02*
D03*
X462465D02*
D03*
X461381Y34410D02*
D03*
X449531Y65400D02*
D03*
X469267Y70450D02*
D03*
X462919Y69254D02*
D03*
X463381Y85400D02*
D03*
X450018Y114400D02*
D03*
X462859Y118128D02*
D03*
X468330Y118806D02*
D03*
X463381Y134817D02*
D03*
X448900Y162515D02*
D03*
X467940Y167418D02*
D03*
X461943Y167608D02*
D03*
X462153Y183417D02*
D03*
X448900Y210400D02*
D03*
X466743Y213628D02*
D03*
X461779D02*
D03*
Y230317D02*
D03*
X448431Y257400D02*
D03*
X461779Y261428D02*
D03*
X466743D02*
D03*
X461289Y278117D02*
D03*
X449087Y309083D02*
D03*
X462603Y312447D02*
D03*
X468128Y312628D02*
D03*
X462603Y329317D02*
D03*
X450517Y358400D02*
D03*
X463891Y361556D02*
D03*
X469478D02*
D03*
X464100Y378246D02*
D03*
X403128Y362436D02*
D03*
X403530Y386281D02*
D03*
X384049Y379115D02*
D03*
X384169Y385783D02*
D03*
X401156Y313508D02*
D03*
X401414Y338700D02*
D03*
X383144Y330212D02*
D03*
X383800Y335715D02*
D03*
X400312Y262052D02*
D03*
X383144Y279811D02*
D03*
Y285347D02*
D03*
X400711Y287086D02*
D03*
X383144Y237856D02*
D03*
Y232856D02*
D03*
X401366Y214061D02*
D03*
X401500Y239500D02*
D03*
X401414Y191452D02*
D03*
X383144Y190612D02*
D03*
Y185640D02*
D03*
X401414Y167418D02*
D03*
X402345Y118806D02*
D03*
Y144700D02*
D03*
X383800Y136952D02*
D03*
Y141849D02*
D03*
X402289Y93731D02*
D03*
X383800Y87168D02*
D03*
Y92300D02*
D03*
X402289Y69254D02*
D03*
X401014Y18682D02*
D03*
X400900Y44200D02*
D03*
X383400Y41058D02*
D03*
X383300Y34930D02*
D03*
X360460Y364229D02*
D03*
X371700Y200600D02*
D03*
X364400Y209400D02*
D03*
X358846Y216301D02*
D03*
X352400Y209400D02*
D03*
X364400Y233675D02*
D03*
X358700Y228457D02*
D03*
X352623Y234525D02*
D03*
X363704Y281712D02*
D03*
X351358Y282325D02*
D03*
X358044Y276890D02*
D03*
X370977Y248026D02*
D03*
X364000Y257400D02*
D03*
X358190Y262889D02*
D03*
X351744Y256591D02*
D03*
X364253Y187456D02*
D03*
X352234D02*
D03*
X358700Y181917D02*
D03*
X371633Y153965D02*
D03*
X365185Y162515D02*
D03*
X358846Y169100D02*
D03*
X352013Y162515D02*
D03*
X365332Y138156D02*
D03*
X359631Y133048D02*
D03*
X353331Y138156D02*
D03*
X372607Y105478D02*
D03*
X365291Y114400D02*
D03*
X359672Y120041D02*
D03*
X353554Y113500D02*
D03*
X365291Y89112D02*
D03*
X353554Y89456D02*
D03*
X359631Y84430D02*
D03*
X372706Y56677D02*
D03*
X365659Y64900D02*
D03*
X359778Y71341D02*
D03*
X353331Y66000D02*
D03*
X352000Y37916D02*
D03*
X358300Y33349D02*
D03*
X364300Y39002D02*
D03*
X376100Y10583D02*
D03*
X364300Y15000D02*
D03*
X358340Y11659D02*
D03*
X351500Y14100D02*
D03*
X517900Y384643D02*
D03*
X513984Y380687D02*
D03*
X485635Y70450D02*
D03*
X485535Y64050D02*
D03*
X480500Y56453D02*
D03*
X479900Y45700D02*
D03*
X518379Y32322D02*
D03*
X540500Y296000D02*
D03*
X522534Y292150D02*
D03*
X531500Y323800D02*
D03*
X506906Y318156D02*
D03*
X533997Y361245D02*
D03*
X540400Y330150D02*
D03*
X520000Y330010D02*
D03*
X509200Y330150D02*
D03*
X371633Y300473D02*
D03*
X364400Y307900D02*
D03*
X358700Y314656D02*
D03*
X352234Y309083D02*
D03*
X364400Y332438D02*
D03*
X358846Y327457D02*
D03*
X352013Y333265D02*
D03*
X366160Y381671D02*
D03*
X360607Y376130D02*
D03*
X353774Y380749D02*
D03*
X366059Y356744D02*
D03*
X373993Y348741D02*
D03*
X353774Y357591D02*
D03*
X327266Y153965D02*
D03*
X327153Y169244D02*
D03*
X279154Y182733D02*
D03*
X271054Y175300D02*
D03*
X327153Y120041D02*
D03*
X326605Y105478D02*
D03*
X279446Y134829D02*
D03*
X275100Y120956D02*
D03*
X328169Y56300D02*
D03*
X328873Y71341D02*
D03*
X280469Y85012D02*
D03*
X267543Y72300D02*
D03*
X327559Y8714D02*
D03*
X329600Y21389D02*
D03*
X267040Y22656D02*
D03*
X281046Y34930D02*
D03*
X162123Y72112D02*
D03*
X230921Y234856D02*
D03*
X236794Y252201D02*
D03*
X214358Y255900D02*
D03*
X237141Y273641D02*
D03*
X143400Y356900D02*
D03*
Y368000D02*
D03*
X116600Y357600D02*
D03*
X103049Y364065D02*
D03*
X194260Y352277D02*
D03*
X176240Y368172D02*
D03*
X-41292Y232914D02*
D03*
X-40962Y204724D02*
D03*
X-41075Y214173D02*
D03*
Y223188D02*
D03*
X-40962Y242520D02*
D03*
Y248738D02*
D03*
Y255118D02*
D03*
Y261417D02*
D03*
Y264500D02*
D03*
X-25006Y129717D02*
D03*
X-40962Y135659D02*
D03*
Y144882D02*
D03*
Y154331D02*
D03*
Y163779D02*
D03*
Y173228D02*
D03*
Y182677D02*
D03*
X212900Y163400D02*
D03*
X179695Y171803D02*
D03*
X146200Y115035D02*
D03*
X158201Y107268D02*
D03*
X177414Y132395D02*
D03*
X173179D02*
D03*
X178000Y165275D02*
D03*
X172143Y161000D02*
D03*
X245426Y221859D02*
D03*
X249923Y236884D02*
D03*
X329142Y346000D02*
D03*
X327559Y361342D02*
D03*
X267008Y359461D02*
D03*
X279946Y374429D02*
D03*
X326986Y298700D02*
D03*
X328623Y313705D02*
D03*
X271554Y318823D02*
D03*
X279946Y328633D02*
D03*
X247200Y285600D02*
D03*
X242206Y214616D02*
D03*
X252143Y224182D02*
D03*
X327266Y216741D02*
D03*
X327559Y201400D02*
D03*
X271554Y222700D02*
D03*
X279946Y230929D02*
D03*
X280746Y279600D02*
D03*
X272354Y272571D02*
D03*
X328059Y249994D02*
D03*
X327559Y264823D02*
D03*
X517900Y378600D02*
D03*
X326788Y84761D02*
D03*
X308501Y79523D02*
D03*
X297128Y79841D02*
D03*
X326019Y132644D02*
D03*
X307156Y128313D02*
D03*
X295853Y128764D02*
D03*
X326070Y182733D02*
D03*
X306355Y177364D02*
D03*
X294979Y178417D02*
D03*
X326501Y230732D02*
D03*
X307271Y225057D02*
D03*
X295746Y225317D02*
D03*
X296513Y273707D02*
D03*
X327355Y278721D02*
D03*
X307849Y273300D02*
D03*
X325481Y326830D02*
D03*
X307281Y321880D02*
D03*
X295813Y322141D02*
D03*
X328059Y374429D02*
D03*
X307981Y369394D02*
D03*
X297113D02*
D03*
X326797Y36529D02*
D03*
X307581Y29794D02*
D03*
X296113Y30333D02*
D03*
X514800Y308100D02*
D03*
X31491Y106500D02*
D03*
X14232Y97752D02*
D03*
X524044Y306726D02*
D03*
X469365Y355851D02*
D03*
X470564Y348741D02*
D03*
X519721Y354939D02*
D03*
X526100Y358800D02*
D03*
X11000Y361400D02*
D03*
X6800Y362000D02*
D03*
X469267Y16047D02*
D03*
X376200Y384905D02*
D03*
X267534Y36529D02*
D03*
X267543Y54592D02*
D03*
X267028Y17002D02*
D03*
X302185Y8473D02*
D03*
X269500Y9000D02*
D03*
X184800Y92800D02*
D03*
X291900Y47300D02*
D03*
X392581Y12400D02*
D03*
X169740Y99900D02*
D03*
X178223D02*
D03*
X397416Y40602D02*
D03*
X405000Y23913D02*
D03*
X397083Y27618D02*
D03*
X406000Y75109D02*
D03*
X397209Y92094D02*
D03*
X397083Y78982D02*
D03*
X406000Y124231D02*
D03*
X398106Y142200D02*
D03*
X397199Y128043D02*
D03*
X405000Y172923D02*
D03*
X396060Y190300D02*
D03*
X397082Y176627D02*
D03*
Y223758D02*
D03*
X396060Y237700D02*
D03*
X405000Y219633D02*
D03*
Y267236D02*
D03*
X396060Y285347D02*
D03*
X397082Y271558D02*
D03*
X405000Y318859D02*
D03*
X397450Y335715D02*
D03*
Y322947D02*
D03*
X398106Y371510D02*
D03*
X407000Y368094D02*
D03*
X398106Y385783D02*
D03*
X464100Y351100D02*
D03*
X503700Y352600D02*
D03*
X508300Y359200D02*
D03*
X469365Y376359D02*
D03*
X467943Y328016D02*
D03*
X466533Y276200D02*
D03*
X466533Y228817D02*
D03*
X467758Y181531D02*
D03*
X467940Y132931D02*
D03*
X468874Y83836D02*
D03*
X468330Y33494D02*
D03*
X439586Y309344D02*
D03*
X437900Y259611D02*
D03*
Y212911D02*
D03*
X437569Y164111D02*
D03*
X439586Y359581D02*
D03*
X437300Y113500D02*
D03*
Y75322D02*
D03*
X442975Y354546D02*
D03*
X441768Y305617D02*
D03*
X439586Y254811D02*
D03*
X440586Y207011D02*
D03*
X441501Y159717D02*
D03*
X442432Y111511D02*
D03*
Y61996D02*
D03*
X437300Y63416D02*
D03*
Y23223D02*
D03*
X441800Y11095D02*
D03*
X437300D02*
D03*
Y4100D02*
D03*
X376100Y16000D02*
D03*
X377100Y66912D02*
D03*
Y116400D02*
D03*
X376200Y164633D02*
D03*
X376200Y211617D02*
D03*
X376200Y259417D02*
D03*
Y310617D02*
D03*
X369107Y359400D02*
D03*
X346400Y382100D02*
D03*
X152151Y101993D02*
D03*
X161877D02*
D03*
X327559Y40208D02*
D03*
Y89456D02*
D03*
X326797Y138156D02*
D03*
X327266Y187661D02*
D03*
Y234856D02*
D03*
X327355Y283924D02*
D03*
Y331821D02*
D03*
X329142Y379602D02*
D03*
X300704Y346300D02*
D03*
Y298292D02*
D03*
X301885Y250591D02*
D03*
X302185Y56300D02*
D03*
X300265Y104841D02*
D03*
X302185Y201700D02*
D03*
X300265Y155473D02*
D03*
X272354Y351259D02*
D03*
X271554Y304677D02*
D03*
X272254Y256091D02*
D03*
X272200Y207677D02*
D03*
X271054Y160361D02*
D03*
X267028Y115420D02*
D03*
X268481Y66744D02*
D03*
X-28400Y121800D02*
D03*
X-24969D02*
D03*
X-28400Y124700D02*
D03*
X12500Y90900D02*
D03*
X16100Y92300D02*
D03*
X17100Y96200D02*
D03*
X13103Y94900D02*
D03*
X-39664Y258268D02*
D03*
X115400Y30693D02*
D03*
Y34700D02*
D03*
X50800Y40300D02*
D03*
Y35200D02*
D03*
X5900Y135433D02*
D03*
X59518Y113659D02*
D03*
X103049Y320053D02*
D03*
X9361Y132283D02*
D03*
X-21331Y127079D02*
D03*
X227803Y214660D02*
D03*
X166902Y175900D02*
D03*
X230921Y221600D02*
D03*
X235575Y235141D02*
D03*
X236794Y255900D02*
D03*
X248859Y242681D02*
D03*
Y248026D02*
D03*
X252919Y263774D02*
D03*
X248859Y277214D02*
D03*
X225842Y278721D02*
D03*
X146200Y101993D02*
D03*
X155326Y161000D02*
D03*
X180845Y137528D02*
D03*
X64555Y12232D02*
D03*
X239201Y115420D02*
D03*
X239352Y144115D02*
D03*
X238500Y167000D02*
D03*
X239352Y190417D02*
D03*
X188100Y106438D02*
D03*
X190964Y152514D02*
D03*
X191500Y174400D02*
D03*
X192443Y197600D02*
D03*
X191078Y123184D02*
D03*
X13300Y33900D02*
D03*
X54700Y40300D02*
D03*
X172143Y54592D02*
D03*
X55768Y94900D02*
D03*
X20358Y138583D02*
D03*
X9495Y105435D02*
D03*
X78900Y368817D02*
D03*
X79000Y377300D02*
D03*
X6800Y365464D02*
D03*
X165100Y11800D02*
D03*
X120000Y31480D02*
D03*
X23620Y94900D02*
D03*
X62059Y122080D02*
D03*
X26600Y106700D02*
D03*
X-31135Y166929D02*
D03*
X-30664Y176378D02*
D03*
X-31368Y179528D02*
D03*
X312854Y348073D02*
D03*
X181725Y216705D02*
D03*
Y213843D02*
D03*
X119024Y216124D02*
D03*
X117000Y214100D02*
D03*
X183796Y228963D02*
D03*
Y226101D02*
D03*
X103500Y230609D02*
D03*
Y227747D02*
D03*
X183343Y238581D02*
D03*
Y235719D02*
D03*
X94461Y238581D02*
D03*
Y235719D02*
D03*
X180214Y246481D02*
D03*
Y243619D02*
D03*
X86861Y246481D02*
D03*
Y243619D02*
D03*
X-1800Y195800D02*
D03*
X-1481Y199134D02*
D03*
X-16845Y217323D02*
D03*
X-14821Y219347D02*
D03*
X179752Y270666D02*
D03*
X182713Y280881D02*
D03*
X180476Y278176D02*
D03*
X-33900Y225100D02*
D03*
X-34773Y227826D02*
D03*
X179819Y259962D02*
D03*
X179930Y256989D02*
D03*
X179695Y266817D02*
D03*
X182974Y286670D02*
D03*
Y289533D02*
D03*
X9796Y229791D02*
D03*
X11820Y227767D02*
D03*
X1790Y233912D02*
D03*
X3814Y231888D02*
D03*
X312869Y8473D02*
D03*
X313154Y58600D02*
D03*
X311854Y106773D02*
D03*
X311554Y156073D02*
D03*
X312254Y204114D02*
D03*
Y248026D02*
D03*
X312054Y300473D02*
D03*
X303085Y312217D02*
D03*
X255100Y311800D02*
D03*
X305955Y266547D02*
D03*
X255823Y261035D02*
D03*
X254700Y218012D02*
D03*
X304755D02*
D03*
X263477Y242300D02*
D03*
X214100Y204000D02*
D03*
X303485Y170123D02*
D03*
X222900Y201700D02*
D03*
X220000Y202200D02*
D03*
X217100Y202077D02*
D03*
X217600Y126600D02*
D03*
X220100Y90900D02*
D03*
X253700Y24790D02*
D03*
X250175Y154048D02*
D03*
X261500Y298400D02*
D03*
X259600Y179977D02*
D03*
X259900Y164500D02*
D03*
X257300Y161700D02*
D03*
X253800Y159100D02*
D03*
M02*
