G04*
G04 #@! TF.GenerationSoftware,Altium Limited,Altium Designer,22.2.1 (43)*
G04*
G04 Layer_Color=8388736*
%FSLAX25Y25*%
%MOIN*%
G70*
G04*
G04 #@! TF.SameCoordinates,A456A3B1-F1F6-43AC-97E8-2F09191D0533*
G04*
G04*
G04 #@! TF.FilePolarity,Negative*
G04*
G01*
G75*
%ADD52R,0.04343X0.03556*%
G04:AMPARAMS|DCode=53|XSize=55.64mil|YSize=79.65mil|CornerRadius=11.86mil|HoleSize=0mil|Usage=FLASHONLY|Rotation=0.000|XOffset=0mil|YOffset=0mil|HoleType=Round|Shape=RoundedRectangle|*
%AMROUNDEDRECTD53*
21,1,0.05564,0.05593,0,0,0.0*
21,1,0.03192,0.07965,0,0,0.0*
1,1,0.02372,0.01596,-0.02797*
1,1,0.02372,-0.01596,-0.02797*
1,1,0.02372,-0.01596,0.02797*
1,1,0.02372,0.01596,0.02797*
%
%ADD53ROUNDEDRECTD53*%
%ADD54R,0.03556X0.04343*%
%ADD55R,0.17335X0.08280*%
%ADD56R,0.03162X0.05721*%
%ADD57R,0.04540X0.04147*%
G04:AMPARAMS|DCode=58|XSize=55.64mil|YSize=79.65mil|CornerRadius=11.86mil|HoleSize=0mil|Usage=FLASHONLY|Rotation=270.000|XOffset=0mil|YOffset=0mil|HoleType=Round|Shape=RoundedRectangle|*
%AMROUNDEDRECTD58*
21,1,0.05564,0.05593,0,0,270.0*
21,1,0.03192,0.07965,0,0,270.0*
1,1,0.02372,-0.02797,-0.01596*
1,1,0.02372,-0.02797,0.01596*
1,1,0.02372,0.02797,0.01596*
1,1,0.02372,0.02797,-0.01596*
%
%ADD58ROUNDEDRECTD58*%
%ADD59R,0.13792X0.09461*%
%ADD60R,0.04737X0.09461*%
%ADD61C,0.04737*%
%ADD62R,0.06804X0.03359*%
%ADD63R,0.04147X0.04540*%
%ADD64R,0.06312X0.04737*%
%ADD65R,0.06981X0.08241*%
%ADD66R,0.06312X0.02572*%
%ADD67R,0.06509X0.02572*%
%ADD68R,0.14973X0.11430*%
%ADD69R,0.07414X0.08359*%
%ADD70R,0.12611X0.07099*%
%ADD71R,0.07965X0.05564*%
G04:AMPARAMS|DCode=72|XSize=33.59mil|YSize=72.96mil|CornerRadius=5.92mil|HoleSize=0mil|Usage=FLASHONLY|Rotation=270.000|XOffset=0mil|YOffset=0mil|HoleType=Round|Shape=RoundedRectangle|*
%AMROUNDEDRECTD72*
21,1,0.03359,0.06112,0,0,270.0*
21,1,0.02175,0.07296,0,0,270.0*
1,1,0.01184,-0.03056,-0.01088*
1,1,0.01184,-0.03056,0.01088*
1,1,0.01184,0.03056,0.01088*
1,1,0.01184,0.03056,-0.01088*
%
%ADD72ROUNDEDRECTD72*%
%ADD73R,0.04068X0.03280*%
%ADD74R,0.06607X0.02572*%
%ADD75R,0.06902X0.06115*%
%ADD76R,0.07493X0.10052*%
%ADD77R,0.30328X0.12611*%
%ADD78R,0.06607X0.01981*%
%ADD79R,0.11417X0.02559*%
%ADD80R,0.03950X0.03950*%
G04:AMPARAMS|DCode=81|XSize=82.8mil|YSize=133.98mil|CornerRadius=0mil|HoleSize=0mil|Usage=FLASHONLY|Rotation=0.000|XOffset=0mil|YOffset=0mil|HoleType=Round|Shape=Octagon|*
%AMOCTAGOND81*
4,1,8,-0.02070,0.06699,0.02070,0.06699,0.04140,0.04629,0.04140,-0.04629,0.02070,-0.06699,-0.02070,-0.06699,-0.04140,-0.04629,-0.04140,0.04629,-0.02070,0.06699,0.0*
%
%ADD81OCTAGOND81*%

%ADD82R,0.03162X0.06312*%
%ADD83R,0.03162X0.07887*%
%ADD84R,0.04934X0.02965*%
%ADD85R,0.06312X0.06312*%
%ADD86C,0.06312*%
%ADD87C,0.13595*%
%ADD88C,0.10249*%
%ADD89C,0.06600*%
%ADD90C,0.13005*%
%ADD91C,0.03162*%
D52*
X322468Y34344D02*
D03*
Y39856D02*
D03*
X15009Y116446D02*
D03*
Y110934D02*
D03*
X20358Y110947D02*
D03*
Y105435D02*
D03*
X56509Y116656D02*
D03*
Y111144D02*
D03*
X56909Y127756D02*
D03*
Y122244D02*
D03*
X159661Y372856D02*
D03*
Y367344D02*
D03*
X50761Y370056D02*
D03*
Y364544D02*
D03*
X96984Y368817D02*
D03*
Y363305D02*
D03*
X86061Y319435D02*
D03*
Y324947D02*
D03*
X25361Y332903D02*
D03*
Y327391D02*
D03*
X371633Y310617D02*
D03*
Y305105D02*
D03*
X401367Y322524D02*
D03*
Y317012D02*
D03*
X462603Y323668D02*
D03*
Y318156D02*
D03*
X467943Y323668D02*
D03*
Y318156D02*
D03*
X364400Y319020D02*
D03*
Y313508D02*
D03*
X364400Y328633D02*
D03*
Y323121D02*
D03*
X77562Y66994D02*
D03*
Y61482D02*
D03*
X146200Y105444D02*
D03*
Y110956D02*
D03*
X234056Y110106D02*
D03*
Y115617D02*
D03*
X234406Y138906D02*
D03*
Y144417D02*
D03*
X234339Y184906D02*
D03*
Y190417D02*
D03*
X233577Y161370D02*
D03*
Y166882D02*
D03*
X206218Y20804D02*
D03*
Y26316D02*
D03*
X182318Y11804D02*
D03*
Y17316D02*
D03*
X366160Y372050D02*
D03*
Y377561D02*
D03*
X366160Y362436D02*
D03*
Y367948D02*
D03*
X463905Y365875D02*
D03*
Y371387D02*
D03*
X469478Y366809D02*
D03*
Y372320D02*
D03*
X373393Y354034D02*
D03*
Y359546D02*
D03*
X403128Y365940D02*
D03*
Y371452D02*
D03*
X363744Y271921D02*
D03*
Y277433D02*
D03*
X363744Y262308D02*
D03*
Y267820D02*
D03*
X461289Y266047D02*
D03*
Y271558D02*
D03*
X466533Y266047D02*
D03*
Y271558D02*
D03*
X370977Y253906D02*
D03*
Y259417D02*
D03*
X400711Y265812D02*
D03*
Y271324D02*
D03*
X364400Y224121D02*
D03*
Y229633D02*
D03*
X364400Y214508D02*
D03*
Y220020D02*
D03*
X461943Y218247D02*
D03*
Y223758D02*
D03*
X466743Y217826D02*
D03*
Y223338D02*
D03*
X371633Y206105D02*
D03*
Y211617D02*
D03*
X401367Y218012D02*
D03*
Y223524D02*
D03*
X364400Y177221D02*
D03*
Y182733D02*
D03*
X364400Y167608D02*
D03*
Y173120D02*
D03*
X462919Y171728D02*
D03*
Y177240D02*
D03*
X467758Y171980D02*
D03*
Y177492D02*
D03*
X371633Y159205D02*
D03*
Y164717D02*
D03*
X401367Y171112D02*
D03*
Y176624D02*
D03*
X365332Y128621D02*
D03*
Y134133D02*
D03*
X365331Y119008D02*
D03*
Y124520D02*
D03*
X463259Y122644D02*
D03*
Y128156D02*
D03*
X468330Y122889D02*
D03*
Y128401D02*
D03*
X372565Y110606D02*
D03*
Y116117D02*
D03*
X402299Y122512D02*
D03*
Y128024D02*
D03*
X365332Y79500D02*
D03*
Y85012D02*
D03*
X365331Y69887D02*
D03*
Y75398D02*
D03*
X463076Y73326D02*
D03*
Y78838D02*
D03*
X469267Y74259D02*
D03*
Y79771D02*
D03*
X372565Y61484D02*
D03*
Y66996D02*
D03*
X402299Y73391D02*
D03*
Y78902D02*
D03*
X364000Y28598D02*
D03*
Y34110D02*
D03*
X364000Y18985D02*
D03*
Y24497D02*
D03*
X462859Y23480D02*
D03*
Y28992D02*
D03*
X468330Y23480D02*
D03*
Y28992D02*
D03*
X371233Y10583D02*
D03*
Y16094D02*
D03*
X400967Y22489D02*
D03*
Y28001D02*
D03*
X272354Y356744D02*
D03*
Y362256D02*
D03*
X324681Y373603D02*
D03*
Y379115D02*
D03*
X271554Y309144D02*
D03*
Y314656D02*
D03*
X321654Y326344D02*
D03*
Y331856D02*
D03*
X272254Y261035D02*
D03*
Y266547D02*
D03*
X322354Y278235D02*
D03*
Y283747D02*
D03*
X271754Y212144D02*
D03*
Y217656D02*
D03*
X321854Y229344D02*
D03*
Y234856D02*
D03*
X271054Y164744D02*
D03*
Y170256D02*
D03*
X321154Y181944D02*
D03*
Y187456D02*
D03*
X271354Y115444D02*
D03*
Y120956D02*
D03*
X321454Y132644D02*
D03*
Y138156D02*
D03*
X272654Y66744D02*
D03*
Y72256D02*
D03*
X322754Y83944D02*
D03*
Y89456D02*
D03*
X272369Y17144D02*
D03*
Y22656D02*
D03*
X513984Y318003D02*
D03*
Y312491D02*
D03*
D53*
X497053Y45600D02*
D03*
X485635D02*
D03*
X497209Y56200D02*
D03*
X485791D02*
D03*
X166409Y385900D02*
D03*
X154991D02*
D03*
X33809Y340700D02*
D03*
X22391D02*
D03*
X32809Y85600D02*
D03*
X21391D02*
D03*
X174509Y107700D02*
D03*
X163092D02*
D03*
X162126Y168800D02*
D03*
X173543D02*
D03*
X242206Y285600D02*
D03*
X230789D02*
D03*
X252143Y230732D02*
D03*
X240726D02*
D03*
X247054Y215453D02*
D03*
X235636D02*
D03*
D54*
X496956Y64000D02*
D03*
X491444D02*
D03*
X386793Y185612D02*
D03*
X392305D02*
D03*
X386793Y190612D02*
D03*
X392305D02*
D03*
X388405Y137200D02*
D03*
X393916D02*
D03*
X388405Y142200D02*
D03*
X393916D02*
D03*
X387960Y384643D02*
D03*
X393472D02*
D03*
X387960Y379602D02*
D03*
X393472D02*
D03*
X387596Y335212D02*
D03*
X393107D02*
D03*
X387596Y330212D02*
D03*
X393107D02*
D03*
X386761Y285347D02*
D03*
X392272D02*
D03*
X386761Y280347D02*
D03*
X392272D02*
D03*
X387329Y237856D02*
D03*
X392841D02*
D03*
X387329Y232856D02*
D03*
X392841D02*
D03*
X387628Y92168D02*
D03*
X393139D02*
D03*
X387628Y87168D02*
D03*
X393139D02*
D03*
X387970Y41058D02*
D03*
X393482D02*
D03*
X388044Y35300D02*
D03*
X393556D02*
D03*
X89956Y383500D02*
D03*
X84444D02*
D03*
X446143Y305617D02*
D03*
X451655D02*
D03*
X408643Y334731D02*
D03*
X414155D02*
D03*
X458223Y318731D02*
D03*
X452711D02*
D03*
X53856Y87891D02*
D03*
X48344D02*
D03*
X169387Y115444D02*
D03*
X174899D02*
D03*
X167391Y161000D02*
D03*
X161879D02*
D03*
X454472Y367659D02*
D03*
X459983D02*
D03*
X415915Y383659D02*
D03*
X410403D02*
D03*
X453415Y354546D02*
D03*
X447903D02*
D03*
X452056Y267531D02*
D03*
X457567D02*
D03*
X413499Y283531D02*
D03*
X407987D02*
D03*
X450999Y254417D02*
D03*
X445487D02*
D03*
X452711Y219731D02*
D03*
X458223D02*
D03*
X414155Y235731D02*
D03*
X408643D02*
D03*
X451655Y206617D02*
D03*
X446143D02*
D03*
X452711Y172831D02*
D03*
X458223D02*
D03*
X414155Y188831D02*
D03*
X408643D02*
D03*
X451655Y159717D02*
D03*
X446143D02*
D03*
X453643Y124231D02*
D03*
X459155D02*
D03*
X415086Y140231D02*
D03*
X409575D02*
D03*
X452586Y111117D02*
D03*
X447075D02*
D03*
X453643Y75109D02*
D03*
X459155D02*
D03*
X415086Y91110D02*
D03*
X409575D02*
D03*
X452586Y61996D02*
D03*
X447075D02*
D03*
X452312Y24208D02*
D03*
X457823D02*
D03*
X413755Y40208D02*
D03*
X408243D02*
D03*
X451255Y11095D02*
D03*
X445743D02*
D03*
X491344Y70500D02*
D03*
X496856D02*
D03*
X231042Y278600D02*
D03*
X236553D02*
D03*
X240491Y237680D02*
D03*
X246003D02*
D03*
X235744Y221859D02*
D03*
X241256D02*
D03*
D55*
X518379Y22000D02*
D03*
X490821D02*
D03*
D56*
X29046Y27313D02*
D03*
X25306D02*
D03*
X21565D02*
D03*
Y17470D02*
D03*
X29046D02*
D03*
D57*
X44600Y12232D02*
D03*
Y17350D02*
D03*
X37900Y12532D02*
D03*
Y17650D02*
D03*
X15009Y183110D02*
D03*
Y188228D02*
D03*
X-20500Y260827D02*
D03*
Y255709D02*
D03*
X-28172Y260827D02*
D03*
Y255709D02*
D03*
X9409Y122080D02*
D03*
Y127198D02*
D03*
Y111241D02*
D03*
Y116359D02*
D03*
X20358Y127079D02*
D03*
Y132198D02*
D03*
X153161Y367541D02*
D03*
Y372659D02*
D03*
X98000Y381459D02*
D03*
Y386577D02*
D03*
X153161Y355632D02*
D03*
Y360750D02*
D03*
X133000Y381559D02*
D03*
Y376441D02*
D03*
X64943Y370582D02*
D03*
Y365464D02*
D03*
X69700Y337459D02*
D03*
Y332341D02*
D03*
Y324750D02*
D03*
Y319632D02*
D03*
X352400Y313705D02*
D03*
Y318823D02*
D03*
Y323264D02*
D03*
Y328382D02*
D03*
X401367Y328407D02*
D03*
Y333525D02*
D03*
X31491Y77230D02*
D03*
Y72112D02*
D03*
X176526Y137709D02*
D03*
Y142827D02*
D03*
X178000Y161592D02*
D03*
Y156474D02*
D03*
X195926Y108441D02*
D03*
Y113559D02*
D03*
Y117980D02*
D03*
Y123098D02*
D03*
X196330Y135741D02*
D03*
Y140859D02*
D03*
Y146961D02*
D03*
Y152079D02*
D03*
X134935Y138620D02*
D03*
Y143739D02*
D03*
X196330Y169244D02*
D03*
Y174362D02*
D03*
X196572Y181741D02*
D03*
Y186859D02*
D03*
X196530Y192780D02*
D03*
Y197898D02*
D03*
X196330Y158441D02*
D03*
Y163559D02*
D03*
X134935Y150505D02*
D03*
Y155623D02*
D03*
X-29394Y130741D02*
D03*
Y135859D02*
D03*
X-21300Y135659D02*
D03*
Y130541D02*
D03*
X-36300Y131017D02*
D03*
Y136135D02*
D03*
X544700Y348741D02*
D03*
Y353859D02*
D03*
X524300Y349600D02*
D03*
Y354718D02*
D03*
X514800Y350200D02*
D03*
Y355318D02*
D03*
X533800Y330841D02*
D03*
Y335959D02*
D03*
X403128Y382453D02*
D03*
Y377335D02*
D03*
X354160Y377310D02*
D03*
Y372192D02*
D03*
Y367751D02*
D03*
Y362633D02*
D03*
X400711Y282325D02*
D03*
Y277207D02*
D03*
X351744Y277182D02*
D03*
Y272064D02*
D03*
Y267623D02*
D03*
Y262505D02*
D03*
X401367Y234525D02*
D03*
Y229407D02*
D03*
X352400Y229382D02*
D03*
Y224264D02*
D03*
Y219823D02*
D03*
Y214705D02*
D03*
X401367Y187625D02*
D03*
Y182507D02*
D03*
X352400Y182482D02*
D03*
Y177364D02*
D03*
Y172923D02*
D03*
Y167805D02*
D03*
X402299Y139025D02*
D03*
Y133907D02*
D03*
X353331Y133882D02*
D03*
Y128764D02*
D03*
Y124323D02*
D03*
Y119205D02*
D03*
X402299Y89904D02*
D03*
Y84786D02*
D03*
X353331Y84761D02*
D03*
Y79642D02*
D03*
Y75202D02*
D03*
Y70083D02*
D03*
X400967Y39002D02*
D03*
Y33884D02*
D03*
X352000Y33859D02*
D03*
Y28741D02*
D03*
Y24300D02*
D03*
Y19182D02*
D03*
X322354Y346141D02*
D03*
Y351259D02*
D03*
X322554Y361341D02*
D03*
Y366459D02*
D03*
X321554Y298541D02*
D03*
Y303659D02*
D03*
X321754Y313741D02*
D03*
Y318859D02*
D03*
X322254Y250432D02*
D03*
Y255550D02*
D03*
X322454Y265632D02*
D03*
Y270750D02*
D03*
X321754Y201541D02*
D03*
Y206659D02*
D03*
X321954Y216741D02*
D03*
Y221859D02*
D03*
X321054Y154141D02*
D03*
Y159259D02*
D03*
X321254Y169341D02*
D03*
Y174459D02*
D03*
X321354Y104841D02*
D03*
Y109959D02*
D03*
X321554Y120041D02*
D03*
Y125159D02*
D03*
X322654Y56141D02*
D03*
Y61259D02*
D03*
X322854Y71341D02*
D03*
Y76459D02*
D03*
X322369Y6541D02*
D03*
Y11659D02*
D03*
X322569Y21741D02*
D03*
Y26859D02*
D03*
X540800Y286441D02*
D03*
Y291559D02*
D03*
X193700Y291159D02*
D03*
Y286041D02*
D03*
Y281159D02*
D03*
Y276041D02*
D03*
X193740Y270889D02*
D03*
Y265771D02*
D03*
Y260357D02*
D03*
Y255239D02*
D03*
Y250585D02*
D03*
Y245467D02*
D03*
Y240259D02*
D03*
Y235141D02*
D03*
X244765Y272415D02*
D03*
Y277533D02*
D03*
X193740Y230259D02*
D03*
Y225141D02*
D03*
Y220571D02*
D03*
Y215453D02*
D03*
D58*
X53300Y23700D02*
D03*
Y12283D02*
D03*
X13300Y15783D02*
D03*
Y27200D02*
D03*
X67600Y35400D02*
D03*
Y23983D02*
D03*
X106400Y35200D02*
D03*
Y23783D02*
D03*
X157000Y42509D02*
D03*
Y31091D02*
D03*
X128200Y42809D02*
D03*
Y31391D02*
D03*
X64555Y116642D02*
D03*
Y105225D02*
D03*
X176661Y361791D02*
D03*
Y373209D02*
D03*
X166661Y361491D02*
D03*
Y372909D02*
D03*
X42661Y365471D02*
D03*
Y376888D02*
D03*
X33061Y365471D02*
D03*
Y376888D02*
D03*
X94461Y320053D02*
D03*
Y331470D02*
D03*
X77516Y320053D02*
D03*
Y331470D02*
D03*
X15261Y333609D02*
D03*
Y322191D02*
D03*
X60261Y316991D02*
D03*
Y328409D02*
D03*
X137900Y105435D02*
D03*
Y116853D02*
D03*
X215318Y32269D02*
D03*
Y20851D02*
D03*
X174718Y23658D02*
D03*
Y12241D02*
D03*
X280454Y369009D02*
D03*
Y357591D02*
D03*
X279654Y321409D02*
D03*
Y309991D02*
D03*
X280354Y273300D02*
D03*
Y261883D02*
D03*
X279854Y224409D02*
D03*
Y212991D02*
D03*
X279154Y177009D02*
D03*
Y165591D02*
D03*
X279454Y127709D02*
D03*
Y116291D02*
D03*
X280754Y79009D02*
D03*
Y67591D02*
D03*
X280469Y29409D02*
D03*
Y17991D02*
D03*
X524103Y323864D02*
D03*
Y312447D02*
D03*
D59*
X87000Y9880D02*
D03*
D60*
X77945Y33502D02*
D03*
X87000D02*
D03*
X96055D02*
D03*
D61*
X186900Y349500D02*
D03*
X86900Y109300D02*
D03*
X86100Y309600D02*
D03*
X159661Y378364D02*
D03*
X57661Y365000D02*
D03*
X423355Y335715D02*
D03*
X409423Y305617D02*
D03*
X445599Y335715D02*
D03*
X-28172Y162800D02*
D03*
X-36500D02*
D03*
X-26450Y174205D02*
D03*
X-35838Y173228D02*
D03*
X-27154Y181600D02*
D03*
X-34773Y182677D02*
D03*
X-20500Y266200D02*
D03*
Y248819D02*
D03*
X447359Y384643D02*
D03*
X411183Y354546D02*
D03*
X425115Y384643D02*
D03*
X444943Y284515D02*
D03*
X408767Y254417D02*
D03*
X422699Y284515D02*
D03*
X445599Y236715D02*
D03*
X409423Y206617D02*
D03*
X423355Y236715D02*
D03*
X445599Y189815D02*
D03*
X409423Y159717D02*
D03*
X423355Y189815D02*
D03*
X446530Y141215D02*
D03*
X410355Y111117D02*
D03*
X424286Y141215D02*
D03*
X446530Y92094D02*
D03*
X410355Y61996D02*
D03*
X424286Y92094D02*
D03*
X445199Y41192D02*
D03*
X409023Y11095D02*
D03*
X422955Y41192D02*
D03*
D62*
X290900Y237700D02*
D03*
Y232700D02*
D03*
Y227700D02*
D03*
Y222700D02*
D03*
Y217700D02*
D03*
Y212700D02*
D03*
Y207700D02*
D03*
X312254D02*
D03*
Y212700D02*
D03*
Y217700D02*
D03*
Y222700D02*
D03*
Y227700D02*
D03*
Y232700D02*
D03*
Y237700D02*
D03*
X27613Y126800D02*
D03*
Y121800D02*
D03*
Y116800D02*
D03*
Y111800D02*
D03*
X48968D02*
D03*
Y116800D02*
D03*
Y121800D02*
D03*
Y126800D02*
D03*
X312854Y382300D02*
D03*
Y377300D02*
D03*
Y372300D02*
D03*
Y367300D02*
D03*
Y362300D02*
D03*
Y357300D02*
D03*
Y352300D02*
D03*
X291500D02*
D03*
Y357300D02*
D03*
Y362300D02*
D03*
Y367300D02*
D03*
Y372300D02*
D03*
Y377300D02*
D03*
Y382300D02*
D03*
X312054Y334700D02*
D03*
Y329700D02*
D03*
Y324700D02*
D03*
Y319700D02*
D03*
Y314700D02*
D03*
Y309700D02*
D03*
Y304700D02*
D03*
X290700D02*
D03*
Y309700D02*
D03*
Y314700D02*
D03*
Y319700D02*
D03*
Y324700D02*
D03*
Y329700D02*
D03*
Y334700D02*
D03*
X312754Y286591D02*
D03*
Y281591D02*
D03*
Y276591D02*
D03*
Y271591D02*
D03*
Y266591D02*
D03*
Y261591D02*
D03*
Y256591D02*
D03*
X291400D02*
D03*
Y261591D02*
D03*
Y266591D02*
D03*
Y271591D02*
D03*
Y276591D02*
D03*
Y281591D02*
D03*
Y286591D02*
D03*
X311554Y190300D02*
D03*
Y185300D02*
D03*
Y180300D02*
D03*
Y175300D02*
D03*
Y170300D02*
D03*
Y165300D02*
D03*
Y160300D02*
D03*
X290200D02*
D03*
Y165300D02*
D03*
Y170300D02*
D03*
Y175300D02*
D03*
Y180300D02*
D03*
Y185300D02*
D03*
Y190300D02*
D03*
X311854Y141000D02*
D03*
Y136000D02*
D03*
Y131000D02*
D03*
Y126000D02*
D03*
Y121000D02*
D03*
Y116000D02*
D03*
Y111000D02*
D03*
X290500D02*
D03*
Y116000D02*
D03*
Y121000D02*
D03*
Y126000D02*
D03*
Y131000D02*
D03*
Y136000D02*
D03*
Y141000D02*
D03*
X313154Y92300D02*
D03*
Y87300D02*
D03*
Y82300D02*
D03*
Y77300D02*
D03*
Y72300D02*
D03*
Y67300D02*
D03*
Y62300D02*
D03*
X291800D02*
D03*
Y67300D02*
D03*
Y72300D02*
D03*
Y77300D02*
D03*
Y82300D02*
D03*
Y87300D02*
D03*
Y92300D02*
D03*
X312869Y42700D02*
D03*
Y37700D02*
D03*
Y32700D02*
D03*
Y27700D02*
D03*
Y22700D02*
D03*
Y17700D02*
D03*
Y12700D02*
D03*
X291514D02*
D03*
Y17700D02*
D03*
Y22700D02*
D03*
Y27700D02*
D03*
Y32700D02*
D03*
Y37700D02*
D03*
Y42700D02*
D03*
D63*
X337685Y273117D02*
D03*
X342803D02*
D03*
X245376Y107700D02*
D03*
X250494D02*
D03*
X414541Y327431D02*
D03*
X409423D02*
D03*
X414258Y318731D02*
D03*
X409140D02*
D03*
X409140Y312217D02*
D03*
X414258D02*
D03*
X338341Y318436D02*
D03*
X343459D02*
D03*
X458158Y329317D02*
D03*
X453040D02*
D03*
X338341Y324317D02*
D03*
X343459D02*
D03*
X452908Y312431D02*
D03*
X458026D02*
D03*
X463259Y306923D02*
D03*
X458141D02*
D03*
X48559Y94900D02*
D03*
X43441D02*
D03*
X74468Y48128D02*
D03*
X79586D02*
D03*
X30986Y61253D02*
D03*
X25868D02*
D03*
X61996Y48128D02*
D03*
X67114D02*
D03*
X35959Y94800D02*
D03*
X30841D02*
D03*
X245376Y114237D02*
D03*
X250494D02*
D03*
X245376Y120200D02*
D03*
X250494D02*
D03*
X250175Y137528D02*
D03*
X245057D02*
D03*
X245057Y143433D02*
D03*
X250175D02*
D03*
X245057Y149339D02*
D03*
X250175D02*
D03*
X249435Y158965D02*
D03*
X244317D02*
D03*
X244317Y165275D02*
D03*
X249435D02*
D03*
X244317Y171803D02*
D03*
X249435D02*
D03*
X248859Y184000D02*
D03*
X243741D02*
D03*
X243603Y190220D02*
D03*
X248721D02*
D03*
X243603Y195339D02*
D03*
X248721D02*
D03*
X459901Y355851D02*
D03*
X465019D02*
D03*
X459787Y361359D02*
D03*
X454669D02*
D03*
X454800Y378246D02*
D03*
X459918D02*
D03*
X345219Y373246D02*
D03*
X340101D02*
D03*
X416018Y361145D02*
D03*
X410900D02*
D03*
X345219Y367365D02*
D03*
X340101D02*
D03*
X410900Y367659D02*
D03*
X416018D02*
D03*
X411183Y376359D02*
D03*
X416301D02*
D03*
X457485Y255723D02*
D03*
X462603D02*
D03*
X457371Y261231D02*
D03*
X452252D02*
D03*
X452384Y278117D02*
D03*
X457502D02*
D03*
X413602Y261017D02*
D03*
X408484D02*
D03*
X342803Y267236D02*
D03*
X337685D02*
D03*
X408484Y267531D02*
D03*
X413602D02*
D03*
X408767Y276231D02*
D03*
X413885D02*
D03*
X458141Y207923D02*
D03*
X463259D02*
D03*
X458026Y213431D02*
D03*
X452908D02*
D03*
X453040Y230317D02*
D03*
X458158D02*
D03*
X343459Y225317D02*
D03*
X338341D02*
D03*
X414258Y213217D02*
D03*
X409140D02*
D03*
X343459Y219436D02*
D03*
X338341D02*
D03*
X409140Y219731D02*
D03*
X414258D02*
D03*
X409423Y228431D02*
D03*
X414541D02*
D03*
X458141Y161023D02*
D03*
X463259D02*
D03*
X458026Y166531D02*
D03*
X452908D02*
D03*
X453040Y183417D02*
D03*
X458158D02*
D03*
X343459Y178417D02*
D03*
X338341D02*
D03*
X414258Y166317D02*
D03*
X409140D02*
D03*
X343459Y172536D02*
D03*
X338341D02*
D03*
X409140Y172831D02*
D03*
X414258D02*
D03*
X409423Y181531D02*
D03*
X414541D02*
D03*
X459072Y112423D02*
D03*
X464190D02*
D03*
X458958Y117931D02*
D03*
X453840D02*
D03*
X453971Y134817D02*
D03*
X459089D02*
D03*
X344391Y129817D02*
D03*
X339272D02*
D03*
X415189Y117717D02*
D03*
X410071D02*
D03*
X344391Y123936D02*
D03*
X339272D02*
D03*
X410071Y124231D02*
D03*
X415189D02*
D03*
X410355Y132931D02*
D03*
X415473D02*
D03*
X459072Y63302D02*
D03*
X464190D02*
D03*
X458958Y68809D02*
D03*
X453840D02*
D03*
X453971Y85696D02*
D03*
X459089D02*
D03*
X344391Y80696D02*
D03*
X339272D02*
D03*
X415189Y68595D02*
D03*
X410071D02*
D03*
X344391Y74815D02*
D03*
X339272D02*
D03*
X410071Y75109D02*
D03*
X415189D02*
D03*
X410355Y83810D02*
D03*
X415473D02*
D03*
X457741Y12400D02*
D03*
X462859D02*
D03*
X457626Y17908D02*
D03*
X452508D02*
D03*
X452640Y34795D02*
D03*
X457758D02*
D03*
X343059Y29794D02*
D03*
X337941D02*
D03*
X413858Y17694D02*
D03*
X408740D02*
D03*
X343059Y23913D02*
D03*
X337941D02*
D03*
X408740Y24208D02*
D03*
X413858D02*
D03*
X409023Y32908D02*
D03*
X414141D02*
D03*
X297113Y346300D02*
D03*
X291995D02*
D03*
X296313Y298700D02*
D03*
X291195D02*
D03*
X297013Y250591D02*
D03*
X291895D02*
D03*
X296513Y201700D02*
D03*
X291395D02*
D03*
X295813Y154300D02*
D03*
X290695D02*
D03*
X296113Y105000D02*
D03*
X290995D02*
D03*
X297413Y56300D02*
D03*
X292295D02*
D03*
X297128Y6700D02*
D03*
X292009D02*
D03*
X239647Y242300D02*
D03*
X244765D02*
D03*
X239647Y248026D02*
D03*
X244765D02*
D03*
X243444Y263774D02*
D03*
X248562D02*
D03*
D64*
X76073Y116756D02*
D03*
X86309D02*
D03*
X86209Y125200D02*
D03*
X75972D02*
D03*
X76282Y134363D02*
D03*
X86518D02*
D03*
X13943Y365000D02*
D03*
X24180D02*
D03*
D65*
X42461Y329600D02*
D03*
D66*
X33800Y325761D02*
D03*
Y328321D02*
D03*
Y330879D02*
D03*
Y333439D02*
D03*
X51123D02*
D03*
Y330879D02*
D03*
Y328321D02*
D03*
Y325761D02*
D03*
X371633Y324700D02*
D03*
Y322141D02*
D03*
Y319582D02*
D03*
Y317023D02*
D03*
X388956D02*
D03*
Y319582D02*
D03*
Y322141D02*
D03*
Y324700D02*
D03*
X390716Y373628D02*
D03*
Y371069D02*
D03*
Y368510D02*
D03*
Y365951D02*
D03*
X373393D02*
D03*
Y368510D02*
D03*
Y371069D02*
D03*
Y373628D02*
D03*
X388300Y273500D02*
D03*
Y270941D02*
D03*
Y268382D02*
D03*
Y265823D02*
D03*
X370977D02*
D03*
Y268382D02*
D03*
Y270941D02*
D03*
Y273500D02*
D03*
X388956Y225700D02*
D03*
Y223141D02*
D03*
Y220582D02*
D03*
Y218023D02*
D03*
X371633D02*
D03*
Y220582D02*
D03*
Y223141D02*
D03*
Y225700D02*
D03*
X388956Y178800D02*
D03*
Y176241D02*
D03*
Y173682D02*
D03*
Y171123D02*
D03*
X371633D02*
D03*
Y173682D02*
D03*
Y176241D02*
D03*
Y178800D02*
D03*
X389887Y130200D02*
D03*
Y127641D02*
D03*
Y125082D02*
D03*
Y122523D02*
D03*
X372565D02*
D03*
Y125082D02*
D03*
Y127641D02*
D03*
Y130200D02*
D03*
X389887Y81079D02*
D03*
Y78520D02*
D03*
Y75961D02*
D03*
Y73402D02*
D03*
X372565D02*
D03*
Y75961D02*
D03*
Y78520D02*
D03*
Y81079D02*
D03*
X388556Y30177D02*
D03*
Y27618D02*
D03*
Y25059D02*
D03*
Y22500D02*
D03*
X371233D02*
D03*
Y25059D02*
D03*
Y27618D02*
D03*
Y30177D02*
D03*
D67*
X72500Y373739D02*
D03*
Y371180D02*
D03*
Y368620D02*
D03*
Y366061D02*
D03*
X89823Y373739D02*
D03*
Y371180D02*
D03*
Y368620D02*
D03*
Y366061D02*
D03*
D68*
X128300Y361148D02*
D03*
Y329652D02*
D03*
D69*
X110895Y371065D02*
D03*
Y385868D02*
D03*
D70*
X186900Y368172D02*
D03*
X204223D02*
D03*
D71*
X123637Y373525D02*
D03*
Y384943D02*
D03*
X530500Y280732D02*
D03*
Y292150D02*
D03*
D72*
X445599Y312431D02*
D03*
Y317431D02*
D03*
Y322431D02*
D03*
Y327431D02*
D03*
X423355Y312431D02*
D03*
Y317431D02*
D03*
Y322431D02*
D03*
Y327431D02*
D03*
X425115Y376359D02*
D03*
Y371359D02*
D03*
Y366359D02*
D03*
Y361359D02*
D03*
X447359Y376359D02*
D03*
Y371359D02*
D03*
Y366359D02*
D03*
Y361359D02*
D03*
X422699Y276231D02*
D03*
Y271231D02*
D03*
Y266231D02*
D03*
Y261231D02*
D03*
X444943Y276231D02*
D03*
Y271231D02*
D03*
Y266231D02*
D03*
Y261231D02*
D03*
X423355Y228431D02*
D03*
Y223431D02*
D03*
Y218431D02*
D03*
Y213431D02*
D03*
X445599Y228431D02*
D03*
Y223431D02*
D03*
Y218431D02*
D03*
Y213431D02*
D03*
X423355Y181531D02*
D03*
Y176531D02*
D03*
Y171531D02*
D03*
Y166531D02*
D03*
X445599Y181531D02*
D03*
Y176531D02*
D03*
Y171531D02*
D03*
Y166531D02*
D03*
X424286Y132931D02*
D03*
Y127931D02*
D03*
Y122931D02*
D03*
Y117931D02*
D03*
X446530Y132931D02*
D03*
Y127931D02*
D03*
Y122931D02*
D03*
Y117931D02*
D03*
X424286Y83810D02*
D03*
Y78809D02*
D03*
Y73809D02*
D03*
Y68809D02*
D03*
X446530Y83810D02*
D03*
Y78809D02*
D03*
Y73809D02*
D03*
Y68809D02*
D03*
X422955Y32908D02*
D03*
Y27908D02*
D03*
Y22908D02*
D03*
Y17908D02*
D03*
X445199Y32908D02*
D03*
Y27908D02*
D03*
Y22908D02*
D03*
Y17908D02*
D03*
D73*
X358700Y310533D02*
D03*
Y319313D02*
D03*
Y331821D02*
D03*
Y323041D02*
D03*
X360460Y371969D02*
D03*
Y380749D02*
D03*
Y368241D02*
D03*
Y359461D02*
D03*
X358044Y271841D02*
D03*
Y280621D02*
D03*
Y268113D02*
D03*
Y259333D02*
D03*
X358700Y224041D02*
D03*
Y232821D02*
D03*
Y220313D02*
D03*
Y211533D02*
D03*
Y177141D02*
D03*
Y185921D02*
D03*
Y173413D02*
D03*
Y164633D02*
D03*
X359631Y128541D02*
D03*
Y137320D02*
D03*
Y124813D02*
D03*
Y116033D02*
D03*
Y79420D02*
D03*
Y88199D02*
D03*
Y75691D02*
D03*
Y66912D02*
D03*
X358300Y28518D02*
D03*
Y37298D02*
D03*
Y24790D02*
D03*
Y16010D02*
D03*
D74*
X70667Y82348D02*
D03*
Y79789D02*
D03*
Y77230D02*
D03*
Y74671D02*
D03*
Y72112D02*
D03*
Y69553D02*
D03*
Y66994D02*
D03*
Y64435D02*
D03*
X47533D02*
D03*
Y66994D02*
D03*
Y69553D02*
D03*
Y72112D02*
D03*
Y74671D02*
D03*
Y77230D02*
D03*
Y79789D02*
D03*
Y82348D02*
D03*
X204568Y120539D02*
D03*
Y117980D02*
D03*
Y115420D02*
D03*
Y112861D02*
D03*
X227702D02*
D03*
Y115420D02*
D03*
Y117980D02*
D03*
Y120539D02*
D03*
X204559Y149339D02*
D03*
Y146780D02*
D03*
Y144220D02*
D03*
Y141661D02*
D03*
X227693D02*
D03*
Y144220D02*
D03*
Y146780D02*
D03*
Y149339D02*
D03*
X204668Y171803D02*
D03*
Y169244D02*
D03*
Y166685D02*
D03*
Y164126D02*
D03*
X227802D02*
D03*
Y166685D02*
D03*
Y169244D02*
D03*
Y171803D02*
D03*
X205268Y195339D02*
D03*
Y192780D02*
D03*
Y190220D02*
D03*
Y187661D02*
D03*
X228402D02*
D03*
Y190220D02*
D03*
Y192780D02*
D03*
Y195339D02*
D03*
D75*
X47533Y48128D02*
D03*
Y56002D02*
D03*
X23620Y69754D02*
D03*
Y77628D02*
D03*
X162000Y62343D02*
D03*
Y54469D02*
D03*
X81400Y83726D02*
D03*
Y75852D02*
D03*
D76*
X97000Y74056D02*
D03*
Y57127D02*
D03*
D77*
X129761Y56778D02*
D03*
Y76463D02*
D03*
D78*
X143768Y156017D02*
D03*
Y154048D02*
D03*
Y152079D02*
D03*
Y150111D02*
D03*
Y148143D02*
D03*
Y146174D02*
D03*
Y144205D02*
D03*
Y142237D02*
D03*
Y140269D02*
D03*
Y138300D02*
D03*
Y136331D02*
D03*
Y134363D02*
D03*
Y132395D02*
D03*
Y130426D02*
D03*
Y128457D02*
D03*
Y126489D02*
D03*
Y124521D02*
D03*
Y122552D02*
D03*
Y120583D02*
D03*
X166902D02*
D03*
Y122552D02*
D03*
Y124521D02*
D03*
Y126489D02*
D03*
Y128457D02*
D03*
Y130426D02*
D03*
Y132395D02*
D03*
Y134363D02*
D03*
Y136331D02*
D03*
Y138300D02*
D03*
Y140269D02*
D03*
Y142237D02*
D03*
Y144205D02*
D03*
Y146174D02*
D03*
Y148143D02*
D03*
Y150111D02*
D03*
Y152079D02*
D03*
Y154048D02*
D03*
Y156017D02*
D03*
X231064Y273617D02*
D03*
Y271648D02*
D03*
Y269679D02*
D03*
Y267711D02*
D03*
Y265742D02*
D03*
Y263774D02*
D03*
Y261806D02*
D03*
Y259837D02*
D03*
Y257869D02*
D03*
Y255900D02*
D03*
Y253931D02*
D03*
Y251963D02*
D03*
Y249994D02*
D03*
Y248026D02*
D03*
Y246058D02*
D03*
Y244089D02*
D03*
Y242121D02*
D03*
Y240152D02*
D03*
Y238183D02*
D03*
X207930D02*
D03*
Y240152D02*
D03*
Y242121D02*
D03*
Y244089D02*
D03*
Y246058D02*
D03*
Y248026D02*
D03*
Y249994D02*
D03*
Y251963D02*
D03*
Y253931D02*
D03*
Y255900D02*
D03*
Y257869D02*
D03*
Y259837D02*
D03*
Y261806D02*
D03*
Y263774D02*
D03*
Y265742D02*
D03*
Y267711D02*
D03*
Y269679D02*
D03*
Y271648D02*
D03*
Y273617D02*
D03*
D79*
X-49000Y264567D02*
D03*
Y261417D02*
D03*
Y258268D02*
D03*
Y255118D02*
D03*
Y251969D02*
D03*
Y248819D02*
D03*
Y245669D02*
D03*
Y242520D02*
D03*
Y239370D02*
D03*
Y236221D02*
D03*
Y233071D02*
D03*
Y229921D02*
D03*
Y226772D02*
D03*
Y223622D02*
D03*
Y220472D02*
D03*
Y217323D02*
D03*
Y214173D02*
D03*
Y211024D02*
D03*
Y207874D02*
D03*
Y204724D02*
D03*
Y201575D02*
D03*
Y198425D02*
D03*
Y182677D02*
D03*
Y179528D02*
D03*
Y176378D02*
D03*
Y173228D02*
D03*
Y170079D02*
D03*
Y166929D02*
D03*
Y163779D02*
D03*
Y160630D02*
D03*
Y157480D02*
D03*
Y154331D02*
D03*
Y151181D02*
D03*
Y148031D02*
D03*
Y144882D02*
D03*
Y141732D02*
D03*
Y138583D02*
D03*
Y135433D02*
D03*
Y132283D02*
D03*
Y129134D02*
D03*
D80*
X533800Y349510D02*
D03*
Y355809D02*
D03*
X545000Y330010D02*
D03*
Y336309D02*
D03*
X524300Y330150D02*
D03*
Y336450D02*
D03*
X514800Y330050D02*
D03*
Y336350D02*
D03*
D81*
X142400Y20850D02*
D03*
D82*
X136495Y31480D02*
D03*
X148305D02*
D03*
D83*
X142400Y30693D02*
D03*
D84*
X198336Y20600D02*
D03*
Y16860D02*
D03*
Y13120D02*
D03*
X188100D02*
D03*
Y16860D02*
D03*
Y20600D02*
D03*
D85*
X534000Y189600D02*
D03*
Y251600D02*
D03*
D86*
X527000Y185600D02*
D03*
X534000Y181600D02*
D03*
X527000Y177600D02*
D03*
X534000Y173600D02*
D03*
X527000Y169600D02*
D03*
X534000Y165600D02*
D03*
X527000Y161600D02*
D03*
Y223600D02*
D03*
X534000Y227600D02*
D03*
X527000Y231600D02*
D03*
X534000Y235600D02*
D03*
X527000Y239600D02*
D03*
X534000Y243600D02*
D03*
X527000Y247600D02*
D03*
D87*
X544000Y150600D02*
D03*
Y262600D02*
D03*
D88*
X530500Y143600D02*
D03*
Y269600D02*
D03*
D89*
X517500Y75400D02*
D03*
Y85400D02*
D03*
Y95400D02*
D03*
Y105400D02*
D03*
Y115400D02*
D03*
Y125400D02*
D03*
Y65400D02*
D03*
Y55400D02*
D03*
X507500Y125400D02*
D03*
Y115400D02*
D03*
Y105400D02*
D03*
Y95400D02*
D03*
Y85400D02*
D03*
Y75400D02*
D03*
Y65400D02*
D03*
Y55400D02*
D03*
D90*
X539600Y20700D02*
D03*
X540400Y375300D02*
D03*
D91*
X448687Y14100D02*
D03*
X468330Y19507D02*
D03*
X462465D02*
D03*
X461381Y34410D02*
D03*
X449531Y65400D02*
D03*
X469267Y70450D02*
D03*
X462919Y69254D02*
D03*
X463381Y85400D02*
D03*
X450018Y114400D02*
D03*
X462859Y118128D02*
D03*
X468330Y118806D02*
D03*
X463381Y134817D02*
D03*
X448900Y162515D02*
D03*
X467940Y167418D02*
D03*
X461943Y167608D02*
D03*
X462153Y183417D02*
D03*
X448900Y210400D02*
D03*
X466743Y213628D02*
D03*
X461779D02*
D03*
Y230317D02*
D03*
X448431Y257400D02*
D03*
X461779Y261428D02*
D03*
X466743D02*
D03*
X461289Y278117D02*
D03*
X449087Y309083D02*
D03*
X462603Y312447D02*
D03*
X468128Y312628D02*
D03*
X462603Y329317D02*
D03*
X450517Y358400D02*
D03*
X463891Y361556D02*
D03*
X469478D02*
D03*
X464100Y378246D02*
D03*
X403128Y362436D02*
D03*
X403530Y386281D02*
D03*
X384049Y379115D02*
D03*
X384169Y385783D02*
D03*
X401156Y313508D02*
D03*
X401414Y338700D02*
D03*
X383144Y330212D02*
D03*
X383800Y335715D02*
D03*
X400312Y262052D02*
D03*
X383144Y279811D02*
D03*
Y285347D02*
D03*
X400711Y287086D02*
D03*
X383144Y237856D02*
D03*
Y232856D02*
D03*
X401366Y214061D02*
D03*
X401500Y239500D02*
D03*
X401414Y191452D02*
D03*
X383144Y190612D02*
D03*
Y185640D02*
D03*
X401414Y167418D02*
D03*
X402345Y118806D02*
D03*
Y144700D02*
D03*
X383800Y136952D02*
D03*
Y141849D02*
D03*
X402289Y93731D02*
D03*
X383800Y87168D02*
D03*
Y92300D02*
D03*
X402289Y69254D02*
D03*
X401014Y18682D02*
D03*
X400900Y44200D02*
D03*
X383400Y41058D02*
D03*
X383300Y34930D02*
D03*
X360460Y364229D02*
D03*
X371700Y200600D02*
D03*
X364400Y209400D02*
D03*
X358846Y216301D02*
D03*
X352400Y209400D02*
D03*
X364400Y233675D02*
D03*
X358700Y228457D02*
D03*
X352623Y234525D02*
D03*
X363704Y281712D02*
D03*
X351358Y282325D02*
D03*
X358044Y276890D02*
D03*
X370977Y248026D02*
D03*
X364000Y257400D02*
D03*
X358190Y262889D02*
D03*
X351744Y256591D02*
D03*
X364253Y187456D02*
D03*
X352234D02*
D03*
X358700Y181917D02*
D03*
X371633Y153965D02*
D03*
X365185Y162515D02*
D03*
X358846Y169100D02*
D03*
X352013Y162515D02*
D03*
X365332Y138156D02*
D03*
X359631Y133048D02*
D03*
X353331Y138156D02*
D03*
X372607Y105478D02*
D03*
X365291Y114400D02*
D03*
X359672Y120041D02*
D03*
X353554Y113500D02*
D03*
X365291Y89112D02*
D03*
X353554Y89456D02*
D03*
X359631Y84430D02*
D03*
X372706Y56677D02*
D03*
X365659Y64900D02*
D03*
X359778Y71341D02*
D03*
X353331Y66000D02*
D03*
X352000Y37916D02*
D03*
X358300Y33349D02*
D03*
X364300Y39002D02*
D03*
X376100Y10583D02*
D03*
X364300Y15000D02*
D03*
X358340Y11659D02*
D03*
X351500Y14100D02*
D03*
X517900Y384643D02*
D03*
X513984Y380687D02*
D03*
X485635Y70450D02*
D03*
X485535Y64050D02*
D03*
X480500Y56453D02*
D03*
X479900Y45700D02*
D03*
X518379Y32322D02*
D03*
X540500Y296000D02*
D03*
X522534Y292150D02*
D03*
X531500Y323800D02*
D03*
X506906Y318156D02*
D03*
X533997Y361245D02*
D03*
X540400Y330150D02*
D03*
X520000Y330010D02*
D03*
X509200Y330150D02*
D03*
X371633Y300473D02*
D03*
X364400Y307900D02*
D03*
X358700Y314656D02*
D03*
X352234Y309083D02*
D03*
X364400Y332438D02*
D03*
X358846Y327457D02*
D03*
X352013Y333265D02*
D03*
X366160Y381671D02*
D03*
X360607Y376130D02*
D03*
X353774Y380749D02*
D03*
X366059Y356744D02*
D03*
X373993Y348741D02*
D03*
X353774Y357591D02*
D03*
X327266Y153965D02*
D03*
X327153Y169244D02*
D03*
X279154Y182733D02*
D03*
X271054Y175300D02*
D03*
X327153Y120041D02*
D03*
X326605Y105478D02*
D03*
X279446Y134829D02*
D03*
X275100Y120956D02*
D03*
X328169Y56300D02*
D03*
X328873Y71341D02*
D03*
X280469Y85012D02*
D03*
X267543Y72300D02*
D03*
X327559Y8714D02*
D03*
X329600Y21389D02*
D03*
X267040Y22656D02*
D03*
X281046Y34930D02*
D03*
X162123Y72112D02*
D03*
X230921Y234856D02*
D03*
X236794Y252201D02*
D03*
X214358Y255900D02*
D03*
X237141Y273641D02*
D03*
X143400Y356900D02*
D03*
Y368000D02*
D03*
X116600Y357600D02*
D03*
X103049Y364065D02*
D03*
X194260Y352277D02*
D03*
X176240Y368172D02*
D03*
X-41292Y232914D02*
D03*
X-40962Y204724D02*
D03*
X-41075Y214173D02*
D03*
Y223188D02*
D03*
X-40962Y242520D02*
D03*
Y248738D02*
D03*
Y255118D02*
D03*
Y261417D02*
D03*
Y264500D02*
D03*
X-25006Y129717D02*
D03*
X-40962Y135659D02*
D03*
Y144882D02*
D03*
Y154331D02*
D03*
Y163779D02*
D03*
Y173228D02*
D03*
Y182677D02*
D03*
X212900Y163400D02*
D03*
X179695Y171803D02*
D03*
X146200Y115035D02*
D03*
X158201Y107268D02*
D03*
X177414Y132395D02*
D03*
X173179D02*
D03*
X178000Y165275D02*
D03*
X172143Y161000D02*
D03*
X245426Y221859D02*
D03*
X249923Y236884D02*
D03*
X329142Y346000D02*
D03*
X327559Y361342D02*
D03*
X267008Y359461D02*
D03*
X279946Y374429D02*
D03*
X326986Y298700D02*
D03*
X328623Y313705D02*
D03*
X271554Y318823D02*
D03*
X279946Y328633D02*
D03*
X247200Y285600D02*
D03*
X242206Y214616D02*
D03*
X252143Y224182D02*
D03*
X327266Y216741D02*
D03*
X327559Y201400D02*
D03*
X271554Y222700D02*
D03*
X279946Y230929D02*
D03*
X280746Y279600D02*
D03*
X272354Y272571D02*
D03*
X328059Y249994D02*
D03*
X327559Y264823D02*
D03*
X517900Y378600D02*
D03*
X326788Y84761D02*
D03*
X308501Y79523D02*
D03*
X297128Y79841D02*
D03*
X326019Y132644D02*
D03*
X307156Y128313D02*
D03*
X295853Y128764D02*
D03*
X326070Y182733D02*
D03*
X306355Y177364D02*
D03*
X294979Y178417D02*
D03*
X326501Y230732D02*
D03*
X307271Y225057D02*
D03*
X295746Y225317D02*
D03*
X296513Y273707D02*
D03*
X327355Y278721D02*
D03*
X307849Y273300D02*
D03*
X325481Y326830D02*
D03*
X307281Y321880D02*
D03*
X295813Y322141D02*
D03*
X328059Y374429D02*
D03*
X307981Y369394D02*
D03*
X297113D02*
D03*
X326797Y36529D02*
D03*
X307581Y29794D02*
D03*
X296113Y30333D02*
D03*
X514800Y308100D02*
D03*
X31491Y106500D02*
D03*
X14232Y97752D02*
D03*
X524044Y306726D02*
D03*
X469365Y355851D02*
D03*
X470564Y348741D02*
D03*
X519721Y354939D02*
D03*
X526100Y358800D02*
D03*
X11000Y361400D02*
D03*
X6800Y362000D02*
D03*
X469267Y16047D02*
D03*
X376200Y384905D02*
D03*
X267534Y36529D02*
D03*
X267543Y54592D02*
D03*
X267028Y17002D02*
D03*
X302185Y8473D02*
D03*
X269500Y9000D02*
D03*
X184800Y92800D02*
D03*
X291900Y47300D02*
D03*
X392581Y12400D02*
D03*
X169740Y99900D02*
D03*
X178223D02*
D03*
X397416Y40602D02*
D03*
X405000Y23913D02*
D03*
X397083Y27618D02*
D03*
X406000Y75109D02*
D03*
X397209Y92094D02*
D03*
X397083Y78982D02*
D03*
X406000Y124231D02*
D03*
X398106Y142200D02*
D03*
X397199Y128043D02*
D03*
X405000Y172923D02*
D03*
X396060Y190300D02*
D03*
X397082Y176627D02*
D03*
Y223758D02*
D03*
X396060Y237700D02*
D03*
X405000Y219633D02*
D03*
Y267236D02*
D03*
X396060Y285347D02*
D03*
X397082Y271558D02*
D03*
X405000Y318859D02*
D03*
X397450Y335715D02*
D03*
Y322947D02*
D03*
X398106Y371510D02*
D03*
X407000Y368094D02*
D03*
X398106Y385783D02*
D03*
X464100Y351100D02*
D03*
X503700Y352600D02*
D03*
X508300Y359200D02*
D03*
X469365Y376359D02*
D03*
X467943Y328016D02*
D03*
X466533Y276200D02*
D03*
X466533Y228817D02*
D03*
X467758Y181531D02*
D03*
X467940Y132931D02*
D03*
X468874Y83836D02*
D03*
X468330Y33494D02*
D03*
X439586Y309344D02*
D03*
X437900Y259611D02*
D03*
Y212911D02*
D03*
X437569Y164111D02*
D03*
X439586Y359581D02*
D03*
X437300Y113500D02*
D03*
Y75322D02*
D03*
X442975Y354546D02*
D03*
X441768Y305617D02*
D03*
X439586Y254811D02*
D03*
X440586Y207011D02*
D03*
X441501Y159717D02*
D03*
X442432Y111511D02*
D03*
Y61996D02*
D03*
X437300Y63416D02*
D03*
Y23223D02*
D03*
X441800Y11095D02*
D03*
X437300D02*
D03*
Y4100D02*
D03*
X376100Y16000D02*
D03*
X377100Y66912D02*
D03*
Y116400D02*
D03*
X376200Y164633D02*
D03*
X376200Y211617D02*
D03*
X376200Y259417D02*
D03*
Y310617D02*
D03*
X369107Y359400D02*
D03*
X346400Y382100D02*
D03*
X152151Y101993D02*
D03*
X161877D02*
D03*
X327559Y40208D02*
D03*
Y89456D02*
D03*
X326797Y138156D02*
D03*
X327266Y187661D02*
D03*
Y234856D02*
D03*
X327355Y283924D02*
D03*
Y331821D02*
D03*
X329142Y379602D02*
D03*
X300704Y346300D02*
D03*
Y298292D02*
D03*
X301885Y250591D02*
D03*
X302185Y56300D02*
D03*
X300265Y104841D02*
D03*
X302185Y201700D02*
D03*
X300265Y155473D02*
D03*
X272354Y351259D02*
D03*
X271554Y304677D02*
D03*
X272254Y256091D02*
D03*
X272200Y207677D02*
D03*
X271054Y160361D02*
D03*
X267028Y115420D02*
D03*
X268481Y66744D02*
D03*
X-28400Y121800D02*
D03*
X-24969D02*
D03*
X-28400Y124700D02*
D03*
X12500Y90900D02*
D03*
X16100Y92300D02*
D03*
X17100Y96200D02*
D03*
X13103Y94900D02*
D03*
X-39664Y258268D02*
D03*
X115400Y30693D02*
D03*
Y34700D02*
D03*
X50800Y40300D02*
D03*
Y35200D02*
D03*
X5900Y135433D02*
D03*
X59518Y113659D02*
D03*
X103049Y320053D02*
D03*
X9361Y132283D02*
D03*
X-21331Y127079D02*
D03*
X227803Y214660D02*
D03*
X166902Y175900D02*
D03*
X230921Y221600D02*
D03*
X235575Y235141D02*
D03*
X236794Y255900D02*
D03*
X248859Y242681D02*
D03*
Y248026D02*
D03*
X252919Y263774D02*
D03*
X248859Y277214D02*
D03*
X225842Y278721D02*
D03*
X146200Y101993D02*
D03*
X155326Y161000D02*
D03*
X180845Y137528D02*
D03*
X64555Y12232D02*
D03*
X239201Y115420D02*
D03*
X239352Y144115D02*
D03*
X238500Y167000D02*
D03*
X239352Y190417D02*
D03*
X188100Y106438D02*
D03*
X190964Y152514D02*
D03*
X191500Y174400D02*
D03*
X192443Y197600D02*
D03*
X191078Y123184D02*
D03*
X13300Y33900D02*
D03*
X54700Y40300D02*
D03*
X172143Y54592D02*
D03*
X55768Y94900D02*
D03*
X20358Y138583D02*
D03*
X9495Y105435D02*
D03*
X78900Y368817D02*
D03*
X79000Y377300D02*
D03*
X6800Y365464D02*
D03*
X165100Y11800D02*
D03*
X120000Y31480D02*
D03*
X23620Y94900D02*
D03*
X62059Y122080D02*
D03*
X26600Y106700D02*
D03*
X-31135Y166929D02*
D03*
X-30664Y176378D02*
D03*
X-31368Y179528D02*
D03*
X312854Y348073D02*
D03*
X181725Y216705D02*
D03*
Y213843D02*
D03*
X119024Y216124D02*
D03*
X117000Y214100D02*
D03*
X183796Y228963D02*
D03*
Y226101D02*
D03*
X103500Y230609D02*
D03*
Y227747D02*
D03*
X183343Y238581D02*
D03*
Y235719D02*
D03*
X94461Y238581D02*
D03*
Y235719D02*
D03*
X180214Y246481D02*
D03*
Y243619D02*
D03*
X86861Y246481D02*
D03*
Y243619D02*
D03*
X-1800Y195800D02*
D03*
X-1481Y199134D02*
D03*
X-16845Y217323D02*
D03*
X-14821Y219347D02*
D03*
X179752Y270666D02*
D03*
X182713Y280881D02*
D03*
X180476Y278176D02*
D03*
X-33900Y225100D02*
D03*
X-34773Y227826D02*
D03*
X179819Y259962D02*
D03*
X179930Y256989D02*
D03*
X179695Y266817D02*
D03*
X182974Y286670D02*
D03*
Y289533D02*
D03*
X9796Y229791D02*
D03*
X11820Y227767D02*
D03*
X1790Y233912D02*
D03*
X3814Y231888D02*
D03*
X312869Y8473D02*
D03*
X313154Y58600D02*
D03*
X311854Y106773D02*
D03*
X311554Y156073D02*
D03*
X312254Y204114D02*
D03*
Y248026D02*
D03*
X312054Y300473D02*
D03*
X303085Y312217D02*
D03*
X255100Y311800D02*
D03*
X305955Y266547D02*
D03*
X255823Y261035D02*
D03*
X254700Y218012D02*
D03*
X304755D02*
D03*
X263477Y242300D02*
D03*
X214100Y204000D02*
D03*
X303485Y170123D02*
D03*
X222900Y201700D02*
D03*
X220000Y202200D02*
D03*
X217100Y202077D02*
D03*
X217600Y126600D02*
D03*
X220100Y90900D02*
D03*
X253700Y24790D02*
D03*
X250175Y154048D02*
D03*
X261500Y298400D02*
D03*
X259600Y179977D02*
D03*
X259900Y164500D02*
D03*
X257300Y161700D02*
D03*
X253800Y159100D02*
D03*
M02*
