G04*
G04 #@! TF.GenerationSoftware,Altium Limited,Altium Designer,23.11.1 (41)*
G04*
G04 Layer_Color=8421504*
%FSLAX25Y25*%
%MOIN*%
G70*
G04*
G04 #@! TF.SameCoordinates,DCB9D2B1-BB79-4F71-9744-01D9CE64EE89*
G04*
G04*
G04 #@! TF.FilePolarity,Positive*
G04*
G01*
G75*
%ADD18R,0.03543X0.02756*%
G04:AMPARAMS|DCode=19|XSize=23.62mil|YSize=57.09mil|CornerRadius=2.01mil|HoleSize=0mil|Usage=FLASHONLY|Rotation=90.000|XOffset=0mil|YOffset=0mil|HoleType=Round|Shape=RoundedRectangle|*
%AMROUNDEDRECTD19*
21,1,0.02362,0.05307,0,0,90.0*
21,1,0.01961,0.05709,0,0,90.0*
1,1,0.00402,0.02653,0.00980*
1,1,0.00402,0.02653,-0.00980*
1,1,0.00402,-0.02653,-0.00980*
1,1,0.00402,-0.02653,0.00980*
%
%ADD19ROUNDEDRECTD19*%
%ADD20R,0.03740X0.03347*%
%ADD21R,0.02756X0.03543*%
%ADD22R,0.03347X0.03740*%
%ADD23R,0.06004X0.02559*%
%ADD24R,0.06181X0.07441*%
%ADD25R,0.05512X0.01772*%
%ADD26R,0.05709X0.01772*%
%ADD27R,0.14173X0.10630*%
%ADD28R,0.05512X0.03937*%
%ADD29R,0.06614X0.07559*%
G04:AMPARAMS|DCode=30|XSize=47.64mil|YSize=71.65mil|CornerRadius=7.86mil|HoleSize=0mil|Usage=FLASHONLY|Rotation=270.000|XOffset=0mil|YOffset=0mil|HoleType=Round|Shape=RoundedRectangle|*
%AMROUNDEDRECTD30*
21,1,0.04764,0.05593,0,0,270.0*
21,1,0.03192,0.07165,0,0,270.0*
1,1,0.01572,-0.02797,-0.01596*
1,1,0.01572,-0.02797,0.01596*
1,1,0.01572,0.02797,0.01596*
1,1,0.01572,0.02797,-0.01596*
%
%ADD30ROUNDEDRECTD30*%
%ADD31R,0.11811X0.06299*%
%ADD32R,0.07165X0.04764*%
G04:AMPARAMS|DCode=33|XSize=47.64mil|YSize=71.65mil|CornerRadius=7.86mil|HoleSize=0mil|Usage=FLASHONLY|Rotation=0.000|XOffset=0mil|YOffset=0mil|HoleType=Round|Shape=RoundedRectangle|*
%AMROUNDEDRECTD33*
21,1,0.04764,0.05593,0,0,0.0*
21,1,0.03192,0.07165,0,0,0.0*
1,1,0.01572,0.01596,-0.02797*
1,1,0.01572,-0.01596,-0.02797*
1,1,0.01572,-0.01596,0.02797*
1,1,0.01572,0.01596,0.02797*
%
%ADD33ROUNDEDRECTD33*%
G04:AMPARAMS|DCode=34|XSize=25.59mil|YSize=64.96mil|CornerRadius=1.92mil|HoleSize=0mil|Usage=FLASHONLY|Rotation=270.000|XOffset=0mil|YOffset=0mil|HoleType=Round|Shape=RoundedRectangle|*
%AMROUNDEDRECTD34*
21,1,0.02559,0.06112,0,0,270.0*
21,1,0.02175,0.06496,0,0,270.0*
1,1,0.00384,-0.03056,-0.01088*
1,1,0.00384,-0.03056,0.01088*
1,1,0.00384,0.03056,0.01088*
1,1,0.00384,0.03056,-0.01088*
%
%ADD34ROUNDEDRECTD34*%
%ADD35R,0.05807X0.01181*%
%ADD36R,0.03150X0.03150*%
%ADD37R,0.16535X0.07480*%
%ADD38R,0.04134X0.02165*%
%ADD39R,0.06102X0.05315*%
%ADD40R,0.03937X0.08661*%
%ADD41R,0.12992X0.08661*%
%ADD42R,0.05807X0.01772*%
%ADD43R,0.04921X0.02362*%
%ADD44R,0.06693X0.09252*%
%ADD45R,0.29528X0.11811*%
%ADD46R,0.11024X0.02165*%
D18*
X80206Y70519D02*
D03*
Y76031D02*
D03*
X161781Y365757D02*
D03*
Y360245D02*
D03*
X52881Y362957D02*
D03*
Y357445D02*
D03*
X99104Y361719D02*
D03*
Y356207D02*
D03*
X88181Y312337D02*
D03*
Y317848D02*
D03*
X25320Y325857D02*
D03*
Y320345D02*
D03*
X30613Y123757D02*
D03*
Y118245D02*
D03*
X66884Y139457D02*
D03*
Y133945D02*
D03*
X66484Y122845D02*
D03*
Y128357D02*
D03*
X22572Y122644D02*
D03*
Y128156D02*
D03*
X406526Y317007D02*
D03*
Y322519D02*
D03*
Y223519D02*
D03*
Y218007D02*
D03*
X403861Y172806D02*
D03*
Y167295D02*
D03*
X402477Y124959D02*
D03*
Y119447D02*
D03*
X400593Y74678D02*
D03*
Y69166D02*
D03*
X371528Y57264D02*
D03*
Y62776D02*
D03*
X464198Y70161D02*
D03*
Y75673D02*
D03*
X469562Y70161D02*
D03*
Y75673D02*
D03*
X373411Y107545D02*
D03*
Y113057D02*
D03*
X466082Y120442D02*
D03*
Y125954D02*
D03*
X471445Y120442D02*
D03*
Y125954D02*
D03*
X374795Y155393D02*
D03*
Y160905D02*
D03*
X467465Y168290D02*
D03*
Y173802D02*
D03*
X472829Y168290D02*
D03*
Y173802D02*
D03*
X319670Y328670D02*
D03*
Y323158D02*
D03*
X319232Y280158D02*
D03*
Y274646D02*
D03*
X319405Y231811D02*
D03*
Y226299D02*
D03*
X318326Y183813D02*
D03*
Y178301D02*
D03*
X277982Y118556D02*
D03*
Y113044D02*
D03*
X317196Y135965D02*
D03*
Y130453D02*
D03*
X317663Y87840D02*
D03*
Y82328D02*
D03*
X371233Y10583D02*
D03*
Y16094D02*
D03*
X400299Y22484D02*
D03*
Y27996D02*
D03*
X463903Y23480D02*
D03*
Y28992D02*
D03*
X469267Y23480D02*
D03*
Y28992D02*
D03*
X279100Y70856D02*
D03*
Y65344D02*
D03*
X277696Y166535D02*
D03*
Y161024D02*
D03*
X470130Y224515D02*
D03*
Y219003D02*
D03*
X475494Y224515D02*
D03*
Y219003D02*
D03*
X377460Y211617D02*
D03*
Y206105D02*
D03*
X474838Y272315D02*
D03*
Y266803D02*
D03*
X469474Y272315D02*
D03*
Y266803D02*
D03*
X405870Y271319D02*
D03*
Y265807D02*
D03*
X376804Y259417D02*
D03*
Y253906D02*
D03*
X281100Y215256D02*
D03*
Y209744D02*
D03*
X279794Y264044D02*
D03*
Y258532D02*
D03*
X470130Y318003D02*
D03*
Y323515D02*
D03*
X475494Y318003D02*
D03*
Y323515D02*
D03*
X377460Y305105D02*
D03*
Y310617D02*
D03*
X279597Y312270D02*
D03*
Y306758D02*
D03*
X379220Y359546D02*
D03*
Y354034D02*
D03*
X477254Y372443D02*
D03*
Y366931D02*
D03*
X471890Y372443D02*
D03*
Y366931D02*
D03*
X408286Y371447D02*
D03*
Y365935D02*
D03*
X319020Y377991D02*
D03*
Y372480D02*
D03*
X278958Y361423D02*
D03*
Y355911D02*
D03*
X178800Y226856D02*
D03*
Y221344D02*
D03*
X513984Y312491D02*
D03*
Y318003D02*
D03*
X317665Y40040D02*
D03*
Y34528D02*
D03*
X277311Y23560D02*
D03*
Y18048D02*
D03*
X209686Y32699D02*
D03*
Y27187D02*
D03*
X185786Y23699D02*
D03*
Y18187D02*
D03*
D19*
X29443Y209823D02*
D03*
Y214823D02*
D03*
Y219823D02*
D03*
Y224823D02*
D03*
X7987Y209823D02*
D03*
Y214823D02*
D03*
Y219823D02*
D03*
Y224823D02*
D03*
D20*
X22572Y202146D02*
D03*
Y197028D02*
D03*
X29443Y197028D02*
D03*
Y202146D02*
D03*
X-590Y225000D02*
D03*
Y230118D02*
D03*
X-7407Y220020D02*
D03*
Y225138D02*
D03*
X46052Y230709D02*
D03*
Y225590D02*
D03*
X39866Y210039D02*
D03*
Y204921D02*
D03*
X46963Y213583D02*
D03*
Y208465D02*
D03*
X52742Y230728D02*
D03*
Y225610D02*
D03*
X70509Y42341D02*
D03*
Y47459D02*
D03*
X171642Y108553D02*
D03*
Y113671D02*
D03*
Y118241D02*
D03*
Y123359D02*
D03*
Y128241D02*
D03*
Y133359D02*
D03*
X17400Y339859D02*
D03*
Y334741D02*
D03*
X11300Y41259D02*
D03*
Y36141D02*
D03*
X155281Y360442D02*
D03*
Y365560D02*
D03*
X100120Y374360D02*
D03*
Y379478D02*
D03*
X155281Y348534D02*
D03*
Y353652D02*
D03*
X135120Y374460D02*
D03*
Y369342D02*
D03*
X67063Y363483D02*
D03*
Y358365D02*
D03*
X71820Y330360D02*
D03*
Y325242D02*
D03*
Y317652D02*
D03*
Y312533D02*
D03*
X16845Y122841D02*
D03*
Y127959D02*
D03*
Y134342D02*
D03*
Y139460D02*
D03*
X30334Y138781D02*
D03*
Y143899D02*
D03*
X163468Y37242D02*
D03*
Y32124D02*
D03*
Y18624D02*
D03*
Y23742D02*
D03*
X-20500Y136059D02*
D03*
Y130941D02*
D03*
X408954Y382453D02*
D03*
Y377335D02*
D03*
X407194Y328407D02*
D03*
Y333525D02*
D03*
Y234525D02*
D03*
Y229407D02*
D03*
X404529Y183813D02*
D03*
Y178694D02*
D03*
X403146Y135965D02*
D03*
Y130847D02*
D03*
X401262Y80566D02*
D03*
Y85684D02*
D03*
X279597Y349409D02*
D03*
Y344291D02*
D03*
X319570Y300473D02*
D03*
Y295355D02*
D03*
X319770Y315673D02*
D03*
Y310555D02*
D03*
X319132Y251961D02*
D03*
Y246843D02*
D03*
X319332Y267161D02*
D03*
Y262043D02*
D03*
X277982Y203228D02*
D03*
Y198110D02*
D03*
X319505Y218814D02*
D03*
Y213696D02*
D03*
X318426Y170816D02*
D03*
Y165698D02*
D03*
X276326Y107382D02*
D03*
Y102264D02*
D03*
X317096Y107768D02*
D03*
Y102650D02*
D03*
X317297Y122968D02*
D03*
Y117850D02*
D03*
X277697Y59257D02*
D03*
Y54139D02*
D03*
X317563Y59643D02*
D03*
Y54525D02*
D03*
X317763Y74843D02*
D03*
Y69725D02*
D03*
X400967Y33884D02*
D03*
Y39002D02*
D03*
X277697Y155496D02*
D03*
Y150378D02*
D03*
X280147Y251845D02*
D03*
Y246727D02*
D03*
Y300087D02*
D03*
Y294969D02*
D03*
X319120Y364995D02*
D03*
Y359876D02*
D03*
X318919Y349795D02*
D03*
Y344676D02*
D03*
X319305Y203614D02*
D03*
Y198496D02*
D03*
X318227Y155616D02*
D03*
Y150498D02*
D03*
X169303Y241235D02*
D03*
Y246353D02*
D03*
X544700Y353859D02*
D03*
Y348741D02*
D03*
X524300Y354718D02*
D03*
Y349600D02*
D03*
X514800Y355318D02*
D03*
Y350200D02*
D03*
X533800Y335959D02*
D03*
Y330841D02*
D03*
X540800Y291559D02*
D03*
Y286441D02*
D03*
X317565Y11843D02*
D03*
Y6725D02*
D03*
X317765Y27043D02*
D03*
Y21925D02*
D03*
X48300Y17952D02*
D03*
Y23070D02*
D03*
Y35379D02*
D03*
Y30261D02*
D03*
X34135Y81149D02*
D03*
Y86267D02*
D03*
X-11000Y130441D02*
D03*
Y135559D02*
D03*
X171642Y138567D02*
D03*
Y143685D02*
D03*
Y148339D02*
D03*
Y153457D02*
D03*
Y158870D02*
D03*
Y163989D02*
D03*
X171603Y169141D02*
D03*
Y174259D02*
D03*
Y179141D02*
D03*
Y184259D02*
D03*
X-29800Y130741D02*
D03*
Y135859D02*
D03*
X406538Y282325D02*
D03*
Y277207D02*
D03*
D21*
X34860Y230728D02*
D03*
X29348D02*
D03*
X92076Y376401D02*
D03*
X86564D02*
D03*
X396031Y378751D02*
D03*
X401543D02*
D03*
X395957Y384509D02*
D03*
X401469D02*
D03*
X394271Y329823D02*
D03*
X399783D02*
D03*
X394197Y335581D02*
D03*
X399709D02*
D03*
X399127Y278623D02*
D03*
X393615D02*
D03*
X393541Y284381D02*
D03*
X399053D02*
D03*
X394271Y230823D02*
D03*
X399783D02*
D03*
X394197Y236581D02*
D03*
X399709D02*
D03*
X391606Y180110D02*
D03*
X397118D02*
D03*
X391532Y185868D02*
D03*
X397044D02*
D03*
X395734Y132263D02*
D03*
X390222D02*
D03*
X390149Y138021D02*
D03*
X395660D02*
D03*
X393850Y81981D02*
D03*
X388338D02*
D03*
X388265Y87740D02*
D03*
X393777D02*
D03*
X460298Y367659D02*
D03*
X465810D02*
D03*
X421742Y383659D02*
D03*
X416230D02*
D03*
X459242Y354546D02*
D03*
X453730D02*
D03*
X414470Y334731D02*
D03*
X419982D02*
D03*
X451970Y305617D02*
D03*
X457482D02*
D03*
X419326Y283531D02*
D03*
X413814D02*
D03*
X456826Y254417D02*
D03*
X451314D02*
D03*
X458538Y219731D02*
D03*
X464050D02*
D03*
X457482Y206617D02*
D03*
X451970D02*
D03*
X455874Y169018D02*
D03*
X461385D02*
D03*
X454817Y155905D02*
D03*
X449305D02*
D03*
X415933Y137170D02*
D03*
X410421D02*
D03*
X414049Y86889D02*
D03*
X408537D02*
D03*
X446037Y57776D02*
D03*
X451549D02*
D03*
X458118Y70889D02*
D03*
X452606D02*
D03*
X447921Y108057D02*
D03*
X453433D02*
D03*
X454490Y121170D02*
D03*
X460002D02*
D03*
X411805Y185018D02*
D03*
X417317D02*
D03*
X387970Y41058D02*
D03*
X393482D02*
D03*
X393556Y35300D02*
D03*
X388044D02*
D03*
X445743Y11095D02*
D03*
X451255D02*
D03*
X408243Y40208D02*
D03*
X413755D02*
D03*
X457823Y24208D02*
D03*
X452312D02*
D03*
X201883Y283797D02*
D03*
X207395D02*
D03*
X206756Y237900D02*
D03*
X201244D02*
D03*
X209584Y115800D02*
D03*
X204072D02*
D03*
X224069Y125724D02*
D03*
X218557D02*
D03*
X214456Y171700D02*
D03*
X208944D02*
D03*
X491444Y64000D02*
D03*
X496956D02*
D03*
X496856Y70500D02*
D03*
X491344D02*
D03*
X50988Y96928D02*
D03*
X56499D02*
D03*
X464050Y318731D02*
D03*
X458538D02*
D03*
X457882Y267531D02*
D03*
X463394D02*
D03*
X419982Y235731D02*
D03*
X414470D02*
D03*
D22*
X82229Y57165D02*
D03*
X77111D02*
D03*
X19541Y114500D02*
D03*
X24659D02*
D03*
X19404Y145478D02*
D03*
X14286D02*
D03*
X232087Y175157D02*
D03*
X237205D02*
D03*
X232087Y168838D02*
D03*
X237205D02*
D03*
X221413Y167376D02*
D03*
X226531D02*
D03*
X221413Y160809D02*
D03*
X226531D02*
D03*
X223701Y154331D02*
D03*
X228819D02*
D03*
X223701Y147937D02*
D03*
X228819D02*
D03*
X223425Y141466D02*
D03*
X228543D02*
D03*
X223425Y135221D02*
D03*
X228543D02*
D03*
X219516Y244929D02*
D03*
X224634D02*
D03*
X219432Y251147D02*
D03*
X224551D02*
D03*
X219432Y257486D02*
D03*
X224551D02*
D03*
X219488Y263779D02*
D03*
X224606D02*
D03*
X219488Y269987D02*
D03*
X224606D02*
D03*
X219516Y276355D02*
D03*
X224634D02*
D03*
X219516Y283041D02*
D03*
X224634D02*
D03*
X224654Y288702D02*
D03*
X229772D02*
D03*
X181213Y283797D02*
D03*
X186331D02*
D03*
X465613Y361359D02*
D03*
X460495D02*
D03*
X415250Y327431D02*
D03*
X420368D02*
D03*
X415988Y261017D02*
D03*
X421106D02*
D03*
X421043Y267531D02*
D03*
X415925D02*
D03*
X419712Y276231D02*
D03*
X414594D02*
D03*
X463853Y213431D02*
D03*
X458735D02*
D03*
X416644Y213217D02*
D03*
X421762D02*
D03*
X421699Y219731D02*
D03*
X416581D02*
D03*
X420368Y228431D02*
D03*
X415250D02*
D03*
X413979Y162504D02*
D03*
X419097D02*
D03*
X413917Y169018D02*
D03*
X419035D02*
D03*
X412595Y114656D02*
D03*
X417713D02*
D03*
X417651Y121170D02*
D03*
X412533D02*
D03*
X416319Y129870D02*
D03*
X411201D02*
D03*
X410711Y64375D02*
D03*
X415830D02*
D03*
X415767Y70889D02*
D03*
X410649D02*
D03*
X414435Y79589D02*
D03*
X409317D02*
D03*
X338154Y69881D02*
D03*
X333035D02*
D03*
X452934Y81476D02*
D03*
X458052D02*
D03*
X338353Y78932D02*
D03*
X333235D02*
D03*
X452803Y64589D02*
D03*
X457921D02*
D03*
X458035Y59082D02*
D03*
X463154D02*
D03*
X340037Y120162D02*
D03*
X334919D02*
D03*
X454818Y131757D02*
D03*
X459936D02*
D03*
X340237Y129213D02*
D03*
X335119D02*
D03*
X454686Y114870D02*
D03*
X459805D02*
D03*
X459919Y109362D02*
D03*
X465037D02*
D03*
X412585Y177718D02*
D03*
X417703D02*
D03*
X341421Y168010D02*
D03*
X336303D02*
D03*
X456202Y179605D02*
D03*
X461320D02*
D03*
X341621Y177061D02*
D03*
X336503D02*
D03*
X456070Y162718D02*
D03*
X461189D02*
D03*
X461303Y157210D02*
D03*
X466421D02*
D03*
X409023Y32908D02*
D03*
X414141D02*
D03*
X410355Y24208D02*
D03*
X415473D02*
D03*
X415535Y17694D02*
D03*
X410417D02*
D03*
X337859Y23200D02*
D03*
X332741D02*
D03*
X452640Y34795D02*
D03*
X457758D02*
D03*
X338059Y32251D02*
D03*
X332941D02*
D03*
X452508Y17908D02*
D03*
X457626D02*
D03*
X457741Y12400D02*
D03*
X462859D02*
D03*
X469086Y207923D02*
D03*
X463968D02*
D03*
X463985Y230317D02*
D03*
X458867D02*
D03*
X468430Y255723D02*
D03*
X463312D02*
D03*
X463329Y278117D02*
D03*
X458211D02*
D03*
X339168Y227774D02*
D03*
X344286D02*
D03*
X338968Y218723D02*
D03*
X344086D02*
D03*
X343630Y275574D02*
D03*
X338512D02*
D03*
X338312Y266523D02*
D03*
X343430D02*
D03*
X463968Y306923D02*
D03*
X469086D02*
D03*
X458867Y329317D02*
D03*
X463985D02*
D03*
X416581Y318731D02*
D03*
X421699D02*
D03*
X421762Y312217D02*
D03*
X416644D02*
D03*
X344286Y326774D02*
D03*
X339168D02*
D03*
X344086Y317723D02*
D03*
X338968D02*
D03*
X340728Y366651D02*
D03*
X345846D02*
D03*
X340928Y375702D02*
D03*
X346046D02*
D03*
X422128Y376359D02*
D03*
X417010D02*
D03*
X465745Y378246D02*
D03*
X460627D02*
D03*
X470846Y355851D02*
D03*
X465728D02*
D03*
X423459Y367659D02*
D03*
X418341D02*
D03*
X418404Y361145D02*
D03*
X423522D02*
D03*
X287206Y6884D02*
D03*
X292324D02*
D03*
X69758Y57165D02*
D03*
X64640D02*
D03*
X28512Y70290D02*
D03*
X33630D02*
D03*
X458735Y312431D02*
D03*
X463853D02*
D03*
X51202Y103937D02*
D03*
X46084D02*
D03*
X38603Y103837D02*
D03*
X33484D02*
D03*
X463197Y261231D02*
D03*
X458079D02*
D03*
D23*
X37589Y138501D02*
D03*
Y133501D02*
D03*
Y128501D02*
D03*
Y123501D02*
D03*
X58943D02*
D03*
Y128501D02*
D03*
Y133501D02*
D03*
Y138501D02*
D03*
X286708Y90684D02*
D03*
Y85684D02*
D03*
Y80684D02*
D03*
Y75684D02*
D03*
Y70684D02*
D03*
Y65684D02*
D03*
Y60684D02*
D03*
X308063D02*
D03*
Y65684D02*
D03*
Y70684D02*
D03*
Y75684D02*
D03*
Y80684D02*
D03*
Y85684D02*
D03*
Y90684D02*
D03*
X287372Y186657D02*
D03*
Y181657D02*
D03*
Y176657D02*
D03*
Y171657D02*
D03*
Y166657D02*
D03*
Y161657D02*
D03*
Y156657D02*
D03*
X308727D02*
D03*
Y161657D02*
D03*
Y166657D02*
D03*
Y171657D02*
D03*
Y176657D02*
D03*
Y181657D02*
D03*
Y186657D02*
D03*
X286242Y138809D02*
D03*
Y133809D02*
D03*
Y128809D02*
D03*
Y123809D02*
D03*
Y118809D02*
D03*
Y113809D02*
D03*
Y108809D02*
D03*
X307596D02*
D03*
Y113809D02*
D03*
Y118809D02*
D03*
Y123809D02*
D03*
Y128809D02*
D03*
Y133809D02*
D03*
Y138809D02*
D03*
X309805Y234655D02*
D03*
Y229655D02*
D03*
Y224655D02*
D03*
Y219655D02*
D03*
Y214655D02*
D03*
Y209655D02*
D03*
Y204655D02*
D03*
X288451D02*
D03*
Y209655D02*
D03*
Y214655D02*
D03*
Y219655D02*
D03*
Y224655D02*
D03*
Y229655D02*
D03*
Y234655D02*
D03*
X288278Y283002D02*
D03*
Y278002D02*
D03*
Y273002D02*
D03*
Y268002D02*
D03*
Y263002D02*
D03*
Y258002D02*
D03*
Y253002D02*
D03*
X309632D02*
D03*
Y258002D02*
D03*
Y263002D02*
D03*
Y268002D02*
D03*
Y273002D02*
D03*
Y278002D02*
D03*
Y283002D02*
D03*
X288716Y331514D02*
D03*
Y326514D02*
D03*
Y321514D02*
D03*
Y316514D02*
D03*
Y311514D02*
D03*
Y306514D02*
D03*
Y301514D02*
D03*
X310070D02*
D03*
Y306514D02*
D03*
Y311514D02*
D03*
Y316514D02*
D03*
Y321514D02*
D03*
Y326514D02*
D03*
Y331514D02*
D03*
X288065Y380836D02*
D03*
Y375835D02*
D03*
Y370835D02*
D03*
Y365835D02*
D03*
Y360836D02*
D03*
Y355836D02*
D03*
Y350835D02*
D03*
X309419D02*
D03*
Y355836D02*
D03*
Y360836D02*
D03*
Y365835D02*
D03*
Y370835D02*
D03*
Y375835D02*
D03*
Y380836D02*
D03*
X286711Y42884D02*
D03*
Y37884D02*
D03*
Y32884D02*
D03*
Y27884D02*
D03*
Y22884D02*
D03*
Y17884D02*
D03*
Y12884D02*
D03*
X308065D02*
D03*
Y17884D02*
D03*
Y22884D02*
D03*
Y27884D02*
D03*
Y32884D02*
D03*
Y37884D02*
D03*
Y42884D02*
D03*
D24*
X44581Y322501D02*
D03*
D25*
X35920Y318663D02*
D03*
Y321222D02*
D03*
Y323781D02*
D03*
Y326340D02*
D03*
X53242D02*
D03*
Y323781D02*
D03*
Y321222D02*
D03*
Y318663D02*
D03*
X388850Y76859D02*
D03*
Y74300D02*
D03*
Y71741D02*
D03*
Y69182D02*
D03*
X371528D02*
D03*
Y71741D02*
D03*
Y74300D02*
D03*
Y76859D02*
D03*
X390734Y127140D02*
D03*
Y124581D02*
D03*
Y122022D02*
D03*
Y119463D02*
D03*
X373411D02*
D03*
Y122022D02*
D03*
Y124581D02*
D03*
Y127140D02*
D03*
X392118Y174987D02*
D03*
Y172428D02*
D03*
Y169869D02*
D03*
Y167310D02*
D03*
X374795D02*
D03*
Y169869D02*
D03*
Y172428D02*
D03*
Y174987D02*
D03*
X388556Y30177D02*
D03*
Y27618D02*
D03*
Y25059D02*
D03*
Y22500D02*
D03*
X371233D02*
D03*
Y25059D02*
D03*
Y27618D02*
D03*
Y30177D02*
D03*
X376804Y273500D02*
D03*
Y270941D02*
D03*
Y268382D02*
D03*
Y265823D02*
D03*
X394127D02*
D03*
Y268382D02*
D03*
Y270941D02*
D03*
Y273500D02*
D03*
X377460Y225700D02*
D03*
Y223141D02*
D03*
Y220582D02*
D03*
Y218023D02*
D03*
X394783D02*
D03*
Y220582D02*
D03*
Y223141D02*
D03*
Y225700D02*
D03*
Y324700D02*
D03*
Y322141D02*
D03*
Y319582D02*
D03*
Y317023D02*
D03*
X377460D02*
D03*
Y319582D02*
D03*
Y322141D02*
D03*
Y324700D02*
D03*
X379220Y373628D02*
D03*
Y371069D02*
D03*
Y368510D02*
D03*
Y365951D02*
D03*
X396543D02*
D03*
Y368510D02*
D03*
Y371069D02*
D03*
Y373628D02*
D03*
D26*
X74620Y366640D02*
D03*
Y364081D02*
D03*
Y361522D02*
D03*
Y358963D02*
D03*
X91942Y366640D02*
D03*
Y364081D02*
D03*
Y361522D02*
D03*
Y358963D02*
D03*
D27*
X130420Y354049D02*
D03*
Y322553D02*
D03*
D28*
X16063Y357901D02*
D03*
X26299D02*
D03*
X86048Y128457D02*
D03*
X96284D02*
D03*
X96184Y136901D02*
D03*
X85948D02*
D03*
X86257Y146064D02*
D03*
X96494D02*
D03*
D29*
X113014Y363966D02*
D03*
Y378769D02*
D03*
D30*
X178781Y354693D02*
D03*
Y366110D02*
D03*
X168781Y354393D02*
D03*
Y365810D02*
D03*
X44781Y358372D02*
D03*
Y369789D02*
D03*
X35181Y358372D02*
D03*
Y369789D02*
D03*
X96581Y312954D02*
D03*
Y324371D02*
D03*
X79635Y312954D02*
D03*
Y324371D02*
D03*
X17381Y326510D02*
D03*
Y315093D02*
D03*
X62381Y309893D02*
D03*
Y321310D02*
D03*
X74531Y128344D02*
D03*
Y116927D02*
D03*
X269579Y161668D02*
D03*
Y173085D02*
D03*
X268227Y114066D02*
D03*
Y125484D02*
D03*
X269143Y65646D02*
D03*
Y77063D02*
D03*
X272400Y209863D02*
D03*
Y221280D02*
D03*
X270254Y259325D02*
D03*
Y270743D02*
D03*
X269677Y305805D02*
D03*
Y317222D02*
D03*
X267426Y355714D02*
D03*
Y367131D02*
D03*
X170106Y232565D02*
D03*
Y221147D02*
D03*
X524103Y312447D02*
D03*
Y323864D02*
D03*
X268700Y18491D02*
D03*
Y29909D02*
D03*
X218786Y27235D02*
D03*
Y38652D02*
D03*
X178186Y18624D02*
D03*
Y30042D02*
D03*
X80206Y31534D02*
D03*
Y42951D02*
D03*
X64041Y15628D02*
D03*
Y27046D02*
D03*
X20057Y34954D02*
D03*
Y23537D02*
D03*
X118884Y42951D02*
D03*
Y31534D02*
D03*
D31*
X189020Y361073D02*
D03*
X206342D02*
D03*
D32*
X125756Y366426D02*
D03*
Y377844D02*
D03*
X530500Y292150D02*
D03*
Y280732D02*
D03*
D33*
X168528Y378801D02*
D03*
X157111D02*
D03*
X39072Y333601D02*
D03*
X50490D02*
D03*
X213548Y291597D02*
D03*
X202131D02*
D03*
X194991Y230600D02*
D03*
X206409D02*
D03*
X218438Y118241D02*
D03*
X229856D02*
D03*
X203977Y105672D02*
D03*
X215394D02*
D03*
X485791Y56200D02*
D03*
X497209D02*
D03*
X485635Y45600D02*
D03*
X497053D02*
D03*
X24035Y94637D02*
D03*
X35452D02*
D03*
X208691Y178700D02*
D03*
X220109D02*
D03*
D34*
X423249Y79589D02*
D03*
Y74589D02*
D03*
Y69589D02*
D03*
Y64589D02*
D03*
X445493Y79589D02*
D03*
Y74589D02*
D03*
Y69589D02*
D03*
Y64589D02*
D03*
X425133Y129870D02*
D03*
Y124870D02*
D03*
Y119870D02*
D03*
Y114870D02*
D03*
X447377Y129870D02*
D03*
Y124870D02*
D03*
Y119870D02*
D03*
Y114870D02*
D03*
X426517Y177718D02*
D03*
Y172718D02*
D03*
Y167718D02*
D03*
Y162718D02*
D03*
X448761Y177718D02*
D03*
Y172718D02*
D03*
Y167718D02*
D03*
Y162718D02*
D03*
X422955Y32908D02*
D03*
Y27908D02*
D03*
Y22908D02*
D03*
Y17908D02*
D03*
X445199Y32908D02*
D03*
Y27908D02*
D03*
Y22908D02*
D03*
Y17908D02*
D03*
X451426Y213431D02*
D03*
Y218431D02*
D03*
Y223431D02*
D03*
Y228431D02*
D03*
X429182Y213431D02*
D03*
Y218431D02*
D03*
Y223431D02*
D03*
Y228431D02*
D03*
X450770Y261231D02*
D03*
Y266231D02*
D03*
Y271231D02*
D03*
Y276231D02*
D03*
X428526Y261231D02*
D03*
Y266231D02*
D03*
Y271231D02*
D03*
Y276231D02*
D03*
X429182Y327431D02*
D03*
Y322431D02*
D03*
Y317431D02*
D03*
Y312431D02*
D03*
X451426Y327431D02*
D03*
Y322431D02*
D03*
Y317431D02*
D03*
Y312431D02*
D03*
X453186Y361359D02*
D03*
Y366359D02*
D03*
Y371359D02*
D03*
Y376359D02*
D03*
X430942Y361359D02*
D03*
Y366359D02*
D03*
Y371359D02*
D03*
Y376359D02*
D03*
D35*
X206906Y278813D02*
D03*
Y276845D02*
D03*
Y274876D02*
D03*
Y272908D02*
D03*
Y270939D02*
D03*
Y268971D02*
D03*
Y267002D02*
D03*
Y265034D02*
D03*
Y263065D02*
D03*
Y261097D02*
D03*
Y259128D02*
D03*
Y257160D02*
D03*
Y255191D02*
D03*
Y253223D02*
D03*
Y251254D02*
D03*
Y249286D02*
D03*
Y247317D02*
D03*
Y245349D02*
D03*
Y243380D02*
D03*
X183772D02*
D03*
Y245349D02*
D03*
Y247317D02*
D03*
Y249286D02*
D03*
Y251254D02*
D03*
Y253223D02*
D03*
Y255191D02*
D03*
Y257160D02*
D03*
Y259128D02*
D03*
Y261097D02*
D03*
Y263065D02*
D03*
Y265034D02*
D03*
Y267002D02*
D03*
Y268971D02*
D03*
Y270939D02*
D03*
Y272908D02*
D03*
Y274876D02*
D03*
Y276845D02*
D03*
Y278813D02*
D03*
X185833Y166717D02*
D03*
Y164748D02*
D03*
Y162779D02*
D03*
Y160811D02*
D03*
Y158843D02*
D03*
Y156874D02*
D03*
Y154905D02*
D03*
Y152937D02*
D03*
Y150969D02*
D03*
Y149000D02*
D03*
Y147031D02*
D03*
Y145063D02*
D03*
Y143095D02*
D03*
Y141126D02*
D03*
Y139157D02*
D03*
Y137189D02*
D03*
Y135221D02*
D03*
Y133252D02*
D03*
Y131283D02*
D03*
X208967D02*
D03*
Y133252D02*
D03*
Y135221D02*
D03*
Y137189D02*
D03*
Y139157D02*
D03*
Y141126D02*
D03*
Y143095D02*
D03*
Y145063D02*
D03*
Y147031D02*
D03*
Y149000D02*
D03*
Y150969D02*
D03*
Y152937D02*
D03*
Y154905D02*
D03*
Y156874D02*
D03*
Y158843D02*
D03*
Y160811D02*
D03*
Y162779D02*
D03*
Y164748D02*
D03*
Y166717D02*
D03*
D36*
X545000Y336309D02*
D03*
Y330010D02*
D03*
X533800Y355809D02*
D03*
Y349510D02*
D03*
X514800Y336350D02*
D03*
Y330050D02*
D03*
X524300Y336450D02*
D03*
Y330150D02*
D03*
D37*
X490821Y22000D02*
D03*
X518379D02*
D03*
D38*
X191568Y26983D02*
D03*
Y23243D02*
D03*
Y19503D02*
D03*
X201804D02*
D03*
Y23243D02*
D03*
Y26983D02*
D03*
D39*
X164644Y63506D02*
D03*
Y71380D02*
D03*
X50177Y65039D02*
D03*
Y57165D02*
D03*
X26264Y86665D02*
D03*
Y78791D02*
D03*
X83943Y94174D02*
D03*
Y86300D02*
D03*
D40*
X108931Y42432D02*
D03*
X99875D02*
D03*
X90820D02*
D03*
D41*
X99875Y18810D02*
D03*
D42*
X50177Y91385D02*
D03*
Y88826D02*
D03*
Y86267D02*
D03*
Y83708D02*
D03*
Y81149D02*
D03*
Y78590D02*
D03*
Y76031D02*
D03*
Y73472D02*
D03*
X73310D02*
D03*
Y76031D02*
D03*
Y78590D02*
D03*
Y81149D02*
D03*
Y83708D02*
D03*
Y86267D02*
D03*
Y88826D02*
D03*
Y91385D02*
D03*
D43*
X39921Y35140D02*
D03*
Y27660D02*
D03*
X30079D02*
D03*
Y31400D02*
D03*
Y35140D02*
D03*
D44*
X99643Y85732D02*
D03*
Y68803D02*
D03*
D45*
X132405Y65815D02*
D03*
Y85500D02*
D03*
D46*
X-49000Y264567D02*
D03*
Y261417D02*
D03*
Y258268D02*
D03*
Y255118D02*
D03*
Y251969D02*
D03*
Y248819D02*
D03*
Y245669D02*
D03*
Y242520D02*
D03*
Y239370D02*
D03*
Y236221D02*
D03*
Y233071D02*
D03*
Y229921D02*
D03*
Y226772D02*
D03*
Y223622D02*
D03*
Y220472D02*
D03*
Y217323D02*
D03*
Y214173D02*
D03*
Y211024D02*
D03*
Y207874D02*
D03*
Y204724D02*
D03*
Y201575D02*
D03*
Y198425D02*
D03*
Y182677D02*
D03*
Y179528D02*
D03*
Y176378D02*
D03*
Y173228D02*
D03*
Y170079D02*
D03*
Y166929D02*
D03*
Y163779D02*
D03*
Y160630D02*
D03*
Y157480D02*
D03*
Y154331D02*
D03*
Y151181D02*
D03*
Y148031D02*
D03*
Y144882D02*
D03*
Y141732D02*
D03*
Y138583D02*
D03*
Y135433D02*
D03*
Y132283D02*
D03*
Y129134D02*
D03*
M02*
