G04*
G04 #@! TF.GenerationSoftware,Altium Limited,Altium Designer,23.11.1 (41)*
G04*
G04 Layer_Color=16711935*
%FSLAX25Y25*%
%MOIN*%
G70*
G04*
G04 #@! TF.SameCoordinates,DCB9D2B1-BB79-4F71-9744-01D9CE64EE89*
G04*
G04*
G04 #@! TF.FilePolarity,Positive*
G04*
G01*
G75*
%ADD13C,0.00394*%
G36*
X438936Y73129D02*
X438965D01*
X439001Y73126D01*
X439041Y73122D01*
X439081Y73119D01*
X439172Y73104D01*
X439271Y73082D01*
X439365Y73053D01*
X439456Y73013D01*
X439460D01*
X439467Y73006D01*
X439478Y72998D01*
X439493Y72991D01*
X439533Y72962D01*
X439580Y72922D01*
X439635Y72871D01*
X439686Y72813D01*
X439737Y72740D01*
X439777Y72660D01*
Y72656D01*
X439780Y72649D01*
X439784Y72634D01*
X439791Y72616D01*
X439798Y72594D01*
X439806Y72565D01*
X439817Y72532D01*
X439824Y72492D01*
X439831Y72449D01*
X439842Y72401D01*
X439850Y72351D01*
X439857Y72296D01*
X439864Y72234D01*
X439868Y72168D01*
X439871Y72099D01*
Y72026D01*
Y70570D01*
X439536D01*
Y72026D01*
Y72030D01*
Y72041D01*
Y72059D01*
Y72081D01*
X439533Y72107D01*
Y72139D01*
X439529Y72208D01*
X439522Y72289D01*
X439511Y72369D01*
X439496Y72445D01*
X439489Y72478D01*
X439478Y72511D01*
X439474Y72518D01*
X439467Y72536D01*
X439449Y72562D01*
X439427Y72598D01*
X439402Y72634D01*
X439365Y72675D01*
X439322Y72715D01*
X439271Y72747D01*
X439263Y72751D01*
X439245Y72762D01*
X439213Y72773D01*
X439169Y72787D01*
X439118Y72806D01*
X439052Y72816D01*
X438983Y72827D01*
X438907Y72831D01*
X438870D01*
X438848Y72827D01*
X438816D01*
X438783Y72824D01*
X438703Y72809D01*
X438616Y72791D01*
X438532Y72762D01*
X438452Y72722D01*
X438415Y72696D01*
X438382Y72667D01*
X438379Y72663D01*
X438375Y72660D01*
X438368Y72649D01*
X438357Y72634D01*
X438346Y72613D01*
X438332Y72591D01*
X438317Y72558D01*
X438303Y72525D01*
X438288Y72485D01*
X438277Y72438D01*
X438262Y72383D01*
X438251Y72325D01*
X438241Y72259D01*
X438233Y72190D01*
X438226Y72110D01*
Y72026D01*
Y70570D01*
X437891D01*
Y72026D01*
Y72030D01*
Y72045D01*
Y72063D01*
Y72088D01*
X437895Y72121D01*
Y72158D01*
X437898Y72201D01*
X437902Y72245D01*
X437913Y72343D01*
X437927Y72445D01*
X437949Y72543D01*
X437964Y72591D01*
X437979Y72634D01*
Y72638D01*
X437982Y72645D01*
X437989Y72656D01*
X437997Y72671D01*
X438019Y72711D01*
X438051Y72762D01*
X438095Y72820D01*
X438146Y72878D01*
X438211Y72940D01*
X438292Y72995D01*
X438295D01*
X438303Y73002D01*
X438313Y73006D01*
X438332Y73017D01*
X438353Y73027D01*
X438382Y73039D01*
X438412Y73049D01*
X438448Y73064D01*
X438488Y73079D01*
X438532Y73089D01*
X438579Y73100D01*
X438634Y73111D01*
X438688Y73119D01*
X438747Y73126D01*
X438878Y73133D01*
X438910D01*
X438936Y73129D01*
D02*
G37*
G36*
X433432Y70570D02*
X432442D01*
X432417Y70574D01*
X432387D01*
X432322Y70582D01*
X432249Y70589D01*
X432173Y70603D01*
X432096Y70622D01*
X432027Y70647D01*
X432023D01*
X432020Y70651D01*
X431998Y70661D01*
X431965Y70680D01*
X431929Y70705D01*
X431885Y70738D01*
X431838Y70778D01*
X431794Y70829D01*
X431754Y70884D01*
X431750Y70891D01*
X431740Y70913D01*
X431721Y70942D01*
X431703Y70986D01*
X431685Y71036D01*
X431667Y71091D01*
X431656Y71153D01*
X431652Y71215D01*
Y71222D01*
Y71240D01*
X431656Y71273D01*
X431663Y71313D01*
X431674Y71360D01*
X431692Y71411D01*
X431714Y71462D01*
X431743Y71517D01*
X431747Y71524D01*
X431758Y71539D01*
X431780Y71568D01*
X431809Y71597D01*
X431845Y71633D01*
X431889Y71674D01*
X431943Y71710D01*
X432005Y71746D01*
X432002D01*
X431994Y71750D01*
X431983Y71754D01*
X431969Y71761D01*
X431925Y71775D01*
X431874Y71801D01*
X431820Y71834D01*
X431758Y71874D01*
X431703Y71921D01*
X431652Y71979D01*
X431648Y71987D01*
X431634Y72008D01*
X431612Y72041D01*
X431590Y72085D01*
X431568Y72143D01*
X431547Y72205D01*
X431532Y72278D01*
X431528Y72358D01*
Y72361D01*
Y72365D01*
Y72387D01*
X431532Y72423D01*
X431539Y72467D01*
X431547Y72518D01*
X431561Y72572D01*
X431579Y72631D01*
X431605Y72689D01*
X431608Y72696D01*
X431619Y72715D01*
X431634Y72740D01*
X431656Y72776D01*
X431685Y72813D01*
X431714Y72853D01*
X431750Y72893D01*
X431790Y72926D01*
X431794Y72929D01*
X431809Y72940D01*
X431834Y72955D01*
X431867Y72969D01*
X431907Y72991D01*
X431954Y73013D01*
X432005Y73031D01*
X432067Y73049D01*
X432074D01*
X432096Y73057D01*
X432133Y73060D01*
X432180Y73068D01*
X432238Y73075D01*
X432307Y73082D01*
X432384Y73086D01*
X432471Y73089D01*
X433432D01*
Y70570D01*
D02*
G37*
G36*
X436606Y71120D02*
X436610Y71124D01*
X436628Y71138D01*
X436650Y71160D01*
X436686Y71186D01*
X436726Y71219D01*
X436777Y71255D01*
X436835Y71295D01*
X436901Y71335D01*
X436905D01*
X436908Y71339D01*
X436930Y71353D01*
X436967Y71371D01*
X437010Y71393D01*
X437061Y71419D01*
X437116Y71444D01*
X437170Y71470D01*
X437225Y71491D01*
Y71193D01*
X437221D01*
X437214Y71186D01*
X437199Y71182D01*
X437181Y71171D01*
X437159Y71160D01*
X437134Y71146D01*
X437072Y71109D01*
X436999Y71069D01*
X436927Y71018D01*
X436850Y70960D01*
X436774Y70898D01*
X436770Y70894D01*
X436766Y70891D01*
X436756Y70880D01*
X436741Y70869D01*
X436708Y70833D01*
X436664Y70789D01*
X436621Y70738D01*
X436574Y70680D01*
X436533Y70622D01*
X436497Y70560D01*
X436297D01*
Y73089D01*
X436606D01*
Y71120D01*
D02*
G37*
G36*
X434742Y73129D02*
X434772Y73126D01*
X434808Y73119D01*
X434848Y73111D01*
X434892Y73100D01*
X434936Y73086D01*
X434983Y73071D01*
X435030Y73049D01*
X435077Y73024D01*
X435125Y72995D01*
X435172Y72958D01*
X435216Y72918D01*
X435256Y72875D01*
X435259Y72871D01*
X435267Y72860D01*
X435278Y72842D01*
X435296Y72813D01*
X435314Y72780D01*
X435332Y72736D01*
X435358Y72685D01*
X435380Y72627D01*
X435401Y72562D01*
X435423Y72485D01*
X435445Y72401D01*
X435463Y72307D01*
X435482Y72205D01*
X435492Y72096D01*
X435500Y71976D01*
X435503Y71848D01*
Y71845D01*
Y71830D01*
Y71804D01*
Y71775D01*
X435500Y71735D01*
Y71692D01*
X435496Y71644D01*
X435492Y71590D01*
X435482Y71477D01*
X435463Y71357D01*
X435441Y71237D01*
X435427Y71182D01*
X435412Y71127D01*
Y71124D01*
X435409Y71117D01*
X435401Y71102D01*
X435394Y71084D01*
X435387Y71058D01*
X435372Y71033D01*
X435343Y70971D01*
X435307Y70905D01*
X435259Y70836D01*
X435205Y70767D01*
X435139Y70709D01*
X435136D01*
X435132Y70702D01*
X435121Y70694D01*
X435107Y70687D01*
X435088Y70673D01*
X435067Y70661D01*
X435012Y70632D01*
X434946Y70607D01*
X434870Y70582D01*
X434779Y70567D01*
X434681Y70560D01*
X434648D01*
X434608Y70563D01*
X434560Y70570D01*
X434506Y70582D01*
X434448Y70596D01*
X434386Y70614D01*
X434328Y70643D01*
X434324D01*
X434320Y70647D01*
X434302Y70658D01*
X434273Y70676D01*
X434237Y70702D01*
X434197Y70738D01*
X434153Y70778D01*
X434113Y70825D01*
X434073Y70880D01*
X434069Y70887D01*
X434055Y70905D01*
X434040Y70938D01*
X434015Y70986D01*
X433993Y71040D01*
X433964Y71102D01*
X433938Y71175D01*
X433916Y71255D01*
Y71258D01*
X433913Y71266D01*
X433909Y71277D01*
X433905Y71295D01*
X433902Y71317D01*
X433898Y71342D01*
X433891Y71375D01*
X433887Y71411D01*
X433880Y71451D01*
X433876Y71495D01*
X433873Y71546D01*
X433865Y71597D01*
X433862Y71655D01*
Y71714D01*
X433858Y71779D01*
Y71848D01*
Y71852D01*
Y71866D01*
Y71892D01*
Y71921D01*
X433862Y71961D01*
Y72005D01*
X433865Y72052D01*
X433869Y72103D01*
X433880Y72220D01*
X433898Y72340D01*
X433920Y72456D01*
X433934Y72511D01*
X433953Y72565D01*
Y72569D01*
X433956Y72576D01*
X433964Y72591D01*
X433971Y72609D01*
X433978Y72634D01*
X433993Y72660D01*
X434022Y72722D01*
X434058Y72787D01*
X434105Y72860D01*
X434160Y72926D01*
X434226Y72988D01*
X434229D01*
X434233Y72995D01*
X434244Y73002D01*
X434258Y73009D01*
X434277Y73020D01*
X434295Y73035D01*
X434349Y73060D01*
X434415Y73086D01*
X434491Y73111D01*
X434582Y73126D01*
X434681Y73133D01*
X434717D01*
X434742Y73129D01*
D02*
G37*
G36*
X434286Y123410D02*
X434318D01*
X434359Y123407D01*
X434402Y123399D01*
X434453Y123392D01*
X434559Y123374D01*
X434668Y123345D01*
X434777Y123305D01*
X434828Y123279D01*
X434879Y123250D01*
X434883Y123247D01*
X434890Y123243D01*
X434904Y123232D01*
X434919Y123217D01*
X434941Y123203D01*
X434966Y123181D01*
X434996Y123156D01*
X435025Y123126D01*
X435054Y123094D01*
X435086Y123061D01*
X435152Y122977D01*
X435214Y122879D01*
X435268Y122770D01*
Y122766D01*
X435276Y122755D01*
X435279Y122737D01*
X435290Y122715D01*
X435298Y122686D01*
X435309Y122650D01*
X435323Y122610D01*
X435334Y122566D01*
X435345Y122519D01*
X435359Y122464D01*
X435378Y122351D01*
X435392Y122224D01*
X435400Y122093D01*
Y122089D01*
Y122074D01*
Y122053D01*
X435396Y122027D01*
Y121991D01*
X435392Y121954D01*
X435389Y121907D01*
X435381Y121860D01*
X435363Y121754D01*
X435338Y121638D01*
X435301Y121521D01*
X435250Y121408D01*
X435247Y121405D01*
X435243Y121394D01*
X435236Y121379D01*
X435221Y121361D01*
X435207Y121336D01*
X435188Y121307D01*
X435141Y121241D01*
X435079Y121168D01*
X435007Y121095D01*
X434923Y121023D01*
X434824Y120961D01*
X434821Y120957D01*
X434810Y120953D01*
X434795Y120946D01*
X434777Y120935D01*
X434748Y120924D01*
X434719Y120913D01*
X434683Y120899D01*
X434643Y120884D01*
X434599Y120870D01*
X434551Y120855D01*
X434449Y120833D01*
X434333Y120815D01*
X434213Y120808D01*
X434176D01*
X434151Y120811D01*
X434118Y120815D01*
X434078Y120819D01*
X434038Y120822D01*
X433991Y120833D01*
X433893Y120855D01*
X433783Y120888D01*
X433729Y120910D01*
X433678Y120935D01*
X433627Y120968D01*
X433576Y121001D01*
X433572Y121004D01*
X433565Y121008D01*
X433551Y121019D01*
X433532Y121037D01*
X433514Y121055D01*
X433489Y121081D01*
X433463Y121110D01*
X433434Y121139D01*
X433405Y121176D01*
X433376Y121219D01*
X433343Y121263D01*
X433314Y121310D01*
X433288Y121365D01*
X433259Y121419D01*
X433237Y121478D01*
X433216Y121543D01*
X433543Y121620D01*
Y121616D01*
X433547Y121609D01*
X433554Y121594D01*
X433561Y121576D01*
X433569Y121554D01*
X433580Y121525D01*
X433609Y121467D01*
X433645Y121401D01*
X433689Y121336D01*
X433743Y121274D01*
X433802Y121219D01*
X433809Y121212D01*
X433831Y121197D01*
X433867Y121179D01*
X433915Y121154D01*
X433976Y121132D01*
X434046Y121110D01*
X434129Y121095D01*
X434220Y121092D01*
X434249D01*
X434268Y121095D01*
X434293D01*
X434322Y121099D01*
X434391Y121110D01*
X434468Y121124D01*
X434548Y121150D01*
X434631Y121186D01*
X434708Y121234D01*
X434712D01*
X434715Y121241D01*
X434741Y121259D01*
X434773Y121288D01*
X434813Y121332D01*
X434861Y121387D01*
X434904Y121449D01*
X434945Y121525D01*
X434981Y121609D01*
Y121612D01*
X434985Y121620D01*
X434988Y121631D01*
X434992Y121649D01*
X434999Y121670D01*
X435007Y121696D01*
X435017Y121758D01*
X435032Y121831D01*
X435046Y121911D01*
X435054Y121998D01*
X435057Y122093D01*
Y122096D01*
Y122107D01*
Y122125D01*
Y122147D01*
X435054Y122173D01*
Y122206D01*
X435050Y122242D01*
X435046Y122282D01*
X435036Y122369D01*
X435017Y122464D01*
X434996Y122559D01*
X434966Y122653D01*
Y122657D01*
X434963Y122664D01*
X434956Y122675D01*
X434948Y122693D01*
X434926Y122737D01*
X434894Y122788D01*
X434854Y122846D01*
X434803Y122908D01*
X434744Y122963D01*
X434675Y123014D01*
X434672D01*
X434664Y123017D01*
X434653Y123025D01*
X434639Y123032D01*
X434621Y123039D01*
X434599Y123050D01*
X434548Y123072D01*
X434482Y123094D01*
X434410Y123112D01*
X434329Y123126D01*
X434246Y123130D01*
X434220D01*
X434198Y123126D01*
X434173D01*
X434147Y123123D01*
X434082Y123108D01*
X434005Y123090D01*
X433929Y123061D01*
X433849Y123021D01*
X433809Y122999D01*
X433773Y122970D01*
X433769Y122966D01*
X433765Y122963D01*
X433754Y122952D01*
X433740Y122941D01*
X433725Y122923D01*
X433707Y122901D01*
X433685Y122879D01*
X433667Y122850D01*
X433645Y122817D01*
X433620Y122781D01*
X433598Y122744D01*
X433576Y122701D01*
X433558Y122653D01*
X433539Y122602D01*
X433521Y122548D01*
X433507Y122490D01*
X433172Y122573D01*
Y122577D01*
X433176Y122591D01*
X433183Y122613D01*
X433194Y122642D01*
X433205Y122675D01*
X433219Y122715D01*
X433237Y122759D01*
X433259Y122806D01*
X433310Y122908D01*
X433376Y123010D01*
X433416Y123061D01*
X433456Y123112D01*
X433499Y123156D01*
X433551Y123199D01*
X433554Y123203D01*
X433561Y123210D01*
X433580Y123217D01*
X433598Y123232D01*
X433627Y123250D01*
X433656Y123268D01*
X433696Y123287D01*
X433736Y123305D01*
X433783Y123327D01*
X433834Y123345D01*
X433889Y123363D01*
X433947Y123381D01*
X434009Y123396D01*
X434075Y123403D01*
X434144Y123410D01*
X434217Y123414D01*
X434257D01*
X434286Y123410D01*
D02*
G37*
G36*
X440820D02*
X440849D01*
X440885Y123407D01*
X440925Y123403D01*
X440965Y123399D01*
X441056Y123385D01*
X441154Y123363D01*
X441249Y123334D01*
X441340Y123294D01*
X441344D01*
X441351Y123287D01*
X441362Y123279D01*
X441376Y123272D01*
X441417Y123243D01*
X441464Y123203D01*
X441518Y123152D01*
X441569Y123094D01*
X441620Y123021D01*
X441660Y122941D01*
Y122937D01*
X441664Y122930D01*
X441668Y122915D01*
X441675Y122897D01*
X441682Y122875D01*
X441689Y122846D01*
X441700Y122813D01*
X441708Y122773D01*
X441715Y122730D01*
X441726Y122682D01*
X441733Y122632D01*
X441740Y122577D01*
X441748Y122515D01*
X441751Y122450D01*
X441755Y122380D01*
Y122308D01*
Y120852D01*
X441420D01*
Y122308D01*
Y122311D01*
Y122322D01*
Y122340D01*
Y122362D01*
X441417Y122388D01*
Y122420D01*
X441413Y122490D01*
X441406Y122570D01*
X441395Y122650D01*
X441380Y122726D01*
X441373Y122759D01*
X441362Y122792D01*
X441358Y122799D01*
X441351Y122817D01*
X441333Y122843D01*
X441311Y122879D01*
X441286Y122915D01*
X441249Y122955D01*
X441205Y122995D01*
X441154Y123028D01*
X441147Y123032D01*
X441129Y123043D01*
X441096Y123054D01*
X441052Y123068D01*
X441002Y123087D01*
X440936Y123097D01*
X440867Y123108D01*
X440790Y123112D01*
X440754D01*
X440732Y123108D01*
X440699D01*
X440667Y123105D01*
X440587Y123090D01*
X440499Y123072D01*
X440415Y123043D01*
X440335Y123003D01*
X440299Y122977D01*
X440266Y122948D01*
X440263Y122944D01*
X440259Y122941D01*
X440252Y122930D01*
X440241Y122915D01*
X440230Y122894D01*
X440215Y122872D01*
X440201Y122839D01*
X440186Y122806D01*
X440172Y122766D01*
X440161Y122719D01*
X440146Y122664D01*
X440135Y122606D01*
X440124Y122540D01*
X440117Y122471D01*
X440110Y122391D01*
Y122308D01*
Y120852D01*
X439775D01*
Y122308D01*
Y122311D01*
Y122326D01*
Y122344D01*
Y122369D01*
X439779Y122402D01*
Y122439D01*
X439782Y122482D01*
X439786Y122526D01*
X439797Y122624D01*
X439811Y122726D01*
X439833Y122824D01*
X439848Y122872D01*
X439862Y122915D01*
Y122919D01*
X439866Y122926D01*
X439873Y122937D01*
X439880Y122952D01*
X439902Y122992D01*
X439935Y123043D01*
X439979Y123101D01*
X440030Y123159D01*
X440095Y123221D01*
X440175Y123276D01*
X440179D01*
X440186Y123283D01*
X440197Y123287D01*
X440215Y123298D01*
X440237Y123309D01*
X440266Y123319D01*
X440295Y123330D01*
X440332Y123345D01*
X440372Y123360D01*
X440415Y123370D01*
X440463Y123381D01*
X440517Y123392D01*
X440572Y123399D01*
X440630Y123407D01*
X440761Y123414D01*
X440794D01*
X440820Y123410D01*
D02*
G37*
G36*
X438490Y121401D02*
X438494Y121405D01*
X438512Y121419D01*
X438534Y121441D01*
X438570Y121467D01*
X438610Y121499D01*
X438661Y121536D01*
X438719Y121576D01*
X438785Y121616D01*
X438788D01*
X438792Y121620D01*
X438814Y121634D01*
X438850Y121652D01*
X438894Y121674D01*
X438945Y121700D01*
X439000Y121725D01*
X439054Y121751D01*
X439109Y121772D01*
Y121474D01*
X439105D01*
X439098Y121467D01*
X439083Y121463D01*
X439065Y121452D01*
X439043Y121441D01*
X439018Y121427D01*
X438956Y121390D01*
X438883Y121350D01*
X438810Y121299D01*
X438734Y121241D01*
X438657Y121179D01*
X438654Y121176D01*
X438650Y121172D01*
X438639Y121161D01*
X438625Y121150D01*
X438592Y121114D01*
X438548Y121070D01*
X438505Y121019D01*
X438457Y120961D01*
X438417Y120903D01*
X438381Y120841D01*
X438180D01*
Y123370D01*
X438490D01*
Y121401D01*
D02*
G37*
G36*
X436626Y123410D02*
X436655Y123407D01*
X436692Y123399D01*
X436732Y123392D01*
X436775Y123381D01*
X436819Y123367D01*
X436867Y123352D01*
X436914Y123330D01*
X436961Y123305D01*
X437008Y123276D01*
X437056Y123239D01*
X437099Y123199D01*
X437140Y123156D01*
X437143Y123152D01*
X437150Y123141D01*
X437161Y123123D01*
X437180Y123094D01*
X437198Y123061D01*
X437216Y123017D01*
X437241Y122966D01*
X437263Y122908D01*
X437285Y122843D01*
X437307Y122766D01*
X437329Y122682D01*
X437347Y122588D01*
X437365Y122486D01*
X437376Y122377D01*
X437383Y122257D01*
X437387Y122129D01*
Y122125D01*
Y122111D01*
Y122085D01*
Y122056D01*
X437383Y122016D01*
Y121973D01*
X437380Y121925D01*
X437376Y121871D01*
X437365Y121758D01*
X437347Y121638D01*
X437325Y121518D01*
X437311Y121463D01*
X437296Y121408D01*
Y121405D01*
X437292Y121397D01*
X437285Y121383D01*
X437278Y121365D01*
X437270Y121339D01*
X437256Y121314D01*
X437227Y121252D01*
X437190Y121186D01*
X437143Y121117D01*
X437088Y121048D01*
X437023Y120990D01*
X437019D01*
X437016Y120983D01*
X437005Y120975D01*
X436990Y120968D01*
X436972Y120953D01*
X436950Y120942D01*
X436896Y120913D01*
X436830Y120888D01*
X436754Y120862D01*
X436663Y120848D01*
X436564Y120841D01*
X436532D01*
X436492Y120844D01*
X436444Y120852D01*
X436390Y120862D01*
X436331Y120877D01*
X436270Y120895D01*
X436211Y120924D01*
X436208D01*
X436204Y120928D01*
X436186Y120939D01*
X436157Y120957D01*
X436120Y120983D01*
X436080Y121019D01*
X436037Y121059D01*
X435996Y121106D01*
X435956Y121161D01*
X435953Y121168D01*
X435938Y121186D01*
X435924Y121219D01*
X435898Y121266D01*
X435876Y121321D01*
X435847Y121383D01*
X435822Y121456D01*
X435800Y121536D01*
Y121539D01*
X435796Y121547D01*
X435793Y121558D01*
X435789Y121576D01*
X435785Y121598D01*
X435782Y121623D01*
X435775Y121656D01*
X435771Y121692D01*
X435764Y121732D01*
X435760Y121776D01*
X435756Y121827D01*
X435749Y121878D01*
X435745Y121936D01*
Y121994D01*
X435742Y122060D01*
Y122129D01*
Y122133D01*
Y122147D01*
Y122173D01*
Y122202D01*
X435745Y122242D01*
Y122286D01*
X435749Y122333D01*
X435753Y122384D01*
X435764Y122500D01*
X435782Y122621D01*
X435804Y122737D01*
X435818Y122792D01*
X435836Y122846D01*
Y122850D01*
X435840Y122857D01*
X435847Y122872D01*
X435855Y122890D01*
X435862Y122915D01*
X435876Y122941D01*
X435906Y123003D01*
X435942Y123068D01*
X435989Y123141D01*
X436044Y123207D01*
X436109Y123268D01*
X436113D01*
X436117Y123276D01*
X436128Y123283D01*
X436142Y123290D01*
X436160Y123301D01*
X436178Y123316D01*
X436233Y123341D01*
X436299Y123367D01*
X436375Y123392D01*
X436466Y123407D01*
X436564Y123414D01*
X436601D01*
X436626Y123410D01*
D02*
G37*
G36*
X442203Y171258D02*
X442233D01*
X442269Y171255D01*
X442309Y171251D01*
X442349Y171247D01*
X442440Y171233D01*
X442538Y171211D01*
X442633Y171182D01*
X442724Y171142D01*
X442728D01*
X442735Y171134D01*
X442746Y171127D01*
X442760Y171120D01*
X442800Y171091D01*
X442848Y171051D01*
X442902Y171000D01*
X442953Y170941D01*
X443004Y170869D01*
X443044Y170789D01*
Y170785D01*
X443048Y170778D01*
X443052Y170763D01*
X443059Y170745D01*
X443066Y170723D01*
X443073Y170694D01*
X443084Y170661D01*
X443092Y170621D01*
X443099Y170577D01*
X443110Y170530D01*
X443117Y170479D01*
X443124Y170425D01*
X443132Y170363D01*
X443135Y170297D01*
X443139Y170228D01*
Y170155D01*
Y168699D01*
X442804D01*
Y170155D01*
Y170159D01*
Y170170D01*
Y170188D01*
Y170210D01*
X442800Y170235D01*
Y170268D01*
X442797Y170337D01*
X442790Y170417D01*
X442779Y170497D01*
X442764Y170574D01*
X442757Y170607D01*
X442746Y170639D01*
X442742Y170647D01*
X442735Y170665D01*
X442717Y170690D01*
X442695Y170727D01*
X442669Y170763D01*
X442633Y170803D01*
X442589Y170843D01*
X442538Y170876D01*
X442531Y170880D01*
X442513Y170890D01*
X442480Y170901D01*
X442436Y170916D01*
X442385Y170934D01*
X442320Y170945D01*
X442251Y170956D01*
X442174Y170960D01*
X442138D01*
X442116Y170956D01*
X442083D01*
X442051Y170952D01*
X441970Y170938D01*
X441883Y170920D01*
X441799Y170890D01*
X441719Y170850D01*
X441683Y170825D01*
X441650Y170796D01*
X441646Y170792D01*
X441643Y170789D01*
X441636Y170778D01*
X441625Y170763D01*
X441614Y170741D01*
X441599Y170719D01*
X441585Y170687D01*
X441570Y170654D01*
X441556Y170614D01*
X441545Y170566D01*
X441530Y170512D01*
X441519Y170454D01*
X441508Y170388D01*
X441501Y170319D01*
X441494Y170239D01*
Y170155D01*
Y168699D01*
X441159D01*
Y170155D01*
Y170159D01*
Y170173D01*
Y170192D01*
Y170217D01*
X441162Y170250D01*
Y170286D01*
X441166Y170330D01*
X441170Y170374D01*
X441181Y170472D01*
X441195Y170574D01*
X441217Y170672D01*
X441232Y170719D01*
X441246Y170763D01*
Y170767D01*
X441250Y170774D01*
X441257Y170785D01*
X441264Y170800D01*
X441286Y170840D01*
X441319Y170890D01*
X441363Y170949D01*
X441414Y171007D01*
X441479Y171069D01*
X441559Y171123D01*
X441563D01*
X441570Y171131D01*
X441581Y171134D01*
X441599Y171145D01*
X441621Y171156D01*
X441650Y171167D01*
X441679Y171178D01*
X441716Y171193D01*
X441756Y171207D01*
X441799Y171218D01*
X441847Y171229D01*
X441901Y171240D01*
X441956Y171247D01*
X442014Y171255D01*
X442145Y171262D01*
X442178D01*
X442203Y171258D01*
D02*
G37*
G36*
X436685Y168699D02*
X435717D01*
X435651Y168703D01*
X435579Y168707D01*
X435506Y168714D01*
X435433Y168725D01*
X435371Y168736D01*
X435367D01*
X435360Y168739D01*
X435349D01*
X435335Y168746D01*
X435295Y168757D01*
X435244Y168776D01*
X435185Y168801D01*
X435124Y168834D01*
X435062Y168870D01*
X435004Y168918D01*
X435000Y168921D01*
X434996Y168925D01*
X434985Y168936D01*
X434971Y168947D01*
X434934Y168983D01*
X434891Y169034D01*
X434843Y169096D01*
X434792Y169169D01*
X434745Y169253D01*
X434705Y169347D01*
Y169351D01*
X434701Y169358D01*
X434694Y169373D01*
X434691Y169394D01*
X434680Y169420D01*
X434672Y169449D01*
X434665Y169482D01*
X434654Y169522D01*
X434643Y169562D01*
X434636Y169609D01*
X434618Y169711D01*
X434607Y169824D01*
X434603Y169948D01*
Y169951D01*
Y169959D01*
Y169977D01*
Y169995D01*
X434607Y170020D01*
Y170050D01*
X434610Y170119D01*
X434621Y170199D01*
X434632Y170283D01*
X434651Y170370D01*
X434672Y170457D01*
Y170461D01*
X434676Y170468D01*
X434680Y170479D01*
X434683Y170494D01*
X434698Y170534D01*
X434720Y170585D01*
X434741Y170643D01*
X434771Y170701D01*
X434807Y170763D01*
X434843Y170821D01*
X434847Y170829D01*
X434862Y170847D01*
X434883Y170872D01*
X434912Y170905D01*
X434945Y170941D01*
X434985Y170978D01*
X435025Y171018D01*
X435073Y171051D01*
X435080Y171054D01*
X435094Y171065D01*
X435120Y171080D01*
X435156Y171098D01*
X435200Y171120D01*
X435251Y171138D01*
X435309Y171160D01*
X435375Y171178D01*
X435382D01*
X435393Y171182D01*
X435404Y171185D01*
X435440Y171189D01*
X435491Y171196D01*
X435549Y171203D01*
X435619Y171211D01*
X435695Y171214D01*
X435779Y171218D01*
X436685D01*
Y168699D01*
D02*
G37*
G36*
X439874Y169249D02*
X439878Y169253D01*
X439896Y169267D01*
X439918Y169289D01*
X439954Y169314D01*
X439994Y169347D01*
X440045Y169384D01*
X440103Y169424D01*
X440169Y169464D01*
X440172D01*
X440176Y169467D01*
X440198Y169482D01*
X440234Y169500D01*
X440278Y169522D01*
X440329Y169547D01*
X440383Y169573D01*
X440438Y169598D01*
X440493Y169620D01*
Y169322D01*
X440489D01*
X440482Y169314D01*
X440467Y169311D01*
X440449Y169300D01*
X440427Y169289D01*
X440402Y169274D01*
X440340Y169238D01*
X440267Y169198D01*
X440194Y169147D01*
X440118Y169089D01*
X440041Y169027D01*
X440038Y169023D01*
X440034Y169019D01*
X440023Y169009D01*
X440008Y168998D01*
X439976Y168961D01*
X439932Y168918D01*
X439888Y168867D01*
X439841Y168808D01*
X439801Y168750D01*
X439765Y168688D01*
X439565D01*
Y171218D01*
X439874D01*
Y169249D01*
D02*
G37*
G36*
X438010Y171258D02*
X438039Y171255D01*
X438076Y171247D01*
X438116Y171240D01*
X438159Y171229D01*
X438203Y171214D01*
X438250Y171200D01*
X438298Y171178D01*
X438345Y171153D01*
X438392Y171123D01*
X438440Y171087D01*
X438483Y171047D01*
X438523Y171003D01*
X438527Y171000D01*
X438534Y170989D01*
X438545Y170971D01*
X438563Y170941D01*
X438582Y170909D01*
X438600Y170865D01*
X438625Y170814D01*
X438647Y170756D01*
X438669Y170690D01*
X438691Y170614D01*
X438713Y170530D01*
X438731Y170436D01*
X438749Y170334D01*
X438760Y170224D01*
X438767Y170104D01*
X438771Y169977D01*
Y169973D01*
Y169959D01*
Y169933D01*
Y169904D01*
X438767Y169864D01*
Y169820D01*
X438764Y169773D01*
X438760Y169718D01*
X438749Y169606D01*
X438731Y169485D01*
X438709Y169365D01*
X438694Y169311D01*
X438680Y169256D01*
Y169253D01*
X438676Y169245D01*
X438669Y169231D01*
X438662Y169212D01*
X438654Y169187D01*
X438640Y169161D01*
X438611Y169100D01*
X438574Y169034D01*
X438527Y168965D01*
X438473Y168896D01*
X438407Y168837D01*
X438403D01*
X438400Y168830D01*
X438389Y168823D01*
X438374Y168816D01*
X438356Y168801D01*
X438334Y168790D01*
X438279Y168761D01*
X438214Y168736D01*
X438138Y168710D01*
X438047Y168696D01*
X437948Y168688D01*
X437916D01*
X437876Y168692D01*
X437828Y168699D01*
X437774Y168710D01*
X437715Y168725D01*
X437653Y168743D01*
X437595Y168772D01*
X437592D01*
X437588Y168776D01*
X437570Y168787D01*
X437541Y168805D01*
X437504Y168830D01*
X437464Y168867D01*
X437421Y168907D01*
X437381Y168954D01*
X437340Y169009D01*
X437337Y169016D01*
X437322Y169034D01*
X437308Y169067D01*
X437282Y169114D01*
X437260Y169169D01*
X437231Y169231D01*
X437206Y169303D01*
X437184Y169384D01*
Y169387D01*
X437180Y169394D01*
X437177Y169405D01*
X437173Y169424D01*
X437169Y169445D01*
X437166Y169471D01*
X437158Y169504D01*
X437155Y169540D01*
X437148Y169580D01*
X437144Y169624D01*
X437140Y169675D01*
X437133Y169726D01*
X437129Y169784D01*
Y169842D01*
X437126Y169908D01*
Y169977D01*
Y169981D01*
Y169995D01*
Y170020D01*
Y170050D01*
X437129Y170090D01*
Y170133D01*
X437133Y170181D01*
X437137Y170232D01*
X437148Y170348D01*
X437166Y170468D01*
X437187Y170585D01*
X437202Y170639D01*
X437220Y170694D01*
Y170698D01*
X437224Y170705D01*
X437231Y170719D01*
X437239Y170738D01*
X437246Y170763D01*
X437260Y170789D01*
X437289Y170850D01*
X437326Y170916D01*
X437373Y170989D01*
X437428Y171054D01*
X437493Y171116D01*
X437497D01*
X437501Y171123D01*
X437511Y171131D01*
X437526Y171138D01*
X437544Y171149D01*
X437562Y171163D01*
X437617Y171189D01*
X437683Y171214D01*
X437759Y171240D01*
X437850Y171255D01*
X437948Y171262D01*
X437985D01*
X438010Y171258D01*
D02*
G37*
G36*
X432439Y23889D02*
X432075D01*
X431045Y26408D01*
X431423D01*
X431718Y25644D01*
X432774D01*
X433047Y26408D01*
X433400D01*
X432439Y23889D01*
D02*
G37*
G36*
X438641Y26448D02*
X438670D01*
X438707Y26444D01*
X438747Y26441D01*
X438787Y26437D01*
X438878Y26422D01*
X438976Y26401D01*
X439071Y26371D01*
X439162Y26331D01*
X439165D01*
X439173Y26324D01*
X439184Y26317D01*
X439198Y26310D01*
X439238Y26281D01*
X439286Y26240D01*
X439340Y26190D01*
X439391Y26131D01*
X439442Y26058D01*
X439482Y25978D01*
Y25975D01*
X439486Y25967D01*
X439490Y25953D01*
X439497Y25935D01*
X439504Y25913D01*
X439511Y25884D01*
X439522Y25851D01*
X439530Y25811D01*
X439537Y25767D01*
X439548Y25720D01*
X439555Y25669D01*
X439562Y25614D01*
X439570Y25552D01*
X439573Y25487D01*
X439577Y25418D01*
Y25345D01*
Y23889D01*
X439242D01*
Y25345D01*
Y25349D01*
Y25360D01*
Y25378D01*
Y25400D01*
X439238Y25425D01*
Y25458D01*
X439235Y25527D01*
X439227Y25607D01*
X439217Y25687D01*
X439202Y25764D01*
X439195Y25796D01*
X439184Y25829D01*
X439180Y25836D01*
X439173Y25855D01*
X439155Y25880D01*
X439133Y25916D01*
X439107Y25953D01*
X439071Y25993D01*
X439027Y26033D01*
X438976Y26066D01*
X438969Y26069D01*
X438951Y26080D01*
X438918Y26091D01*
X438874Y26106D01*
X438823Y26124D01*
X438758Y26135D01*
X438689Y26146D01*
X438612Y26149D01*
X438576D01*
X438554Y26146D01*
X438521D01*
X438488Y26142D01*
X438408Y26128D01*
X438321Y26109D01*
X438237Y26080D01*
X438157Y26040D01*
X438121Y26015D01*
X438088Y25986D01*
X438084Y25982D01*
X438081Y25978D01*
X438073Y25967D01*
X438063Y25953D01*
X438052Y25931D01*
X438037Y25909D01*
X438023Y25876D01*
X438008Y25844D01*
X437993Y25804D01*
X437983Y25756D01*
X437968Y25702D01*
X437957Y25644D01*
X437946Y25578D01*
X437939Y25509D01*
X437932Y25429D01*
Y25345D01*
Y23889D01*
X437597D01*
Y25345D01*
Y25349D01*
Y25363D01*
Y25381D01*
Y25407D01*
X437600Y25440D01*
Y25476D01*
X437604Y25520D01*
X437608Y25563D01*
X437618Y25662D01*
X437633Y25764D01*
X437655Y25862D01*
X437670Y25909D01*
X437684Y25953D01*
Y25956D01*
X437688Y25964D01*
X437695Y25975D01*
X437702Y25989D01*
X437724Y26029D01*
X437757Y26080D01*
X437801Y26138D01*
X437851Y26197D01*
X437917Y26259D01*
X437997Y26313D01*
X438001D01*
X438008Y26320D01*
X438019Y26324D01*
X438037Y26335D01*
X438059Y26346D01*
X438088Y26357D01*
X438117Y26368D01*
X438154Y26382D01*
X438194Y26397D01*
X438237Y26408D01*
X438285Y26419D01*
X438339Y26430D01*
X438394Y26437D01*
X438452Y26444D01*
X438583Y26452D01*
X438616D01*
X438641Y26448D01*
D02*
G37*
G36*
X436312Y24439D02*
X436315Y24442D01*
X436334Y24457D01*
X436355Y24479D01*
X436392Y24504D01*
X436432Y24537D01*
X436483Y24573D01*
X436541Y24613D01*
X436607Y24653D01*
X436610D01*
X436614Y24657D01*
X436636Y24672D01*
X436672Y24690D01*
X436716Y24712D01*
X436767Y24737D01*
X436821Y24763D01*
X436876Y24788D01*
X436931Y24810D01*
Y24511D01*
X436927D01*
X436920Y24504D01*
X436905Y24500D01*
X436887Y24490D01*
X436865Y24479D01*
X436840Y24464D01*
X436778Y24428D01*
X436705Y24388D01*
X436632Y24337D01*
X436556Y24279D01*
X436479Y24217D01*
X436476Y24213D01*
X436472Y24209D01*
X436461Y24198D01*
X436446Y24187D01*
X436414Y24151D01*
X436370Y24107D01*
X436326Y24056D01*
X436279Y23998D01*
X436239Y23940D01*
X436203Y23878D01*
X436002D01*
Y26408D01*
X436312D01*
Y24439D01*
D02*
G37*
G36*
X434448Y26448D02*
X434477Y26444D01*
X434514Y26437D01*
X434554Y26430D01*
X434597Y26419D01*
X434641Y26404D01*
X434688Y26390D01*
X434736Y26368D01*
X434783Y26342D01*
X434830Y26313D01*
X434878Y26277D01*
X434921Y26237D01*
X434961Y26193D01*
X434965Y26190D01*
X434972Y26179D01*
X434983Y26160D01*
X435001Y26131D01*
X435020Y26098D01*
X435038Y26055D01*
X435063Y26004D01*
X435085Y25946D01*
X435107Y25880D01*
X435129Y25804D01*
X435151Y25720D01*
X435169Y25625D01*
X435187Y25523D01*
X435198Y25414D01*
X435205Y25294D01*
X435209Y25167D01*
Y25163D01*
Y25148D01*
Y25123D01*
Y25094D01*
X435205Y25054D01*
Y25010D01*
X435202Y24963D01*
X435198Y24908D01*
X435187Y24795D01*
X435169Y24675D01*
X435147Y24555D01*
X435132Y24500D01*
X435118Y24446D01*
Y24442D01*
X435114Y24435D01*
X435107Y24420D01*
X435100Y24402D01*
X435092Y24377D01*
X435078Y24351D01*
X435049Y24289D01*
X435012Y24224D01*
X434965Y24155D01*
X434910Y24086D01*
X434845Y24027D01*
X434841D01*
X434838Y24020D01*
X434827Y24013D01*
X434812Y24005D01*
X434794Y23991D01*
X434772Y23980D01*
X434717Y23951D01*
X434652Y23925D01*
X434576Y23900D01*
X434484Y23885D01*
X434386Y23878D01*
X434353D01*
X434313Y23882D01*
X434266Y23889D01*
X434211Y23900D01*
X434153Y23914D01*
X434091Y23933D01*
X434033Y23962D01*
X434029D01*
X434026Y23965D01*
X434008Y23976D01*
X433979Y23995D01*
X433942Y24020D01*
X433902Y24056D01*
X433858Y24096D01*
X433818Y24144D01*
X433778Y24198D01*
X433775Y24206D01*
X433760Y24224D01*
X433746Y24257D01*
X433720Y24304D01*
X433698Y24359D01*
X433669Y24420D01*
X433644Y24493D01*
X433622Y24573D01*
Y24577D01*
X433618Y24584D01*
X433614Y24595D01*
X433611Y24613D01*
X433607Y24635D01*
X433604Y24661D01*
X433596Y24693D01*
X433593Y24730D01*
X433585Y24770D01*
X433582Y24814D01*
X433578Y24864D01*
X433571Y24915D01*
X433567Y24974D01*
Y25032D01*
X433564Y25098D01*
Y25167D01*
Y25170D01*
Y25185D01*
Y25210D01*
Y25239D01*
X433567Y25280D01*
Y25323D01*
X433571Y25370D01*
X433574Y25421D01*
X433585Y25538D01*
X433604Y25658D01*
X433625Y25774D01*
X433640Y25829D01*
X433658Y25884D01*
Y25887D01*
X433662Y25895D01*
X433669Y25909D01*
X433676Y25927D01*
X433684Y25953D01*
X433698Y25978D01*
X433727Y26040D01*
X433764Y26106D01*
X433811Y26179D01*
X433866Y26244D01*
X433931Y26306D01*
X433935D01*
X433939Y26313D01*
X433949Y26320D01*
X433964Y26328D01*
X433982Y26339D01*
X434000Y26353D01*
X434055Y26379D01*
X434121Y26404D01*
X434197Y26430D01*
X434288Y26444D01*
X434386Y26452D01*
X434423D01*
X434448Y26448D01*
D02*
G37*
G36*
X444868Y221971D02*
X444897D01*
X444934Y221967D01*
X444974Y221964D01*
X445014Y221960D01*
X445105Y221945D01*
X445203Y221923D01*
X445298Y221894D01*
X445389Y221854D01*
X445392D01*
X445400Y221847D01*
X445410Y221840D01*
X445425Y221832D01*
X445465Y221803D01*
X445512Y221763D01*
X445567Y221712D01*
X445618Y221654D01*
X445669Y221581D01*
X445709Y221501D01*
Y221498D01*
X445713Y221490D01*
X445716Y221476D01*
X445723Y221458D01*
X445731Y221436D01*
X445738Y221407D01*
X445749Y221374D01*
X445756Y221334D01*
X445764Y221290D01*
X445775Y221243D01*
X445782Y221192D01*
X445789Y221137D01*
X445796Y221075D01*
X445800Y221010D01*
X445804Y220941D01*
Y220868D01*
Y219412D01*
X445469D01*
Y220868D01*
Y220871D01*
Y220882D01*
Y220901D01*
Y220922D01*
X445465Y220948D01*
Y220981D01*
X445462Y221050D01*
X445454Y221130D01*
X445443Y221210D01*
X445429Y221286D01*
X445421Y221319D01*
X445410Y221352D01*
X445407Y221359D01*
X445400Y221377D01*
X445381Y221403D01*
X445360Y221439D01*
X445334Y221476D01*
X445298Y221516D01*
X445254Y221556D01*
X445203Y221589D01*
X445196Y221592D01*
X445178Y221603D01*
X445145Y221614D01*
X445101Y221629D01*
X445050Y221647D01*
X444985Y221658D01*
X444915Y221669D01*
X444839Y221672D01*
X444803D01*
X444781Y221669D01*
X444748D01*
X444715Y221665D01*
X444635Y221650D01*
X444548Y221632D01*
X444464Y221603D01*
X444384Y221563D01*
X444348Y221538D01*
X444315Y221509D01*
X444311Y221505D01*
X444308Y221501D01*
X444300Y221490D01*
X444289Y221476D01*
X444278Y221454D01*
X444264Y221432D01*
X444249Y221399D01*
X444235Y221367D01*
X444220Y221326D01*
X444209Y221279D01*
X444195Y221225D01*
X444184Y221166D01*
X444173Y221101D01*
X444166Y221032D01*
X444158Y220952D01*
Y220868D01*
Y219412D01*
X443823D01*
Y220868D01*
Y220871D01*
Y220886D01*
Y220904D01*
Y220930D01*
X443827Y220963D01*
Y220999D01*
X443831Y221043D01*
X443834Y221086D01*
X443845Y221184D01*
X443860Y221286D01*
X443882Y221385D01*
X443896Y221432D01*
X443911Y221476D01*
Y221479D01*
X443915Y221487D01*
X443922Y221498D01*
X443929Y221512D01*
X443951Y221552D01*
X443984Y221603D01*
X444027Y221661D01*
X444078Y221720D01*
X444144Y221781D01*
X444224Y221836D01*
X444228D01*
X444235Y221843D01*
X444246Y221847D01*
X444264Y221858D01*
X444286Y221869D01*
X444315Y221880D01*
X444344Y221891D01*
X444380Y221905D01*
X444420Y221920D01*
X444464Y221931D01*
X444511Y221942D01*
X444566Y221953D01*
X444621Y221960D01*
X444679Y221967D01*
X444810Y221974D01*
X444843D01*
X444868Y221971D01*
D02*
G37*
G36*
X439346Y219412D02*
X437523D01*
Y219710D01*
X439011D01*
Y220478D01*
X437617D01*
Y220777D01*
X439011D01*
Y221632D01*
X437464D01*
Y221931D01*
X439346D01*
Y219412D01*
D02*
G37*
G36*
X442538Y219962D02*
X442542Y219965D01*
X442560Y219980D01*
X442582Y220002D01*
X442619Y220027D01*
X442659Y220060D01*
X442710Y220096D01*
X442768Y220136D01*
X442833Y220176D01*
X442837D01*
X442841Y220180D01*
X442863Y220194D01*
X442899Y220213D01*
X442943Y220234D01*
X442993Y220260D01*
X443048Y220285D01*
X443103Y220311D01*
X443157Y220333D01*
Y220034D01*
X443154D01*
X443146Y220027D01*
X443132Y220023D01*
X443114Y220012D01*
X443092Y220002D01*
X443066Y219987D01*
X443005Y219951D01*
X442932Y219911D01*
X442859Y219860D01*
X442782Y219801D01*
X442706Y219739D01*
X442702Y219736D01*
X442699Y219732D01*
X442688Y219721D01*
X442673Y219710D01*
X442640Y219674D01*
X442597Y219630D01*
X442553Y219579D01*
X442506Y219521D01*
X442466Y219463D01*
X442429Y219401D01*
X442229D01*
Y221931D01*
X442538D01*
Y219962D01*
D02*
G37*
G36*
X440675Y221971D02*
X440704Y221967D01*
X440740Y221960D01*
X440780Y221953D01*
X440824Y221942D01*
X440868Y221927D01*
X440915Y221913D01*
X440962Y221891D01*
X441010Y221865D01*
X441057Y221836D01*
X441104Y221800D01*
X441148Y221760D01*
X441188Y221716D01*
X441192Y221712D01*
X441199Y221701D01*
X441210Y221683D01*
X441228Y221654D01*
X441246Y221621D01*
X441264Y221578D01*
X441290Y221527D01*
X441312Y221468D01*
X441334Y221403D01*
X441356Y221326D01*
X441377Y221243D01*
X441396Y221148D01*
X441414Y221046D01*
X441425Y220937D01*
X441432Y220817D01*
X441436Y220690D01*
Y220686D01*
Y220671D01*
Y220646D01*
Y220617D01*
X441432Y220577D01*
Y220533D01*
X441428Y220486D01*
X441425Y220431D01*
X441414Y220318D01*
X441396Y220198D01*
X441374Y220078D01*
X441359Y220023D01*
X441345Y219969D01*
Y219965D01*
X441341Y219958D01*
X441334Y219943D01*
X441326Y219925D01*
X441319Y219900D01*
X441305Y219874D01*
X441276Y219812D01*
X441239Y219747D01*
X441192Y219678D01*
X441137Y219608D01*
X441072Y219550D01*
X441068D01*
X441064Y219543D01*
X441053Y219536D01*
X441039Y219528D01*
X441021Y219514D01*
X440999Y219503D01*
X440944Y219474D01*
X440879Y219448D01*
X440802Y219423D01*
X440711Y219408D01*
X440613Y219401D01*
X440580D01*
X440540Y219405D01*
X440493Y219412D01*
X440438Y219423D01*
X440380Y219437D01*
X440318Y219456D01*
X440260Y219485D01*
X440256D01*
X440253Y219488D01*
X440234Y219499D01*
X440205Y219517D01*
X440169Y219543D01*
X440129Y219579D01*
X440085Y219619D01*
X440045Y219667D01*
X440005Y219721D01*
X440001Y219728D01*
X439987Y219747D01*
X439972Y219779D01*
X439947Y219827D01*
X439925Y219881D01*
X439896Y219943D01*
X439870Y220016D01*
X439849Y220096D01*
Y220100D01*
X439845Y220107D01*
X439841Y220118D01*
X439838Y220136D01*
X439834Y220158D01*
X439830Y220183D01*
X439823Y220216D01*
X439819Y220253D01*
X439812Y220293D01*
X439809Y220336D01*
X439805Y220387D01*
X439798Y220438D01*
X439794Y220497D01*
Y220555D01*
X439790Y220620D01*
Y220690D01*
Y220693D01*
Y220708D01*
Y220733D01*
Y220762D01*
X439794Y220802D01*
Y220846D01*
X439798Y220893D01*
X439801Y220944D01*
X439812Y221061D01*
X439830Y221181D01*
X439852Y221297D01*
X439867Y221352D01*
X439885Y221407D01*
Y221410D01*
X439889Y221417D01*
X439896Y221432D01*
X439903Y221450D01*
X439911Y221476D01*
X439925Y221501D01*
X439954Y221563D01*
X439991Y221629D01*
X440038Y221701D01*
X440093Y221767D01*
X440158Y221829D01*
X440162D01*
X440165Y221836D01*
X440176Y221843D01*
X440191Y221851D01*
X440209Y221862D01*
X440227Y221876D01*
X440282Y221902D01*
X440347Y221927D01*
X440424Y221953D01*
X440515Y221967D01*
X440613Y221974D01*
X440649D01*
X440675Y221971D01*
D02*
G37*
G36*
X444212Y269771D02*
X444241D01*
X444278Y269767D01*
X444318Y269763D01*
X444358Y269760D01*
X444449Y269745D01*
X444547Y269723D01*
X444642Y269694D01*
X444733Y269654D01*
X444736D01*
X444744Y269647D01*
X444755Y269640D01*
X444769Y269632D01*
X444809Y269603D01*
X444857Y269563D01*
X444911Y269512D01*
X444962Y269454D01*
X445013Y269381D01*
X445053Y269301D01*
Y269298D01*
X445057Y269290D01*
X445060Y269276D01*
X445068Y269257D01*
X445075Y269236D01*
X445082Y269207D01*
X445093Y269174D01*
X445100Y269134D01*
X445108Y269090D01*
X445119Y269043D01*
X445126Y268992D01*
X445133Y268937D01*
X445140Y268875D01*
X445144Y268810D01*
X445148Y268741D01*
Y268668D01*
Y267212D01*
X444813D01*
Y268668D01*
Y268671D01*
Y268682D01*
Y268701D01*
Y268722D01*
X444809Y268748D01*
Y268781D01*
X444806Y268850D01*
X444798Y268930D01*
X444787Y269010D01*
X444773Y269086D01*
X444766Y269119D01*
X444755Y269152D01*
X444751Y269159D01*
X444744Y269177D01*
X444726Y269203D01*
X444704Y269239D01*
X444678Y269276D01*
X444642Y269316D01*
X444598Y269356D01*
X444547Y269389D01*
X444540Y269392D01*
X444522Y269403D01*
X444489Y269414D01*
X444445Y269429D01*
X444394Y269447D01*
X444329Y269458D01*
X444260Y269469D01*
X444183Y269472D01*
X444147D01*
X444125Y269469D01*
X444092D01*
X444059Y269465D01*
X443979Y269450D01*
X443892Y269432D01*
X443808Y269403D01*
X443728Y269363D01*
X443692Y269338D01*
X443659Y269308D01*
X443655Y269305D01*
X443652Y269301D01*
X443644Y269290D01*
X443634Y269276D01*
X443623Y269254D01*
X443608Y269232D01*
X443593Y269199D01*
X443579Y269166D01*
X443564Y269127D01*
X443553Y269079D01*
X443539Y269025D01*
X443528Y268966D01*
X443517Y268901D01*
X443510Y268832D01*
X443502Y268752D01*
Y268668D01*
Y267212D01*
X443168D01*
Y268668D01*
Y268671D01*
Y268686D01*
Y268704D01*
Y268730D01*
X443171Y268762D01*
Y268799D01*
X443175Y268843D01*
X443179Y268886D01*
X443189Y268985D01*
X443204Y269086D01*
X443226Y269185D01*
X443240Y269232D01*
X443255Y269276D01*
Y269279D01*
X443259Y269287D01*
X443266Y269298D01*
X443273Y269312D01*
X443295Y269352D01*
X443328Y269403D01*
X443371Y269461D01*
X443422Y269520D01*
X443488Y269582D01*
X443568Y269636D01*
X443572D01*
X443579Y269643D01*
X443590Y269647D01*
X443608Y269658D01*
X443630Y269669D01*
X443659Y269680D01*
X443688Y269691D01*
X443724Y269705D01*
X443764Y269720D01*
X443808Y269731D01*
X443855Y269742D01*
X443910Y269753D01*
X443965Y269760D01*
X444023Y269767D01*
X444154Y269774D01*
X444187D01*
X444212Y269771D01*
D02*
G37*
G36*
X438679Y267212D02*
X436976D01*
Y267510D01*
X438345D01*
Y268289D01*
X437162D01*
Y268588D01*
X438345D01*
Y269731D01*
X438679D01*
Y267212D01*
D02*
G37*
G36*
X441883Y267761D02*
X441886Y267765D01*
X441904Y267780D01*
X441926Y267801D01*
X441963Y267827D01*
X442003Y267860D01*
X442054Y267896D01*
X442112Y267936D01*
X442177Y267976D01*
X442181D01*
X442185Y267980D01*
X442207Y267994D01*
X442243Y268013D01*
X442287Y268035D01*
X442338Y268060D01*
X442392Y268085D01*
X442447Y268111D01*
X442501Y268133D01*
Y267834D01*
X442498D01*
X442490Y267827D01*
X442476Y267823D01*
X442458Y267812D01*
X442436Y267801D01*
X442410Y267787D01*
X442349Y267751D01*
X442276Y267710D01*
X442203Y267660D01*
X442127Y267601D01*
X442050Y267539D01*
X442046Y267536D01*
X442043Y267532D01*
X442032Y267521D01*
X442017Y267510D01*
X441985Y267474D01*
X441941Y267430D01*
X441897Y267379D01*
X441850Y267321D01*
X441810Y267263D01*
X441773Y267201D01*
X441573D01*
Y269731D01*
X441883D01*
Y267761D01*
D02*
G37*
G36*
X440019Y269771D02*
X440048Y269767D01*
X440085Y269760D01*
X440125Y269753D01*
X440168Y269742D01*
X440212Y269727D01*
X440259Y269712D01*
X440307Y269691D01*
X440354Y269665D01*
X440401Y269636D01*
X440449Y269600D01*
X440492Y269560D01*
X440532Y269516D01*
X440536Y269512D01*
X440543Y269501D01*
X440554Y269483D01*
X440572Y269454D01*
X440590Y269421D01*
X440609Y269378D01*
X440634Y269327D01*
X440656Y269268D01*
X440678Y269203D01*
X440700Y269127D01*
X440722Y269043D01*
X440740Y268948D01*
X440758Y268846D01*
X440769Y268737D01*
X440776Y268617D01*
X440780Y268490D01*
Y268486D01*
Y268471D01*
Y268446D01*
Y268417D01*
X440776Y268377D01*
Y268333D01*
X440772Y268286D01*
X440769Y268231D01*
X440758Y268118D01*
X440740Y267998D01*
X440718Y267878D01*
X440703Y267823D01*
X440689Y267769D01*
Y267765D01*
X440685Y267758D01*
X440678Y267743D01*
X440670Y267725D01*
X440663Y267700D01*
X440649Y267674D01*
X440620Y267612D01*
X440583Y267547D01*
X440536Y267478D01*
X440481Y267408D01*
X440416Y267350D01*
X440412D01*
X440408Y267343D01*
X440398Y267336D01*
X440383Y267328D01*
X440365Y267314D01*
X440343Y267303D01*
X440288Y267274D01*
X440223Y267248D01*
X440146Y267223D01*
X440055Y267208D01*
X439957Y267201D01*
X439924D01*
X439884Y267205D01*
X439837Y267212D01*
X439782Y267223D01*
X439724Y267237D01*
X439662Y267255D01*
X439604Y267285D01*
X439600D01*
X439597Y267288D01*
X439578Y267299D01*
X439549Y267317D01*
X439513Y267343D01*
X439473Y267379D01*
X439429Y267419D01*
X439389Y267467D01*
X439349Y267521D01*
X439346Y267529D01*
X439331Y267547D01*
X439316Y267580D01*
X439291Y267627D01*
X439269Y267681D01*
X439240Y267743D01*
X439215Y267816D01*
X439193Y267896D01*
Y267900D01*
X439189Y267907D01*
X439185Y267918D01*
X439182Y267936D01*
X439178Y267958D01*
X439175Y267984D01*
X439167Y268016D01*
X439164Y268053D01*
X439156Y268093D01*
X439153Y268136D01*
X439149Y268187D01*
X439142Y268238D01*
X439138Y268297D01*
Y268355D01*
X439134Y268420D01*
Y268490D01*
Y268493D01*
Y268508D01*
Y268533D01*
Y268562D01*
X439138Y268602D01*
Y268646D01*
X439142Y268693D01*
X439145Y268744D01*
X439156Y268861D01*
X439175Y268981D01*
X439196Y269097D01*
X439211Y269152D01*
X439229Y269207D01*
Y269210D01*
X439233Y269217D01*
X439240Y269232D01*
X439247Y269250D01*
X439255Y269276D01*
X439269Y269301D01*
X439298Y269363D01*
X439335Y269429D01*
X439382Y269501D01*
X439437Y269567D01*
X439502Y269629D01*
X439506D01*
X439509Y269636D01*
X439520Y269643D01*
X439535Y269651D01*
X439553Y269662D01*
X439571Y269676D01*
X439626Y269702D01*
X439691Y269727D01*
X439768Y269753D01*
X439859Y269767D01*
X439957Y269774D01*
X439993D01*
X440019Y269771D01*
D02*
G37*
G36*
X438211Y320971D02*
X438243D01*
X438283Y320967D01*
X438327Y320960D01*
X438374Y320956D01*
X438480Y320934D01*
X438593Y320909D01*
X438709Y320869D01*
X438767Y320847D01*
X438826Y320818D01*
X438829Y320814D01*
X438840Y320811D01*
X438855Y320800D01*
X438877Y320789D01*
X438902Y320771D01*
X438928Y320752D01*
X438997Y320701D01*
X439070Y320636D01*
X439146Y320556D01*
X439219Y320465D01*
X439284Y320359D01*
Y320356D01*
X439292Y320345D01*
X439299Y320330D01*
X439310Y320305D01*
X439321Y320279D01*
X439332Y320243D01*
X439346Y320206D01*
X439361Y320163D01*
X439375Y320115D01*
X439390Y320061D01*
X439401Y320006D01*
X439412Y319948D01*
X439430Y319820D01*
X439437Y319686D01*
Y319682D01*
Y319668D01*
Y319649D01*
X439434Y319624D01*
Y319591D01*
X439430Y319551D01*
X439423Y319511D01*
X439419Y319464D01*
X439408Y319413D01*
X439401Y319358D01*
X439372Y319242D01*
X439335Y319122D01*
X439284Y319002D01*
X439281Y318998D01*
X439277Y318987D01*
X439270Y318972D01*
X439255Y318951D01*
X439241Y318921D01*
X439222Y318892D01*
X439172Y318823D01*
X439110Y318743D01*
X439033Y318667D01*
X438946Y318590D01*
X438895Y318557D01*
X438844Y318525D01*
X438840Y318521D01*
X438829Y318517D01*
X438815Y318510D01*
X438793Y318499D01*
X438764Y318488D01*
X438731Y318474D01*
X438695Y318459D01*
X438651Y318445D01*
X438604Y318430D01*
X438553Y318419D01*
X438498Y318405D01*
X438440Y318394D01*
X438312Y318375D01*
X438247Y318368D01*
X438131D01*
X438109Y318372D01*
X438080D01*
X438010Y318379D01*
X437934Y318390D01*
X437854Y318408D01*
X437767Y318430D01*
X437683Y318459D01*
X437679D01*
X437672Y318463D01*
X437661Y318466D01*
X437646Y318474D01*
X437606Y318496D01*
X437555Y318521D01*
X437501Y318557D01*
X437442Y318601D01*
X437388Y318648D01*
X437337Y318707D01*
X437330Y318714D01*
X437315Y318736D01*
X437293Y318769D01*
X437264Y318816D01*
X437235Y318874D01*
X437202Y318947D01*
X437170Y319027D01*
X437144Y319118D01*
X437446Y319198D01*
Y319194D01*
X437450Y319191D01*
X437454Y319180D01*
X437457Y319165D01*
X437468Y319133D01*
X437483Y319089D01*
X437504Y319038D01*
X437530Y318991D01*
X437555Y318940D01*
X437588Y318896D01*
X437592Y318892D01*
X437603Y318878D01*
X437625Y318860D01*
X437650Y318834D01*
X437683Y318805D01*
X437726Y318776D01*
X437774Y318747D01*
X437828Y318721D01*
X437836Y318718D01*
X437854Y318710D01*
X437887Y318699D01*
X437930Y318685D01*
X437981Y318674D01*
X438039Y318663D01*
X438105Y318656D01*
X438174Y318652D01*
X438214D01*
X438232Y318656D01*
X438254D01*
X438309Y318659D01*
X438371Y318670D01*
X438440Y318681D01*
X438505Y318699D01*
X438571Y318725D01*
X438578Y318728D01*
X438600Y318736D01*
X438629Y318754D01*
X438666Y318772D01*
X438709Y318801D01*
X438757Y318830D01*
X438800Y318867D01*
X438840Y318907D01*
X438844Y318911D01*
X438859Y318925D01*
X438877Y318951D01*
X438899Y318980D01*
X438924Y319016D01*
X438949Y319060D01*
X438975Y319107D01*
X439001Y319158D01*
Y319162D01*
X439004Y319169D01*
X439008Y319180D01*
X439015Y319198D01*
X439022Y319220D01*
X439030Y319245D01*
X439041Y319274D01*
X439048Y319307D01*
X439066Y319384D01*
X439080Y319471D01*
X439091Y319562D01*
X439095Y319664D01*
Y319668D01*
Y319679D01*
Y319697D01*
X439091Y319719D01*
Y319748D01*
X439088Y319784D01*
X439084Y319820D01*
X439080Y319861D01*
X439066Y319952D01*
X439048Y320046D01*
X439019Y320141D01*
X438982Y320232D01*
Y320235D01*
X438975Y320243D01*
X438971Y320254D01*
X438960Y320268D01*
X438935Y320308D01*
X438895Y320359D01*
X438848Y320414D01*
X438789Y320468D01*
X438720Y320519D01*
X438644Y320567D01*
X438640D01*
X438633Y320570D01*
X438622Y320578D01*
X438604Y320585D01*
X438586Y320592D01*
X438560Y320600D01*
X438502Y320621D01*
X438429Y320639D01*
X438349Y320658D01*
X438262Y320672D01*
X438170Y320676D01*
X438134D01*
X438112Y320672D01*
X438091D01*
X438036Y320665D01*
X437970Y320658D01*
X437901Y320643D01*
X437825Y320621D01*
X437748Y320596D01*
X437745D01*
X437737Y320592D01*
X437730Y320589D01*
X437715Y320581D01*
X437676Y320563D01*
X437632Y320541D01*
X437581Y320516D01*
X437526Y320487D01*
X437475Y320454D01*
X437432Y320417D01*
Y319944D01*
X438174D01*
Y319646D01*
X437104D01*
Y320581D01*
X437108Y320585D01*
X437115Y320589D01*
X437129Y320600D01*
X437148Y320614D01*
X437170Y320629D01*
X437195Y320647D01*
X437228Y320669D01*
X437260Y320690D01*
X437337Y320738D01*
X437424Y320789D01*
X437515Y320836D01*
X437614Y320876D01*
X437617D01*
X437625Y320880D01*
X437639Y320883D01*
X437657Y320891D01*
X437683Y320898D01*
X437712Y320909D01*
X437745Y320916D01*
X437777Y320923D01*
X437857Y320942D01*
X437949Y320960D01*
X438047Y320971D01*
X438149Y320974D01*
X438185D01*
X438211Y320971D01*
D02*
G37*
G36*
X444868D02*
X444897D01*
X444934Y320967D01*
X444974Y320964D01*
X445014Y320960D01*
X445105Y320945D01*
X445203Y320923D01*
X445298Y320894D01*
X445389Y320854D01*
X445392D01*
X445400Y320847D01*
X445410Y320840D01*
X445425Y320832D01*
X445465Y320803D01*
X445512Y320763D01*
X445567Y320712D01*
X445618Y320654D01*
X445669Y320581D01*
X445709Y320501D01*
Y320498D01*
X445713Y320490D01*
X445716Y320476D01*
X445723Y320458D01*
X445731Y320436D01*
X445738Y320407D01*
X445749Y320374D01*
X445756Y320334D01*
X445764Y320290D01*
X445775Y320243D01*
X445782Y320192D01*
X445789Y320137D01*
X445796Y320075D01*
X445800Y320010D01*
X445804Y319941D01*
Y319868D01*
Y318412D01*
X445469D01*
Y319868D01*
Y319871D01*
Y319882D01*
Y319901D01*
Y319922D01*
X445465Y319948D01*
Y319981D01*
X445462Y320050D01*
X445454Y320130D01*
X445443Y320210D01*
X445429Y320286D01*
X445421Y320319D01*
X445410Y320352D01*
X445407Y320359D01*
X445400Y320377D01*
X445381Y320403D01*
X445360Y320439D01*
X445334Y320476D01*
X445298Y320516D01*
X445254Y320556D01*
X445203Y320589D01*
X445196Y320592D01*
X445178Y320603D01*
X445145Y320614D01*
X445101Y320629D01*
X445050Y320647D01*
X444985Y320658D01*
X444915Y320669D01*
X444839Y320672D01*
X444803D01*
X444781Y320669D01*
X444748D01*
X444715Y320665D01*
X444635Y320650D01*
X444548Y320632D01*
X444464Y320603D01*
X444384Y320563D01*
X444348Y320538D01*
X444315Y320509D01*
X444311Y320505D01*
X444308Y320501D01*
X444300Y320490D01*
X444289Y320476D01*
X444278Y320454D01*
X444264Y320432D01*
X444249Y320399D01*
X444235Y320367D01*
X444220Y320326D01*
X444209Y320279D01*
X444195Y320225D01*
X444184Y320166D01*
X444173Y320101D01*
X444166Y320032D01*
X444158Y319952D01*
Y319868D01*
Y318412D01*
X443823D01*
Y319868D01*
Y319871D01*
Y319886D01*
Y319904D01*
Y319930D01*
X443827Y319963D01*
Y319999D01*
X443831Y320043D01*
X443834Y320086D01*
X443845Y320184D01*
X443860Y320286D01*
X443882Y320385D01*
X443896Y320432D01*
X443911Y320476D01*
Y320479D01*
X443915Y320487D01*
X443922Y320498D01*
X443929Y320512D01*
X443951Y320552D01*
X443984Y320603D01*
X444027Y320661D01*
X444078Y320720D01*
X444144Y320781D01*
X444224Y320836D01*
X444228D01*
X444235Y320843D01*
X444246Y320847D01*
X444264Y320858D01*
X444286Y320869D01*
X444315Y320880D01*
X444344Y320891D01*
X444380Y320905D01*
X444420Y320920D01*
X444464Y320931D01*
X444511Y320942D01*
X444566Y320953D01*
X444621Y320960D01*
X444679Y320967D01*
X444810Y320974D01*
X444843D01*
X444868Y320971D01*
D02*
G37*
G36*
X442538Y318962D02*
X442542Y318965D01*
X442560Y318980D01*
X442582Y319002D01*
X442619Y319027D01*
X442659Y319060D01*
X442710Y319096D01*
X442768Y319136D01*
X442833Y319176D01*
X442837D01*
X442841Y319180D01*
X442863Y319194D01*
X442899Y319213D01*
X442943Y319234D01*
X442993Y319260D01*
X443048Y319285D01*
X443103Y319311D01*
X443157Y319333D01*
Y319034D01*
X443154D01*
X443146Y319027D01*
X443132Y319023D01*
X443114Y319012D01*
X443092Y319002D01*
X443066Y318987D01*
X443005Y318951D01*
X442932Y318911D01*
X442859Y318860D01*
X442782Y318801D01*
X442706Y318739D01*
X442702Y318736D01*
X442699Y318732D01*
X442688Y318721D01*
X442673Y318710D01*
X442640Y318674D01*
X442597Y318630D01*
X442553Y318579D01*
X442506Y318521D01*
X442466Y318463D01*
X442429Y318401D01*
X442229D01*
Y320931D01*
X442538D01*
Y318962D01*
D02*
G37*
G36*
X440675Y320971D02*
X440704Y320967D01*
X440740Y320960D01*
X440780Y320953D01*
X440824Y320942D01*
X440868Y320927D01*
X440915Y320913D01*
X440962Y320891D01*
X441010Y320865D01*
X441057Y320836D01*
X441104Y320800D01*
X441148Y320760D01*
X441188Y320716D01*
X441192Y320712D01*
X441199Y320701D01*
X441210Y320683D01*
X441228Y320654D01*
X441246Y320621D01*
X441264Y320578D01*
X441290Y320527D01*
X441312Y320468D01*
X441334Y320403D01*
X441356Y320326D01*
X441377Y320243D01*
X441396Y320148D01*
X441414Y320046D01*
X441425Y319937D01*
X441432Y319817D01*
X441436Y319689D01*
Y319686D01*
Y319671D01*
Y319646D01*
Y319617D01*
X441432Y319577D01*
Y319533D01*
X441428Y319486D01*
X441425Y319431D01*
X441414Y319318D01*
X441396Y319198D01*
X441374Y319078D01*
X441359Y319023D01*
X441345Y318969D01*
Y318965D01*
X441341Y318958D01*
X441334Y318943D01*
X441326Y318925D01*
X441319Y318900D01*
X441305Y318874D01*
X441276Y318812D01*
X441239Y318747D01*
X441192Y318678D01*
X441137Y318608D01*
X441072Y318550D01*
X441068D01*
X441064Y318543D01*
X441053Y318536D01*
X441039Y318528D01*
X441021Y318514D01*
X440999Y318503D01*
X440944Y318474D01*
X440879Y318448D01*
X440802Y318423D01*
X440711Y318408D01*
X440613Y318401D01*
X440580D01*
X440540Y318405D01*
X440493Y318412D01*
X440438Y318423D01*
X440380Y318437D01*
X440318Y318456D01*
X440260Y318485D01*
X440256D01*
X440253Y318488D01*
X440234Y318499D01*
X440205Y318517D01*
X440169Y318543D01*
X440129Y318579D01*
X440085Y318619D01*
X440045Y318667D01*
X440005Y318721D01*
X440001Y318728D01*
X439987Y318747D01*
X439972Y318779D01*
X439947Y318827D01*
X439925Y318881D01*
X439896Y318943D01*
X439870Y319016D01*
X439849Y319096D01*
Y319100D01*
X439845Y319107D01*
X439841Y319118D01*
X439838Y319136D01*
X439834Y319158D01*
X439830Y319183D01*
X439823Y319216D01*
X439819Y319253D01*
X439812Y319293D01*
X439809Y319336D01*
X439805Y319387D01*
X439798Y319438D01*
X439794Y319497D01*
Y319555D01*
X439790Y319620D01*
Y319689D01*
Y319693D01*
Y319708D01*
Y319733D01*
Y319762D01*
X439794Y319802D01*
Y319846D01*
X439798Y319893D01*
X439801Y319944D01*
X439812Y320061D01*
X439830Y320181D01*
X439852Y320297D01*
X439867Y320352D01*
X439885Y320407D01*
Y320410D01*
X439889Y320417D01*
X439896Y320432D01*
X439903Y320450D01*
X439911Y320476D01*
X439925Y320501D01*
X439954Y320563D01*
X439991Y320629D01*
X440038Y320701D01*
X440093Y320767D01*
X440158Y320829D01*
X440162D01*
X440165Y320836D01*
X440176Y320843D01*
X440191Y320851D01*
X440209Y320862D01*
X440227Y320876D01*
X440282Y320902D01*
X440347Y320927D01*
X440424Y320953D01*
X440515Y320967D01*
X440613Y320974D01*
X440649D01*
X440675Y320971D01*
D02*
G37*
G36*
X441099Y367340D02*
X440764D01*
Y368374D01*
X439461D01*
Y367340D01*
X439126D01*
Y369859D01*
X439461D01*
Y368672D01*
X440764D01*
Y369859D01*
X441099D01*
Y367340D01*
D02*
G37*
G36*
X446628Y369899D02*
X446657D01*
X446694Y369895D01*
X446734Y369892D01*
X446774Y369888D01*
X446865Y369874D01*
X446963Y369852D01*
X447058Y369823D01*
X447149Y369783D01*
X447153D01*
X447160Y369775D01*
X447171Y369768D01*
X447185Y369761D01*
X447225Y369732D01*
X447273Y369692D01*
X447327Y369641D01*
X447378Y369582D01*
X447429Y369510D01*
X447469Y369429D01*
Y369426D01*
X447473Y369419D01*
X447476Y369404D01*
X447484Y369386D01*
X447491Y369364D01*
X447498Y369335D01*
X447509Y369302D01*
X447516Y369262D01*
X447524Y369218D01*
X447535Y369171D01*
X447542Y369120D01*
X447549Y369065D01*
X447556Y369004D01*
X447560Y368938D01*
X447564Y368869D01*
Y368796D01*
Y367340D01*
X447229D01*
Y368796D01*
Y368800D01*
Y368811D01*
Y368829D01*
Y368851D01*
X447225Y368876D01*
Y368909D01*
X447222Y368978D01*
X447214Y369058D01*
X447203Y369138D01*
X447189Y369215D01*
X447182Y369248D01*
X447171Y369280D01*
X447167Y369288D01*
X447160Y369306D01*
X447142Y369331D01*
X447120Y369368D01*
X447094Y369404D01*
X447058Y369444D01*
X447014Y369484D01*
X446963Y369517D01*
X446956Y369520D01*
X446938Y369531D01*
X446905Y369542D01*
X446861Y369557D01*
X446810Y369575D01*
X446745Y369586D01*
X446676Y369597D01*
X446599Y369601D01*
X446563D01*
X446541Y369597D01*
X446508D01*
X446475Y369593D01*
X446395Y369579D01*
X446308Y369561D01*
X446224Y369531D01*
X446144Y369491D01*
X446108Y369466D01*
X446075Y369437D01*
X446071Y369433D01*
X446068Y369429D01*
X446061Y369419D01*
X446049Y369404D01*
X446039Y369382D01*
X446024Y369360D01*
X446009Y369328D01*
X445995Y369295D01*
X445980Y369255D01*
X445969Y369208D01*
X445955Y369153D01*
X445944Y369095D01*
X445933Y369029D01*
X445926Y368960D01*
X445919Y368880D01*
Y368796D01*
Y367340D01*
X445584D01*
Y368796D01*
Y368800D01*
Y368814D01*
Y368833D01*
Y368858D01*
X445587Y368891D01*
Y368927D01*
X445591Y368971D01*
X445595Y369015D01*
X445606Y369113D01*
X445620Y369215D01*
X445642Y369313D01*
X445656Y369360D01*
X445671Y369404D01*
Y369408D01*
X445675Y369415D01*
X445682Y369426D01*
X445689Y369441D01*
X445711Y369480D01*
X445744Y369531D01*
X445787Y369590D01*
X445838Y369648D01*
X445904Y369710D01*
X445984Y369764D01*
X445988D01*
X445995Y369772D01*
X446006Y369775D01*
X446024Y369786D01*
X446046Y369797D01*
X446075Y369808D01*
X446104Y369819D01*
X446140Y369834D01*
X446181Y369848D01*
X446224Y369859D01*
X446272Y369870D01*
X446326Y369881D01*
X446381Y369888D01*
X446439Y369895D01*
X446570Y369903D01*
X446603D01*
X446628Y369899D01*
D02*
G37*
G36*
X444299Y367890D02*
X444302Y367893D01*
X444321Y367908D01*
X444342Y367930D01*
X444379Y367955D01*
X444419Y367988D01*
X444470Y368024D01*
X444528Y368064D01*
X444593Y368105D01*
X444597D01*
X444601Y368108D01*
X444623Y368123D01*
X444659Y368141D01*
X444703Y368163D01*
X444754Y368188D01*
X444808Y368214D01*
X444863Y368239D01*
X444917Y368261D01*
Y367963D01*
X444914D01*
X444907Y367955D01*
X444892Y367952D01*
X444874Y367941D01*
X444852Y367930D01*
X444827Y367915D01*
X444765Y367879D01*
X444692Y367839D01*
X444619Y367788D01*
X444543Y367730D01*
X444466Y367668D01*
X444462Y367664D01*
X444459Y367660D01*
X444448Y367650D01*
X444433Y367639D01*
X444401Y367602D01*
X444357Y367559D01*
X444313Y367508D01*
X444266Y367449D01*
X444226Y367391D01*
X444190Y367329D01*
X443989D01*
Y369859D01*
X444299D01*
Y367890D01*
D02*
G37*
G36*
X442435Y369899D02*
X442464Y369895D01*
X442501Y369888D01*
X442541Y369881D01*
X442584Y369870D01*
X442628Y369855D01*
X442675Y369841D01*
X442723Y369819D01*
X442770Y369794D01*
X442817Y369764D01*
X442865Y369728D01*
X442908Y369688D01*
X442948Y369644D01*
X442952Y369641D01*
X442959Y369630D01*
X442970Y369612D01*
X442988Y369582D01*
X443007Y369550D01*
X443025Y369506D01*
X443050Y369455D01*
X443072Y369397D01*
X443094Y369331D01*
X443116Y369255D01*
X443138Y369171D01*
X443156Y369076D01*
X443174Y368974D01*
X443185Y368865D01*
X443192Y368745D01*
X443196Y368618D01*
Y368614D01*
Y368600D01*
Y368574D01*
Y368545D01*
X443192Y368505D01*
Y368461D01*
X443188Y368414D01*
X443185Y368359D01*
X443174Y368247D01*
X443156Y368126D01*
X443134Y368006D01*
X443119Y367952D01*
X443105Y367897D01*
Y367893D01*
X443101Y367886D01*
X443094Y367872D01*
X443087Y367853D01*
X443079Y367828D01*
X443065Y367802D01*
X443036Y367741D01*
X442999Y367675D01*
X442952Y367606D01*
X442897Y367537D01*
X442832Y367478D01*
X442828D01*
X442825Y367471D01*
X442814Y367464D01*
X442799Y367457D01*
X442781Y367442D01*
X442759Y367431D01*
X442704Y367402D01*
X442639Y367377D01*
X442562Y367351D01*
X442471Y367337D01*
X442373Y367329D01*
X442340D01*
X442300Y367333D01*
X442253Y367340D01*
X442198Y367351D01*
X442140Y367366D01*
X442078Y367384D01*
X442020Y367413D01*
X442016D01*
X442013Y367417D01*
X441995Y367427D01*
X441965Y367446D01*
X441929Y367471D01*
X441889Y367508D01*
X441845Y367548D01*
X441805Y367595D01*
X441765Y367650D01*
X441762Y367657D01*
X441747Y367675D01*
X441733Y367708D01*
X441707Y367755D01*
X441685Y367810D01*
X441656Y367872D01*
X441631Y367944D01*
X441609Y368024D01*
Y368028D01*
X441605Y368035D01*
X441602Y368046D01*
X441598Y368064D01*
X441594Y368086D01*
X441590Y368112D01*
X441583Y368145D01*
X441580Y368181D01*
X441572Y368221D01*
X441569Y368265D01*
X441565Y368316D01*
X441558Y368367D01*
X441554Y368425D01*
Y368483D01*
X441550Y368549D01*
Y368618D01*
Y368621D01*
Y368636D01*
Y368661D01*
Y368691D01*
X441554Y368731D01*
Y368774D01*
X441558Y368822D01*
X441561Y368873D01*
X441572Y368989D01*
X441590Y369109D01*
X441612Y369226D01*
X441627Y369280D01*
X441645Y369335D01*
Y369338D01*
X441649Y369346D01*
X441656Y369360D01*
X441663Y369379D01*
X441671Y369404D01*
X441685Y369429D01*
X441714Y369491D01*
X441751Y369557D01*
X441798Y369630D01*
X441853Y369695D01*
X441918Y369757D01*
X441922D01*
X441925Y369764D01*
X441936Y369772D01*
X441951Y369779D01*
X441969Y369790D01*
X441987Y369804D01*
X442042Y369830D01*
X442107Y369855D01*
X442184Y369881D01*
X442275Y369895D01*
X442373Y369903D01*
X442410D01*
X442435Y369899D01*
D02*
G37*
%LPC*%
G36*
X433097Y72791D02*
X432380D01*
X432304Y72787D01*
X432271Y72784D01*
X432242Y72780D01*
X432238D01*
X432224Y72776D01*
X432202Y72773D01*
X432176Y72765D01*
X432115Y72744D01*
X432053Y72715D01*
X432049Y72711D01*
X432038Y72704D01*
X432023Y72693D01*
X432005Y72678D01*
X431987Y72656D01*
X431962Y72634D01*
X431943Y72605D01*
X431921Y72572D01*
X431918Y72569D01*
X431914Y72558D01*
X431907Y72536D01*
X431896Y72511D01*
X431885Y72482D01*
X431878Y72445D01*
X431874Y72401D01*
X431871Y72358D01*
Y72351D01*
Y72336D01*
X431874Y72307D01*
X431882Y72274D01*
X431889Y72238D01*
X431903Y72198D01*
X431921Y72158D01*
X431947Y72118D01*
X431951Y72114D01*
X431962Y72099D01*
X431976Y72081D01*
X431998Y72059D01*
X432027Y72034D01*
X432063Y72008D01*
X432103Y71987D01*
X432151Y71968D01*
X432158Y71965D01*
X432173Y71961D01*
X432205Y71954D01*
X432245Y71947D01*
X432297Y71939D01*
X432358Y71932D01*
X432435Y71925D01*
X433097D01*
Y72791D01*
D02*
G37*
G36*
Y71626D02*
X432479D01*
X432431Y71623D01*
X432380Y71619D01*
X432329Y71615D01*
X432278Y71608D01*
X432238Y71601D01*
X432231Y71597D01*
X432216Y71593D01*
X432195Y71583D01*
X432165Y71568D01*
X432136Y71553D01*
X432103Y71531D01*
X432071Y71502D01*
X432045Y71473D01*
X432042Y71470D01*
X432034Y71459D01*
X432023Y71437D01*
X432013Y71411D01*
X432002Y71382D01*
X431991Y71346D01*
X431983Y71302D01*
X431980Y71255D01*
Y71248D01*
Y71233D01*
X431983Y71211D01*
X431987Y71182D01*
X431994Y71146D01*
X432005Y71109D01*
X432020Y71073D01*
X432042Y71036D01*
X432045Y71033D01*
X432053Y71022D01*
X432067Y71004D01*
X432085Y70986D01*
X432111Y70964D01*
X432140Y70942D01*
X432176Y70920D01*
X432216Y70905D01*
X432220D01*
X432238Y70898D01*
X432264Y70894D01*
X432304Y70887D01*
X432358Y70880D01*
X432420Y70876D01*
X432500Y70869D01*
X433097D01*
Y71626D01*
D02*
G37*
G36*
X434681Y72878D02*
X434659D01*
X434644Y72875D01*
X434608Y72867D01*
X434557Y72853D01*
X434502Y72827D01*
X434440Y72791D01*
X434411Y72769D01*
X434382Y72740D01*
X434353Y72711D01*
X434324Y72675D01*
Y72671D01*
X434317Y72663D01*
X434309Y72653D01*
X434302Y72634D01*
X434288Y72609D01*
X434277Y72576D01*
X434262Y72540D01*
X434247Y72496D01*
X434237Y72442D01*
X434222Y72383D01*
X434207Y72314D01*
X434197Y72241D01*
X434189Y72154D01*
X434182Y72063D01*
X434175Y71961D01*
Y71848D01*
Y71845D01*
Y71841D01*
Y71823D01*
Y71790D01*
X434178Y71746D01*
Y71699D01*
X434182Y71641D01*
X434186Y71579D01*
X434193Y71510D01*
X434211Y71371D01*
X434222Y71302D01*
X434237Y71237D01*
X434251Y71175D01*
X434273Y71117D01*
X434295Y71066D01*
X434320Y71022D01*
Y71018D01*
X434328Y71015D01*
X434335Y71004D01*
X434346Y70989D01*
X434378Y70956D01*
X434419Y70916D01*
X434473Y70880D01*
X434535Y70847D01*
X434568Y70833D01*
X434604Y70822D01*
X434644Y70818D01*
X434684Y70814D01*
X434706D01*
X434721Y70818D01*
X434761Y70825D01*
X434808Y70836D01*
X434863Y70858D01*
X434921Y70891D01*
X434950Y70913D01*
X434979Y70934D01*
X435005Y70964D01*
X435030Y70996D01*
Y71000D01*
X435037Y71007D01*
X435045Y71022D01*
X435056Y71040D01*
X435067Y71069D01*
X435081Y71102D01*
X435092Y71142D01*
X435107Y71189D01*
X435121Y71244D01*
X435136Y71306D01*
X435150Y71375D01*
X435161Y71451D01*
X435172Y71539D01*
X435179Y71633D01*
X435183Y71735D01*
X435187Y71848D01*
Y71855D01*
Y71874D01*
Y71906D01*
X435183Y71950D01*
Y71997D01*
X435179Y72056D01*
X435176Y72118D01*
X435168Y72183D01*
X435150Y72325D01*
X435139Y72394D01*
X435125Y72460D01*
X435110Y72522D01*
X435088Y72580D01*
X435067Y72631D01*
X435041Y72675D01*
Y72678D01*
X435034Y72682D01*
X435015Y72707D01*
X434983Y72740D01*
X434943Y72776D01*
X434888Y72813D01*
X434826Y72846D01*
X434757Y72871D01*
X434721Y72875D01*
X434681Y72878D01*
D02*
G37*
G36*
X436564Y123159D02*
X436543D01*
X436528Y123156D01*
X436492Y123148D01*
X436441Y123134D01*
X436386Y123108D01*
X436324Y123072D01*
X436295Y123050D01*
X436266Y123021D01*
X436237Y122992D01*
X436208Y122955D01*
Y122952D01*
X436200Y122944D01*
X436193Y122934D01*
X436186Y122915D01*
X436171Y122890D01*
X436160Y122857D01*
X436146Y122821D01*
X436131Y122777D01*
X436120Y122722D01*
X436106Y122664D01*
X436091Y122595D01*
X436080Y122522D01*
X436073Y122435D01*
X436066Y122344D01*
X436058Y122242D01*
Y122129D01*
Y122125D01*
Y122122D01*
Y122104D01*
Y122071D01*
X436062Y122027D01*
Y121980D01*
X436066Y121922D01*
X436069Y121860D01*
X436077Y121791D01*
X436095Y121652D01*
X436106Y121583D01*
X436120Y121518D01*
X436135Y121456D01*
X436157Y121397D01*
X436178Y121347D01*
X436204Y121303D01*
Y121299D01*
X436211Y121296D01*
X436219Y121285D01*
X436230Y121270D01*
X436262Y121237D01*
X436302Y121197D01*
X436357Y121161D01*
X436419Y121128D01*
X436451Y121114D01*
X436488Y121103D01*
X436528Y121099D01*
X436568Y121095D01*
X436590D01*
X436604Y121099D01*
X436644Y121106D01*
X436692Y121117D01*
X436746Y121139D01*
X436805Y121172D01*
X436834Y121194D01*
X436863Y121215D01*
X436888Y121245D01*
X436914Y121277D01*
Y121281D01*
X436921Y121288D01*
X436928Y121303D01*
X436939Y121321D01*
X436950Y121350D01*
X436965Y121383D01*
X436976Y121423D01*
X436990Y121470D01*
X437005Y121525D01*
X437019Y121587D01*
X437034Y121656D01*
X437045Y121732D01*
X437056Y121820D01*
X437063Y121914D01*
X437067Y122016D01*
X437070Y122129D01*
Y122136D01*
Y122155D01*
Y122187D01*
X437067Y122231D01*
Y122278D01*
X437063Y122337D01*
X437059Y122398D01*
X437052Y122464D01*
X437034Y122606D01*
X437023Y122675D01*
X437008Y122741D01*
X436994Y122802D01*
X436972Y122861D01*
X436950Y122912D01*
X436925Y122955D01*
Y122959D01*
X436917Y122963D01*
X436899Y122988D01*
X436867Y123021D01*
X436827Y123057D01*
X436772Y123094D01*
X436710Y123126D01*
X436641Y123152D01*
X436604Y123156D01*
X436564Y123159D01*
D02*
G37*
G36*
X436350Y170920D02*
X435753D01*
X435728Y170916D01*
X435673Y170912D01*
X435611Y170909D01*
X435546Y170901D01*
X435480Y170890D01*
X435426Y170876D01*
X435419Y170872D01*
X435400Y170869D01*
X435375Y170858D01*
X435342Y170843D01*
X435306Y170821D01*
X435269Y170800D01*
X435233Y170774D01*
X435196Y170745D01*
X435193Y170738D01*
X435178Y170723D01*
X435156Y170698D01*
X435131Y170661D01*
X435102Y170614D01*
X435069Y170559D01*
X435040Y170497D01*
X435014Y170428D01*
Y170425D01*
X435011Y170417D01*
X435007Y170406D01*
X435004Y170392D01*
X435000Y170374D01*
X434993Y170348D01*
X434985Y170323D01*
X434978Y170293D01*
X434967Y170221D01*
X434956Y170137D01*
X434949Y170042D01*
X434945Y169940D01*
Y169937D01*
Y169922D01*
Y169904D01*
X434949Y169875D01*
Y169842D01*
X434953Y169806D01*
X434956Y169762D01*
X434960Y169718D01*
X434978Y169620D01*
X435000Y169518D01*
X435033Y169424D01*
X435054Y169376D01*
X435076Y169336D01*
Y169333D01*
X435084Y169325D01*
X435091Y169314D01*
X435098Y169300D01*
X435127Y169263D01*
X435164Y169220D01*
X435211Y169172D01*
X435266Y169125D01*
X435327Y169085D01*
X435393Y169052D01*
X435400Y169049D01*
X435419Y169045D01*
X435451Y169034D01*
X435499Y169023D01*
X435557Y169016D01*
X435630Y169005D01*
X435673Y169001D01*
X435721D01*
X435768Y168998D01*
X436350D01*
Y170920D01*
D02*
G37*
G36*
X437948Y171007D02*
X437926D01*
X437912Y171003D01*
X437876Y170996D01*
X437824Y170982D01*
X437770Y170956D01*
X437708Y170920D01*
X437679Y170898D01*
X437650Y170869D01*
X437621Y170840D01*
X437592Y170803D01*
Y170800D01*
X437584Y170792D01*
X437577Y170781D01*
X437570Y170763D01*
X437555Y170738D01*
X437544Y170705D01*
X437530Y170668D01*
X437515Y170625D01*
X437504Y170570D01*
X437490Y170512D01*
X437475Y170443D01*
X437464Y170370D01*
X437457Y170283D01*
X437450Y170192D01*
X437442Y170090D01*
Y169977D01*
Y169973D01*
Y169970D01*
Y169951D01*
Y169919D01*
X437446Y169875D01*
Y169828D01*
X437450Y169769D01*
X437453Y169708D01*
X437461Y169638D01*
X437479Y169500D01*
X437490Y169431D01*
X437504Y169365D01*
X437519Y169303D01*
X437541Y169245D01*
X437562Y169194D01*
X437588Y169151D01*
Y169147D01*
X437595Y169143D01*
X437603Y169132D01*
X437613Y169118D01*
X437646Y169085D01*
X437686Y169045D01*
X437741Y169009D01*
X437803Y168976D01*
X437836Y168961D01*
X437872Y168950D01*
X437912Y168947D01*
X437952Y168943D01*
X437974D01*
X437988Y168947D01*
X438028Y168954D01*
X438076Y168965D01*
X438130Y168987D01*
X438189Y169019D01*
X438218Y169041D01*
X438247Y169063D01*
X438272Y169092D01*
X438298Y169125D01*
Y169129D01*
X438305Y169136D01*
X438312Y169151D01*
X438323Y169169D01*
X438334Y169198D01*
X438349Y169231D01*
X438360Y169271D01*
X438374Y169318D01*
X438389Y169373D01*
X438403Y169434D01*
X438418Y169504D01*
X438429Y169580D01*
X438440Y169667D01*
X438447Y169762D01*
X438451Y169864D01*
X438454Y169977D01*
Y169984D01*
Y170002D01*
Y170035D01*
X438451Y170079D01*
Y170126D01*
X438447Y170184D01*
X438443Y170246D01*
X438436Y170312D01*
X438418Y170454D01*
X438407Y170523D01*
X438392Y170588D01*
X438378Y170650D01*
X438356Y170709D01*
X438334Y170759D01*
X438309Y170803D01*
Y170807D01*
X438301Y170810D01*
X438283Y170836D01*
X438250Y170869D01*
X438210Y170905D01*
X438156Y170941D01*
X438094Y170974D01*
X438025Y171000D01*
X437988Y171003D01*
X437948Y171007D01*
D02*
G37*
G36*
X432675Y25370D02*
X431824D01*
X432086Y24679D01*
Y24675D01*
X432089Y24664D01*
X432097Y24646D01*
X432104Y24624D01*
X432115Y24599D01*
X432126Y24566D01*
X432137Y24530D01*
X432151Y24493D01*
X432180Y24409D01*
X432209Y24322D01*
X432239Y24235D01*
X432264Y24151D01*
Y24155D01*
X432268Y24162D01*
Y24177D01*
X432275Y24191D01*
X432279Y24217D01*
X432286Y24242D01*
X432301Y24304D01*
X432319Y24377D01*
X432344Y24457D01*
X432370Y24544D01*
X432402Y24635D01*
X432675Y25370D01*
D02*
G37*
G36*
X434386Y26197D02*
X434364D01*
X434350Y26193D01*
X434313Y26186D01*
X434262Y26171D01*
X434208Y26146D01*
X434146Y26109D01*
X434117Y26088D01*
X434088Y26058D01*
X434059Y26029D01*
X434029Y25993D01*
Y25989D01*
X434022Y25982D01*
X434015Y25971D01*
X434008Y25953D01*
X433993Y25927D01*
X433982Y25895D01*
X433968Y25858D01*
X433953Y25815D01*
X433942Y25760D01*
X433928Y25702D01*
X433913Y25633D01*
X433902Y25560D01*
X433895Y25472D01*
X433887Y25381D01*
X433880Y25280D01*
Y25167D01*
Y25163D01*
Y25159D01*
Y25141D01*
Y25108D01*
X433884Y25065D01*
Y25017D01*
X433887Y24959D01*
X433891Y24897D01*
X433898Y24828D01*
X433917Y24690D01*
X433928Y24621D01*
X433942Y24555D01*
X433957Y24493D01*
X433979Y24435D01*
X434000Y24384D01*
X434026Y24340D01*
Y24337D01*
X434033Y24333D01*
X434040Y24322D01*
X434051Y24308D01*
X434084Y24275D01*
X434124Y24235D01*
X434179Y24198D01*
X434241Y24166D01*
X434273Y24151D01*
X434310Y24140D01*
X434350Y24137D01*
X434390Y24133D01*
X434412D01*
X434426Y24137D01*
X434466Y24144D01*
X434514Y24155D01*
X434568Y24177D01*
X434626Y24209D01*
X434656Y24231D01*
X434685Y24253D01*
X434710Y24282D01*
X434736Y24315D01*
Y24318D01*
X434743Y24326D01*
X434750Y24340D01*
X434761Y24359D01*
X434772Y24388D01*
X434787Y24420D01*
X434797Y24461D01*
X434812Y24508D01*
X434827Y24562D01*
X434841Y24624D01*
X434856Y24693D01*
X434867Y24770D01*
X434878Y24857D01*
X434885Y24952D01*
X434889Y25054D01*
X434892Y25167D01*
Y25174D01*
Y25192D01*
Y25225D01*
X434889Y25269D01*
Y25316D01*
X434885Y25374D01*
X434881Y25436D01*
X434874Y25501D01*
X434856Y25644D01*
X434845Y25713D01*
X434830Y25778D01*
X434816Y25840D01*
X434794Y25898D01*
X434772Y25949D01*
X434747Y25993D01*
Y25997D01*
X434739Y26000D01*
X434721Y26026D01*
X434688Y26058D01*
X434648Y26095D01*
X434594Y26131D01*
X434532Y26164D01*
X434463Y26190D01*
X434426Y26193D01*
X434386Y26197D01*
D02*
G37*
G36*
X440613Y221720D02*
X440591D01*
X440577Y221716D01*
X440540Y221709D01*
X440489Y221694D01*
X440435Y221669D01*
X440373Y221632D01*
X440344Y221610D01*
X440314Y221581D01*
X440285Y221552D01*
X440256Y221516D01*
Y221512D01*
X440249Y221505D01*
X440242Y221494D01*
X440234Y221476D01*
X440220Y221450D01*
X440209Y221417D01*
X440194Y221381D01*
X440180Y221337D01*
X440169Y221283D01*
X440154Y221225D01*
X440140Y221155D01*
X440129Y221083D01*
X440122Y220995D01*
X440114Y220904D01*
X440107Y220802D01*
Y220690D01*
Y220686D01*
Y220682D01*
Y220664D01*
Y220631D01*
X440111Y220588D01*
Y220540D01*
X440114Y220482D01*
X440118Y220420D01*
X440125Y220351D01*
X440143Y220213D01*
X440154Y220144D01*
X440169Y220078D01*
X440183Y220016D01*
X440205Y219958D01*
X440227Y219907D01*
X440253Y219863D01*
Y219860D01*
X440260Y219856D01*
X440267Y219845D01*
X440278Y219830D01*
X440311Y219798D01*
X440351Y219758D01*
X440406Y219721D01*
X440467Y219689D01*
X440500Y219674D01*
X440536Y219663D01*
X440577Y219659D01*
X440617Y219656D01*
X440638D01*
X440653Y219659D01*
X440693Y219667D01*
X440740Y219678D01*
X440795Y219699D01*
X440853Y219732D01*
X440882Y219754D01*
X440911Y219776D01*
X440937Y219805D01*
X440962Y219838D01*
Y219841D01*
X440970Y219849D01*
X440977Y219863D01*
X440988Y219881D01*
X440999Y219911D01*
X441013Y219943D01*
X441024Y219983D01*
X441039Y220031D01*
X441053Y220085D01*
X441068Y220147D01*
X441082Y220216D01*
X441093Y220293D01*
X441104Y220380D01*
X441112Y220475D01*
X441115Y220577D01*
X441119Y220690D01*
Y220697D01*
Y220715D01*
Y220748D01*
X441115Y220791D01*
Y220839D01*
X441112Y220897D01*
X441108Y220959D01*
X441101Y221024D01*
X441082Y221166D01*
X441072Y221235D01*
X441057Y221301D01*
X441043Y221363D01*
X441021Y221421D01*
X440999Y221472D01*
X440973Y221516D01*
Y221519D01*
X440966Y221523D01*
X440948Y221549D01*
X440915Y221581D01*
X440875Y221618D01*
X440821Y221654D01*
X440759Y221687D01*
X440689Y221712D01*
X440653Y221716D01*
X440613Y221720D01*
D02*
G37*
G36*
X439957Y269520D02*
X439935D01*
X439921Y269516D01*
X439884Y269509D01*
X439833Y269494D01*
X439779Y269469D01*
X439717Y269432D01*
X439688Y269410D01*
X439659Y269381D01*
X439630Y269352D01*
X439600Y269316D01*
Y269312D01*
X439593Y269305D01*
X439586Y269294D01*
X439578Y269276D01*
X439564Y269250D01*
X439553Y269217D01*
X439538Y269181D01*
X439524Y269137D01*
X439513Y269083D01*
X439498Y269025D01*
X439484Y268955D01*
X439473Y268883D01*
X439466Y268795D01*
X439458Y268704D01*
X439451Y268602D01*
Y268490D01*
Y268486D01*
Y268482D01*
Y268464D01*
Y268431D01*
X439455Y268388D01*
Y268340D01*
X439458Y268282D01*
X439462Y268220D01*
X439469Y268151D01*
X439488Y268013D01*
X439498Y267944D01*
X439513Y267878D01*
X439528Y267816D01*
X439549Y267758D01*
X439571Y267707D01*
X439597Y267663D01*
Y267660D01*
X439604Y267656D01*
X439611Y267645D01*
X439622Y267630D01*
X439655Y267598D01*
X439695Y267558D01*
X439750Y267521D01*
X439812Y267489D01*
X439844Y267474D01*
X439881Y267463D01*
X439921Y267459D01*
X439961Y267456D01*
X439983D01*
X439997Y267459D01*
X440037Y267467D01*
X440085Y267478D01*
X440139Y267499D01*
X440197Y267532D01*
X440226Y267554D01*
X440256Y267576D01*
X440281Y267605D01*
X440307Y267638D01*
Y267641D01*
X440314Y267649D01*
X440321Y267663D01*
X440332Y267681D01*
X440343Y267710D01*
X440357Y267743D01*
X440368Y267783D01*
X440383Y267831D01*
X440398Y267885D01*
X440412Y267947D01*
X440427Y268016D01*
X440438Y268093D01*
X440449Y268180D01*
X440456Y268275D01*
X440459Y268377D01*
X440463Y268490D01*
Y268497D01*
Y268515D01*
Y268548D01*
X440459Y268591D01*
Y268639D01*
X440456Y268697D01*
X440452Y268759D01*
X440445Y268824D01*
X440427Y268966D01*
X440416Y269036D01*
X440401Y269101D01*
X440387Y269163D01*
X440365Y269221D01*
X440343Y269272D01*
X440317Y269316D01*
Y269319D01*
X440310Y269323D01*
X440292Y269349D01*
X440259Y269381D01*
X440219Y269418D01*
X440165Y269454D01*
X440103Y269487D01*
X440033Y269512D01*
X439997Y269516D01*
X439957Y269520D01*
D02*
G37*
G36*
X440613Y320720D02*
X440591D01*
X440577Y320716D01*
X440540Y320709D01*
X440489Y320694D01*
X440435Y320669D01*
X440373Y320632D01*
X440344Y320610D01*
X440314Y320581D01*
X440285Y320552D01*
X440256Y320516D01*
Y320512D01*
X440249Y320505D01*
X440242Y320494D01*
X440234Y320476D01*
X440220Y320450D01*
X440209Y320417D01*
X440194Y320381D01*
X440180Y320337D01*
X440169Y320283D01*
X440154Y320225D01*
X440140Y320155D01*
X440129Y320083D01*
X440122Y319995D01*
X440114Y319904D01*
X440107Y319802D01*
Y319689D01*
Y319686D01*
Y319682D01*
Y319664D01*
Y319631D01*
X440111Y319588D01*
Y319540D01*
X440114Y319482D01*
X440118Y319420D01*
X440125Y319351D01*
X440143Y319213D01*
X440154Y319144D01*
X440169Y319078D01*
X440183Y319016D01*
X440205Y318958D01*
X440227Y318907D01*
X440253Y318863D01*
Y318860D01*
X440260Y318856D01*
X440267Y318845D01*
X440278Y318830D01*
X440311Y318798D01*
X440351Y318758D01*
X440406Y318721D01*
X440467Y318689D01*
X440500Y318674D01*
X440536Y318663D01*
X440577Y318659D01*
X440617Y318656D01*
X440638D01*
X440653Y318659D01*
X440693Y318667D01*
X440740Y318678D01*
X440795Y318699D01*
X440853Y318732D01*
X440882Y318754D01*
X440911Y318776D01*
X440937Y318805D01*
X440962Y318838D01*
Y318841D01*
X440970Y318849D01*
X440977Y318863D01*
X440988Y318881D01*
X440999Y318911D01*
X441013Y318943D01*
X441024Y318983D01*
X441039Y319031D01*
X441053Y319085D01*
X441068Y319147D01*
X441082Y319216D01*
X441093Y319293D01*
X441104Y319380D01*
X441112Y319475D01*
X441115Y319577D01*
X441119Y319689D01*
Y319697D01*
Y319715D01*
Y319748D01*
X441115Y319791D01*
Y319839D01*
X441112Y319897D01*
X441108Y319959D01*
X441101Y320024D01*
X441082Y320166D01*
X441072Y320235D01*
X441057Y320301D01*
X441043Y320363D01*
X441021Y320421D01*
X440999Y320472D01*
X440973Y320516D01*
Y320519D01*
X440966Y320523D01*
X440948Y320549D01*
X440915Y320581D01*
X440875Y320618D01*
X440821Y320654D01*
X440759Y320687D01*
X440689Y320712D01*
X440653Y320716D01*
X440613Y320720D01*
D02*
G37*
G36*
X442373Y369648D02*
X442351D01*
X442337Y369644D01*
X442300Y369637D01*
X442249Y369622D01*
X442195Y369597D01*
X442133Y369561D01*
X442104Y369539D01*
X442075Y369510D01*
X442046Y369480D01*
X442016Y369444D01*
Y369441D01*
X442009Y369433D01*
X442002Y369422D01*
X441995Y369404D01*
X441980Y369379D01*
X441969Y369346D01*
X441955Y369309D01*
X441940Y369266D01*
X441929Y369211D01*
X441915Y369153D01*
X441900Y369084D01*
X441889Y369011D01*
X441882Y368924D01*
X441875Y368833D01*
X441867Y368731D01*
Y368618D01*
Y368614D01*
Y368611D01*
Y368592D01*
Y368560D01*
X441871Y368516D01*
Y368469D01*
X441875Y368410D01*
X441878Y368349D01*
X441885Y368279D01*
X441904Y368141D01*
X441915Y368072D01*
X441929Y368006D01*
X441944Y367944D01*
X441965Y367886D01*
X441987Y367835D01*
X442013Y367792D01*
Y367788D01*
X442020Y367784D01*
X442027Y367773D01*
X442038Y367759D01*
X442071Y367726D01*
X442111Y367686D01*
X442166Y367650D01*
X442228Y367617D01*
X442260Y367602D01*
X442297Y367591D01*
X442337Y367588D01*
X442377Y367584D01*
X442399D01*
X442413Y367588D01*
X442453Y367595D01*
X442501Y367606D01*
X442555Y367628D01*
X442613Y367660D01*
X442642Y367682D01*
X442672Y367704D01*
X442697Y367733D01*
X442723Y367766D01*
Y367770D01*
X442730Y367777D01*
X442737Y367792D01*
X442748Y367810D01*
X442759Y367839D01*
X442773Y367872D01*
X442785Y367912D01*
X442799Y367959D01*
X442814Y368014D01*
X442828Y368075D01*
X442843Y368145D01*
X442854Y368221D01*
X442865Y368308D01*
X442872Y368403D01*
X442875Y368505D01*
X442879Y368618D01*
Y368625D01*
Y368643D01*
Y368676D01*
X442875Y368720D01*
Y368767D01*
X442872Y368825D01*
X442868Y368887D01*
X442861Y368953D01*
X442843Y369095D01*
X442832Y369164D01*
X442817Y369229D01*
X442803Y369291D01*
X442781Y369349D01*
X442759Y369400D01*
X442733Y369444D01*
Y369448D01*
X442726Y369451D01*
X442708Y369477D01*
X442675Y369510D01*
X442635Y369546D01*
X442581Y369582D01*
X442519Y369615D01*
X442450Y369641D01*
X442413Y369644D01*
X442373Y369648D01*
D02*
G37*
%LPD*%
D13*
X-38814Y268783D02*
G03*
X-34877Y272721I0J3937D01*
G01*
X-29445Y107563D02*
G03*
X-27870Y109138I0J1575D01*
G01*
Y284925D02*
G03*
X-29445Y286500I-1575J0D01*
G01*
X-34877Y121343D02*
G03*
X-38814Y125279I-3937J0D01*
G01*
X-23933Y115437D02*
G03*
X-27870Y111500I0J-3937D01*
G01*
Y282563D02*
G03*
X-23933Y278626I3937J0D01*
G01*
X-38028Y186008D02*
G03*
X-38028Y195457I0J4724D01*
G01*
X8001Y393701D02*
G03*
X0Y385700I0J-8001D01*
G01*
X-0Y7900D02*
G03*
X8100Y0I8000J100D01*
G01*
X547638D02*
G03*
X555669Y8032I0J8032D01*
G01*
Y385669D02*
G03*
X547638Y393701I-8032J0D01*
G01*
X-58500Y125279D02*
X-55431D01*
X-58500Y268783D02*
X-55431D01*
X-27870Y109138D02*
Y111500D01*
Y282563D02*
Y284925D01*
X-34877Y272721D02*
Y286500D01*
Y107563D02*
Y121343D01*
Y107563D02*
X-29445D01*
X-34877Y286500D02*
X-29445D01*
X-55431Y125279D02*
X-38814D01*
X-55431Y268783D02*
X-38814D01*
X-23933Y115437D02*
X-75D01*
X-58500Y125279D02*
Y186008D01*
Y195457D02*
Y268783D01*
Y186008D02*
X-55431D01*
X-58500Y195457D02*
X-55431D01*
Y186008D02*
X-38028D01*
X-55431Y195457D02*
X-38028D01*
X-75Y115437D02*
X-0D01*
Y7900D02*
Y115437D01*
X-23933Y278626D02*
X0D01*
Y385700D01*
X8100Y0D02*
X547638D01*
X8001Y393701D02*
X547638D01*
X555669Y8032D02*
Y385669D01*
X13215Y218684D02*
Y216716D01*
X13609Y216323D01*
X14396D01*
X14789Y216716D01*
Y218684D01*
X17151Y216323D02*
X15576D01*
X17151Y217897D01*
Y218291D01*
X16757Y218684D01*
X15970D01*
X15576Y218291D01*
M02*
