M48
;Layer_Color=9474304
;FILE_FORMAT=2:4
INCH,TZ
;TYPE=PLATED
T1F00S00C0.0118
T2F00S00C0.0354
T3F00S00C0.0400
T4F00S00C0.0630
;TYPE=NON_PLATED
T5F00S00C0.1280
T6F00S00C0.1339
%
T01
X1330Y3390
X6456Y1223
X11540Y3069
X12000Y3148
X16510Y1180
X25370Y2479
X26704Y2266
X26703Y1700
X26950Y900
X30218Y847
X31287
X32756Y871
X32960Y2139
X35150Y1410
X35834Y1166
X36430Y1500
X37610Y1600
Y1058
X35830Y3335
X30758Y2979
X29611Y3033
X39708Y2762
X40500Y2391
X40101Y1868
X39258Y1240
X43730Y1109
X44180
X44869Y1410
X46247Y1951
X46833
X46927Y1605
X46833Y3349
X43730Y2322
Y410
X51838Y3232
X47990Y4570
X48050Y5645
X48554Y6405
X48564Y7045
X46927
X46292Y6925
X46338Y8540
X46887Y8384
X46833Y11881
X46286Y11813
X45002Y11440
X44243Y11151
X43730Y11350
Y7532
Y6342
X44243Y6200
X44953Y6540
X46138Y3441
X39742Y4060
X40090Y4420
X40229Y6925
X40600Y7511
X39708Y7898
X39721Y9209
X40229Y9373
X40235Y11881
X40600Y12423
X39720Y12804
X39811Y14220
X40235Y14470
X40141Y16742
X40500Y17292
X39708Y17663
X39606Y19030
X43757Y16411
X44150Y15972
X44890Y16252
X46194Y16761
X46794Y16742
X46776Y18153
X46215Y18342
X46338Y13482
X46794Y13293
X38380Y13695
Y14185
X36533Y13816
X35963Y13305
X35333Y13816
X35967Y12004
X36529Y11440
X35355Y11350
Y8946
X35963Y8443
X36529Y8911
X38380Y8717
Y9230
X37261Y10548
X37710Y11640
X37163Y15396
X36518Y16252
X35885Y16910
X35870Y18192
X36425Y18746
X35223
X35201Y16252
X37620Y16463
X38314Y18564
X32727Y18766
X32607Y18273
X32715Y16924
X32727Y15396
X32680Y13816
X32602Y13264
X32715Y12004
X32660Y10548
X31185Y10677
X30027Y10484
X29713Y7984
X30850Y7952
X32679Y8476
X32756Y8946
X32887Y7134
X32817Y5630
X32756Y4021
X32680Y3653
X35200Y3792
X36430Y3900
X38340Y4106
X38330Y3493
X37271Y5668
X37710Y6691
X36566Y6490
X35978Y7134
X35333Y6600
X31315Y5860
X30218Y5630
X29190Y4730
X28105Y3493
X26753Y3653
X26754Y5459
X26848Y6674
X26754Y7230
X28047Y8501
X27510Y12096
X26703Y11542
X23920
X23935Y14411
X25017Y15405
X25380Y15910
X25730Y16170
X25990Y16450
X27105Y16036
Y17530
X27915Y18273
X29498Y17842
X30636Y17736
X30348Y17012
X30027Y15547
X31155Y15607
X30716Y12831
X29585Y12876
X27945Y13483
X25960Y17998
X23935Y19042
X23850Y16700
X21290Y16340
X19150Y17440
X17970Y17180
X17800Y16527
X17214Y16100
X15533
X16690Y17590
X19096Y15251
X18084Y13753
X17741Y13239
X17318
X19108Y12318
X18810Y10644
X17822Y9990
X16974
X16188Y10199
X15820Y10727
X15215Y10199
X14620
Y11503
X16212Y7211
X17214Y5459
X18480Y9280
X22010Y9090
X21760Y12660
X11540Y3470
X5080Y3520
Y4030
X5470
X5577Y9490
X5952Y11366
X6206Y12208
X3149Y10650
X2660Y10670
X2362Y9490
X1710Y9620
X1423Y9775
X1310Y9490
X1250Y9090
X1610Y9230
X950Y10544
X936Y13228
X590Y13543
X2036Y13858
X-2133Y12708
X-2501Y12972
X-2497Y12180
X-2840
Y12470
X-4096Y13566
Y14488
Y15433
Y16378
Y17323
Y18268
X-3137Y17953
X-3066Y17638
X-3114Y16693
X-4096Y20472
X-4108Y21417
Y22319
X-3390Y22510
X-3477Y22783
X-4129Y23291
X-4096Y24252
Y24874
Y25512
X-3966Y25827
X-4096Y26142
Y26450
X-1685Y21732
X-1482Y21935
X179Y23391
X381Y23189
X980Y22979
X1182Y22777
X-148Y19913
X-180Y19580
X9446Y23572
Y23858
X8686Y24362
Y24648
X10350Y23061
Y22775
X11902Y21612
X11700Y21410
X18172Y21384
Y21670
X18380Y22610
Y22896
X18334Y23572
Y23858
X18021Y24362
Y24648
X17993Y25699
X17982Y25996
X17970Y26682
X17975Y27067
X18048Y27818
X18271Y28088
X18297Y28667
Y28953
X22584Y27872
X21436Y25590
X21410Y20400
X21710Y20208
X22000Y20220
X22290Y20170
X22780Y21466
X19244Y19760
X10305Y32005
X25510Y31180
X26150Y29840
X27155Y30468
Y31882
X27995Y32863
X29581Y32214
X30728Y32188
X30308Y31222
X30070Y29829
X31205Y30047
X32699Y29870
X32735Y28392
Y27872
X32756Y26482
X32806Y24999
X32727Y23486
X32650Y23073
X32727Y21674
X32756Y20140
X31225Y20411
X30218Y20170
X30476Y21801
X30727Y22506
X29575Y22532
X27995Y23093
X27155Y22270
X27220Y20768
X25470Y21801
X25214Y22418
X24543Y22186
X24221Y21462
X23092Y22160
Y23486
X23557Y23514
X24992Y23688
X24886Y24268
Y24803
X23679Y25220
Y25590
X23714Y27364
X24886Y27721
X24720Y28560
X25292Y26377
X25582Y26104
X27225Y25609
X27235Y27257
X28075Y27960
X29651Y27371
X30785Y27330
X30596Y26655
X30188Y25059
X31225Y24803
X35174Y25659
X35819Y26289
X36400Y25740
X37620Y25942
X37098Y24803
X36440Y23368
X35870Y22846
X35262Y23453
X35885Y21630
X36440Y20940
X35240
X37620Y21162
X37170Y20060
X38314Y19061
Y23286
Y23786
Y27981
Y28535
X36370Y28171
X35804Y27689
X35136Y28233
X35223Y30908
X35870Y31466
X36440Y30790
X37620Y31062
X37163Y30047
X36440Y33244
X35885Y32746
X35201Y33326
X32735Y33182
X32548Y32683
X32862Y31370
X32914Y34600
X30070Y34630
X38380Y33572
X38314Y33021
X26348Y24230
X39606Y23770
X40150Y23950
X39708Y22376
X40500Y21963
X40137Y21406
X40141Y19145
X44059Y20701
X43790Y21291
X44890Y21040
X46178Y21363
X46674
X46653Y22882
X46178Y23032
Y26143
X46674
X46653Y27620
X46129Y27812
X44843Y25740
X43959Y25481
X43790Y25961
X40031Y26205
X40500Y26724
X39708Y27156
X39606Y28535
X40071Y28709
X40116Y31351
X40500Y31886
X39745Y32295
Y33572
X40141Y33870
X43959Y30934
X44177Y30562
X44909Y30908
X46260Y31245
X46813Y31263
X46794Y32802
X46260Y32932
X50920Y33015
X52000Y33001
X53150Y32380
X54040Y33015
X54050Y29600
X52253Y29215
X52404Y30673
X51480Y30810
X50691Y31816
X50370Y35260
X50830Y35920
X51972Y35494
X52610Y35880
X53400Y36124
X51790Y37860
X51398Y38069
X51790Y38464
X46936Y37636
X46410Y37825
X46389Y36156
X46948
X46936Y35585
X47056Y34874
X46410Y35110
X45052Y35840
X44297Y35455
X43959Y35958
X40313Y36244
X40700Y36809
X39811Y37151
Y38578
X40353Y38628
X38417Y38578
X38405Y37912
X37620Y38490
X36616Y38167
X36061Y37613
X35377Y38075
X34640Y38210
X32914Y37960
X32806Y37443
X32756Y36134
X30798Y36939
X29711
X27995Y37443
X26701Y35946
X27235Y35126
X31285Y34807
X35377Y35759
X36606Y35674
X36911Y35940
X36046Y36423
X37399Y34874
X19426Y35228
X17624Y36817
X14340Y36800
Y35690
X11660Y35760
X10305Y36407
X7890Y36882
X7900Y37730
X1100Y36140
X680Y36200
Y36546
T02
X52700Y16160
Y16960
Y17760
Y18560
X53400Y18960
Y18160
Y17360
Y16560
Y22760
Y23560
Y24360
Y25160
X52700Y24760
Y23960
Y23160
Y22360
T03
X50750Y5540
X51750
Y6540
Y7540
Y8540
Y9540
Y10540
Y11540
Y12540
X50750
Y11540
Y10540
Y9540
Y8540
Y7540
Y6540
T04
X53050Y14360
Y26960
T05
X54400Y15060
Y26260
T06
X53960Y2070
X54040Y37530
M30
